<?xml version="1.0" standalone="no"?>
<!DOCTYPE svg PUBLIC "-//W3C//DTD SVG 1.1//EN" "http://www.w3.org/Graphics/SVG/1.1/DTD/svg11.dtd" >
<svg xmlns="http://www.w3.org/2000/svg" xmlns:xlink="http://www.w3.org/1999/xlink" version="1.1">
<metadata>
Created by FontForge 20170731 at Fri Mar 12 14:53:55 2021
 By Aleksey,,,
Copyright 1996-2012 LTR Federal by Erik van Blokland, LettError Type and Typography
</metadata>
<defs>
<font id="FederalSix-Bevel" horiz-adv-x="2048" >
  <font-face 
    font-family="Federal6Bv"
    font-weight="400"
    font-stretch="normal"
    units-per-em="2048"
    panose-1="2 0 6 7 3 0 0 2 0 4"
    ascent="1536"
    descent="-512"
    x-height="1309"
    cap-height="1726"
    bbox="-874 -1102 5057 2400"
    underline-thickness="40"
    underline-position="-359"
    unicode-range="U+000D-FB02"
  />
<missing-glyph horiz-adv-x="1024" 
 />
    <glyph glyph-name=".notdef" horiz-adv-x="1024" 
 />
    <glyph glyph-name=".null" horiz-adv-x="0" 
 />
    <glyph glyph-name="nonmarkingreturn" horiz-adv-x="682" 
 />
    <glyph glyph-name="CR" unicode="&#xd;" 
 />
    <glyph glyph-name="space" unicode=" " horiz-adv-x="479" 
 />
    <glyph glyph-name="exclam" unicode="!" horiz-adv-x="1226" 
d="M1243 301q236 -254 236 -481q0 -102 -42.5 -181.5t-115 -127t-161.5 -71.5t-189 -24q-148 0 -306 61t-276 179q-276 279 -276 522q0 156 90.5 259t230.5 143l-188 186q-110 108 -176 225t-66 258q0 69 24.5 135.5t76 127.5t124.5 107t177.5 73.5t226.5 27.5
q210 0 382 -76t335 -241q139 -141 199.5 -278.5t60.5 -254.5q0 -129 -72 -254t-182 -219z" />
    <glyph glyph-name="quotedbl" unicode="&#x22;" horiz-adv-x="1955" 
d="M2308 1184q-56 -36 -93.5 -76.5t-57 -92.5t-28 -103t-8 -127t4.5 -143.5t9 -174t5 -197.5l-325 -114l-308 110l-280 281q0 -18 1 -132.5t1 -144.5l-326 -114l-307 110l-373 373q0 64 1 153.5t1.5 141.5t0 122.5t-4.5 112.5t-10.5 94t-19 85.5t-30 69t-42.5 61.5t-58 47
l101 194h768l94 -94l49 94h768l369 -370z" />
    <glyph glyph-name="numbersign" unicode="#" horiz-adv-x="2275" 
d="M2769 977l-29 -387h-35l64 -64q-37 -465 -41 -514h-592l-43 -481h-342l-199 197l-16 -197h-340l-176 176l-16 -176h-342l-390 389l2 25q14 3 13 1l-27 -12q-383 384 -399 400l35 397h34l-65 66q33 459 37 508h495q3 34 13.5 139.5t19.5 195t10 105.5h344l177 -176
q7 107 16 176h344l190 -191q2 19 10.5 103t8.5 88h344l393 -391l109 16z" />
    <glyph glyph-name="dollar" unicode="$" horiz-adv-x="2818" 
d="M3095 649h-54q58 -58 102 -155.5t44 -204.5q0 -236 -153.5 -406t-435.5 -260t-675 -102l21 -207h-336l-242 244q-346 70 -623 256q-73 -97 -216 -177t-240 -71l-379 377l108 714h105q-121 165 -121 344q0 191 86.5 334t252 233.5t392.5 137.5t520 53l-20 207h336
l235 -235q160 -29 295.5 -84.5t226.5 -122.5q92 86 211 131.5t342 75.5l379 -381z" />
    <glyph glyph-name="percent" unicode="%" horiz-adv-x="3065" 
d="M3187 1409l184 -313l-264 -103l-293 -170q121 -50 226 -128t176.5 -163t123 -174.5t75.5 -167t24 -137.5q0 -114 -55 -210.5t-160 -169t-270.5 -113.5t-375.5 -41q-419 0 -707.5 132.5t-420.5 385.5l-666 -381l-211 -176l-380 381l-183 325l262 103q242 139 303 174
q-262 105 -433 313.5t-171 440.5q0 117 48 213t148 171.5t269 117.5t395 42q249 0 411.5 -44.5t279.5 -127.5q69 -49 174 -74.5t215 -25.5q180 0 396 70t505 229z" />
    <glyph glyph-name="ampersand" unicode="&#x26;" horiz-adv-x="3198" 
d="M3484 96l110 -102q-70 -143 -151.5 -232t-208.5 -145t-293.5 -77t-419.5 -21q-336 0 -526 67q-153 -67 -467 -67q-375 0 -623.5 31.5t-396 91.5t-250.5 161q-285 280 -285 559q0 340 496 418q-35 106 -35 252q0 189 63.5 320.5t197.5 213t329 118t471 36.5
q150 0 270.5 -16t203 -41t156 -68t120 -82.5t104.5 -99.5q24 -25 45.5 -51t35.5 -45t30 -44t23 -37t20 -36t16 -29q89 21 174 21q370 0 649 -289q254 -259 254 -526q0 -172 -112 -281z" />
    <glyph glyph-name="quotesingle" unicode="'" horiz-adv-x="1081" 
d="M1397 1184q-56 -36 -93.5 -76.5t-57 -92.5t-28 -103t-8 -127t4.5 -143.5t9 -174t5 -197.5l-326 -114l-307 110l-373 373q0 64 1 153.5t1.5 141.5t0 122.5t-4.5 112.5t-10.5 94t-19 85.5t-30 69t-42.5 61.5t-58 47l101 194h768l368 -370z" />
    <glyph glyph-name="parenleft" unicode="(" horiz-adv-x="1415" 
d="M1933 1382q0 -66 -36.5 -102.5t-122.5 -36.5q-77 0 -170 55q-30 19 -54 26t-63 7q-34 0 -62 -16t-48.5 -51t-36 -79t-26 -111t-17 -135t-10 -164t-4.5 -185t-1 -209q0 -371 25 -596q77 31 108 31q60 0 116 -18t98.5 -48.5t69 -54t52.5 -51.5q5 -6 8 -9q79 -79 126.5 -168
t47.5 -147q0 -67 -124.5 -128.5t-346.5 -61.5q-360 0 -595 81t-451 297q-100 100 -172 207t-128.5 251.5t-85 335t-28.5 429.5q0 329 62 555.5t197.5 370.5t340.5 208t502 64q203 0 358.5 -60t298.5 -202q45 -44 79 -89.5t51 -78t27.5 -61t12.5 -40.5t2 -16z" />
    <glyph glyph-name="parenright" unicode=")" horiz-adv-x="1415" 
d="M471 1274q-77 -31 -111 -31q-33 0 -65.5 6.5t-57 14t-53 24t-44.5 26.5t-40.5 31t-32.5 28.5t-29 28.5l-20 21q-80 80 -128 170t-48 148q0 66 125 128t346 62q360 0 595.5 -81.5t453.5 -299.5q100 -99 171.5 -205.5t128.5 -250.5t85.5 -334.5t28.5 -429.5
q0 -327 -62 -553t-198 -370.5t-342 -209.5t-502 -65q-203 0 -359 60t-299 202q-45 44 -79 89t-51 77t-27.5 61t-12.5 41t-2 16q0 140 160 140q78 0 170 -58q30 -17 54 -23.5t63 -6.5q43 0 75.5 29t55 89.5t37.5 138.5t23 190.5t11 230t3 272.5q0 387 -23 594z" />
    <glyph glyph-name="asterisk" unicode="*" horiz-adv-x="2050" 
d="M2417 803l75 -221l-75 -303q-272 -50 -473 -54l340 -338l-138 -284l-204 -133l-324 -29l-303 305q-32 -67 -73 -142.5t-66 -117.5l-25 -43l-328 25l-198 135l-363 362l-133 287q63 62 133 121l-278 276l-70 295l78 219l250 199q33 -14 86.5 -38t185 -92.5t221.5 -129.5
q-101 319 -123 508l289 151h248l274 -145l297 -295l90 41l242 -195z" />
    <glyph glyph-name="plus" unicode="+" horiz-adv-x="1914" 
d="M2234 643l-32 -534l-633 18l18 -547l-586 37l-376 375l14 123q0 1 -64 -0.5t-128 -3.5l-64 -2l-379 376l25 535l624 -21l-20 535l563 -35l377 -375l-8 -114l293 10z" />
    <glyph glyph-name="comma" unicode="," horiz-adv-x="978" 
d="M199 -141q-95 87 -148 198.5t-53 227.5q0 87 34 165t95 137.5t153 94.5t201 35q334 0 604 -273q159 -159 226 -315.5t67 -343.5q0 -134 -51 -247t-137 -187t-197.5 -115t-234.5 -41q-266 0 -492 166l-375 375l107 205q90 -71 201 -82z" />
    <glyph glyph-name="hyphen" unicode="-" horiz-adv-x="1392" 
d="M1761 694l-32 -590h-687q-116 0 -288 -8.5t-286 -17.5l-114 -8l-379 376l33 588h654q144 0 324.5 9t289.5 19l108 9z" />
    <glyph glyph-name="period" unicode="." horiz-adv-x="970" 
d="M1354 -70q0 -102 -42.5 -183t-114.5 -129.5t-161 -73.5t-188 -25q-170 0 -331 64.5t-292 203.5q-237 251 -237 502q0 80 28 149.5t77 120t112.5 86.5t136 54t147.5 18q153 0 318 -73.5t305 -219.5q109 -112 175.5 -244t66.5 -250z" />
    <glyph glyph-name="slash" unicode="/" horiz-adv-x="1171" 
d="M1956 1784l-1450 -2433l-133 -371l-389 203l-377 375l1460 2447l156 362l356 -206z" />
    <glyph glyph-name="zero" unicode="0" horiz-adv-x="2879" 
d="M3242 459q0 -217 -87.5 -388.5t-262.5 -295.5t-451.5 -190t-640.5 -66q-987 0 -1419 463q-203 217 -290 406.5t-87 414.5q0 314 173 530t492.5 322t772.5 106q520 0 852.5 -121t564.5 -374q197 -211 290 -393.5t93 -413.5z" />
    <glyph glyph-name="one" unicode="1" horiz-adv-x="2695" 
d="M3135 -211v-235q-231 0 -745 5t-684 5q-172 0 -682 -5t-731 -5l-375 374v236q245 0 400.5 48t232.5 144t92 250q-80 -2 -237 -2l-375 375v248q166 0 293.5 13t225 42.5t167.5 67.5t126.5 98t96 123.5t82.5 154.5q97 0 289.5 -5t251.5 -5q56 0 254.5 5t312.5 5l379 -378
q-9 -41 -22.5 -113.5t-35.5 -289t-22 -423.5q0 -193 41 -323q119 -35 291 -35z" />
    <glyph glyph-name="two" unicode="2" horiz-adv-x="2623" 
d="M2742 555q114 -86 190.5 -222.5t76.5 -260.5q0 -133 -38 -243t-108 -190t-169.5 -134.5t-223 -81.5t-268.5 -27q-205 0 -351.5 14t-274 51t-228.5 85.5t-238 131.5q-114 68 -181.5 94.5t-129.5 26.5q-48 0 -62 -32q4 -5 10 -11t12.5 -12t8.5 -8q55 -59 55 -139
q0 -63 -36.5 -95t-98.5 -32q-94 0 -237.5 91.5t-270.5 221.5q-110 115 -165.5 276t-55.5 351q0 299 264 446q-149 178 -149 377q0 87 40 163.5t131 144.5t226.5 116t338.5 76t456 28q270 0 477 -25.5t355.5 -77.5t251.5 -116.5t192 -155.5q177 -180 240 -309.5t63 -251.5
q0 -155 -103 -270z" />
    <glyph glyph-name="three" unicode="3" horiz-adv-x="2854" 
d="M2939 573q139 -106 213 -239.5t74 -243.5q0 -73 -18 -134t-62.5 -120.5t-116 -106.5t-183.5 -87t-260 -66.5t-350 -41.5t-450 -15q-288 0 -515 16.5t-378 43.5t-269 70t-188 86t-135 101q-79 71 -134 149t-79.5 149t-33.5 123.5t-9 102.5q0 128 89.5 229.5t271.5 143.5
q-101 71 -171.5 167.5t-99.5 182t-29 158.5q0 64 14.5 117.5t52.5 108t99.5 97.5t160.5 80.5t229.5 62.5t312 39.5t403.5 14.5q267 0 484.5 -20.5t366.5 -54t269.5 -84.5t195 -102t140.5 -116q263 -261 263 -522q0 -182 -158 -289z" />
    <glyph glyph-name="four" unicode="4" horiz-adv-x="2723" 
d="M2677 1386q-10 -34 -25 -93t-40 -227.5t-25 -320.5v-90l116 11l377 -377l-14 -348l-90 4l159 -156v-235q-228 0 -735 5t-674 5q-169 0 -672.5 -5t-721.5 -5l-375 374v236q122 0 182 8l-168 166v227l973 1151l1354 49z" />
    <glyph glyph-name="five" unicode="5" horiz-adv-x="2719" 
d="M3068 1489l-127 -981q-9 2 -27 4q72 -65 120 -184t48 -224q0 -92 -31.5 -167.5t-101.5 -142.5t-187 -116.5t-282 -85.5t-393.5 -54.5t-515.5 -18.5q-252 0 -452 18.5t-331 47.5t-236.5 75.5t-166 90t-121.5 104.5q-244 241 -244 450q0 169 160 281l-151 196
q110 65 132 85q30 28 29 59l-45 794h1897q187 0 274.5 28.5t163.5 117.5h209z" />
    <glyph glyph-name="six" unicode="6" horiz-adv-x="2881" 
d="M2953 680q139 -119 213 -267t74 -309q0 -283 -361.5 -434t-1078.5 -151q-281 0 -500 27t-388 84t-294.5 136t-236.5 191q-379 382 -379 850q0 171 47 312.5t154.5 262t272 203.5t409.5 129.5t557 46.5q296 0 527 -27t395 -80t276.5 -119.5t200.5 -156.5
q118 -119 193 -238t75 -212q0 -160 -156 -248z" />
    <glyph glyph-name="seven" unicode="7" horiz-adv-x="2912" 
d="M3402 1307l-463 -820q-128 -229 -189 -378t-80 -265.5t-18 -289.5q-164 0 -494 5t-434 5q-105 0 -432.5 -5t-482.5 -5l-375 374q4 152 8 183q7 62 39 141l-250 250l-182 555q-86 275 -86 434q0 94 63.5 161.5t147.5 67.5q116 0 182 -82q197 123 529 123q96 0 181.5 -6.5
t175.5 -23.5t135 -26.5t149.5 -37t130.5 -33.5q34 -8 151.5 -40t172.5 -43.5t169.5 -24.5t239.5 -13q95 0 171 28.5t140 79t160 148.5l162 -88z" />
    <glyph glyph-name="eight" unicode="8" horiz-adv-x="2779" 
d="M2806 874q286 -182 286 -559q0 -796 -1462 -796q-267 0 -476 16t-347.5 42t-246 68.5t-171 85t-123.5 101.5q-260 260 -260 459q0 73 48 144t124 114q-147 163 -147 407q0 156 46 279.5t148 223t261.5 165.5t391 101.5t531.5 35.5q448 0 733 -88.5t477 -283.5
q77 -77 129 -166.5t69 -146.5t17 -91q0 -63 -28 -111z" />
    <glyph glyph-name="nine" unicode="9" horiz-adv-x="2881" 
d="M3152 475q0 -183 -47.5 -329t-154 -265t-273 -198t-409.5 -121.5t-558 -42.5q-345 0 -593 21t-409.5 65t-259.5 96.5t-178 130.5q-142 137 -202 262t-60 211t52.5 153t148.5 109q-104 115 -156.5 250.5t-52.5 265.5q0 119 46.5 219.5t150 186t259 145.5t383 93.5
t513.5 33.5q364 0 638.5 -53.5t466.5 -153.5t345 -258q350 -370 350 -821z" />
    <glyph glyph-name="colon" unicode=":" horiz-adv-x="978" 
d="M1128 311q88 -99 132.5 -202t44.5 -193q0 -94 -39.5 -171t-105 -125.5t-147.5 -74.5t-171 -26q-289 0 -541 252q-136 139 -206 259t-70 244q0 205 178 299q-178 208 -178 406q0 97 39 171t105.5 117.5t145.5 65t168 21.5q306 0 559 -256q263 -263 263 -477
q0 -102 -48 -181t-129 -129z" />
    <glyph glyph-name="semicolon" unicode=";" horiz-adv-x="978" 
d="M1114 303q74 -87 123 -206t49 -232q0 -134 -41.5 -240.5t-113.5 -172.5t-165.5 -100t-201.5 -34q-216 0 -418 131l-375 373l109 188q24 -16 92 -16q-106 141 -106 291q0 83 35.5 154t101.5 118q-84 97 -133.5 207.5t-49.5 214.5q0 78 26 141.5t70 106.5t103.5 72
t124.5 42t135 13q137 0 282.5 -58.5t266.5 -181.5q272 -272 272 -493q0 -214 -186 -318z" />
    <glyph glyph-name="less" unicode="&#x3c;" horiz-adv-x="1089" 
d="M1565 1116l-824 -622l441 -324l379 -377l-222 -266l-1083 897l-381 381l1108 936l375 -377z" />
    <glyph glyph-name="equal" unicode="=" 
d="M2394 731l-2 -401h-29l29 -29l-2 -401h-989q-262 0 -517.5 -4t-379.5 -8l-125 -3l-379 379l2 402h29l-29 28l2 402h1047q268 0 509.5 3t349.5 6l107 3z" />
    <glyph glyph-name="greater" unicode="&#x3e;" horiz-adv-x="1089" 
d="M1573 442l-1100 -913l-379 377l-209 250l826 606l-449 338l-379 379l226 264l1083 -920z" />
    <glyph glyph-name="question" unicode="?" 
d="M483 610q-122 64 -299 232q-209 204 -209 415q0 68 28.5 130.5t101 124.5t184.5 107t294 73t414 28q440 0 707 -83.5t432 -256.5q158 -164 216 -299t58 -268q0 -149 -91.5 -257.5t-252.5 -176.5q21 -29 21 -55q0 -123 -213 -170q-66 -13 -113 -15q119 -166 119 -319
q0 -102 -42.5 -181.5t-115 -127t-161.5 -71.5t-189 -24q-314 0 -567 238q-167 160 -229 282.5t-62 241.5q0 154 92 256q-13 14 -51 62q-41 44 -72 114z" />
    <glyph glyph-name="at" unicode="@" horiz-adv-x="3784" 
d="M1942 1763q367 0 686 -55.5t601.5 -183.5t469.5 -322q242 -253 340 -465t98 -475q0 -323 -246 -461q43 -56 43 -123q0 -78 -37 -161q-218 -437 -1642 -437q-404 0 -685 23.5t-496 80.5t-364 141t-290 216q-228 213 -328 453.5t-100 544.5q0 295 136.5 527t390 384.5
t614 232.5t809.5 80zM1673 1120q82 -21 139.5 -50t112.5 -81v127q99 -13 197 39q-31 2 -109 2q-210 -3 -340 -37zM2017 -322q272 0 488.5 22.5t330.5 53.5q-114 19 -186 82q-89 -67 -241.5 -101t-317.5 -34q-186 0 -301.5 37t-198.5 112q-41 -48 -127.5 -84t-191.5 -36
q85 -25 210.5 -37t221.5 -13.5t313 -1.5zM3353 344q46 23 82 82t40 145v13l-124 6z" />
    <glyph glyph-name="A" unicode="A" horiz-adv-x="3330" 
d="M2648 1350l434 -981q36 -81 82 -166q98 -39 236 -39l374 -375v-235q-196 0 -611.5 5t-549.5 5q-145 0 -540.5 -5t-540.5 -5q-78 0 -292 5t-292 5q-70 0 -301 -5t-350 -5l-375 374v236q250 0 423 143.5t298 419.5l449 993h1185z" />
    <glyph glyph-name="B" unicode="B" horiz-adv-x="3180" 
d="M3385 549q103 -115 147 -232.5t44 -214.5q0 -193 -127 -310t-415.5 -174.5t-772.5 -57.5h-1948l-374 374v230q124 0 212 25.5t149 77t96.5 139t51 200t15.5 271.5q0 139 -17 235q-55 6 -133 6l-374 375v227h1833q280 0 505 -19t380.5 -50.5t277 -80.5t197 -99.5
t137.5 -116.5q249 -259 249 -500q0 -202 -133 -305z" />
    <glyph glyph-name="C" unicode="C" horiz-adv-x="3129" 
d="M3500 1343q-86 -339 -147 -501q-23 -62 -58 -144t-59 -133l-23 -51h-43q0 -1 24.5 -26.5t24.5 -26.5q36 -123 47 -177t11 -118q0 -164 -101 -289.5t-284.5 -203t-426.5 -116t-540 -38.5q-551 0 -916 99t-591 316q-230 219 -323 409t-93 445q0 161 38 293.5t108 232.5
t176.5 176.5t236 127.5t295 83t344.5 46t393 14q544 0 764 -119q134 35 336.5 56.5t429.5 21.5zM2611 616l-196 187q0 182 -43 319q-112 33 -224 33q-213 0 -305 -170t-92 -553q0 -171 21 -297q97 1 195.5 13.5t210.5 46.5t200 85.5t153 138.5t80 197z" />
    <glyph glyph-name="D" unicode="D" horiz-adv-x="3223" 
d="M-82 164q124 0 212.5 26t149.5 77.5t96.5 139t50.5 200t15 270.5q0 144 -16 235q-59 6 -133 6l-375 375v233q171 0 520 -5t459 -5q120 0 448.5 5t448.5 5q543 -1 892 -100.5t560 -306.5q186 -184 281.5 -389.5t95.5 -419.5q0 -196 -74 -356.5t-202.5 -271t-305.5 -186
t-379.5 -109.5t-427.5 -33q-125 0 -469 5t-469 5q-117 0 -477 -5t-526 -5l-375 374v236zM2048 1124q-73 16 -141 19v-850q95 97 132.5 233t37.5 351q0 143 -29 247z" />
    <glyph glyph-name="E" unicode="E" horiz-adv-x="2850" 
d="M3217 1352l-49 -787q-39 20 -82 43l-30 -61l110 -111l49 -882q-237 0 -765.5 5t-702.5 5q-176 0 -700.5 -5t-749.5 -5l-375 374v236q124 0 212.5 25.5t149.5 77t96.5 139.5t50.5 201t15 272q0 132 -18 231q-49 8 -131 8l-375 375v233q236 0 764.5 -5t702.5 -5
q176 0 701 5t751 5z" />
    <glyph glyph-name="F" unicode="F" horiz-adv-x="2850" 
d="M2732 485q0 -31 5 -196t5 -297l-76 37l-14 -54l189 -186v-229q-211 0 -671 5t-609 5q-151 0 -607 -5t-657 -5l-375 374v230q127 0 217.5 28.5t150 82.5t94 143.5t48.5 199t14 261.5q0 144 -18 231q-74 8 -131 8l-375 375v227q236 0 764.5 -5t702.5 -5q176 0 701 5t751 5
l376 -374l-53 -801q-297 155 -424 221q-8 -252 -8 -281z" />
    <glyph glyph-name="G" unicode="G" horiz-adv-x="3160" 
d="M3600 586v-228q-175 0 -244 -32.5t-69 -132.5v-674q-323 0 -469 112q-140 -43 -395 -77.5t-498 -34.5q-567 0 -924 95.5t-589 324.5q-159 155 -249.5 294.5t-125.5 268t-35 286.5q0 161 38 293.5t108 232.5t176.5 176.5t236 127.5t295 83t344.5 46t393 14q468 0 662 -121
q401 91 895 91l383 -381q-172 -299 -238 -408q-2 -2 -10 -16t-8 -15zM2222 1147q-44 8 -102 8q-198 0 -281 -199q303 -4 389 -6h45q-35 52 -35 58q-3 68 -16 139z" />
    <glyph glyph-name="H" unicode="H" horiz-adv-x="3778" 
d="M4223 -211v-235q-177 0 -543.5 5t-482.5 5q-126 0 -472 -5t-472 -5t-472 5t-472 5q-118 0 -481.5 -5t-530.5 -5l-375 374v236q130 0 221 27t151 79t94 141t47.5 198.5t13.5 267.5q0 134 -21 233q-49 8 -131 8l-375 375v233q177 0 543.5 -5t482.5 -5q126 0 472 5t472 5
t473.5 -5t473.5 -5q118 0 480 5t529 5l375 -374v-236q-108 0 -188 -17.5t-138.5 -57t-96 -94t-59.5 -138t-31 -179.5t-9 -227t18 -233q55 -6 129 -6z" />
    <glyph glyph-name="I" unicode="I" horiz-adv-x="2129" 
d="M2570 -211v-235q-194 0 -604.5 5t-542.5 5q-134 0 -540.5 -5t-589.5 -5l-375 374v236q129 0 221 29t151 81.5t92.5 139.5t46.5 188t13 242q0 164 -22 266q-47 8 -127 8l-375 375v233q194 0 604.5 -5t542.5 -5q134 0 540.5 5t589.5 5l375 -374v-234q-162 0 -266 -35.5
t-163 -117t-81 -193.5t-22 -287q0 -188 28 -311q46 -10 129 -10z" />
    <glyph glyph-name="J" unicode="J" horiz-adv-x="3127" 
d="M3572 1352v-234q-257 0 -364 -78t-107 -258v-456q0 -137 -37 -248t-105.5 -194.5t-174.5 -146t-234.5 -104t-296 -67t-348.5 -36.5t-402 -11q-442 0 -728 90t-464 260q-97 94 -164 182.5t-101 167t-48 143t-14 132.5q0 114 40 211t120.5 174t215.5 121t310 44
q181 0 342.5 -61t277.5 -176v0v0v0v0v1v0v0v1v0v1v0v1v0v1v0v1v0v1v1v1v1v1v1v1v1v1v1v1v1v1v1v1v1v1v1v1v1v1v1v1v1v1v1v1v1v1v1v1v1v1v1v1v1v1v1v1v1v1v1v1v1v1v1v1v1v1v1v1v1v1v1v1v1v1v1v1v1v1v1v1v1v1v1v1v1v1v1v1v1v2v1v1v1v1v1v1v1v1v1v2v1v1v1v1v1v1v1v2v1v1v1v1v1
v2v1v1v1v1v2v1v1v1v1v2v1v1v1v1v2v1v1v1v1v2v1v1v1v2v1v1v1v2v1v1v1v2v1v1v2v1v1v1v2v1v1v1v2v1v1v2v1v1v1v2v1v1v2v1v1v2v1v1v2v1v1v1v2v1v1v2v1v1v2v1v1v2v1v1v2v1v1v1v2v1v1v2v1v1v2v1v1v2v1v1v2v1v1v1v2v1v1v2v1v1v1v2v1v1v2v1v1v1v2v1v1v1v1v2v1v1v1v1v2v1v1v1v9
q0 27 -2 37q-54 4 -94 4l-375 375v233q198 0 627.5 -5t568.5 -5q140 0 566.5 5t615.5 5z" />
    <glyph glyph-name="K" unicode="K" horiz-adv-x="3602" 
d="M3912 1352v-234q-185 0 -343 -19t-279 -54.5t-208 -73t-172 -86.5q129 -104 260 -253.5t228 -287.5q106 -148 116 -170q68 -10 154 -10l375 -375v-235q-158 0 -472.5 5t-410.5 5q-101 0 -406 -5t-438 -5l-121 118v-118q-168 0 -510 5t-448 5q-110 0 -447.5 -5t-496.5 -5
l-375 374v236q94 0 168 15.5t129 43.5t95 74.5t65.5 102t41 132.5t21.5 159t6 188q0 129 -18 231q-74 8 -133 8l-375 375v233q169 0 511 -5t450 -5q104 0 422.5 5t492.5 5l55 -40v40q157 0 447.5 -5t384.5 -5q97 0 403.5 5t452.5 5z" />
    <glyph glyph-name="L" unicode="L" horiz-adv-x="2850" 
d="M3162 635l49 -1081h-1263q-106 0 -397 5t-398 5q-98 0 -405 -5t-455 -5l-375 374v236q151 0 250.5 35t161 118t87 209t25.5 318q0 159 -20 268q-55 6 -129 6l-375 375v233q199 0 624 -5t562 -5q139 0 559 5t608 5l375 -374v-234q-320 0 -470.5 -97.5t-150.5 -326.5v-260
q20 13 129 90q93 68 249 192t266 214l110 90z" />
    <glyph glyph-name="M" unicode="M" horiz-adv-x="3637" 
d="M4082 1352v-234q-141 0 -239.5 -32t-168 -105.5t-102.5 -195.5t-33 -300q0 -172 29 -311q51 -10 139 -10l375 -375v-235q-186 0 -579.5 5t-518.5 5q-127 0 -482.5 -5t-494.5 -5l-117 -146l-143 146q-75 1 -317 5.5t-340 4.5q-89 0 -372 -5t-421 -5l-375 374v236
q289 0 412 155t123 525q0 152 -21 266q-82 8 -139 8l-375 375v233q171 0 522 -5t461 -5q115 0 455.5 5t486.5 5l338 -335l207 335q109 0 340.5 -5t306.5 -5q73 0 309.5 5t358.5 5z" />
    <glyph glyph-name="N" unicode="N" horiz-adv-x="3452" 
d="M2374 1128l213 -196q5 7 4.5 73t-13.5 99q-109 21 -204 24zM1958 1513v207q144 0 424 -5t364 -5q86 0 361.5 5t410.5 5l375 -374v-228q-158 0 -268.5 -32t-189.5 -106.5t-116.5 -200t-37.5 -310.5v-909q-121 0 -334 5t-272 5q-65 0 -266 -5t-291 -5l-1002 987
q-2 -214 33 -352q29 -9 107.5 -19.5t164.5 -11.5l377 -377v-227q-141 0 -410.5 5t-349.5 5q-83 0 -348 -5t-397 -5l-375 374v230q151 0 253.5 39t165 124.5t89.5 210t27 306.5q0 152 -21 266q-82 8 -139 8l-375 375v227q165 0 499 -5t437 -5q110 0 429.5 5t451.5 5z" />
    <glyph glyph-name="O" unicode="O" horiz-adv-x="3098" 
d="M3457 430q0 -169 -50 -305.5t-147 -236t-230 -171t-307.5 -115t-370 -63.5t-427.5 -20q-576 0 -918 93.5t-587 324.5q-230 220 -324 417.5t-94 433.5q0 163 33 294.5t95.5 232.5t160.5 176.5t220 127t282 83t338 45.5t397 14q562 0 929 -108t601 -355
q206 -219 302.5 -423.5t96.5 -444.5zM1769 1085q-48 -76 -68 -232.5t-20 -420.5q0 -134 9 -239q49 69 67.5 211.5t18.5 386.5q0 196 -7 294z" />
    <glyph glyph-name="P" unicode="P" horiz-adv-x="3180" 
d="M1974 1139q-60 6 -67 6v-174q67 67 67 168zM1939 201q-1 -6 -2 0h2zM1939 201q42 -15 177.5 -29t255.5 -2l374 -381v-235q-205 0 -648.5 5t-586.5 5q-145 0 -584 -5t-634 -5l-375 374v236q124 0 213.5 26.5t149.5 77.5t95.5 135.5t50.5 190t15 250.5q0 159 -20 268
q-55 6 -129 6l-375 375v227h2067q355 0 604 -41t405.5 -117.5t274.5 -201.5q156 -166 213 -300.5t57 -266.5q0 -129 -74.5 -234t-197.5 -174.5t-289.5 -117t-343 -69t-365.5 -22.5q-183 0 -330 27v-2z" />
    <glyph glyph-name="Q" unicode="Q" horiz-adv-x="3098" 
d="M1769 1071q-48 -76 -68 -232.5t-20 -420.5q0 -135 9 -240q49 70 67.5 212.5t18.5 385.5q0 197 -7 295zM2740 -403l176 -177q-45 -86 -97 -144t-131.5 -105t-194.5 -69t-271 -22q-634 0 -848 453q-323 38 -564.5 144t-438.5 307q-202 204 -285.5 386t-83.5 404
q0 163 33 295t95.5 233t160.5 176.5t219.5 126.5t282 83t338.5 45.5t397 13.5q567 0 945 -115t609 -366q204 -220 289.5 -415t85.5 -435q0 -332 -182.5 -529t-534.5 -290z" />
    <glyph glyph-name="R" unicode="R" horiz-adv-x="3530" 
d="M2382 -297l2 -149q-180 0 -556 5t-495 5q-121 0 -493.5 -5t-542.5 -5l-375 374v236q90 0 166 24t130 64t96.5 97.5t69 119.5t43.5 134.5t23.5 138.5t6.5 135q0 119 -25 231q-62 10 -135 10l-375 375v227h2026q399 0 671.5 -39t439.5 -112.5t283 -194.5q81 -86 135.5 -163
t80.5 -141.5t36 -113.5t10 -102q0 -78 -21 -144t-58.5 -113.5t-82 -81t-98.5 -56.5q133 -117 215 -293q10 -2 41 -2l375 -375v-215q-169 -31 -337 -43t-441 -12q-269 0 -467 44.5t-348 139.5z" />
    <glyph glyph-name="S" unicode="S" horiz-adv-x="2799" 
d="M3156 1393q-17 -254 -31 -371q-6 -55 -20.5 -148t-25.5 -159l-11 -66h-10q53 -60 91 -157.5t38 -202.5q0 -373 -364 -571.5t-1033 -198.5q-334 0 -560 50.5t-390 141.5q-191 -129 -498 -217l-381 379q25 297 41 428q6 55 22 148t29 159l13 66h16q-35 55 -58.5 148
t-23.5 198q0 348 363 544.5t1023 196.5q496 0 828 -135q205 113 565 143z" />
    <glyph glyph-name="T" unicode="T" horiz-adv-x="3063" 
d="M3463 1352v-1110q-462 366 -659 540q-57 50 -159.5 151t-113.5 111h-26v-776q0 -41 4 -65q147 -39 370 -39l375 -375v-235q-223 0 -717.5 5t-656.5 5q-164 0 -654 -5t-702 -5l-374 374v236q749 0 749 422v0v0v1v0v1v1v1v1v1v1v1v1v1v1v1v1v1v1v1v1v1v1v1v1v1v1v1v1v1v1v1
v2v1v1v1v1v2v1v1v1v2v1v1v2v1v1v2v1v2v1v2v1v1v2v1v2v1v2v1v2v2v1v2v1v2v2v1v2v1v2v2v2v1v2v2v1v2v2v2v1v2v2v2v2v1v2v2v2v2v9q-77 -69 -215.5 -189t-237.5 -206l-100 -85l-387 388v1105q250 0 817.5 -5t755.5 -5q190 0 753 5t803 5z" />
    <glyph glyph-name="U" unicode="U" horiz-adv-x="3571" 
d="M2722 1071q-149 47 -352 47q-297 0 -297 -340v-450q0 -95 8 -158q53 -6 112 -6q101 0 182.5 15.5t153 53t119.5 96.5t75 149t27 208v143q0 130 -28 242zM4016 1118q-324 0 -475.5 -165t-151.5 -482v-145q0 -120 -14 -213.5t-48.5 -180t-92 -149.5t-144.5 -114.5
t-206.5 -83.5t-278 -49t-358.5 -17q-641 0 -979 78.5t-561 289.5q-222 210 -302.5 383t-80.5 414q0 428 -2 432q-2 2 -25 2l-375 375v233q185 0 573.5 -5t512.5 -5q134 0 501.5 5t501.5 5q105 0 391 -5t391 -5q96 0 399.5 5t448.5 5l375 -374v-234z" />
    <glyph glyph-name="V" unicode="V" horiz-adv-x="3330" 
d="M3770 1352v-234q-96 0 -174 -14t-137 -34t-111.5 -63t-87.5 -80.5t-76 -107t-66.5 -122.5t-68.5 -146l-200 -445q-53 -117 -102.5 -256t-72.5 -219l-24 -80q-116 0 -345.5 5.5t-299.5 5.5q-72 0 -299.5 -5.5t-337.5 -5.5l-371 371q-75 280 -190 543l-197 444
q-63 136 -86 176q-101 33 -231 33l-375 375v233q196 0 613.5 -5t551.5 -5q145 0 542 5t542 5q78 0 290.5 -5t290.5 -5q70 0 299.5 5t348.5 5z" />
    <glyph glyph-name="W" unicode="W" horiz-adv-x="4392" 
d="M4837 1352v-234q-208 0 -342.5 -49t-228.5 -157t-178 -304l-215 -502q-50 -116 -91.5 -254t-57.5 -218l-17 -80q-102 0 -285 5t-235 5q-53 0 -235 -5t-279 -5l-324 325q-10 35 -18 74l-129 -399q-97 0 -273 5t-227 5q-52 0 -226 -5t-266 -5l-370 370q-72 289 -178 543
l-271 647q-54 4 -94 4l-375 375v233q171 0 519 -5t458 -5q120 0 447.5 5t447.5 5q102 0 385 -5t385 -5t385 5t385 5q72 0 267 -5t266 -5q62 0 273 5t323 5z" />
    <glyph glyph-name="X" unicode="X" horiz-adv-x="3207" 
d="M3273 164l374 -375v-235q-183 0 -567 5t-506 5q-132 0 -495.5 -5t-495.5 -5q-82 0 -306 5t-306 5q-74 0 -314.5 -5t-363.5 -5l-375 374v236q136 0 265.5 26.5t237 71t205.5 106.5t174 130.5t140 146.5l57 70l-231 235q-165 168 -473 168l-375 375v233q188 0 584.5 -5
t523.5 -5q137 0 513 5t513 5q77 0 289 -5t289 -5q69 0 297 5t346 5l374 -374v-234q-135 0 -259.5 -27.5t-221.5 -71t-188 -108.5t-158 -130.5t-133 -145.5l-66 -82l142 -158q96 -106 236 -170t274 -61z" />
    <glyph glyph-name="Y" unicode="Y" horiz-adv-x="3362" 
d="M3803 1352v-234q-149 0 -279 -37.5t-242 -112.5t-207.5 -174t-190.5 -235l-218 -307v-45q0 -15 1 -15t2 5q139 -33 372 -33l375 -375v-235q-230 0 -743 5t-682 5q-171 0 -680.5 -5t-728.5 -5l-375 374v236q137 0 244 10.5t202 38t157 72t98 115t36 165.5v58l-323 446
q-118 49 -328 49l-375 375v233q195 0 608.5 -5t546.5 -5q143 0 536 5t537 5q81 0 304.5 -5t304.5 -5q73 0 312 5t361 5z" />
    <glyph glyph-name="Z" unicode="Z" horiz-adv-x="2936" 
d="M3377 1165l-282 -274l231 -234v-1103q-244 0 -793 5t-731 5q-184 0 -729.5 -5t-779.5 -5l-375 374v187q248 239 336 323l-264 262v1026q243 0 788.5 -5t726.5 -5q182 0 724 5t773 5l375 -374v-187z" />
    <glyph glyph-name="bracketleft" unicode="[" horiz-adv-x="1200" 
d="M1640 -602v-248h-1288l-375 375q0 192 5.5 622t5.5 572q0 140 -5.5 574t-5.5 636h1289l374 -375v-249l-385 20q-1 -108 -5.5 -464.5t-4.5 -500.5q0 -91 2.5 -312.5t3.5 -274.5l15 2z" />
    <glyph glyph-name="backslash" unicode="\" horiz-adv-x="1171" 
d="M1968 -809l-397 -205l-379 379l-127 342l-1454 2441l371 213l376 -376l144 -338z" />
    <glyph glyph-name="bracketright" unicode="]" horiz-adv-x="1200" 
d="M1581 1554q0 -192 -5 -622t-5 -572q0 -140 5 -574t5 -636h-1288l-375 375v250l387 -21q0 146 5 493.5t5 471.5q0 91 -3 315.5t-3 272.5l-14 -2l-377 376v248h1288z" />
    <glyph glyph-name="asciicircum" unicode="^" horiz-adv-x="1638" 
d="M1976 1081l-61 -202q-391 141 -750 141q-372 0 -735 -139l-377 376l-57 187l813 561l795 -553z" />
    <glyph glyph-name="underscore" unicode="_" horiz-adv-x="2725" 
d="M3170 -483l-4 -586h-1470q-303 0 -654.5 -8.5t-551.5 -16.5l-199 -8l-377 377l4 586h1397q349 0 718.5 8t564.5 17l195 8z" />
    <glyph glyph-name="grave" unicode="`" horiz-adv-x="20" 
d="M1081 1077l-57 -192q-250 64 -511.5 99.5t-485.5 35.5q-331 0 -547 213q-63 63 -104 149t-53.5 148t-12.5 110q0 114 76 187.5t237 73.5q215 0 529.5 -129.5t556.5 -323.5z" />
    <glyph glyph-name="a" unicode="a" horiz-adv-x="2605" 
d="M2914 193q36 -38 59 -95.5t23 -117.5q0 -108 -41.5 -190.5t-131 -144t-240.5 -94t-359 -32.5q-268 0 -426.5 49t-247.5 147q-85 -99 -228.5 -147.5t-414.5 -48.5q-413 0 -678 258q-274 269 -274 504q0 197 190 325q-69 76 -108 170t-39 182q0 58 26.5 110.5t82 101.5
t148 89t217 69.5t297 46t380.5 16.5q210 0 386 -28t307.5 -80t228.5 -115t176 -144q124 -124 201 -250.5t100 -230.5l12 4z" />
    <glyph glyph-name="b" unicode="b" horiz-adv-x="3088" 
d="M1628 1765l375 -376q0 -23 -2 -41q129 22 270 22q524 0 873 -362q344 -347 344 -740q0 -335 -232 -532t-626 -197q-227 0 -379.5 25.5t-248 75t-173.5 133.5q-120 -117 -330 -171.5t-532 -54.5q-110 0 -248 27l-375 375q4 19 11.5 52.5t26.5 133t33 195.5t26 223t12 231
q0 188 -25 326q-52 8 -135 8l-375 375v223z" />
    <glyph glyph-name="c" unicode="c" horiz-adv-x="2375" 
d="M2646 332q60 -67 100.5 -151.5t40.5 -141.5q0 -46 -28 -137q-43 -101 -148 -177t-255.5 -120t-325 -65t-375.5 -21q-360 0 -625.5 46t-433 125t-295.5 201q-191 187 -266.5 354.5t-75.5 379.5q0 766 1380 766q744 0 1078 -334q299 -297 299 -510q0 -127 -70 -215z
M1858 193q-209 28 -332 188q-4 -114 0 -248q225 -7 332 60z" />
    <glyph glyph-name="d" unicode="d" horiz-adv-x="3026" 
d="M3043 1386q-47 -441 -47 -782v-272q0 -90 15 -164q25 -4 81 -4l375 -375v-225l-1624 -47l-106 104q-216 -82 -535 -82q-533 0 -893 357q-188 186 -269 360t-81 369q0 182 67 325t186.5 234t280 138.5t351.5 47.5q98 0 176 -20l-141 143v223l1787 47z" />
    <glyph glyph-name="e" unicode="e" horiz-adv-x="2437" 
d="M1483 104q95 0 224.5 15t156.5 41v0v0v0v0h-1v0v0h-1v0h-1v0h-1v0h-1v0h-1h-1v0h-1h-1h-1v0h-1h-1h-1h-1h-1h-1h-1h-1h-1h-1h-1h-1h-1h-1h-1h-1h-1h-1h-1h-1h-1h-1h-1h-1h-1h-1h-1h-1h-1h-1h-1h-1h-1h-1h-1h-1h-1h-1h-1h-1h-1h-1h-1h-1h-1h-1h-1h-1h-1h-1h-1h-1h-1h-1h-1
h-1h-1h-1h-1h-1h-1h-1h-1h-1h-1h-2h-1h-1h-1h-1h-1h-1h-1h-1h-1h-2h-1h-1h-1h-1h-1h-2h-1h-1h-1h-1h-1h-2h-1h-1h-1h-1h-2h-1h-1h-1h-2h-1h-1h-1h-2h-1h-1h-1h-2h-1h-1h-2h-1h-1h-1h-2h-1h-1h-2h-1h-1h-2h-1h-1h-2h-1h-1h-2h-1h-1h-2h-1h-2h-1h-1h-2h-1h-2h-1h-1h-2h-1h-2
h-1h-1h-2h-1h-2h-1h-2h-1h-2h-1h-2h-1h-1h-2h-1h-2h-1h-2h-1h-2h-1h-2h-1h-2h-1h-2h-1h-2h-2h-1h-2h-1h-2h-1h-2h-1h-2h-1h-2h-2h-1h-2h-1h-2h-2h-1h-2h-1h-2h-2h-1h-2h-1h-2h-2h-1h-2h-2h-1h-2h-1h-2h-2h-1h-2h-2h-1h-2h-2h-1h-2h-2h-1h-2h-2h-2h-1h-2h-2h-1h-2h-2h-2h-1
h-2h-2h-1h-2h-2h-2h-1h-2h-2h-2h-1h-2h-2h-2h-2h-1h-2h-2h-2h-2h-1h-2h-2h-2h-2h-1h-2h-2h-2h-2h-1h-2h-2h-2h-2h-2h-2h-1h-2h-2h-2h-2h-2h-2h-1h-2h-10q0 -9 6 -30t7 -26zM2806 119q22 -42 22 -86q0 -55 -32 -135q-41 -98 -144 -172.5t-251 -119t-323.5 -66t-377.5 -21.5
q-305 0 -532.5 23t-392 72t-277 115t-207.5 162q-164 166 -249 335t-85 370q0 133 42 248.5t138 217.5t240.5 174t361 113.5t488.5 41.5q319 0 566.5 -48.5t413 -132t292.5 -209.5q191 -189 262 -397t63 -485h-18z" />
    <glyph glyph-name="f" unicode="f" horiz-adv-x="2408" 
d="M2853 952q0 -68 -26.5 -127t-80 -108.5t-141.5 -82t-203 -42.5h-14l20 -31v-186l-530 20v-192v-25q92 -14 223 -14l375 -375v-235q-186 0 -579.5 5t-518.5 5q-127 0 -516 -5t-565 -5l-375 374v236q244 0 349 61t120 224l-303 301v294l307 -18v51q0 107 39 205t124 186
t208.5 152.5t305.5 102.5t403 38q294 0 518 -43.5t358.5 -111.5t231.5 -166q142 -144 206 -273t64 -215z" />
    <glyph glyph-name="g" unicode="g" horiz-adv-x="2701" 
d="M3176 555q0 -202 -136.5 -326.5t-350.5 -124.5q-96 0 -197 74q0 -1 -2 -8.5t-4 -11.5q91 -68 146 -179.5t55 -220.5q0 -116 -43.5 -207.5t-143.5 -168t-257 -127t-391 -78t-539 -27.5q-243 0 -431.5 23.5t-330 71t-243.5 111t-191 152.5q-185 181 -185 314q0 58 30 94
t83 39q-59 96 -59 207q0 112 56.5 211t150.5 166q-73 60 -115.5 143t-42.5 166q0 86 35.5 164.5t112 148.5t187 121t271 81t354.5 30q540 0 777 -183q176 183 505 183q193 0 351.5 -64.5t304.5 -214.5q135 -139 189 -276t54 -283z" />
    <glyph glyph-name="h" unicode="h" horiz-adv-x="3272" 
d="M3242 406q0 -232 2 -238q27 -4 94 -4l375 -375v-235q-159 0 -473.5 5t-411.5 5q-108 0 -403 -5t-402 -5q-111 0 -416 5t-415 5q-103 0 -424.5 -5t-474.5 -5l-375 374v236q278 0 406.5 172t128.5 508q0 136 -27 264q-62 10 -133 10l-375 375v223l1688 47l372 -368
q-2 -7 -2 -15q106 13 181 13q481 0 778 -303q167 -172 237 -333t70 -351z" />
    <glyph glyph-name="i" unicode="i" horiz-adv-x="1904" 
d="M1905 1018q-31 -234 -31 -414q0 -430 2 -436q27 -4 94 -4l375 -375v-235q-178 0 -547.5 5t-486.5 5q-119 0 -484.5 -5t-533.5 -5l-375 374v236q131 0 224.5 33t147 96t77.5 144.5t24 187.5q0 39 -6 77q-68 5 -92 5l-375 374v224l539 32q-154 146 -154 330q0 86 36 160.5
t105 132.5t178 91.5t246 33.5q204 0 368.5 -69.5t305.5 -215.5q260 -265 260 -491q0 -80 -39 -150z" />
    <glyph glyph-name="j" unicode="j" horiz-adv-x="2125" 
d="M2537 1018q-11 -27 -26.5 -71t-41.5 -154.5t-26 -188.5v-680q0 -126 -39 -233t-107 -185.5t-164 -140.5t-205 -101.5t-236.5 -65.5t-251.5 -37t-256 -11q-365 0 -581 64.5t-372 205.5q-309 280 -309 549q0 79 36 148.5t104 124t178.5 86.5t248.5 32q146 0 270.5 -35.5
t180.5 -82.5v305q0 71 -10 143q-119 17 -238 17l-375 374v224q511 20 609 24q-68 92 -103 180.5t-35 157.5q0 178 148.5 298t417.5 120q202 0 364 -69t305 -212q256 -256 263 -469q3 -32 -7 -61z" />
    <glyph glyph-name="k" unicode="k" horiz-adv-x="3446" 
d="M3342 1313l375 -375v-229q-287 0 -464.5 -12.5t-297.5 -45.5l29 -39q119 -74 176 -186l135 -244q91 -18 217 -18l375 -375v-235q-151 0 -443.5 5t-381.5 5q-96 0 -376.5 -5t-397.5 -5l-45 30l-31 -10v-20q-153 0 -496 5t-456 5q-112 0 -459 -5t-508 -5l-375 374v236
q293 0 414 162t121 551q0 132 -21 231q-65 10 -139 10l-375 375v223l1688 49l379 -376q-7 -37 -11 -78q398 -8 539 -8q94 0 390 5t439 5z" />
    <glyph glyph-name="l" unicode="l" horiz-adv-x="1966" 
d="M1991 1386q-52 -406 -52 -782v-119q0 -187 33 -319q16 -2 64 -2l374 -375v-238q-182 0 -562.5 5.5t-501.5 5.5q-123 0 -500 -5.5t-549 -5.5l-375 375v238q296 0 415.5 156.5t119.5 523.5q0 152 -21 266q-82 8 -139 8l-375 375v223l1690 47z" />
    <glyph glyph-name="m" unicode="m" horiz-adv-x="4128" 
d="M1425 1395l88 -90q172 86 404 86q431 0 588 -211q87 96 233.5 153.5t341.5 57.5q450 0 754 -324q142 -149 205 -312.5t63 -348.5q0 -232 2 -238q27 -4 94 -4l375 -375v-235q-151 0 -442.5 5t-380.5 5q-99 0 -371.5 -5t-372.5 -5q-78 0 -290.5 5t-290.5 5t-291 -5t-291 -5
q-99 0 -370 5t-369 5q-91 0 -379 -5t-428 -5l-375 374v236q132 0 224.5 31t146.5 92.5t78 143.5t24 194q0 39 -6 77q-68 5 -92 5l-375 374v222z" />
    <glyph glyph-name="n" unicode="n" horiz-adv-x="3170" 
d="M1503 1395l103 -103q225 101 483 101q201 0 395.5 -82.5t358.5 -249.5q150 -153 223.5 -324t73.5 -331v-238q29 -4 96 -4l375 -375v-238q-450 9 -875 9q-106 0 -396 -5.5t-396 -5.5t-397 5.5t-396 5.5l-856 -6l-377 376v234q133 0 225 29.5t146 90t78 143.5t24 198
q0 39 -6 77q-68 5 -92 5l-375 374v222z" />
    <glyph glyph-name="o" unicode="o" horiz-adv-x="2523" 
d="M2929 266q0 -131 -43 -239.5t-124.5 -190t-196 -142.5t-261.5 -99.5t-316 -57t-364 -18.5q-882 0 -1278 372q-385 362 -385 732q0 189 92.5 335.5t264 241t411 143t537.5 48.5q908 0 1314 -426q163 -172 256 -355t93 -344z" />
    <glyph glyph-name="p" unicode="p" horiz-adv-x="3088" 
d="M1647 1380l98 -98q219 88 530 88q232 0 449 -85.5t381 -246.5q206 -198 296.5 -379t90.5 -393q0 -147 -46 -268.5t-126 -205.5t-189.5 -142t-234 -84.5t-262.5 -26.5q-134 0 -236 21l-2 -4l178 -179v-227q-194 0 -604.5 5t-542.5 5q-134 0 -540.5 -5t-589.5 -5l-375 375
v227q146 0 242.5 29.5t164.5 103.5t98 199.5t30 316.5q0 163 -29 295q-68 11 -131 11l-375 374v222z" />
    <glyph glyph-name="q" unicode="q" horiz-adv-x="3026" 
d="M2693 1364l379 -379q-9 -19 -21.5 -52.5t-33.5 -133t-21 -195.5v-553q0 -169 27 -295q40 -4 69 -4l375 -375v-227q-189 0 -588.5 5t-527.5 5q-130 0 -526 -5t-574 -5l-374 375v55q-298 73 -588 363q-330 327 -330 682q0 160 60.5 298t170 237t271.5 155.5t356 56.5
q279 0 461.5 -54t304.5 -161q119 121 323.5 177.5t526.5 56.5q104 0 260 -27z" />
    <glyph glyph-name="r" unicode="r" horiz-adv-x="2437" 
d="M1778 313q-4 -25 -4 -77q0 -31 4 -60q77 -14 194 -14l377 -373v-235q-178 0 -548.5 5t-487.5 5q-119 0 -485.5 -5t-534.5 -5l-375 374v236q131 0 224.5 33t147 96t77.5 144.5t24 187.5q0 39 -6 77q-68 5 -92 5l-375 374v222l1522 71l-10 -160q91 82 224.5 129.5
t295.5 47.5q166 0 338 -61t290 -179q160 -159 229.5 -303.5t69.5 -263.5t-47 -213.5t-126.5 -152t-176.5 -87t-203 -29.5q-168 0 -308.5 58.5t-237.5 152.5z" />
    <glyph glyph-name="s" unicode="s" horiz-adv-x="2367" 
d="M2363 1464l385 -385q-35 -266 -53 -364q-9 -50 -61 -236q-17 2 -17 0q109 -146 109 -317q0 -303 -302 -473t-876 -170q-347 0 -554 49.5t-343 144.5q0 1 -83 -59.5t-166 -121.5l-83 -60l-387 385q27 266 41 350q5 37 19 106.5t26 120.5l11 51h32q-27 45 -43 121t-16 156
q0 110 36 202t120.5 172t214.5 135.5t327.5 87.5t450.5 32q473 0 774 -154z" />
    <glyph glyph-name="t" unicode="t" horiz-adv-x="1730" 
d="M1985 954v-272l-353 14v-63q90 0 213 -119q143 -131 195.5 -255t52.5 -273q0 -90 -20 -159t-70 -128.5t-131 -98t-206.5 -60t-293.5 -21.5q-358 0 -616.5 84.5t-431.5 259.5q-313 313 -293 805l12 295l-121 118v248q83 0 161.5 7t172 25t180 52.5t170 84t158 126.5
t129.5 174h268l377 -375l-4 -96l76 4z" />
    <glyph glyph-name="u" unicode="u" horiz-adv-x="3149" 
d="M3203 1016q-59 -267 -59 -412v-334q0 -52 6 -102q27 -4 90 -4l375 -375v-225l-1581 -47l-95 94q-199 -92 -462 -92q-256 0 -446.5 71.5t-352.5 237.5q-154 159 -218.5 332t-64.5 393v94q0 19 -4 55q-68 5 -94 5l-375 374v222l1561 94l55 -80l1286 80z" />
    <glyph glyph-name="v" unicode="v" horiz-adv-x="2625" 
d="M2695 1309l375 -375v-227q-112 0 -192.5 -21t-145.5 -72t-114 -120t-107 -181l-389 -759q-85 0 -248 5t-213 5t-213.5 -5t-245.5 -5l-371 370l-374 746q-2 4 -6.5 12t-6.5 12q-67 13 -147 13l-375 374v228q168 0 508.5 -5.5t446.5 -5.5q117 0 436 5.5t436 5.5
q59 0 220 -5.5t220 -5.5q51 0 228.5 5.5t277.5 5.5z" />
    <glyph glyph-name="w" unicode="w" horiz-adv-x="3866" 
d="M3932 1309l375 -375v-227q-121 0 -208 -15t-151 -43.5t-111.5 -81t-81 -117t-67.5 -161.5l-249 -735q-98 0 -285 5t-242 5q-58 0 -241.5 -5t-276.5 -5l-196 196l-62 -196q-108 0 -290 5t-236 5q-58 0 -241.5 -5t-276.5 -5l-373 370l-248 721q-2 4 -8.5 22.5t-9.5 26.5
q-70 13 -160 13l-375 374v228q163 0 490 -5.5t428 -5.5q112 0 418 5.5t417 5.5q88 0 330 -5.5t330 -5.5t328.5 5.5t328.5 5.5q60 0 220 -5.5t220 -5.5q50 0 227.5 5.5t276.5 5.5z" />
    <glyph glyph-name="x" unicode="x" horiz-adv-x="2885" 
d="M3330 -213v-233q-177 0 -544.5 5t-483.5 5q-126 0 -473 -5t-473 -5q-66 0 -248 5t-248 5q-58 0 -256.5 -5t-306.5 -5l-375 374v236q162 0 294.5 27.5t234 81.5t178 119t149.5 155l-78 86q-68 41 -161.5 57.5t-241.5 16.5l-375 374v228q178 0 546.5 -5.5t485.5 -5.5
q127 0 474.5 5.5t474.5 5.5q66 0 248.5 -5.5t248.5 -5.5q58 0 255.5 5.5t305.5 5.5l375 -375v-225q-519 0 -856 -383q48 -55 68 -78q152 -86 407 -86z" />
    <glyph glyph-name="y" unicode="y" horiz-adv-x="2625" 
d="M2695 1309l375 -375v-227q-125 0 -238.5 -21t-215.5 -63t-183.5 -113t-130.5 -164l-344 -655q-31 -60 -60.5 -107.5t-75 -105t-95 -100.5t-120 -85.5t-151 -69.5t-187 -44t-229.5 -17q-328 0 -542.5 71.5t-364.5 221.5q-162 159 -227.5 297t-65.5 246q0 59 16.5 111.5
t55.5 101.5t97.5 84.5t149 56.5t203.5 21q152 0 265 -39l-150 301q-4 8 -11 23.5t-11 23.5q-80 25 -158 25l-375 374v228q161 0 480.5 -5.5t418.5 -5.5q109 0 408 5.5t407 5.5q67 0 249.5 -5.5t248.5 -5.5q58 0 255.5 5.5t305.5 5.5z" />
    <glyph glyph-name="z" unicode="z" horiz-adv-x="2484" 
d="M2472 1309l375 -375v-174l-160 -176l156 -156l24 -874q-208 0 -658 5t-595 5q-147 0 -592.5 -5t-640.5 -5l-375 374v185q142 159 205 229l-162 164l-26 907q22 -4 61.5 -11t161 -25t242 -32t286.5 -25t313 -11h1385z" />
    <glyph glyph-name="braceleft" unicode="{" horiz-adv-x="1634" 
d="M-82 836q77 0 126 5.5t84.5 29t53 46t27 82t11 109.5t1.5 154q0 122 22.5 214.5t75 168t136 127t206.5 86.5t285 51t375 16q394 0 651 -254q95 -97 137.5 -177.5t42.5 -117.5q0 -137 -159 -137q-26 0 -49 9t-44 22t-47 26t-70.5 22t-103.5 9q-26 0 -45 -4t-34 -17
t-25 -26.5t-17 -43t-11 -55.5t-6 -75t-2.5 -90.5t-0.5 -112.5q0 -208 -43.5 -332t-138.5 -192q91 -85 134 -220t48 -331q0 -31 2 -43q5 1 37.5 14t56.5 13q35 0 66 -5t77.5 -21.5t102.5 -56t115 -98.5q157 -159 157 -315q0 -29 -37 -62t-98.5 -61.5t-151.5 -47.5t-186 -19
q-215 0 -392.5 23.5t-310 69t-230.5 102t-177 130.5q-189 178 -268.5 348t-79.5 348q0 101 -4 144l-299 301v244z" />
    <glyph glyph-name="bar" unicode="|" horiz-adv-x="1079" 
d="M1042 1720l375 -374q0 -177 -5 -569.5t-5 -520.5q0 -126 5 -522.5t5 -583.5h-1001l-375 375q0 177 5 569t5 520q0 126 -5 522.5t-5 583.5h1001z" />
    <glyph glyph-name="braceright" unicode="}" horiz-adv-x="1634" 
d="M2075 465l-4 -244q-46 0 -80.5 -2t-64 -10t-50.5 -13.5t-38 -25.5t-27 -31.5t-17.5 -45t-11.5 -53.5t-6 -69.5t-2 -80v-97.5q0 -183 -53 -305t-181.5 -204t-339 -118t-528.5 -36q-204 0 -336 47.5t-256 165.5q-112 100 -176 190.5t-64 144.5q0 138 160 138q31 0 60.5 -14
t53 -30t75.5 -30t124 -14q29 0 50.5 7t37 19t25.5 39t16.5 54.5t9.5 78.5t4 99t1 127q0 206 43.5 331t136.5 191q-174 168 -180 557q0 7 -1 21t-1 20q-11 -3 -29 -11.5t-34 -13t-34 -4.5q-165 0 -374 209q-144 144 -144 287q0 29 37 62t98.5 61.5t151.5 47.5t186 19
q425 0 698.5 -86t446.5 -256q175 -170 245.5 -338.5t70.5 -341.5q0 -100 2 -143z" />
    <glyph glyph-name="asciitilde" unicode="~" horiz-adv-x="2174" 
d="M2562 408q0 -91 -54 -163t-144 -115.5t-197.5 -66t-222.5 -22.5q-366 0 -582 67t-367 214q-73 72 -126.5 100.5t-108.5 28.5q-185 0 -185 -64q0 -27 18.5 -50t41 -37t41 -38t18.5 -53q0 -73 -41 -115.5t-129 -42.5q-174 0 -334 160q-34 34 -60.5 63.5t-62 80t-59 100
t-40.5 116t-17 134.5q0 92 54.5 164.5t144.5 115.5t199 65.5t226 22.5q311 0 557.5 -70.5t387.5 -209.5q73 -72 126 -100.5t107 -28.5q86 0 126 14t40 47q0 27 -10 47.5t-24 33.5t-28 25.5t-24 31t-10 42.5q0 158 166 158q151 0 344 -193q229 -229 229 -462z" />
    <glyph glyph-name="nbspace" unicode="&#xa0;" horiz-adv-x="479" 
 />
    <glyph glyph-name="exclamdown" unicode="&#xa1;" horiz-adv-x="1226" 
d="M356 842q-235 253 -235 481q0 102 42.5 181.5t115 126.5t161.5 71t189 24q148 0 305.5 -60.5t275.5 -178.5q277 -280 277 -522q0 -156 -90.5 -259t-231.5 -143l189 -186q70 -69 119 -134t85.5 -158t36.5 -191q0 -69 -24.5 -135.5t-75.5 -127.5t-124 -107.5t-177.5 -74
t-226.5 -27.5q-210 0 -382 76.5t-335 241.5q-139 141 -199.5 278t-60.5 254q0 129 72 254t182 219z" />
    <glyph glyph-name="cent" unicode="&#xa2;" horiz-adv-x="2367" 
d="M2664 586l46 -45q36 -78 50.5 -132t14.5 -128q0 -92 -38.5 -169t-109.5 -133.5t-166 -100t-214.5 -71t-249 -42.5t-273.5 -19l17 -514h-297l-377 379q13 80 25 166q-272 34 -473 115.5t-353 222.5q-177 169 -249 336.5t-72 347.5q0 342 281.5 521t871.5 208l-21 520h287
l377 -375l-6 -170q238 -38 415.5 -126t317.5 -236q122 -128 177.5 -235t55.5 -175q0 -78 -37 -145zM1901 422q-69 12 -153.5 62t-154.5 120q-34 34 -67 80q-21 -108 -21 -238q0 -63 2 -94h39q215 0 355 70z" />
    <glyph glyph-name="sterling" unicode="&#xa3;" horiz-adv-x="3569" 
d="M3623 1731l383 -381l-383 -723h-432l-375 374q0 70 -10 132q-107 22 -226 22q-293 0 -423 -145l65 4l379 -379l-8 -45h174q215 0 328.5 14t177.5 48t114 104l179 -66l376 -379q-34 -289 -125.5 -495.5t-243.5 -335t-355 -188.5t-472 -60q-233 0 -414 26.5t-327 85
t-260 137t-234 195.5q-256 -157 -612 -157q-237 0 -406.5 55t-304.5 184q-83 81 -138.5 157t-80.5 141.5t-34 115t-9 104.5q0 142 95 237t249 120l-28 33l45 342l159 -47q-28 58 -28 112q0 122 52.5 223.5t175 189.5t311 149t473.5 95.5t649 34.5q294 0 513.5 -36t340.5 -89
q119 32 184 46.5t202.5 29.5t303.5 15z" />
    <glyph glyph-name="currency" unicode="&#xa4;" horiz-adv-x="3299" 
d="M3705 1343q-87 -339 -148 -501q-22 -62 -56 -143.5t-57 -132.5l-24 -50h-45l49 -55q36 -123 47 -177t11 -118q0 -164 -101 -289.5t-284.5 -203t-426.5 -116t-540 -38.5q-461 0 -798 76.5t-556 267.5q-19 15 -112 106.5t-107 110.5l-190 -12l-379 376l2 261h43l-45 75
l2 350h270q50 143 148.5 251t233.5 180t317 117t385.5 64t453.5 19q544 0 764 -119q134 35 337.5 56.5t428.5 21.5z" />
    <glyph glyph-name="yen" unicode="&#xa5;" horiz-adv-x="3264" 
d="M3803 1352v-234q-186 0 -334.5 -55.5t-277.5 -163.5l225 -227v-303l-47 -2l47 -64v-323l-80 -3l80 -94v-329q-230 0 -743 5t-682 5q-171 0 -680.5 -5t-728.5 -5l-375 374v154q25 0 61 4q-27 26 -42.5 44t-17.5 23l-1 5v364h49l-49 56v415h471l-53 76q-123 49 -332 49
l-375 375v233q195 0 608.5 -5t546.5 -5q143 0 536 5t537 5q81 0 304.5 -5t304.5 -5q73 0 312 5t361 5z" />
    <glyph glyph-name="brokenbar" unicode="&#xa6;" horiz-adv-x="2050" 
d="M2492 582l-75 -303q-96 -19 -174 -27q-17 -133 -82 -250l123 -111l-138 -288l-204 -133l-322 -29l-152 151q-58 -4 -86 -4q-57 0 -143 11l-88 -156l-328 25l-198 135l-363 362l-135 287q68 63 123 110q-14 17 -25 46l-241 241l-70 295l78 219l250 199q98 -43 178 -82
q98 77 227 121q-9 46 -17 98.5t-12 81.5l-4 29l287 153h248l272 -147l295 -293l94 41l242 -197l365 -364z" />
    <glyph glyph-name="section" unicode="&#xa7;" horiz-adv-x="2420" 
d="M2583 1829l385 -387l-267 -428q-6 4 -15 7t-20.5 6t-17.5 5q73 -70 110.5 -150.5t37.5 -150.5q0 -234 -164 -344q71 -68 110 -154t39 -176t-33 -166.5t-113 -146.5t-204 -118.5t-317 -77.5t-441 -29q-178 0 -329 12.5t-250 30.5t-185 45t-132 48.5t-93 49.5l-491 -227
l-390 387l299 602h138q38 -53 96 -74q-32 39 -48 81t-16 71q0 230 152 338q-137 131 -137 336q0 90 32.5 167t112.5 147.5t203.5 120t316.5 78.5t441 29q70 0 130 -1t113.5 -5t87.5 -6t82 -8.5t65 -9t68.5 -11t63.5 -10.5z" />
    <glyph glyph-name="dieresis" unicode="&#xa8;" horiz-adv-x="20" 
d="M1157 1202q0 -139 -110.5 -220t-313.5 -81q-246 0 -381 121q-108 -121 -356 -121q-313 0 -535 217q-125 122 -183 236.5t-58 206.5q0 140 106 232.5t312 92.5q244 0 389 -133q105 133 348 133q311 0 567 -239q80 -77 131 -169t67.5 -157.5t16.5 -118.5z" />
    <glyph glyph-name="copyright" unicode="&#xa9;" horiz-adv-x="3098" 
d="M1546 1980q787 0 1290 -503q250 -246 372 -496t122 -557q0 -205 -82 -380t-220.5 -298t-322 -210.5t-386.5 -129t-414 -41.5q-384 0 -739 140t-578 356q-238 232 -351.5 453.5t-113.5 467.5q0 190 55 359t152.5 299t231 233t292.5 170t334 102t358 35z" />
    <glyph glyph-name="ordfeminine" unicode="&#xaa;" horiz-adv-x="2879" 
d="M3265 141v-581h-1493q-303 0 -653.5 -7t-548.5 -13l-199 -7l-377 377v582h287q-59 81 -88 166t-29 155q0 208 205 336q-164 175 -164 342q0 58 26.5 110.5t82 101.5t148 88.5t217 69.5t297 46t380.5 16q212 0 383.5 -25.5t297.5 -75.5t216.5 -109t169.5 -138
q300 -295 327 -488l3 5l368 -367q35 -42 58.5 -98.5t23.5 -114.5q0 -141 -76 -236z" />
    <glyph glyph-name="guillemotleft" unicode="&#xab;" horiz-adv-x="1660" 
d="M2130 963l-332 -678l332 -676l-160 -64q-44 29 -115.5 76.5t-223 148t-252.5 167t-101 65.5l199 -393l-160 -62l-1073 715l-385 385l1104 744l133 -50l182 -180l340 230l133 -52z" />
    <glyph glyph-name="logicalnot" unicode="&#xac;" horiz-adv-x="1617" 
d="M1968 692l-76 -856l-235 4l-244 246q-98 18 -268 18q-482 0 -791 -38l-379 376l33 592h756q145 0 351.5 9t340.5 17l135 9z" />
    <glyph glyph-name="registered" unicode="&#xae;" horiz-adv-x="3098" 
d="M1546 1980q787 0 1290 -503q250 -246 372 -496t122 -557q0 -205 -82 -380t-220.5 -298t-322 -210.5t-386.5 -129t-414 -41.5q-384 0 -739 140t-578 356q-238 232 -351.5 453.5t-113.5 467.5q0 190 55 359t152.5 299t231 233t292.5 170t334 102t358 35z" />
    <glyph glyph-name="macron" unicode="&#xaf;" horiz-adv-x="20" 
d="M1083 1272l-36 -361h-685q-117 0 -290 -3t-288 -6l-114 -3l-377 377l39 360h650q145 0 326 3t290 7l109 3z" />
    <glyph glyph-name="degree" unicode="&#xb0;" horiz-adv-x="1638" 
d="M819 1765q241 0 421.5 -43t306.5 -119t249 -202q125 -126 183.5 -265t58.5 -245q0 -120 -52.5 -216.5t-156.5 -168t-269.5 -110t-381.5 -38.5q-338 0 -565 79t-375 229q-279 276 -279 555q0 96 27.5 176t91.5 149.5t162 117t245 74.5t334 27z" />
    <glyph glyph-name="plusminus" unicode="&#xb1;" 
d="M2222 614l-29 -467h-22l250 -249l-39 -455h-981q-181 0 -436.5 -3t-420.5 -6l-165 -3l-379 376l6 457h320l-152 152l35 561l545 -47l-66 510l596 -35l375 -375l-4 -57l190 18z" />
    <glyph glyph-name="twosuperior" unicode="&#xb2;" 
d="M2492 582l-75 -303q-96 -19 -174 -27q-17 -133 -82 -250l123 -111l-138 -288l-204 -133l-322 -29l-152 151q-58 -4 -86 -4q-57 0 -143 11l-88 -156l-328 25l-198 135l-363 362l-135 287q68 63 123 110q-14 17 -25 46l-241 241l-70 295l78 219l250 199q98 -43 178 -82
q98 77 227 121q-9 46 -17 98.5t-12 81.5l-4 29l287 153h248l272 -147l295 -293l94 41l242 -197l365 -364z" />
    <glyph glyph-name="threesuperior" unicode="&#xb3;" 
d="M2492 582l-75 -303q-96 -19 -174 -27q-17 -133 -82 -250l123 -111l-138 -288l-204 -133l-322 -29l-152 151q-58 -4 -86 -4q-57 0 -143 11l-88 -156l-328 25l-198 135l-363 362l-135 287q68 63 123 110q-14 17 -25 46l-241 241l-70 295l78 219l250 199q98 -43 178 -82
q98 77 227 121q-9 46 -17 98.5t-12 81.5l-4 29l287 153h248l272 -147l295 -293l94 41l242 -197l365 -364z" />
    <glyph glyph-name="acute" unicode="&#xb4;" horiz-adv-x="20" 
d="M1376 1282q0 -60 -13 -102.5t-49 -81t-110 -58.5t-186 -20q-224 0 -484.5 -35.5t-500.5 -97.5l-375 375l-55 176q254 202 570 332.5t532 130.5q115 0 239.5 -55t241.5 -175q99 -101 144.5 -209t45.5 -180z" />
    <glyph glyph-name="mu" unicode="&#xb5;" horiz-adv-x="3747" 
d="M3353 1399l378 -381q-37 -160 -51 -297q94 -51 199 -156q95 -97 158.5 -188t92.5 -171.5t39.5 -142t10.5 -129.5q0 -415 -846 -415q-249 0 -413.5 45t-276.5 160q-178 -205 -571 -205q-329 0 -514 110q-47 -213 -210 -346t-409 -133q-257 0 -434 68t-332 223
q-146 148 -207 275t-61 253q0 80 32 149t96 124t171.5 86.5t247.5 31.5q294 0 469 -172q4 28 4 72v395q0 43 -4 47q-25 5 -95 5l-374 374v222l1558 92l76 -76z" />
    <glyph glyph-name="paragraph" unicode="&#xb6;" horiz-adv-x="3665" 
d="M3731 1720l375 -374v-228q-124 0 -215.5 -27t-150.5 -75t-94.5 -124.5t-49.5 -165.5t-14 -208q0 -212 35 -346q41 -8 114 -8l375 -375v-235q-133 0 -377.5 5t-316.5 5q-82 0 -307 -5t-307 -5q-104 0 -391 5t-392 5q-97 0 -399.5 -5t-446.5 -5l-374 374v236q257 0 405 74
q-296 34 -520.5 117.5t-353.5 211.5q-324 321 -324 584q0 137 73.5 241t226 178t397.5 112t579 38h2453z" />
    <glyph glyph-name="periodcentered" unicode="&#xb7;" horiz-adv-x="970" 
d="M1350 401q0 -102 -43 -185t-114.5 -135.5t-161.5 -81t-187 -28.5q-316 0 -570 248q-152 147 -221 278t-69 263q0 85 28.5 154.5t76.5 115.5t113 77.5t135.5 45.5t147.5 14q149 0 305.5 -63t276.5 -186q156 -160 219.5 -284.5t63.5 -232.5z" />
    <glyph glyph-name="cedilla" unicode="&#xb8;" horiz-adv-x="20" 
d="M-195 -356l-145 170q104 107 132 172t28 202h309l203 -206q407 -10 596 -222q237 -258 237 -428q0 -177 -176 -255t-567 -78q-272 0 -418 28q-119 25 -224 85.5t-235 191.5q-127 127 -127 250q0 62 42.5 98.5t105.5 36.5q33 0 102.5 -24.5t136.5 -20.5z" />
    <glyph glyph-name="onesuperior" unicode="&#xb9;" 
d="M2492 582l-75 -303q-96 -19 -174 -27q-17 -133 -82 -250l123 -111l-138 -288l-204 -133l-322 -29l-152 151q-58 -4 -86 -4q-57 0 -143 11l-88 -156l-328 25l-198 135l-363 362l-135 287q68 63 123 110q-14 17 -25 46l-241 241l-70 295l78 219l250 199q98 -43 178 -82
q98 77 227 121q-9 46 -17 98.5t-12 81.5l-4 29l287 153h248l272 -147l295 -293l94 41l242 -197l365 -364z" />
    <glyph glyph-name="ordmasculine" unicode="&#xba;" horiz-adv-x="2879" 
d="M2982 424l283 -283v-581h-1493q-303 0 -653.5 -7t-548.5 -13l-199 -7l-377 377v582l457 2q-155 146 -231.5 322t-76.5 343q0 189 92 335.5t263 241t410.5 143t537.5 48.5q894 0 1311 -414q198 -194 275 -363.5t77 -346.5q0 -221 -127 -379z" />
    <glyph glyph-name="guillemotright" unicode="&#xbb;" horiz-adv-x="1660" 
d="M2163 279l-1098 -732l-135 50l-178 178l-336 -228l-142 50l-380 378l329 668l-336 690l160 58l701 -473l-203 415l157 58l1074 -727z" />
    <glyph glyph-name="onequarter" unicode="&#xbc;" 
d="M2492 582l-75 -303q-96 -19 -174 -27q-17 -133 -82 -250l123 -111l-138 -288l-204 -133l-322 -29l-152 151q-58 -4 -86 -4q-57 0 -143 11l-88 -156l-328 25l-198 135l-363 362l-135 287q68 63 123 110q-14 17 -25 46l-241 241l-70 295l78 219l250 199q98 -43 178 -82
q98 77 227 121q-9 46 -17 98.5t-12 81.5l-4 29l287 153h248l272 -147l295 -293l94 41l242 -197l365 -364z" />
    <glyph glyph-name="onehalf" unicode="&#xbd;" 
d="M2492 582l-75 -303q-96 -19 -174 -27q-17 -133 -82 -250l123 -111l-138 -288l-204 -133l-322 -29l-152 151q-58 -4 -86 -4q-57 0 -143 11l-88 -156l-328 25l-198 135l-363 362l-135 287q68 63 123 110q-14 17 -25 46l-241 241l-70 295l78 219l250 199q98 -43 178 -82
q98 77 227 121q-9 46 -17 98.5t-12 81.5l-4 29l287 153h248l272 -147l295 -293l94 41l242 -197l365 -364z" />
    <glyph glyph-name="threequarters" unicode="&#xbe;" 
d="M2492 582l-75 -303q-96 -19 -174 -27q-17 -133 -82 -250l123 -111l-138 -288l-204 -133l-322 -29l-152 151q-58 -4 -86 -4q-57 0 -143 11l-88 -156l-328 25l-198 135l-363 362l-135 287q68 63 123 110q-14 17 -25 46l-241 241l-70 295l78 219l250 199q98 -43 178 -82
q98 77 227 121q-9 46 -17 98.5t-12 81.5l-4 29l287 153h248l272 -147l295 -293l94 41l242 -197l365 -364z" />
    <glyph glyph-name="questiondown" unicode="&#xbf;" 
d="M1903 526q125 -65 299 -231q208 -203 208 -416q0 -48 -14 -93t-48 -92t-86.5 -87t-134 -75.5t-184.5 -61t-245 -40t-309 -14.5q-440 0 -707 83.5t-432 256.5q-158 164 -216.5 299.5t-58.5 268.5q0 149 91.5 257.5t252.5 176.5q-20 28 -20 55q0 123 213 170q59 11 113 14
q-119 166 -119 320q0 102 42.5 181.5t115 126.5t161.5 71t189 24q315 0 567 -237q166 -160 228.5 -283t62.5 -242q0 -154 -92 -256q20 -22 51 -61q40 -43 72 -115z" />
    <glyph glyph-name="Agrave" unicode="&#xc0;" horiz-adv-x="3330" 
d="M1012 1554q-24 21 -51 48q-63 63 -104 149t-53.5 148t-12.5 110q0 114 76 187t237 73q215 0 529.5 -129t555.5 -323l373 -371l-4 -10l86 -86l434 -981q36 -81 82 -166q98 -39 236 -39l374 -375v-235q-196 0 -611.5 5t-549.5 5q-145 0 -541 -5t-540 -5q-78 0 -292 5
t-292 5q-70 0 -301 -5t-350 -5l-375 374v236q250 0 423 143.5t298 419.5z" />
    <glyph glyph-name="Aacute" unicode="&#xc1;" horiz-adv-x="3330" 
d="M1151 1720l-27 86q254 202 570 332.5t532 130.5q116 0 240 -54.5t241 -174.5q99 -101 145 -209t46 -180q0 -55 -11 -95.5t-41 -77.5t-91 -59t-152 -28l41 -41l434 -981q36 -81 82 -166q98 -39 236 -39l374 -375v-235q-196 0 -611.5 5t-549.5 5q-145 0 -541 -5t-540 -5
q-78 0 -292 5t-292 5q-70 0 -301 -5t-350 -5l-375 374v236q250 0 423 143.5t298 419.5l448 993h64z" />
    <glyph glyph-name="Acircumflex" unicode="&#xc2;" horiz-adv-x="3330" 
d="M1004 1536l-86 88l-56 186l815 562l795 -553l373 -371l-62 -203q-2 0 -108 37l403 -913q36 -81 82 -166q98 -39 236 -39l374 -375v-235q-196 0 -611.5 5t-549.5 5q-145 0 -541 -5t-540 -5q-78 0 -292 5t-292 5q-70 0 -301 -5t-350 -5l-375 374v236q250 0 423 143.5
t298 419.5z" />
    <glyph glyph-name="Atilde" unicode="&#xc3;" horiz-adv-x="3330" 
d="M1014 1556q-4 4 -11.5 12.5t-11.5 12.5q-94 100 -147 180t-53 156q0 315 532 315q548 0 807 -262q1 -1 14.5 -14t26.5 -26l25.5 -25.5t13.5 -14.5q151 0 151 84q0 39 -14.5 72.5t-56.5 89.5l172 92q214 -129 374 -297q181 -195 181 -323q0 -254 -353 -303l414 -936
q36 -81 82 -166q98 -39 236 -39l374 -375v-235q-196 0 -611.5 5t-549.5 5q-145 0 -541 -5t-540 -5q-78 0 -292 5t-292 5q-70 0 -301 -5t-350 -5l-375 374v236q250 0 423 143.5t298 419.5z" />
    <glyph glyph-name="Adieresis" unicode="&#xc4;" horiz-adv-x="3330" 
d="M1030 1593q-145 183 -145 336q0 67 25 124.5t75 103.5t131.5 72t186.5 26q244 0 389 -133q105 133 348 133q310 0 567 -240q80 -77 131 -169t67.5 -157t16.5 -118q0 -175 -164 -252l420 -950q36 -81 82 -166q98 -39 236 -39l374 -375v-235q-196 0 -611.5 5t-549.5 5
q-145 0 -541 -5t-540 -5q-78 0 -292 5t-292 5q-70 0 -301 -5t-350 -5l-375 374v236q250 0 423 143.5t298 419.5z" />
    <glyph glyph-name="Aring" unicode="&#xc5;" horiz-adv-x="3330" 
d="M1165 1720q-75 119 -75 217q0 48 19.5 93.5t63.5 89t109 76t164 52t219 19.5q220 0 388 -72t308 -215q129 -132 183.5 -239.5t54.5 -171.5q0 -72 -41 -133l86 -86l434 -981q36 -81 82 -166q98 -39 236 -39l374 -375v-235q-196 0 -611.5 5t-549.5 5q-145 0 -541 -5
t-540 -5q-78 0 -292 5t-292 5q-70 0 -301 -5t-350 -5l-375 374v236q250 0 423 143.5t298 419.5l448 993h78z" />
    <glyph glyph-name="AE" unicode="&#xc6;" horiz-adv-x="3688" 
d="M3867 635l196 -203l49 -872h-3819l-375 374v230q141 0 271 47.5t238 134.5t196.5 202.5t158.5 258.5l451 913h2505l376 -374l-53 -797z" />
    <glyph glyph-name="Ccedilla" unicode="&#xc7;" horiz-adv-x="3129" 
d="M2611 616l-196 187q0 182 -43 319q-112 33 -224 33q-213 0 -305 -170t-92 -553q0 -171 21 -297q97 1 195.5 13.5t210.5 46.5t200 85.5t153 138.5t80 197zM2466 -442q80 -126 80 -226q0 -177 -176.5 -255t-567.5 -78q-272 0 -418 28q-119 25 -223.5 85.5t-234.5 191.5
q-127 127 -127 250q0 74 61 112q-269 101 -442 268q-230 219 -323 409t-93 445q0 161 38 293.5t108 232.5t176.5 176.5t236 127.5t295 83t344.5 46t393 14q544 0 764 -119q134 35 336.5 56.5t429.5 21.5l377 -377q-86 -339 -147 -501q-23 -62 -58 -144t-59 -133l-23 -51h-43
q0 -1 24.5 -26.5t24.5 -26.5q36 -123 47 -177t11 -118q0 -99 -37.5 -184.5t-107.5 -152.5t-170.5 -120.5t-224 -90.5t-271.5 -60z" />
    <glyph glyph-name="Egrave" unicode="&#xc8;" horiz-adv-x="2850" 
d="M817 1720q-43 76 -62.5 156t-19.5 133q0 114 76.5 187t237.5 73q215 0 529.5 -129t555.5 -323l94 -95q430 4 608 4l377 -374l-49 -787q-39 20 -82 43l-30 -61l110 -111l49 -882q-237 0 -765.5 5t-702.5 5q-176 0 -700.5 -5t-749.5 -5l-375 374v236q124 0 212.5 25.5
t149.5 77t96.5 139.5t50.5 201t15 272q0 132 -18 231q-49 8 -131 8l-375 375v233q117 0 266.5 -1t339.5 -2.5t293 -2.5z" />
    <glyph glyph-name="Eacute" unicode="&#xc9;" horiz-adv-x="2850" 
d="M1057 1718l-29 88q254 202 570 332.5t532 130.5q116 0 240 -54.5t241 -174.5q144 -147 180 -314h45l377 -374l-49 -787q-39 20 -82 43l-30 -61l110 -111l49 -882q-237 0 -765.5 5t-702.5 5q-176 0 -700.5 -5t-749.5 -5l-375 374v236q124 0 212.5 25.5t149.5 77
t96.5 139.5t50.5 201t15 272q0 132 -18 231q-49 8 -131 8l-375 375v233q194 0 611.5 -3.5t527.5 -4.5z" />
    <glyph glyph-name="Ecircumflex" unicode="&#xca;" horiz-adv-x="2850" 
d="M649 1722l-26 88l815 562l794 -553l16 -16t31 -30.5t35 -34.5t13 -14q95 0 266 1t243 1l377 -374l-49 -787q-39 20 -82 43l-30 -61l110 -111l49 -882q-237 0 -765.5 5t-702.5 5q-176 0 -700.5 -5t-749.5 -5l-375 374v236q124 0 212.5 25.5t149.5 77t96.5 139.5t50.5 201
t15 272q0 132 -18 231q-49 8 -131 8l-375 375v233q223 0 731 -4z" />
    <glyph glyph-name="Edieresis" unicode="&#xcb;" horiz-adv-x="2850" 
d="M705 1720q-60 117 -60 209q0 67 25 124.5t75 103.5t131.5 72t186.5 26q244 0 389 -133q105 133 348 133q310 0 567 -240q135 -130 187 -291q100 2 282 2l377 -374l-49 -787q-39 20 -82 43l-30 -61l110 -111l49 -882q-237 0 -765.5 5t-702.5 5q-176 0 -700.5 -5t-749.5 -5
l-375 374v236q124 0 212.5 25.5t149.5 77t96.5 139.5t50.5 201t15 272q0 132 -18 231q-49 8 -131 8l-375 375v233q382 0 787 -6z" />
    <glyph glyph-name="Igrave" unicode="&#xcc;" horiz-adv-x="2129" 
d="M455 1722q-42 76 -61 154.5t-19 132.5q0 114 76 187t237 73q215 0 530 -129t556 -323l92 -93q117 2 329 2l375 -374v-234q-162 0 -266 -35.5t-163 -117t-81 -193.5t-22 -287q0 -188 28 -311q46 -10 129 -10l375 -375v-235q-194 0 -604.5 5t-542.5 5q-134 0 -540.5 -5
t-589.5 -5l-375 374v236q129 0 221 29t151 81.5t92.5 139.5t46.5 188t13 242q0 164 -22 266q-47 8 -127 8l-375 375v233q169 0 537 -4z" />
    <glyph glyph-name="Iacute" unicode="&#xcd;" horiz-adv-x="2129" 
d="M551 1720l-27 86q254 202 570 332.5t532 130.5q116 0 240 -54.5t241 -174.5q99 -101 145 -209t46 -180v-27l272 -272v-234q-162 0 -266 -35.5t-163 -117t-81 -193.5t-22 -287q0 -188 28 -311q46 -10 129 -10l375 -375v-235q-194 0 -604.5 5t-542.5 5q-134 0 -540.5 -5
t-589.5 -5l-375 374v236q129 0 221 29t151 81.5t92.5 139.5t46.5 188t13 242q0 164 -22 266q-47 8 -127 8l-375 375v233q314 0 633 -6z" />
    <glyph glyph-name="Icircumflex" unicode="&#xce;" horiz-adv-x="2129" 
d="M330 1724l-27 86l815 562l795 -553l94 -93h188l375 -374v-234q-162 0 -266 -35.5t-163 -117t-81 -193.5t-22 -287q0 -188 28 -311q46 -10 129 -10l375 -375v-235q-194 0 -604.5 5t-542.5 5q-134 0 -540.5 -5t-589.5 -5l-375 374v236q129 0 221 29t151 81.5t92.5 139.5
t46.5 188t13 242q0 164 -22 266q-47 8 -127 8l-375 375v233q62 0 200 -1t212 -1z" />
    <glyph glyph-name="Idieresis" unicode="&#xcf;" horiz-adv-x="2129" 
d="M365 1722q-60 112 -60 207q0 67 25 124.5t75 103.5t131.5 72t186.5 26q244 0 389 -133q105 133 348 133q311 0 568 -240q143 -136 194 -315l348 -348v-234q-162 0 -266 -35.5t-163 -117t-81 -193.5t-22 -287q0 -188 28 -311q46 -10 129 -10l375 -375v-235
q-194 0 -604.5 5t-542.5 5q-134 0 -540.5 -5t-589.5 -5l-375 374v236q129 0 221 29t151 81.5t92.5 139.5t46.5 188t13 242q0 164 -22 266q-47 8 -127 8l-375 375v233q135 0 447 -4z" />
    <glyph glyph-name="Eth" unicode="&#xd0;" horiz-adv-x="3223" 
d="M1907 1012l57 4l113 -113q-3 126 -29 221q-73 16 -141 19v-131zM291 279l-363 362v342h512q-2 53 -14 129q-59 6 -133 6l-375 375v233q171 0 520 -5t459 -5q120 0 448.5 5t448.5 5q543 -1 892 -100.5t560 -306.5q186 -184 281.5 -389.5t95.5 -419.5q0 -196 -74 -356.5
t-202.5 -271t-305.5 -186t-379.5 -109.5t-427.5 -33q-125 0 -469 5t-469 5q-117 0 -477 -5t-526 -5l-375 374v236q258 0 373 115z" />
    <glyph glyph-name="Ntilde" unicode="&#xd1;" horiz-adv-x="3452" 
d="M2374 1128l213 -196q5 7 4.5 73t-13.5 99q-109 21 -204 24zM844 1710q-88 117 -88 207q0 315 532 315q548 0 807 -262q1 -1 14.5 -14t26.5 -26l25.5 -25.5t13.5 -14.5q152 0 152 84q0 39 -15 72t-57 90l172 92q111 -67 198.5 -135t176.5 -162q107 -115 153 -219
q352 8 563 8l375 -374v-228q-158 0 -268.5 -32t-189.5 -106.5t-116.5 -200t-37.5 -310.5v-909q-121 0 -334 5t-272 5q-65 0 -266 -5t-291 -5l-1002 987q-2 -214 33 -352q29 -9 107.5 -19.5t164.5 -11.5l377 -377v-227q-141 0 -410.5 5t-349.5 5q-83 0 -348 -5t-397 -5
l-375 374v230q151 0 253.5 39t165 124.5t89.5 210t27 306.5q0 152 -21 266q-82 8 -139 8l-375 375v227q162 0 491.5 -5t434.5 -5z" />
    <glyph glyph-name="Ograve" unicode="&#xd2;" horiz-adv-x="3098" 
d="M1769 1085q-48 -76 -68 -232.5t-20 -420.5q0 -134 9 -239q49 69 67.5 211.5t18.5 386.5q0 196 -7 294zM936 1726q-41 75 -59.5 152.5t-18.5 130.5q0 114 76 187t237 73q215 0 530 -129t556 -323l149 -150q405 -110 652 -369q206 -219 302.5 -423.5t96.5 -444.5
q0 -169 -50 -305.5t-147 -236t-230 -171t-307.5 -115t-370 -63.5t-427.5 -20q-576 0 -918 93.5t-587 324.5q-230 220 -324 417.5t-94 433.5q0 177 39 317.5t113.5 244.5t189.5 179.5t260 123t332 73.5z" />
    <glyph glyph-name="Oacute" unicode="&#xd3;" horiz-adv-x="3098" 
d="M1769 1085q-48 -76 -68 -232.5t-20 -420.5q0 -134 9 -239q49 69 67.5 211.5t18.5 386.5q0 196 -7 294zM1167 1751q1 0 -3 13.5t-8 27.5l-5 14q254 202 570 332.5t532 130.5q116 0 240 -54.5t241 -174.5q99 -101 145 -209t46 -180q0 -126 -64 -185q109 -74 197 -168
q206 -219 302.5 -423.5t96.5 -444.5q0 -169 -50 -305.5t-147 -236t-230 -171t-307.5 -115t-370 -63.5t-427.5 -20q-576 0 -918 93.5t-587 324.5q-230 220 -324 417.5t-94 433.5q0 198 49 350.5t141.5 261t237 181.5t324 113.5t413.5 56.5z" />
    <glyph glyph-name="Ocircumflex" unicode="&#xd4;" horiz-adv-x="3098" 
d="M1769 1085q-48 -76 -68 -232.5t-20 -420.5q0 -134 9 -239q49 69 67.5 211.5t18.5 386.5q0 196 -7 294zM778 1700l-33 110l816 562l794 -553q199 -197 199 -199q305 -111 504 -322q206 -219 302.5 -423.5t96.5 -444.5q0 -169 -50 -305.5t-147 -236t-230 -171t-307.5 -115
t-370 -63.5t-427.5 -20q-576 0 -918 93.5t-587 324.5q-230 220 -324 417.5t-94 433.5q0 267 89.5 452.5t258 294.5t428.5 165z" />
    <glyph glyph-name="Otilde" unicode="&#xd5;" horiz-adv-x="3098" 
d="M1769 1085q-48 -76 -68 -232.5t-20 -420.5q0 -134 9 -239q49 69 67.5 211.5t18.5 386.5q0 196 -7 294zM772 1698q-98 124 -98 219q0 315 532 315q548 0 807 -262q1 -1 14.5 -14t26.5 -26l25.5 -25.5t13.5 -14.5q152 0 152 84q0 39 -15 72t-57 90l172 92
q111 -67 198.5 -135t176.5 -162q180 -194 180 -323q0 -83 -37 -144q101 -69 195 -166q206 -219 302.5 -423.5t96.5 -444.5q0 -169 -50 -305.5t-147 -236t-230 -171t-307.5 -115t-370 -63.5t-427.5 -20q-576 0 -918 93.5t-587 324.5q-230 220 -324 417.5t-94 433.5
q0 395 190.5 610.5t579.5 299.5z" />
    <glyph glyph-name="Odieresis" unicode="&#xd6;" horiz-adv-x="3098" 
d="M1769 1085q-48 -76 -68 -232.5t-20 -420.5q0 -134 9 -239q49 69 67.5 211.5t18.5 386.5q0 196 -7 294zM834 1710q-66 118 -66 219q0 67 25 124.5t75 103.5t131.5 72t186.5 26q244 0 389 -133q105 133 348 133q310 0 567 -240q80 -77 131 -169t67.5 -157t16.5 -118v-15
q209 -105 353 -258q206 -219 302.5 -423.5t96.5 -444.5q0 -169 -50 -305.5t-147 -236t-230 -171t-307.5 -115t-370 -63.5t-427.5 -20q-576 0 -918 93.5t-587 324.5q-230 220 -324 417.5t-94 433.5q0 209 52.5 366.5t159.5 268t259 180t361 107.5z" />
    <glyph glyph-name="multiply" unicode="&#xd7;" horiz-adv-x="2050" 
d="M2492 582l-75 -303q-96 -19 -174 -27q-17 -133 -82 -250l123 -111l-138 -288l-204 -133l-322 -29l-152 151q-58 -4 -86 -4q-57 0 -143 11l-88 -156l-328 25l-198 135l-363 362l-135 287q68 63 123 110q-14 17 -25 46l-241 241l-70 295l78 219l250 199q98 -43 178 -82
q98 77 227 121q-9 46 -17 98.5t-12 81.5l-4 29l287 153h248l272 -147l295 -293l94 41l242 -197l365 -364z" />
    <glyph glyph-name="Oslash" unicode="&#xd8;" horiz-adv-x="3094" 
d="M3457 1130l-223 -100q219 -225 219 -600q0 -169 -50 -305.5t-146 -236t-228.5 -171t-306.5 -115t-369.5 -63.5t-427.5 -20q-711 0 -1067 159q-152 -70 -270 -262l-385 385l-211 349l211 92q-201 207 -201 546q0 163 33 294.5t95.5 232.5t160.5 176.5t220 127t282 83
t338 45.5t397 14q696 0 1057 -166q53 23 90.5 47t55.5 39.5t70 67t89 86.5l381 -381z" />
    <glyph glyph-name="Ugrave" unicode="&#xd9;" horiz-adv-x="3571" 
d="M2718 1071q-149 47 -353 47q-297 0 -297 -340v-450q0 -88 9 -158q53 -6 112 -6q101 0 182.5 15.5t153 53t119.5 96.5t75 149t27 208v143q0 130 -28 242zM1341 1718q-42 77 -61.5 157t-19.5 134q0 114 76 187t237 73q215 0 529.5 -129t555.5 -323l101 -101h30
q96 0 399.5 5t448.5 5l375 -374v-234q-324 0 -475.5 -165t-151.5 -482v-145q0 -120 -14 -213.5t-48.5 -180t-92 -149.5t-144.5 -114.5t-206.5 -83.5t-278 -49t-358.5 -17q-641 0 -979.5 78.5t-561.5 289.5q-222 210 -302.5 383t-80.5 414q0 428 -2 432q-2 2 -24 2l-375 375
v233q185 0 573.5 -5t512.5 -5q43 0 157 1t180 1z" />
    <glyph glyph-name="Uacute" unicode="&#xda;" horiz-adv-x="3571" 
d="M2718 1071q-149 47 -353 47q-297 0 -297 -340v-450q0 -88 9 -158q53 -6 112 -6q101 0 182.5 15.5t153 53t119.5 96.5t75 149t27 208v143q0 130 -28 242zM1722 1724l-26 82q254 202 570 332.5t532 130.5q116 0 240 -54.5t241 -174.5q76 -77 120.5 -160t59.5 -156
q61 2 178 2l375 -374v-234q-324 0 -475.5 -165t-151.5 -482v-145q0 -120 -14 -213.5t-48.5 -180t-92 -149.5t-144.5 -114.5t-206.5 -83.5t-278 -49t-358.5 -17q-641 0 -979.5 78.5t-561.5 289.5q-222 210 -302.5 383t-80.5 414q0 428 -2 432q-2 2 -24 2l-375 375v233
q185 0 573.5 -5t512.5 -5q226 0 718 8z" />
    <glyph glyph-name="Ucircumflex" unicode="&#xdb;" horiz-adv-x="3571" 
d="M2718 1071q-149 47 -353 47q-297 0 -297 -340v-450q0 -88 9 -158q53 -6 112 -6q101 0 182.5 15.5t153 53t119.5 96.5t75 149t27 208v143q0 130 -28 242zM1317 1718l-27 92l815 562l795 -553l100 -101q58 1 290.5 4.5t346.5 3.5l375 -374v-234q-324 0 -475.5 -165
t-151.5 -482v-145q0 -120 -14 -213.5t-48.5 -180t-92 -149.5t-144.5 -114.5t-206.5 -83.5t-278 -49t-358.5 -17q-641 0 -979.5 78.5t-561.5 289.5q-222 210 -302.5 383t-80.5 414q0 428 -2 432q-2 2 -24 2l-375 375v233q185 0 573.5 -5t512.5 -5q40 0 145.5 1t167.5 1z" />
    <glyph glyph-name="Udieresis" unicode="&#xdc;" horiz-adv-x="3571" 
d="M2718 1071q-149 47 -353 47q-297 0 -297 -340v-450q0 -88 9 -158q53 -6 112 -6q101 0 182.5 15.5t153 53t119.5 96.5t75 149t27 208v143q0 130 -28 242zM1292 1718q-61 113 -61 211q0 67 25 124.5t75 103.5t131.5 72t186.5 26q244 0 389 -133q105 133 348 133
q310 0 567 -240q136 -131 189 -295q56 1 159.5 2.5t185.5 2.5t150 1l375 -374v-234q-324 0 -475.5 -165t-151.5 -482v-145q0 -120 -14 -213.5t-48.5 -180t-92 -149.5t-144.5 -114.5t-206.5 -83.5t-278 -49t-358.5 -17q-641 0 -979.5 78.5t-561.5 289.5q-222 210 -302.5 383
t-80.5 414q0 428 -2 432q-2 2 -24 2l-375 375v233q185 0 573.5 -5t512.5 -5q179 0 288 2z" />
    <glyph glyph-name="Yacute" unicode="&#xdd;" horiz-adv-x="3362" 
d="M1264 1718l-29 88q254 202 570 332.5t532 130.5q116 0 240 -54.5t241 -174.5q144 -144 182 -320q411 6 428 6l375 -374v-234q-149 0 -279 -37.5t-242 -112.5t-207.5 -174t-190.5 -235l-218 -307v-45q0 -15 1 -15t2 5q139 -33 372 -33l375 -375v-235q-230 0 -743 5t-682 5
q-171 0 -680.5 -5t-728.5 -5l-375 374v236q137 0 244 10.5t202 38t157 72t98 115t36 165.5v58l-323 446q-118 49 -328 49l-375 375v233q195 0 608.5 -5t546.5 -5q121 0 191 2z" />
    <glyph glyph-name="Thorn" unicode="&#xde;" horiz-adv-x="3088" 
d="M1640 1720l119 -118q210 75 512 75q241 0 469.5 -89.5t403.5 -270.5q177 -180 260.5 -362t83.5 -382q0 -141 -42.5 -259.5t-115 -201t-169.5 -141t-203.5 -87t-219.5 -31.5q-41 0 -57 2l65 -70v-225q-205 0 -648.5 5t-586.5 5q-145 0 -584 -5t-634 -5l-375 374v230
q124 0 213.5 26.5t149.5 77.5t95.5 135.5t50.5 190t15 250.5q0 159 -20 268q-55 6 -129 6l-375 375v227h1722z" />
    <glyph glyph-name="germandbls" unicode="&#xdf;" horiz-adv-x="2930" 
d="M2683 1096q97 -46 179.5 -105t176.5 -153q283 -280 283 -641q0 -145 -53.5 -265.5t-161.5 -214t-287.5 -146t-415.5 -52.5q-352 0 -520 75l8 -40q-157 0 -444.5 5t-370.5 5q-88 0 -367.5 -5t-416.5 -5l-375 374v236q265 0 369 79t104 277v441q0 802 1213 802
q249 0 423 -34.5t287.5 -97t220.5 -169.5q48 -48 81.5 -101.5t48.5 -98.5t20.5 -75.5t5.5 -51.5q0 -15 -8 -39z" />
    <glyph glyph-name="agrave" unicode="&#xe0;" horiz-adv-x="2603" 
d="M438 1321q-52 82 -75 170.5t-23 148.5q0 114 76 187.5t237 73.5q215 0 529.5 -129.5t556.5 -323.5q213 -211 213 -213q168 -80 295 -211q124 -124 201 -250.5t100 -230.5l12 4l354 -354q36 -38 59 -95.5t23 -117.5q0 -108 -41.5 -190.5t-131 -144t-240.5 -94t-359 -32.5
q-268 0 -426.5 49t-247.5 147q-85 -99 -228.5 -147.5t-414.5 -48.5q-413 0 -678 258q-274 269 -274 504q0 197 190 325q-69 76 -108 170t-39 182q0 116 107 211t333 152z" />
    <glyph glyph-name="aacute" unicode="&#xe1;" horiz-adv-x="2603" 
d="M621 1356l-25 82q254 202 570 332.5t532 130.5q115 0 239.5 -55t241.5 -175q99 -101 145 -209t46 -180q0 -86 -31.5 -144.5t-116.5 -88.5l25 -25q124 -124 201 -250.5t100 -230.5l12 4l354 -354q36 -38 59 -95.5t23 -117.5q0 -108 -41.5 -190.5t-131 -144t-240.5 -94
t-359 -32.5q-268 0 -426.5 49t-247.5 147q-85 -99 -228.5 -147.5t-414.5 -48.5q-413 0 -678 258q-274 269 -274 504q0 197 190 325q-69 76 -108 170t-39 182q0 66 34.5 125t107 112t195 94.5t286.5 66.5z" />
    <glyph glyph-name="acircumflex" unicode="&#xe2;" horiz-adv-x="2603" 
d="M338 1290l-45 152l815 561l795 -553l372 -371q-20 -63 -20 -65q120 -120 195 -244t98 -227l12 4l354 -354q36 -38 59 -95.5t23 -117.5q0 -108 -41.5 -190.5t-131 -144t-240.5 -94t-359 -32.5q-268 0 -426.5 49t-247.5 147q-85 -99 -228.5 -147.5t-414.5 -48.5
q-413 0 -678 258q-274 269 -274 504q0 197 190 325q-69 76 -108 170t-39 182q0 102 83 188t257 144z" />
    <glyph glyph-name="atilde" unicode="&#xe3;" horiz-adv-x="2603" 
d="M430 1319q-106 132 -106 229q0 316 532 316q548 0 807 -262l80 -80q151 0 151 84q0 39 -14.5 72t-56.5 89l172 93q111 -67 198.5 -135t176.5 -162q180 -194 180 -324q0 -211 -242 -281q197 -219 240 -415l12 4l354 -354q36 -38 59 -95.5t23 -117.5q0 -108 -41.5 -190.5
t-131 -144t-240.5 -94t-359 -32.5q-268 0 -426.5 49t-247.5 147q-85 -99 -228.5 -147.5t-414.5 -48.5q-413 0 -678 258q-274 269 -274 504q0 197 190 325q-69 76 -108 170t-39 182q0 114 105.5 209t326.5 152z" />
    <glyph glyph-name="adieresis" unicode="&#xe4;" horiz-adv-x="2603" 
d="M406 1313q-82 135 -82 248q0 140 105.5 232.5t311.5 92.5q244 0 389 -133q105 133 349 133q311 0 567 -239q80 -77 131 -169t67.5 -157.5t16.5 -118.5q0 -88 -43 -149l29 -29q124 -124 201 -250.5t100 -230.5l12 4l354 -354q36 -38 59 -95.5t23 -117.5
q0 -108 -41.5 -190.5t-131 -144t-240.5 -94t-359 -32.5q-268 0 -426.5 49t-247.5 147q-85 -99 -228.5 -147.5t-414.5 -48.5q-413 0 -678 258q-274 269 -274 504q0 197 190 325q-69 76 -108 170t-39 182q0 111 99.5 203.5t308.5 151.5z" />
    <glyph glyph-name="aring" unicode="&#xe5;" horiz-adv-x="2603" 
d="M668 1362q-107 147 -107 264q0 61 32.5 117t98 105t181 78.5t264.5 29.5q220 0 388 -72t308 -215q129 -132 183.5 -240t54.5 -172q0 -39 -15 -79q110 -70 191 -154q124 -124 201 -250.5t100 -230.5l12 4l354 -354q36 -38 59 -95.5t23 -117.5q0 -108 -41.5 -190.5
t-131 -144t-240.5 -94t-359 -32.5q-268 0 -426.5 49t-247.5 147q-85 -99 -228.5 -147.5t-414.5 -48.5q-413 0 -678 258q-274 269 -274 504q0 197 190 325q-69 76 -108 170t-39 182q0 143 162.5 251t507.5 153z" />
    <glyph glyph-name="ae" unicode="&#xe6;" horiz-adv-x="3485" 
d="M3547 950q192 -199 256 -405.5t17 -448.5h-29l51 -41q3 -170 -142.5 -292t-407 -183t-613.5 -61q-438 0 -695.5 51t-418.5 166q-91 -101 -253.5 -159t-357.5 -58q-481 0 -727 252q-272 272 -272 510q0 100 51.5 185t149.5 146q-77 89 -117.5 186t-40.5 173
q0 58 26.5 109.5t82 99.5t148 86.5t217 67t297 44t380.5 15.5q159 0 306.5 -22t219.5 -58q78 34 237.5 56t323.5 22q452 0 780.5 -116.5t530.5 -324.5z" />
    <glyph glyph-name="ccedilla" unicode="&#xe7;" horiz-adv-x="2375" 
d="M1858 193q-209 28 -332 188q-4 -114 0 -248q225 -7 332 60zM2187 -436q84 -131 84 -232q0 -177 -176 -255t-567 -78q-272 0 -418 28q-119 25 -224 85.5t-235 191.5q-127 127 -127 250q0 48 25.5 81.5t68.5 45.5q-180 80 -317 210q-191 187 -266.5 354.5t-75.5 379.5
q0 766 1380 766q744 0 1078 -334q299 -297 299 -510q0 -127 -70 -215q60 -67 100.5 -151.5t40.5 -141.5q0 -46 -28 -137q-104 -246 -572 -338z" />
    <glyph glyph-name="egrave" unicode="&#xe8;" horiz-adv-x="2437" 
d="M1483 104q95 0 224.5 15t156.5 41v0v0v0v0h-1v0v0h-1v0h-1v0h-1v0h-1v0h-1h-1v0h-1h-1h-1v0h-1h-1h-1h-1h-1h-1h-1h-1h-1h-1h-1h-1h-1h-1h-1h-1h-1h-1h-1h-1h-1h-1h-1h-1h-1h-1h-1h-1h-1h-1h-1h-1h-1h-1h-1h-1h-1h-1h-1h-1h-1h-1h-1h-1h-1h-1h-1h-1h-1h-1h-1h-1h-1h-1h-1
h-1h-1h-1h-1h-1h-1h-1h-1h-1h-1h-2h-1h-1h-1h-1h-1h-1h-1h-1h-1h-2h-1h-1h-1h-1h-1h-2h-1h-1h-1h-1h-1h-2h-1h-1h-1h-1h-2h-1h-1h-1h-2h-1h-1h-1h-2h-1h-1h-1h-2h-1h-1h-2h-1h-1h-1h-2h-1h-1h-2h-1h-1h-2h-1h-1h-2h-1h-1h-2h-1h-1h-2h-1h-2h-1h-1h-2h-1h-2h-1h-1h-2h-1h-2
h-1h-1h-2h-1h-2h-1h-2h-1h-2h-1h-2h-1h-1h-2h-1h-2h-1h-2h-1h-2h-1h-2h-1h-2h-1h-2h-1h-2h-2h-1h-2h-1h-2h-1h-2h-1h-2h-1h-2h-2h-1h-2h-1h-2h-2h-1h-2h-1h-2h-2h-1h-2h-1h-2h-2h-1h-2h-2h-1h-2h-1h-2h-2h-1h-2h-2h-1h-2h-2h-1h-2h-2h-1h-2h-2h-2h-1h-2h-2h-1h-2h-2h-2h-1
h-2h-2h-1h-2h-2h-2h-1h-2h-2h-2h-1h-2h-2h-2h-2h-1h-2h-2h-2h-2h-1h-2h-2h-2h-2h-1h-2h-2h-2h-2h-1h-2h-2h-2h-2h-2h-2h-1h-2h-2h-2h-2h-2h-2h-1h-2h-10q0 -9 6 -30t7 -26zM625 1325q-51 81 -74 168.5t-23 146.5q0 114 76.5 187.5t237.5 73.5q215 0 529 -129t556 -324
l205 -205q210 -88 367 -242q191 -189 262 -397t63 -485h-18q22 -42 22 -86q0 -55 -32 -135q-41 -98 -144 -172.5t-251 -119t-323.5 -66t-377.5 -21.5q-305 0 -532.5 23t-392 72t-277 115t-207.5 162q-164 166 -249 335t-85 370q0 256 162.5 447.5t505.5 281.5z" />
    <glyph glyph-name="eacute" unicode="&#xe9;" horiz-adv-x="2437" 
d="M1483 104q95 0 224.5 15t156.5 41v0v0v0v0h-1v0v0h-1v0h-1v0h-1v0h-1v0h-1h-1v0h-1h-1h-1v0h-1h-1h-1h-1h-1h-1h-1h-1h-1h-1h-1h-1h-1h-1h-1h-1h-1h-1h-1h-1h-1h-1h-1h-1h-1h-1h-1h-1h-1h-1h-1h-1h-1h-1h-1h-1h-1h-1h-1h-1h-1h-1h-1h-1h-1h-1h-1h-1h-1h-1h-1h-1h-1h-1h-1
h-1h-1h-1h-1h-1h-1h-1h-1h-1h-1h-2h-1h-1h-1h-1h-1h-1h-1h-1h-1h-2h-1h-1h-1h-1h-1h-2h-1h-1h-1h-1h-1h-2h-1h-1h-1h-1h-2h-1h-1h-1h-2h-1h-1h-1h-2h-1h-1h-1h-2h-1h-1h-2h-1h-1h-1h-2h-1h-1h-2h-1h-1h-2h-1h-1h-2h-1h-1h-2h-1h-1h-2h-1h-2h-1h-1h-2h-1h-2h-1h-1h-2h-1h-2
h-1h-1h-2h-1h-2h-1h-2h-1h-2h-1h-2h-1h-1h-2h-1h-2h-1h-2h-1h-2h-1h-2h-1h-2h-1h-2h-1h-2h-2h-1h-2h-1h-2h-1h-2h-1h-2h-1h-2h-2h-1h-2h-1h-2h-2h-1h-2h-1h-2h-2h-1h-2h-1h-2h-2h-1h-2h-2h-1h-2h-1h-2h-2h-1h-2h-2h-1h-2h-2h-1h-2h-2h-1h-2h-2h-2h-1h-2h-2h-1h-2h-2h-2h-1
h-2h-2h-1h-2h-2h-2h-1h-2h-2h-2h-1h-2h-2h-2h-2h-1h-2h-2h-2h-2h-1h-2h-2h-2h-2h-1h-2h-2h-2h-2h-1h-2h-2h-2h-2h-2h-2h-1h-2h-2h-2h-2h-2h-2h-1h-2h-10q0 -9 6 -30t7 -26zM844 1366l-23 72q254 202 570 332.5t532 130.5q115 0 239.5 -55t241.5 -175q99 -101 145 -209
t46 -180q0 -86 -31.5 -144.5t-116.5 -88.5q18 -14 52 -48q191 -189 262 -397t63 -485h-18q22 -42 22 -86q0 -55 -32 -135q-41 -98 -144 -172.5t-251 -119t-323.5 -66t-377.5 -21.5q-305 0 -532.5 23t-392 72t-277 115t-207.5 162q-164 166 -249 335t-85 370q0 113 30 213
t97.5 191.5t169 163t251.5 124.5t339 78z" />
    <glyph glyph-name="ecircumflex" unicode="&#xea;" horiz-adv-x="2437" 
d="M1483 104q95 0 224.5 15t156.5 41v0v0v0v0h-1v0v0h-1v0h-1v0h-1v0h-1v0h-1h-1v0h-1h-1h-1v0h-1h-1h-1h-1h-1h-1h-1h-1h-1h-1h-1h-1h-1h-1h-1h-1h-1h-1h-1h-1h-1h-1h-1h-1h-1h-1h-1h-1h-1h-1h-1h-1h-1h-1h-1h-1h-1h-1h-1h-1h-1h-1h-1h-1h-1h-1h-1h-1h-1h-1h-1h-1h-1h-1h-1
h-1h-1h-1h-1h-1h-1h-1h-1h-1h-1h-2h-1h-1h-1h-1h-1h-1h-1h-1h-1h-2h-1h-1h-1h-1h-1h-2h-1h-1h-1h-1h-1h-2h-1h-1h-1h-1h-2h-1h-1h-1h-2h-1h-1h-1h-2h-1h-1h-1h-2h-1h-1h-2h-1h-1h-1h-2h-1h-1h-2h-1h-1h-2h-1h-1h-2h-1h-1h-2h-1h-1h-2h-1h-2h-1h-1h-2h-1h-2h-1h-1h-2h-1h-2
h-1h-1h-2h-1h-2h-1h-2h-1h-2h-1h-2h-1h-1h-2h-1h-2h-1h-2h-1h-2h-1h-2h-1h-2h-1h-2h-1h-2h-2h-1h-2h-1h-2h-1h-2h-1h-2h-1h-2h-2h-1h-2h-1h-2h-2h-1h-2h-1h-2h-2h-1h-2h-1h-2h-2h-1h-2h-2h-1h-2h-1h-2h-2h-1h-2h-2h-1h-2h-2h-1h-2h-2h-1h-2h-2h-2h-1h-2h-2h-1h-2h-2h-2h-1
h-2h-2h-1h-2h-2h-2h-1h-2h-2h-2h-1h-2h-2h-2h-2h-1h-2h-2h-2h-2h-1h-2h-2h-2h-2h-1h-2h-2h-2h-2h-1h-2h-2h-2h-2h-2h-2h-1h-2h-2h-2h-2h-2h-2h-1h-2h-10q0 -9 6 -30t7 -26zM465 1274l-49 168l815 561l794 -553l330 -328l2 -2l2 -2q76 -53 140 -117q191 -189 262 -397
t63 -485h-18q22 -42 22 -86q0 -55 -32 -135q-41 -98 -144 -172.5t-251 -119t-323.5 -66t-377.5 -21.5q-305 0 -532.5 23t-392 72t-277 115t-207.5 162q-164 166 -249 335t-85 370q0 146 50.5 270.5t166 232t291.5 175.5z" />
    <glyph glyph-name="edieresis" unicode="&#xeb;" horiz-adv-x="2437" 
d="M1483 104q95 0 224.5 15t156.5 41v0v0v0v0h-1v0v0h-1v0h-1v0h-1v0h-1v0h-1h-1v0h-1h-1h-1v0h-1h-1h-1h-1h-1h-1h-1h-1h-1h-1h-1h-1h-1h-1h-1h-1h-1h-1h-1h-1h-1h-1h-1h-1h-1h-1h-1h-1h-1h-1h-1h-1h-1h-1h-1h-1h-1h-1h-1h-1h-1h-1h-1h-1h-1h-1h-1h-1h-1h-1h-1h-1h-1h-1h-1
h-1h-1h-1h-1h-1h-1h-1h-1h-1h-1h-2h-1h-1h-1h-1h-1h-1h-1h-1h-1h-2h-1h-1h-1h-1h-1h-2h-1h-1h-1h-1h-1h-2h-1h-1h-1h-1h-2h-1h-1h-1h-2h-1h-1h-1h-2h-1h-1h-1h-2h-1h-1h-2h-1h-1h-1h-2h-1h-1h-2h-1h-1h-2h-1h-1h-2h-1h-1h-2h-1h-1h-2h-1h-2h-1h-1h-2h-1h-2h-1h-1h-2h-1h-2
h-1h-1h-2h-1h-2h-1h-2h-1h-2h-1h-2h-1h-1h-2h-1h-2h-1h-2h-1h-2h-1h-2h-1h-2h-1h-2h-1h-2h-2h-1h-2h-1h-2h-1h-2h-1h-2h-1h-2h-2h-1h-2h-1h-2h-2h-1h-2h-1h-2h-2h-1h-2h-1h-2h-2h-1h-2h-2h-1h-2h-1h-2h-2h-1h-2h-2h-1h-2h-2h-1h-2h-2h-1h-2h-2h-2h-1h-2h-2h-1h-2h-2h-2h-1
h-2h-2h-1h-2h-2h-2h-1h-2h-2h-2h-1h-2h-2h-2h-2h-1h-2h-2h-2h-2h-1h-2h-2h-2h-2h-1h-2h-2h-2h-2h-1h-2h-2h-2h-2h-2h-2h-1h-2h-2h-2h-2h-2h-2h-1h-2h-10q0 -9 6 -30t7 -26zM530 1296q-92 142 -92 265q0 140 106 232.5t312 92.5q244 0 389 -133q105 133 348 133
q312 0 568 -239q80 -77 131 -169t67.5 -157.5t16.5 -118.5q0 -42 -13 -86q73 -53 136 -115q191 -189 262 -397t63 -485h-18q22 -42 22 -86q0 -55 -32 -135q-41 -98 -144 -172.5t-251 -119t-323.5 -66t-377.5 -21.5q-305 0 -532.5 23t-392 72t-277 115t-207.5 162
q-164 166 -249 335t-85 370q0 237 139.5 420t433.5 280z" />
    <glyph glyph-name="igrave" unicode="&#xec;" horiz-adv-x="1904" 
d="M178 1317q-53 82 -76.5 171.5t-23.5 151.5q0 114 76 187.5t237 73.5q215 0 529.5 -129.5t556.5 -323.5l51 -51l35 2l381 -381q-8 -21 -19.5 -59t-31 -147t-19.5 -208v-395q0 -35 2 -41q20 -4 94 -4l375 -375v-229h-2052l-375 374v230q131 0 224.5 33t147 96t77.5 144.5
t24 187.5q0 39 -6 77q-68 5 -92 5l-375 374v222q17 1 44 2.5t84 4.5l95 5t37 2z" />
    <glyph glyph-name="iacute" unicode="&#xed;" horiz-adv-x="1904" 
d="M344 1327l-35 111q254 202 570 332.5t532 130.5q115 0 239.5 -55t241.5 -175q99 -101 145 -209t46 -180q0 -43 -6.5 -77t-23.5 -66.5t-50.5 -57t-83.5 -39.5l25 -24q-8 -21 -19.5 -59t-31 -147t-19.5 -208v-395q0 -35 2 -41q20 -4 94 -4l375 -375v-229h-2052l-375 374
v230q131 0 224.5 33t147 96t77.5 144.5t24 187.5q0 39 -6 77q-68 5 -92 5l-375 374v222z" />
    <glyph glyph-name="icircumflex" unicode="&#xee;" horiz-adv-x="1904" 
d="M186 1319l-36 123l815 561l794 -553l373 -371l-61 -202q-104 35 -154 51q-43 -168 -43 -324v-395q0 -35 2 -41q20 -4 94 -4l375 -375v-229h-2052l-375 374v230q131 0 224.5 33t147 96t77.5 144.5t24 187.5q0 39 -6 77q-68 5 -92 5l-375 374v222z" />
    <glyph glyph-name="idieresis" unicode="&#xef;" horiz-adv-x="1904" 
d="M248 1321q-76 132 -76 240q0 140 106 232.5t312 92.5q244 0 389 -133q105 133 348 133q311 0 567 -239q80 -77 131 -169t67.5 -157.5t16.5 -118.5q0 -91 -48.5 -158t-141.5 -104q-45 -190 -45 -336v-395q0 -35 2 -41q20 -4 94 -4l375 -375v-229h-2052l-375 374v230
q131 0 224.5 33t147 96t77.5 144.5t24 187.5q0 39 -6 77q-68 5 -92 5l-375 374v222z" />
    <glyph glyph-name="eth" unicode="&#xf0;" horiz-adv-x="2754" 
d="M3140 444q0 -206 -60 -362.5t-173.5 -263t-288.5 -173.5t-392 -96.5t-497 -29.5q-306 0 -535.5 23.5t-398 74t-285.5 118.5t-217 167q-185 185 -259.5 358.5t-74.5 364.5q0 160 53 290.5t149 220t225.5 145.5t287.5 75q-10 21 -15 37q-97 93 -140.5 183t-43.5 161
q0 21 24 46t79.5 51.5t133.5 48t198 35t261 13.5q417 0 716.5 -53t505.5 -157.5t364 -274.5q203 -219 293 -454t90 -548z" />
    <glyph glyph-name="ntilde" unicode="&#xf1;" horiz-adv-x="3170" 
d="M791 1354q-80 107 -80 194q0 316 532 316q548 0 807 -262l80 -80q151 0 151 84q0 39 -14.5 72t-56.5 89l172 93q111 -67 198.5 -135t176.5 -162q180 -194 180 -324q0 -120 -78 -195q141 -150 211 -316.5t70 -321.5v-238q29 -4 96 -4l375 -375v-238q-450 9 -875 9
q-106 0 -396 -5.5t-396 -5.5t-397 5.5t-396 5.5l-856 -6l-377 376v234q133 0 225 29.5t146 90t78 143.5t24 198q0 39 -6 77q-68 5 -92 5l-375 374v222z" />
    <glyph glyph-name="ograve" unicode="&#xf2;" horiz-adv-x="2523" 
d="M666 1329q-50 81 -72.5 167t-22.5 144q0 114 76.5 187.5t237.5 73.5q142 0 346.5 -59.5t411.5 -166.5t327 -227l215 -215q108 -44 220 -125.5t171 -142.5q163 -172 256 -355t93 -344q0 -131 -43 -239.5t-124.5 -190t-196 -142.5t-261.5 -99.5t-316 -57t-364 -18.5
q-882 0 -1278 372q-385 362 -385 732q0 271 185 449.5t524 256.5z" />
    <glyph glyph-name="oacute" unicode="&#xf3;" horiz-adv-x="2523" 
d="M887 1368l-23 70q254 202 570 332.5t532 130.5q115 0 239.5 -55t241.5 -175q99 -101 145 -209t46 -180q0 -57 -10.5 -97.5t-45 -78.5t-94.5 -59q47 -38 88 -82q163 -172 256 -355t93 -344q0 -131 -43 -239.5t-124.5 -190t-196 -142.5t-261.5 -99.5t-316 -57t-364 -18.5
q-882 0 -1278 372q-385 362 -385 732q0 209 113.5 365.5t319.5 250t497 129.5z" />
    <glyph glyph-name="ocircumflex" unicode="&#xf4;" horiz-adv-x="2523" 
d="M506 1284l-47 158l815 561l794 -553l353 -350l2 -2l2 -2q82 -59 151 -131q163 -172 256 -355t93 -344q0 -131 -43 -239.5t-124.5 -190t-196 -142.5t-261.5 -99.5t-316 -57t-364 -18.5q-882 0 -1278 372q-385 362 -385 732q0 237 142 403.5t407 257.5z" />
    <glyph glyph-name="otilde" unicode="&#xf5;" horiz-adv-x="2523" 
d="M518 1288q-131 153 -131 260q0 316 533 316q547 0 806 -262l80 -80q152 0 152 84q0 39 -15 71.5t-57 89.5l172 93q111 -67 198.5 -135t176.5 -162q180 -194 180 -324q0 -138 -100 -213q15 -13 63 -61q163 -172 256 -355t93 -344q0 -131 -43 -239.5t-124.5 -190
t-196 -142.5t-261.5 -99.5t-316 -57t-364 -18.5q-882 0 -1278 372q-385 362 -385 732q0 240 145 407t416 258z" />
    <glyph glyph-name="odieresis" unicode="&#xf6;" horiz-adv-x="2523" 
d="M569 1305q-88 137 -88 256q0 140 106 232.5t312 92.5q244 0 389 -133q105 133 348 133q312 0 568 -239q80 -77 131 -169t67.5 -157.5t16.5 -118.5q0 -48 -15 -92q95 -65 172 -145q163 -172 256 -355t93 -344q0 -131 -43 -239.5t-124.5 -190t-196 -142.5t-261.5 -99.5
t-316 -57t-364 -18.5q-882 0 -1278 372q-385 362 -385 732q0 250 158.5 422t453.5 260z" />
    <glyph glyph-name="divide" unicode="&#xf7;" horiz-adv-x="2195" 
d="M2204 1034l376 -377l-32 -526h-801q92 -107 92 -246q0 -87 -36 -158t-96 -115.5t-135 -68.5t-157 -24q-126 0 -259.5 65t-231.5 166q-118 126 -175 203t-87 164l-308 -21l-379 377l33 524h735q-86 119 -86 252q0 72 23.5 131t64 98.5t94.5 66t113.5 38.5t124.5 12
q127 0 255 -51t237 -160q103 -104 172.5 -203.5t95.5 -172.5q89 4 181 10.5t139 11.5z" />
    <glyph glyph-name="oslash" unicode="&#xf8;" horiz-adv-x="2523" 
d="M2685 1059q-76 -59 -111 -86q182 -159 266.5 -345t84.5 -370q0 -190 -94.5 -333t-270 -231t-411 -131.5t-529.5 -43.5q-272 0 -494 37q-21 -21 -42 -41.5t-34 -33t-14 -13.5l-196 -275l-654 647l117 90q-97 82 -166.5 172t-107.5 177.5t-55 166t-17 156.5q0 199 92 350
t264.5 247t410.5 144t538 48q283 0 495 -39l80 80l207 260z" />
    <glyph glyph-name="ugrave" unicode="&#xf9;" horiz-adv-x="3170" 
d="M969 1366q-39 74 -56.5 148.5t-17.5 125.5q0 114 76 187.5t237 73.5q215 0 529.5 -129.5t556.5 -323.5l80 -80l446 29l379 -381q-59 -267 -59 -412v-334q0 -52 6 -102q27 -4 90 -4l375 -375v-225l-1581 -47l-95 94q-199 -92 -462 -92q-256 0 -446.5 71.5t-352.5 237.5
q-154 159 -218.5 332t-64.5 393v94q0 19 -4 55q-68 5 -94 5l-375 374v222z" />
    <glyph glyph-name="uacute" unicode="&#xfa;" horiz-adv-x="3170" 
d="M1206 1380l-18 58q254 202 570 332.5t532 130.5q115 0 239.5 -55t241.5 -175q99 -101 144.5 -209t45.5 -180v-27l238 -239q-59 -267 -59 -412v-334q0 -52 6 -102q27 -4 90 -4l375 -375v-225l-1581 -47l-95 94q-199 -92 -462 -92q-256 0 -446.5 71.5t-352.5 237.5
q-154 159 -218.5 332t-64.5 393v94q0 19 -4 55q-68 5 -94 5l-375 374v222z" />
    <glyph glyph-name="ucircumflex" unicode="&#xfb;" horiz-adv-x="3170" 
d="M807 1356l-25 86l815 561l795 -553l76 -76l352 23l379 -381q-59 -267 -59 -412v-334q0 -52 6 -102q27 -4 90 -4l375 -375v-225l-1581 -47l-95 94q-199 -92 -462 -92q-256 0 -446.5 71.5t-352.5 237.5q-154 159 -218.5 332t-64.5 393v94q0 19 -4 55q-68 5 -94 5l-375 374
v222z" />
    <glyph glyph-name="udieresis" unicode="&#xfc;" horiz-adv-x="3170" 
d="M860 1360q-55 107 -55 201q0 140 106 232.5t312 92.5q244 0 389 -133q105 133 348 133q311 0 567 -239q121 -119 174 -258l119 8l379 -381q-59 -267 -59 -412v-334q0 -52 6 -102q27 -4 90 -4l375 -375v-225l-1581 -47l-95 94q-199 -92 -462 -92q-256 0 -446.5 71.5
t-352.5 237.5q-154 159 -218.5 332t-64.5 393v94q0 19 -4 55q-68 5 -94 5l-375 374v222z" />
    <glyph glyph-name="yacute" unicode="&#xfd;" horiz-adv-x="2625" 
d="M958 1298l-43 140q254 202 570 332.5t532 130.5q116 0 240.5 -55t241.5 -175q89 -91 135 -188.5t53 -173.5h4l375 -375v-227q-125 0 -238.5 -21t-215.5 -63t-183.5 -113t-130.5 -164l-344 -655q-31 -60 -60.5 -107.5t-75 -105t-95 -100.5t-120 -85.5t-151 -69.5t-187 -44
t-229.5 -17q-328 0 -542.5 71.5t-364.5 221.5q-162 159 -227.5 297t-65.5 246q0 59 16.5 111.5t55.5 101.5t97.5 84.5t149 56.5t203.5 21q152 0 265 -39l-150 301q-4 8 -11 23.5t-11 23.5q-80 25 -158 25l-375 374v228q161 0 480.5 -5.5t418.5 -5.5h141z" />
    <glyph glyph-name="thorn" unicode="&#xfe;" horiz-adv-x="3088" 
d="M3488 266q0 -147 -46 -268.5t-126 -205.5t-189.5 -142t-234 -84.5t-262.5 -26.5q-132 0 -244 23l184 -185v-227q-194 0 -604.5 5t-542.5 5q-134 0 -540.5 -5t-589.5 -5l-375 375v227q195 0 311 85t170 272t54 503q0 303 -50 498q-41 6 -90 6l-374 375v223l1687 51
l375 -376v-39q114 20 270 20q240 0 479 -93.5t406 -268.5q174 -182 253 -363t79 -379z" />
    <glyph glyph-name="ydieresis" unicode="&#xff;" horiz-adv-x="2625" 
d="M829 1298q-55 107 -55 199q0 67 25 124.5t75 103.5t131.5 72t186.5 26q244 0 389 -133q105 133 348 133q311 0 568 -240q121 -118 182 -274h12l375 -375v-227q-125 0 -238.5 -21t-215.5 -63t-183.5 -113t-130.5 -164l-344 -655q-31 -60 -60.5 -107.5t-75 -105t-95 -100.5
t-120 -85.5t-151 -69.5t-187 -44t-229.5 -17q-328 0 -542.5 71.5t-364.5 221.5q-162 159 -227.5 297t-65.5 246q0 59 16.5 111.5t55.5 101.5t97.5 84.5t149 56.5t203.5 21q152 0 265 -39l-150 301q-4 8 -11 23.5t-11 23.5q-80 25 -158 25l-375 374v228q161 0 480.5 -5.5
t418.5 -5.5h12z" />
    <glyph glyph-name="dotlessi" unicode="&#x131;" horiz-adv-x="1904" 
d="M1944 1018q-8 -21 -19.5 -59t-31 -147t-19.5 -208v-395q0 -35 2 -41q20 -4 94 -4l375 -375v-229h-2052l-375 374v230q131 0 224.5 33t147 96t77.5 144.5t24 187.5q0 39 -6 77q-68 5 -92 5l-375 374v222l1645 96z" />
    <glyph glyph-name="Lslash" unicode="&#x141;" horiz-adv-x="2850" 
d="M184 205l-143 311l397 184q4 90 4 144q0 159 -20 268q-55 6 -129 6l-375 375v233q199 0 624 -5t562 -5q139 0 559 5t608 5l375 -374v-234q-120 0 -219 -12l88 -191l-490 -229v-252q20 13 129 90q93 68 249 192t266 214l110 90l383 -385l49 -1081h-1263q-106 0 -397 5
t-398 5q-98 0 -405 -5t-455 -5l-375 374v236q164 0 266 41z" />
    <glyph glyph-name="lslash" unicode="&#x142;" horiz-adv-x="1966" 
d="M1985 1364l387 -141l143 -308l-580 -270v-41v-119q0 -187 33 -319q16 -2 64 -2l374 -375v-238q-182 0 -563 5.5t-502 5.5q-123 0 -499.5 -5.5t-548.5 -5.5l-375 375v238q160 0 264 43l-141 309l408 191q4 86 4 137q0 152 -21 266q-82 8 -139 8l-375 375v223l1690 47
l379 -377q0 -8 -2 -22z" />
    <glyph glyph-name="OE" unicode="&#x152;" horiz-adv-x="4061" 
d="M4471 1346l-53 -797l-148 72v-46l150 -143l53 -874l-1925 4q-267 -45 -615 -45q-588 0 -955 102.5t-601 335.5q-217 215 -306 411t-89 422q0 162 34.5 294t99.5 232.5t166 177t226 128t287.5 83.5t342 46t398.5 14q355 0 616 -43h1942z" />
    <glyph glyph-name="oe" unicode="&#x153;" horiz-adv-x="3600" 
d="M3885 135l88 -90q0 -246 -261 -386t-759 -140q-458 0 -710 108q-115 -62 -279 -85t-385 -23q-432 0 -726 99t-491 290q-198 191 -280 358t-82 336q0 239 145 416.5t422 275t654 97.5q183 0 347 -34.5t261 -92.5q272 127 635 127q448 0 732.5 -99.5t467.5 -296.5
q161 -174 226.5 -381t53.5 -479v0h-1h-1h-1h-1h-1h-1h-1h-1h-2h-1h-2h-2h-2h-1h-3h-2h-2h-2h-3h-3h-2h-4h-3h-4h-4h-9z" />
    <glyph glyph-name="Scaron" unicode="&#x160;" horiz-adv-x="2799" 
d="M977 1739l-125 86l-373 373l62 202q384 -141 749 -141q382 0 740 141l376 -377l56 -186l-285 -197q6 -2 18.5 -7t18.5 -7q205 113 565 143l377 -376q-17 -254 -31 -371q-6 -55 -20.5 -148t-25.5 -159l-11 -66h-10q53 -60 91 -157.5t38 -202.5q0 -373 -364 -571.5
t-1033 -198.5q-334 0 -560 50.5t-390 141.5q-191 -129 -498 -217l-381 379q25 297 41 428q6 55 22 148t29 159l13 66h16q-35 55 -58.5 148t-23.5 198q0 289 253 475.5t724 243.5z" />
    <glyph glyph-name="scaron" unicode="&#x161;" horiz-adv-x="2367" 
d="M2046 1300l-4 -2zM852 1378l-143 99l-373 372l61 203q384 -141 750 -141q381 0 739 141l377 -377l55 -186l-272 -189l317 164l385 -385q-35 -266 -53 -364q-9 -50 -61 -236q-17 2 -17 0q109 -146 109 -317q0 -303 -302 -473t-876 -170q-347 0 -554 49.5t-343 144.5
q0 1 -83 -59.5t-166 -121.5l-83 -60l-387 385q27 266 41 350q5 37 19 106.5t26 120.5l11 51h32q-27 45 -43 121t-16 156q0 96 27 177.5t90 156t160 130.5t242 95.5t331 56.5z" />
    <glyph glyph-name="Ydieresis" unicode="&#x178;" horiz-adv-x="3362" 
d="M1282 1718q-61 113 -61 211q0 140 106 233t311 93q245 0 390 -133q105 133 348 133q310 0 567 -240q133 -127 186 -293q204 4 299 4l375 -374v-234q-149 0 -279 -37.5t-242 -112.5t-207.5 -174t-190.5 -235l-218 -307v-45q0 -15 1 -15t2 5q139 -33 372 -33l375 -375v-235
q-230 0 -743 5t-682 5q-171 0 -680.5 -5t-728.5 -5l-375 374v236q137 0 244 10.5t202 38t157 72t98 115t36 165.5v58l-323 446q-118 49 -328 49l-375 375v233q195 0 608.5 -5t546.5 -5t209 2z" />
    <glyph glyph-name="Zcaron" unicode="&#x17d;" horiz-adv-x="2936" 
d="M1120 1718l-94 66l-373 373l62 202q384 -141 749 -141q382 0 740 141l376 -377l56 -186l-105 -72q168 2 471 2l375 -374v-187l-282 -274l231 -234v-1103q-244 0 -793 5t-731 5q-184 0 -729.5 -5t-779.5 -5l-375 374v187q248 239 336 323l-264 262v1026q190 0 602.5 -3.5
t527.5 -4.5z" />
    <glyph glyph-name="zcaron" unicode="&#x17e;" horiz-adv-x="2484" 
d="M1047 1309l-185 127l-373 372l62 203q384 -141 749 -141q382 0 740 141l377 -377l55 -186l-201 -139h197l375 -375v-174l-160 -176l156 -156l24 -874q-208 0 -658 5t-595 5q-148 0 -593 -5t-640 -5l-375 374v185q142 159 205 229l-162 164l-27 907q58 -11 158 -28
t371.5 -45.5t499.5 -30.5z" />
    <glyph glyph-name="florin" unicode="&#x192;" horiz-adv-x="3233" 
d="M3058 377l-531 18l-43 -475q-6 -126 -51 -232.5t-116.5 -184.5t-171.5 -139.5t-211 -101t-239.5 -65.5t-252.5 -36.5t-256 -10.5q-367 0 -573.5 56t-354.5 192q-299 280 -299 571q0 78 36 147.5t105 124.5t179.5 87t248.5 32q283 0 469 -145l21 258l-279 279l25 307
q137 -31 303 -35l6 59q9 106 56 203t139 184t221 151t313 101t404 37q307 0 532 -39.5t360.5 -104.5t237.5 -165q76 -75 130 -152t79.5 -142t36 -113.5t10.5 -90.5q0 -70 -33 -132.5t-95.5 -112.5t-162.5 -81.5t-225 -37.5z" />
    <glyph glyph-name="circumflex" unicode="&#x2c6;" horiz-adv-x="20" 
d="M1180 1079l-62 -202q-391 141 -749 141q-371 0 -740 -139l-377 376l-55 187l815 561l795 -553z" />
    <glyph glyph-name="caron" unicode="&#x2c7;" horiz-adv-x="20" 
d="M1126 1634l56 -186l-811 -563l-799 551l-373 372l62 203q384 -141 749 -141q382 0 740 141z" />
    <glyph glyph-name="breve" unicode="&#x2d8;" horiz-adv-x="20" 
d="M1171 1436q-83 -247 -300 -391t-502 -144q-422 0 -791 340q-290 273 -371 557l70 230q168 -192 334 -267t399 -75q109 0 193 12t149 32.5t130.5 63t119 87.5t133.5 122l383 -383z" />
    <glyph glyph-name="dotaccent" unicode="&#x2d9;" horiz-adv-x="20" 
d="M940 1305q0 -177 -157.5 -290.5t-417.5 -113.5q-188 0 -343 60.5t-290 189.5q-293 279 -293 512q0 178 149 298t418 120q394 0 680 -283q132 -130 193 -260.5t61 -232.5z" />
    <glyph glyph-name="ring" unicode="&#x2da;" horiz-adv-x="20" 
d="M944 1176q0 -61 -32.5 -117t-98 -104.5t-180.5 -77.5t-264 -29q-115 0 -216.5 19t-173 46.5t-136 68.5t-104 76t-79.5 79q-113 125 -169 222.5t-56 184.5q0 48 19.5 93.5t63.5 89t109 76t164 52t219 19.5q221 0 389 -72t308 -215q129 -132 183 -239t54 -172z" />
    <glyph glyph-name="ogonek" unicode="&#x2db;" horiz-adv-x="20" 
d="M766 -582q0 -74 -53 -145q-44 -70 -157 -122t-222 -52q-127 0 -262 54.5t-232 144.5q-118 112 -173.5 233.5t-55.5 210.5q0 216 252 360h184l209 -206q9 6 23 6q154 0 352 -201q74 -74 104.5 -152.5t30.5 -130.5z" />
    <glyph glyph-name="tilde" unicode="&#x2dc;" horiz-adv-x="20" 
d="M1352 1239q0 -313 -533 -313q-281 0 -474 61.5t-331 194.5q-80 80 -86 84q-56 3 -101.5 -17t-45.5 -57q0 -32 17.5 -65t74.5 -101l-192 -94q-110 58 -186 119t-169 161q-94 100 -147 180t-53 156q0 316 532 316q548 0 807 -262l80 -80q151 0 151 84q0 39 -14.5 72
t-56.5 89l172 93q214 -129 374 -297q181 -195 181 -324z" />
    <glyph glyph-name="hungarumlaut" unicode="&#x2dd;" horiz-adv-x="20" 
d="M1243 1282q0 -58 -16 -102t-54 -82t-110.5 -58t-177.5 -20q-150 0 -267.5 -26t-322.5 -120l-152 146q-144 -2 -265 -28.5t-322 -117.5l-377 377l-53 176q108 125 189.5 206.5t169 145.5t172 93t177.5 29q49 0 99.5 -14t83 -28.5t73.5 -43.5t51.5 -37.5t36.5 -30.5
q189 154 393 154q251 0 490 -244q90 -90 136 -197.5t46 -177.5z" />
    <glyph glyph-name="pi" unicode="&#x3c0;" horiz-adv-x="3098" 
d="M2836 1477q250 -246 372 -496t122 -557q0 -205 -82 -380t-220.5 -298t-322 -210.5t-386.5 -129t-414 -41.5q-384 0 -739 140t-578 356q-238 232 -351.5 453.5t-113.5 467.5q0 190 55 359t152.5 299t231 233t292.5 170t334 102t358 35q787 0 1290 -503z" />
    <glyph glyph-name="endash" unicode="&#x2013;" horiz-adv-x="2897" 
d="M3254 711l-4 -586h-1470q-303 0 -653.5 -8.5t-548.5 -16.5l-199 -8l-379 377l4 586h1395q349 0 718.5 8t564.5 16l195 8z" />
    <glyph glyph-name="emdash" unicode="&#x2014;" horiz-adv-x="3938" 
d="M3903 1087l377 -376l-8 -586h-1943q-304 0 -791.5 -7.5t-823.5 -15.5l-335 -8l-379 377l4 584h1966q350 0 833.5 8t791.5 16z" />
    <glyph glyph-name="quoteleft" unicode="&#x2018;" horiz-adv-x="978" 
d="M1440 1221l-107 -205q-91 68 -178 65q91 -87 134.5 -197.5t43.5 -211.5q0 -180 -133 -305t-350 -125q-147 0 -299.5 58.5t-286.5 186.5q-175 165 -243 329.5t-68 361.5q0 134 50.5 246t136 184.5t196.5 112.5t235 40q268 0 494 -166z" />
    <glyph glyph-name="quoteright" unicode="&#x2019;" horiz-adv-x="978" 
d="M1374 825q0 -134 -50.5 -246t-136 -184.5t-196.5 -112.5t-235 -40q-274 0 -494 166l-375 374l107 205q83 -61 166 -67q-88 86 -127 196.5t-39 214.5q0 180 133 305t350 125q145 0 299 -59.5t287 -185.5q175 -168 243 -331t68 -360z" />
    <glyph glyph-name="quotesinglbase" unicode="&#x201a;" horiz-adv-x="978" 
d="M1374 -215q0 -134 -51 -247t-137 -187t-197.5 -115t-234.5 -41q-266 0 -492 166l-375 375l107 205q86 -68 201 -82q-93 97 -147 212.5t-54 213.5q0 87 34 165t95 137.5t153 94.5t201 35q332 0 600 -268q157 -154 227 -316t70 -348z" />
    <glyph glyph-name="quotedblleft" unicode="&#x201c;" horiz-adv-x="2004" 
d="M2406 1221l-108 -205q-84 65 -180 65q180 -162 180 -409q0 -180 -133 -305t-350 -125q-126 0 -258.5 42t-251.5 136q-60 -82 -161.5 -130t-228.5 -48q-152 0 -312.5 54t-289.5 175q-165 156 -230 329.5t-65 377.5q0 134 50.5 246t136 184.5t196.5 112.5t234 40
q135 0 263 -43.5t210 -111.5q83 75 194.5 115t233.5 40q268 0 494 -166z" />
    <glyph glyph-name="quotedblright" unicode="&#x201d;" horiz-adv-x="2004" 
d="M1475 1761q146 0 303 -59.5t288 -183.5q167 -157 236.5 -327t69.5 -366q0 -134 -51 -246t-136.5 -184.5t-197 -112.5t-234.5 -40q-154 0 -294 50.5t-218 131.5q-71 -82 -206 -132t-279 -50q-274 0 -494 166l-375 374l107 205q86 -64 180 -67q-180 164 -180 411
q0 180 133 305t350 125q141 0 297.5 -51t282.5 -160q60 96 167.5 153.5t250.5 57.5z" />
    <glyph glyph-name="quotedblbase" unicode="&#x201e;" horiz-adv-x="2004" 
d="M2372 -215q0 -134 -51 -247t-137 -187t-198 -115t-235 -41q-265 0 -491 166l-33 31q-72 -90 -200 -143.5t-273 -53.5q-266 0 -492 166l-375 375l107 205q86 -68 201 -82q-93 97 -147 212.5t-54 213.5q0 87 34 165t95 137.5t153 94.5t201 35q142 0 289.5 -60t280.5 -182
q53 109 164.5 175.5t263.5 66.5q332 0 600 -268q156 -155 226.5 -317t70.5 -347z" />
    <glyph glyph-name="dagger" unicode="&#x2020;" horiz-adv-x="2058" 
d="M2476 944l-31 -469q-279 -21 -420 4q-118 18 -309 41q-7 -228 3 -661.5t10 -515.5l-326 -119l-307 114l-373 373q0 120 5.5 404.5t6.5 357.5q-84 -8 -183.5 -8t-157.5 4l-58 4l-377 377l31 459q299 9 432 -11q16 -3 61 -9t110 -15t103 -14q-17 98 -48 162.5t-91 103.5
l102 194h768l369 -370q15 -25 19 -33q61 4 132.5 5t112.5 0l41 -1z" />
    <glyph glyph-name="daggerdbl" unicode="&#x2021;" horiz-adv-x="2058" 
d="M1817 1317q61 4 132 5t111 0l41 -1l375 -377l-22 -369h-17q7 0 17 -5.5t16 -11.5l6 -5l-29 -487q-32 -3 -82.5 -6t-165 -3t-178.5 13q-40 6 -346 41q5 -125 29.5 -386.5t24.5 -381.5l-326 -119l-307 114l-373 373q0 96 29 355q-25 -5 -56 -5q-81 -6 -161 -5.5t-139 4.5
l-60 3l-377 377l25 363q8 2 20 2q-4 0 -15.5 6.5t-20.5 12.5l-9 7l31 474q299 20 432 -7q124 -13 326 -38q-24 87 -74 156t-115 110l100 194h768l369 -370z" />
    <glyph glyph-name="bullet" unicode="&#x2022;" horiz-adv-x="1826" 
d="M1778 1090q193 -204 278.5 -371.5t85.5 -356.5q0 -145 -46.5 -270.5t-128.5 -217t-191.5 -156.5t-237.5 -97.5t-264 -32.5q-231 0 -448.5 94.5t-397.5 272.5q-193 193 -284 378.5t-91 387.5q0 151 47.5 275.5t128.5 210t191.5 144.5t235 86t259.5 27q507 0 863 -374z" />
    <glyph glyph-name="ellipsis" unicode="&#x2026;" horiz-adv-x="2822" 
d="M3181 -49q0 -102 -43 -185.5t-114.5 -136.5t-161.5 -81.5t-187 -28.5q-123 0 -256 54.5t-226 164.5q-64 -106 -184 -162.5t-260 -56.5q-124 0 -263.5 58.5t-217.5 160.5q-64 -105 -184.5 -162t-260.5 -57q-334 0 -598 280q-262 278 -262 510q0 84 28 153t75.5 115.5
t112 78.5t136.5 46.5t150 14.5q134 0 263 -51.5t220 -153.5q59 101 179 153t264 52q134 0 263 -51.5t220 -153.5q59 101 178.5 153t263.5 52q153 0 310 -64.5t294 -206.5q135 -135 198 -262.5t63 -232.5z" />
    <glyph glyph-name="perthousand" unicode="&#x2030;" horiz-adv-x="4698" 
d="M5057 55q0 -114 -55 -210.5t-160 -169t-270.5 -113.5t-375.5 -41q-292 0 -506.5 73t-330.5 209q-92 -132 -291 -207t-490 -75q-638 0 -976 377q-89 96 -121 155l-697 -397l-211 -176l-380 381l-183 325l262 103l316 180q-85 36 -173 97.5t-206 176.5q-238 232 -238 478
q0 117 48 213t148 171.5t269 117.5t395 42q249 0 411.5 -44.5t279.5 -127.5q70 -50 175.5 -77t213.5 -27q180 0 396 70t505 229l375 -379l184 -313l-264 -103l-301 -174q134 -50 266 -162q89 128 279.5 200.5t486.5 72.5q331 0 549.5 -84t380.5 -246q145 -145 217 -291.5
t72 -253.5z" />
    <glyph glyph-name="guilsinglleft" unicode="&#x2039;" horiz-adv-x="1003" 
d="M1475 963l-332 -678l332 -676l-158 -62l-1073 715l-385 385l1104 744l133 -52z" />
    <glyph glyph-name="guilsinglright" unicode="&#x203a;" horiz-adv-x="1003" 
d="M1507 279l-1097 -732l-136 50l-380 378l329 668l-336 690l160 58l1073 -727z" />
    <glyph glyph-name="fraction" unicode="&#x2044;" horiz-adv-x="1171" 
d="M1956 1784l-1450 -2433l-133 -371l-389 203l-377 375l1460 2447l156 362l356 -206z" />
    <glyph glyph-name="Euro" unicode="&#x20ac;" horiz-adv-x="3299" 
d="M3705 1343q-87 -339 -148 -501q-22 -62 -56 -143.5t-57 -132.5l-24 -50h-45l49 -55q36 -123 47 -177t11 -118q0 -164 -101 -289.5t-284.5 -203t-426.5 -116t-540 -38.5q-461 0 -798 76.5t-556 267.5q-19 15 -112 106.5t-107 110.5l-190 -12l-379 376l2 261h43l-45 75
l2 350h270q50 143 148.5 251t233.5 180t317 117t385.5 64t453.5 19q544 0 764 -119q134 35 337.5 56.5t428.5 21.5z" />
    <glyph glyph-name="trademark" unicode="&#x2122;" horiz-adv-x="1814" 
d="M2255 1589v-1296q-138 0 -208.5 -52.5t-78.5 -148.5l287 -303v-481q-172 0 -525 5t-464 5q-113 0 -462 -5t-511 -5l-375 375v481q143 0 204 58t66 167l-270 279v1296q172 0 525 -5t464 -5q113 0 462 5t511 5z" />
    <glyph glyph-name="Omega" unicode="&#x2126;" horiz-adv-x="3094" 
d="M3408 426l53 -51l-24 -840l-1512 27l-39 35l-6 -35l-1509 -25l-377 377l26 836h33q-5 9 -16.5 47.5t-23 101.5t-11.5 115q0 170 64.5 298t185.5 214t311 139.5t424 76.5t541 23q610 0 989.5 -100t595.5 -330q183 -194 261.5 -357.5t78.5 -322.5q0 -130 -45 -229z" />
    <glyph glyph-name="partialdiff" unicode="&#x2202;" horiz-adv-x="2754" 
d="M3140 444q0 -206 -60 -362.5t-173.5 -263t-288.5 -173.5t-392 -96.5t-497 -29.5q-306 0 -535.5 23.5t-398 74t-285.5 118.5t-217 167q-185 185 -259.5 358.5t-74.5 364.5q0 160 53 290.5t149 220t225.5 145.5t287.5 75q-10 21 -15 37q-97 93 -140.5 183t-43.5 161
q0 21 24 46t79.5 51.5t133.5 48t198 35t261 13.5q417 0 716.5 -53t505.5 -157.5t364 -274.5q203 -219 293 -454t90 -548z" />
    <glyph glyph-name="Delta" unicode="&#x2206;" horiz-adv-x="2424" 
d="M1587 1452l1354 -1892q-260 0 -744 5t-626 5q-147 0 -621 -5t-708 -5l-383 383l1347 1892z" />
    <glyph glyph-name="product" unicode="&#x220f;" horiz-adv-x="3778" 
d="M2204 840q0 15 -4 43q-128 -20 -196.5 -124.5t-68.5 -277.5v-254q0 -15 4 -43q122 18 193.5 119t71.5 283v254zM4219 1116q-123 0 -216.5 -31.5t-153 -84.5t-96.5 -131t-52 -163t-15 -188q0 -182 50 -346q41 -8 108 -8l375 -375v-235q-177 0 -542.5 5t-481.5 5
q-126 0 -472 -5t-472 -5t-473 5t-473 5q-118 0 -481.5 -5t-530.5 -5l-375 374v236q90 0 166 24t130 64t96.5 97.5t69 119.5t43.5 134.5t23.5 138.5t6.5 135q0 119 -25 231q-62 10 -135 10l-375 375v227h3926l375 -374v-230z" />
    <glyph glyph-name="summation" unicode="&#x2211;" horiz-adv-x="2836" 
d="M3135 530l89 -90l-197 -886q-214 0 -707.5 5t-658.5 5q-166 0 -659.5 -5t-708.5 -5l-375 374v236q127 0 230 17t179.5 46t145.5 78t121 102.5t113 131.5q92 119 190 202l-274 289q-24 24 -52 60q-109 28 -278 28l-375 375v233q225 0 723 -5t662 -5q166 0 656.5 5t696.5 5
l371 -370l201 -826h-93z" />
    <glyph glyph-name="minus" unicode="&#x2212;" horiz-adv-x="1392" 
d="M2077 690v-340h-1035q-182 0 -432 -9t-408 -17l-159 -9l-377 377v342h981q227 0 490.5 8t414.5 16l150 9z" />
    <glyph glyph-name="radical" unicode="&#x221a;" horiz-adv-x="4476" 
d="M4561 829q223 -161 223 -407q0 -153 -84 -246l105 -104v-512q-83 0 -345 5t-397 5q-81 0 -189 -2t-218 -4.5t-150 -3.5l-61 30q1 -4 -8 -9.5t-18.5 -11t-8.5 -9.5q-106 1 -333 5.5t-304 4.5q-79 0 -331 -5t-374 -5l-339 340l-29 67q-101 -263 -297.5 -406t-435.5 -143
q-187 0 -362.5 77t-313.5 218q-281 287 -281 484q0 61 17.5 118t56 108t93 89t133.5 60t173 22q169 0 304.5 -54.5t259.5 -158.5q75 194 75 463q0 124 -30 223q-151 49 -347 49l-358 359v245q183 0 567 -5t506 -5q125 0 503 5t546 5l344 -344l18 -53q64 136 167 241t229 169
t266.5 96.5t290.5 32.5q203 0 384.5 -67t307.5 -193q136 -136 200 -256.5t64 -200.5q0 -96 -57 -181.5t-162 -134.5z" />
    <glyph glyph-name="infinity" unicode="&#x221e;" horiz-adv-x="2478" 
d="M2853 410q0 -191 -166 -279t-549 -88q-474 0 -782 131q-193 -154 -479 -154q-234 0 -401 55.5t-290 178.5q-122 121 -173.5 244.5t-51.5 216.5q0 188 174.5 278t540.5 90q473 0 786 -133q189 156 475 156q237 0 407.5 -61t299.5 -193q112 -115 160.5 -234t48.5 -208z" />
    <glyph glyph-name="integral" unicode="&#x222b;" horiz-adv-x="3233" 
d="M3592 952q0 -74 -36 -138.5t-105 -115.5t-180 -80.5t-250 -29.5q-337 0 -504 164q-12 -80 -18 -174l-35 -658q-12 -149 -57 -266t-124.5 -201.5t-185 -143t-248 -93.5t-303 -50.5t-360.5 -15.5q-376 0 -584.5 59.5t-357.5 206.5q-160 157 -222.5 292t-62.5 261
q0 78 36 147.5t105 124.5t179.5 87t248.5 32q287 0 469 -139l76 862q10 113 57.5 212.5t139 185.5t221 147t312 96t403.5 35q234 0 419 -22.5t316.5 -66.5t222 -98t162.5 -126q138 -138 202 -271t64 -223z" />
    <glyph glyph-name="approxequal" unicode="&#x2248;" horiz-adv-x="1638" 
d="M2007 336q0 -100 -77.5 -172t-191.5 -104.5t-247 -32.5q-415 0 -571 192q-59 75 -96.5 105t-80.5 30q-63 0 -91.5 -19.5t-28.5 -45.5q0 -36 12 -64.5t59 -103.5l-172 -96q-80 42 -169.5 115t-167.5 158t-129.5 179t-51.5 168q0 100 77 173t190.5 106.5t242.5 33.5
q113 0 216 -20t174 -51.5t119 -65t69 -65.5q51 -69 91 -98t83 -29q63 0 93 19t30 44q0 35 -12 63t-58 111l172 92q132 -86 249 -196.5t192 -226t75 -199.5z" />
    <glyph glyph-name="notequal" unicode="&#x2260;" 
d="M2017 1108l377 -377l-4 -831h-991l-31 -340h-317l-314 313l-360 -2l-377 377l4 848h967l26 106l29 293h297l381 -381l-2 -12z" />
    <glyph glyph-name="lessequal" unicode="&#x2264;" 
d="M1825 1116l-830 -620l289 -215l735 16l377 -379l-8 -475h-987q-262 0 -517.5 -3t-379.5 -6l-125 -3l-379 376l6 457h666l-537 541l1106 934l375 -377z" />
    <glyph glyph-name="greaterequal" unicode="&#x2265;" 
d="M2212 442l-203 -168h10l377 -376l-8 -455h-987q-262 0 -517.5 -3t-379.5 -6l-125 -3l-379 376l6 457h670l676 498l-449 338l-377 379l222 264l1083 -920z" />
    <glyph glyph-name="lozenge" unicode="&#x25ca;" horiz-adv-x="2840" 
d="M3281 545v-244l-1503 -813l-1489 807l-371 369v243l1507 887l1485 -879z" />
    <glyph glyph-name="apple" unicode="&#xf8ff;" horiz-adv-x="1744" 
d="M2185 -276v-164h-1892l-375 374v152l899 1675h141l369 -370z" />
    <glyph glyph-name="fi" unicode="&#xfb01;" horiz-adv-x="3909" 
d="M3877 1018q-8 -21 -19.5 -59t-31 -147t-19.5 -208v-407q0 -23 2 -29q27 -4 94 -4l375 -375v-235q-180 0 -556.5 5t-495.5 5q-129 0 -485.5 -5t-485.5 -5q-127 0 -474 5t-474 5q-119 0 -482.5 -5t-531.5 -5l-375 374v236q240 0 346 63t121 219l-301 304v311
q143 -33 307 -37v53q0 107 38.5 205t123.5 185.5t209 152t305.5 102t402.5 37.5q311 0 521 -32t305 -87q-12 28 -12 62q9 70 43.5 131t95.5 111t158.5 79t220.5 29q184 0 339 -63t293 -201q252 -254 252 -479q0 -52 -18 -84z" />
    <glyph glyph-name="fl" unicode="&#xfb02;" horiz-adv-x="3999" 
d="M4018 1382q-49 -402 -49 -778v-102q0 -178 33 -336q18 -2 63 -2l375 -375v-235q-182 0 -563 5t-502 5q-131 0 -492.5 -5t-492.5 -5q-135 0 -508 5t-508 5q-127 0 -516 -5t-565 -5l-375 374v236q241 0 346.5 64t120.5 223l-301 299v311q143 -33 307 -37v53q0 107 38.5 205
t123.5 185.5t209 152t305.5 102t402.5 37.5q140 0 525 -5t526 -5q132 0 533 5t585 5z" />
    <glyph glyph-name="DC1" 
 />
    <glyph glyph-name="DC2" 
 />
    <glyph glyph-name="DC3" 
 />
    <glyph glyph-name="DC4" 
 />
    <glyph glyph-name="DLE" 
 />
    <glyph glyph-name="HT" 
 />
    <glyph glyph-name="LF" 
 />
    <glyph glyph-name="RS" 
 />
    <glyph glyph-name="US" 
 />
    </font>
</defs>
</svg>
