<?xml version="1.0" standalone="no"?>
<!DOCTYPE svg PUBLIC "-//W3C//DTD SVG 1.1//EN" "http://www.w3.org/Graphics/SVG/1.1/DTD/svg11.dtd" >
<svg xmlns="http://www.w3.org/2000/svg" xmlns:xlink="http://www.w3.org/1999/xlink" version="1.1">
<metadata>
Created by FontForge 20170731 at Fri Mar 12 14:53:55 2021
 By Aleksey,,,
Copyright 1996-2012 LTR Federal by Erik van Blokland, LettError Type and Typography
</metadata>
<defs>
<font id="FederalSix-Diagonal" horiz-adv-x="2048" >
  <font-face 
    font-family="Federal6Dl"
    font-weight="400"
    font-stretch="normal"
    units-per-em="2048"
    panose-1="2 0 6 7 6 0 0 2 0 4"
    ascent="1536"
    descent="-512"
    x-height="1081"
    cap-height="1505"
    bbox="-485 -510 4440 2081"
    underline-thickness="40"
    underline-position="-359"
    unicode-range="U+000D-FB02"
  />
<missing-glyph horiz-adv-x="1024" 
 />
    <glyph glyph-name=".notdef" horiz-adv-x="1024" 
 />
    <glyph glyph-name=".null" horiz-adv-x="0" 
 />
    <glyph glyph-name="nonmarkingreturn" horiz-adv-x="682" 
 />
    <glyph glyph-name="CR" unicode="&#xd;" 
 />
    <glyph glyph-name="space" unicode=" " horiz-adv-x="479" 
 />
    <glyph glyph-name="exclam" unicode="!" horiz-adv-x="1226" 
d="M238 1294l51 43l55 17l70 94h92l69 27l80 16l2 -6l-63 -51l-66 -35l-59 -70l-76 -84l-55 -10l-98 57zM307 1042l25 62l57 74l72 43l74 -9l81 19l70 31l72 22l69 33l68 29l84 10l2 -6l-61 -56l-66 -34l-70 -31l-63 -41l-68 -35l-67 -49l-43 -62l-78 -28l-94 4l-62 20z
M496 844l8 71l69 66l68 -8l98 24l56 17l59 43l111 6l2 -4l-76 -80l-72 -18l-47 -33l-82 -60l-37 -57l-94 -10l-61 39zM344 201l47 45l72 82l65 4l72 16l111 25l4 -6l-92 -68l-58 -45l-47 -45l-76 -70l-96 60zM549 10l2 94l67 23l82 23l76 59l109 -41l2 -4l-70 -43l-61 -86
l-99 10l-65 -27l-41 -12z" />
    <glyph glyph-name="quotedbl" unicode="&#x22;" horiz-adv-x="1955" 
d="M426 1241l10 135l84 -43l119 10l2 -6l-84 -86l-20 -92l-109 76zM436 942l13 94l94 -10l84 6l2 -4l-60 -61l-51 -80l-80 49zM1331 1360l21 100l106 19l129 2l2 -6l-84 -97l-82 -71l-90 49zM1352 1065l28 94l80 -4l84 2l2 -6l-53 -64l-49 -65l-90 37zM1386 778l5 94l45 25
l106 -45l2 -4l-59 -55l-45 -27l-51 8z" />
    <glyph glyph-name="numbersign" unicode="#" horiz-adv-x="2275" 
d="M346 1028l37 19l27 24l67 16l4 -6l-57 -41l-37 -4l-39 -14zM932 1036l22 33l60 2l49 23l2 -4l-37 -46l-53 -20l-41 6zM555 594l18 33l58 6l55 20l2 -6l-53 -26l-39 -39l-39 8zM1516 1042l40 21l41 27l52 12l2 -6l-35 -47l-55 4l-41 -17zM1141 600l22 37l39 16l70 9l2 -7
l-49 -45l-39 -20l-43 6zM1726 608l31 15l47 30l54 17v-4l-43 -31l-58 -17l-28 -14z" />
    <glyph glyph-name="dollar" unicode="$" horiz-adv-x="2818" 
d="M371 1352l51 39l51 16l86 47l76 29l67 24l68 31l4 -6l-61 -45l-64 -35l-59 -66l-72 -77l-53 -11l-92 50zM217 1018l29 55l45 101h96l68 8l80 28l71 31l68 37l78 16l67 37l66 29l90 12l2 -6l-66 -61l-65 -31l-72 -29l-61 -49l-72 -29l-70 -34l-73 -43l-52 -48l-59 -71
l-108 28l-60 13zM293 788l16 62l76 80l57 18l74 23l80 30l86 11l45 47l92 22l45 39l80 31l78 45l65 -4l115 22l4 -6l-92 -71l-39 -52l-86 -32l-76 -41l-57 -11l-78 -55l-63 -4l-64 -59l-76 -43l-63 -41l-51 -33l-111 -6l-57 26v2zM516 631l27 47l65 78l58 35l67 43l64 20
l67 23l90 24l52 29l92 24l47 11l61 43l74 2l76 47l67 35l70 28l66 27l94 14l2 -4l-72 -61l-61 -35l-68 -35l-70 -29l-86 -28l-47 -54l-73 -20l-39 -29l-78 -55l-55 -23l-76 -53l-60 -37l-57 -34l-76 -25l-65 -21h-103l-51 9zM860 528l29 70l72 37l28 74h98l82 30l33 33
l101 23l45 34l84 17l69 37l88 14l58 27l77 24l33 43l88 39l70 19l80 24l78 21l2 -7l-66 -43l-72 -45l-57 -43l-88 -41l-53 3l-70 -44l-55 -28l-70 -58l-71 -28l-68 -53l-55 -13l-82 -63l-47 -4l-76 -43l-64 -76l-73 27l-95 10l-51 -19zM2509 1298l-2 74l37 -6l61 -23l2 -4
l-22 -63l-19 -31l-55 49zM1315 477l45 68l33 69l55 21l100 24l29 43l104 19l41 22l78 23l86 37l58 4l81 22l66 35l66 47l63 33l51 8l105 21l2 -4l-82 -68l-41 -35l-66 -24l-78 -21l-69 -28l-70 -50l-39 -41l-86 -40l-65 -46l-43 -18l-82 -66l-51 5l-82 -62l-80 29l-60 -12
l-67 -17zM1710 399l39 60l33 90l65 24l68 13l70 18l100 27l45 37l72 6l55 24l67 62l72 51l74 -27l100 17l2 -4l-78 -66l-26 -76l-86 -20l-90 -12l-54 -27l-51 -51l-57 -10l-84 -60l-59 -41l-54 -45l-61 -33l-90 31l-70 8zM1860 207l30 72l39 71l82 2l72 43l76 -4l61 29
l82 39l68 16l65 33l51 41l115 6l2 -6l-78 -86l-63 -14l-66 -29l-57 -39l-82 -39l-64 -29l-43 -59l-82 -29l-51 -61l-80 14l-75 23z" />
    <glyph glyph-name="percent" unicode="%" horiz-adv-x="3065" 
d="M211 1151l35 100l57 27l131 -2l94 24l2 -6l-79 -55l-82 -102l-58 -27l-98 37zM410 958v76l53 8l88 -16l4 -8l-45 -80l-70 27l-28 -11zM1128 1292l31 103h82l135 14l2 -6l-98 -94l-51 -62l-99 41zM1079 983l72 37l23 63l79 41l103 29l90 4l2 -6l-59 -68l-89 -59l-81 -37
l-64 25l-74 -33zM1591 365l41 96l94 31h91l102 28l2 -6l-86 -63l-59 -68l-82 -51l-101 28zM1745 152l2 88l88 2l96 -4v-5l-55 -75l-84 -13l-45 2zM2515 510l37 88l88 12h92l2 -4l-59 -69l-68 -58l-90 27zM2488 211l23 88l78 41l71 31h88l95 6l2 -4l-66 -68l-55 -67l-70 -35
l-84 -35l-82 39v4z" />
    <glyph glyph-name="ampersand" unicode="&#x26;" horiz-adv-x="3198" 
d="M666 1075l39 86l53 31l110 31l88 26l91 6l2 -4l-62 -65l-78 -53l-94 -64l-57 -22l-92 26v2zM688 840l19 63l55 66l84 8l88 22l88 21l98 22l4 -8l-82 -59l-69 -55l-76 -54l-61 -57l-84 -2l-62 29zM203 365l35 38l104 64l74 14l94 29l4 -6l-82 -55l-59 -50l-92 -86l-76 47z
M817 653l31 107l76 20l92 11l74 18l75 20l58 70l112 -8v-4l-65 -90h-88l-66 -43l-61 -45l-66 -66l-65 -43l-105 47zM315 168l15 106l59 -28h88l4 -8l-57 -70l-49 10l-58 -14zM1108 537l35 79l41 25l86 55l71 21l76 16l41 23l86 14l58 39l112 10l2 -2l-80 -82l-67 -16
l-66 -60l-45 -16l-61 -45l-62 -43l-96 -29l-61 19l-68 -13zM1511 477l21 62l53 61l96 12l70 29l82 12l63 37l97 12l2 -4l-72 -67l-68 -27l-61 -53l-68 -35l-71 -65l-80 -2l-62 24zM1581 260l31 119l55 -8l107 24l49 23l71 51l80 23l115 6l2 -6l-78 -82l-69 -48l-84 -22
l-50 -23l-88 -65l-28 -47l-111 51zM2554 715l78 45l43 33l133 38l2 -4l-98 -110l-43 -35l-113 27zM1823 125l26 125l72 -27l92 56l86 2l84 34l86 21l4 -8l-69 -54l-82 -43l-58 -63l-102 -35l-64 12l-73 -24zM2726 545l37 71l121 39l104 15l2 -6l-76 -72l-127 -31l-59 -18z
M2290 96l39 80l55 23l106 -11l4 -6l-77 -55l-58 -16l-67 -21z" />
    <glyph glyph-name="quotesingle" unicode="'" horiz-adv-x="1081" 
d="M393 1468l21 15l16 16l43 6l4 -4l-24 -49l6 -63l-64 75zM426 1233l25 82l96 2l90 16l2 -6l-68 -61l-63 -74l-80 37zM434 983l15 82l81 10h97l2 -6l-62 -76l-59 -55l-72 43zM504 764l12 72l55 -9l54 -4l4 -6l-41 -29l-43 -14l-39 -14z" />
    <glyph glyph-name="parenleft" unicode="(" horiz-adv-x="1415" 
d="M571 1614l37 24l31 25l74 16l4 -6l-49 -71l-2 -89l-93 95zM266 1141l49 39l54 112l80 35l69 -16l96 45l107 -2l2 -4l-68 -84l-96 -43l-33 -66l-75 -39l-82 -53l-101 74zM231 795l13 118l51 35l104 4l52 -4l73 33l84 43l86 -10l2 -6l-45 -76l-88 -37l-71 -35l-29 -41
l-72 -78l-59 -16l-99 68zM242 469v115l96 18l59 27l113 20l63 17l117 16l4 -6l-88 -82l-53 -37l-88 -74l-57 -28l-78 -62l-86 74zM301 168v115l96 16l101 23l84 14l112 16l2 -4l-84 -78l-65 -53l-82 -63l-74 -64l-88 74zM449 -92l32 76l70 22l47 62l123 -33l2 -6l-53 -113
l-76 4l-66 -39l-77 25z" />
    <glyph glyph-name="parenright" unicode=")" horiz-adv-x="1415" 
d="M662 1503l4 142l82 -50l116 2l2 -6l-78 -86l-14 -94l-112 88v4zM709 1194l16 102l82 39l72 41l75 -35l113 21l2 -4l-90 -74l-21 -80l-77 -28l-82 -39l-88 55zM719 870l26 113l78 25l86 10l82 16l70 27l94 12l2 -4l-70 -63l-65 -37l-66 -51l-63 -60l-70 -45l-100 51z
M719 541l8 141h84l49 14l78 15l94 6l29 43l123 -4v-4l-74 -95l-53 5l-66 -68l-59 -51l-43 -27l-55 -65l-113 86zM709 205l26 100l53 37l86 12l97 11l82 53h108l4 -4l-71 -86l-93 -29l-69 -68l-66 -57l-61 -16l-94 43zM637 -156l27 35l43 115h75l62 37l98 -2l111 6v-4
l-76 -78l-59 -76l-70 -20l-49 -60l-94 -4l-66 47z" />
    <glyph glyph-name="asterisk" unicode="*" horiz-adv-x="2050" 
d="M236 1059l20 14l14 14l41 9l4 -6l-24 -46l6 -61l-59 70zM893 1366l25 78l83 29l70 38l100 -16l3 -6l-52 -84l-75 -29l-76 -47l-76 33zM203 807l33 67l71 50l82 2l68 41h92l2 -4l-59 -72l-74 -25l-56 -61l-96 2l-61 -6zM946 1151l4 86l62 4l106 -8l2 -4l-61 -88l-41 -45
l-70 51zM655 776l4 94l41 -16l86 -16l2 -7l-63 -30l-23 -23l-45 -6zM1139 762l49 47l59 20l84 48l53 24l84 29l86 43l54 26l67 48l119 22l2 -6l-92 -76l-80 -20l-39 -64l-84 -39l-80 -41l-47 -41l-114 17l-54 -31l-67 -10v4zM416 186l33 33l69 25l60 82l88 39l61 -13l107 31
l2 -4l-91 -64l-32 -55l-86 -43l-80 -37l-68 -24l-61 26zM1712 795l6 94l68 -17l82 -8l2 -4l-64 -31l-47 -30l-43 -11zM602 37l-10 74l35 -13l55 -24l4 -4l-35 -27l-18 -16l-29 4zM1239 332l-2 76l96 -7l64 5l2 -5l-43 -47l-58 -75l-57 49zM1337 139l39 97l88 16l129 6l2 -4
l-88 -96l-67 -56l-101 33z" />
    <glyph glyph-name="plus" unicode="+" horiz-adv-x="1914" 
d="M854 1249l29 19l22 20l58 10l2 -4l-35 -59l4 -78l-78 88zM293 690l20 94l103 -4l94 11l4 -7l-70 -63l-86 -31l-63 -4zM868 956l17 37l35 47l73 -22l2 -6l-28 -72l-35 -47l-62 59zM874 662l48 102l102 4l106 14l3 -6l-78 -69l-70 -76l-108 26zM858 356l23 41l16 76l98 -49
l4 -6l-26 -109l-43 -14l-70 59z" />
    <glyph glyph-name="comma" unicode="," horiz-adv-x="978" 
d="M297 430l25 16l18 19l51 10l2 -6l-33 -47l2 -62l-63 64zM262 186l31 78l86 41l78 39l69 -14l113 32l2 -4l-98 -65l-33 -64l-80 -34l-88 -39l-78 26z" />
    <glyph glyph-name="hyphen" unicode="-" horiz-adv-x="1392" 
d="M659 694l70 37l45 68l144 14l2 -6l-105 -98l-78 8l-75 -29z" />
    <glyph glyph-name="period" unicode="." horiz-adv-x="970" 
d="M244 199l28 84l50 18l92 35l75 22l76 4l31 27l109 25l2 -6l-89 -68l-40 -4l-52 -55l-67 -45l-84 -50l-45 -24l-84 33zM549 117l22 78l64 -2l102 10l2 -4l-84 -52l-55 -14l-47 -22z" />
    <glyph glyph-name="slash" unicode="/" horiz-adv-x="1171" 
d="M1247 2017l31 23l16 41l72 -4l2 -6l-41 -60l-43 14l-35 -12zM1040 1649l15 32l37 23l49 -6l2 -6l-39 -17l-29 -39l-33 6zM815 1270l12 30l45 3l43 16l3 -4l-41 -25l-29 -33l-31 9zM590 893l28 18l23 39l49 -8l2 -6l-33 -27l-34 -10l-33 -12zM365 514l14 37l31 12h55l2 -6
l-35 -43l-31 -16l-34 12zM139 135l23 12l24 56l54 -21l2 -2l-33 -24l-45 -13l-23 -10zM-84 -240l27 13l28 41l43 -7l2 -4l-22 -39l-49 5l-27 -13z" />
    <glyph glyph-name="zero" unicode="0" horiz-adv-x="2879" 
d="M481 1317l64 29l51 32l100 45l82 31l4 -4l-75 -51l-78 -94l-51 -27l-93 33zM246 938l22 53l47 76l103 -2l20 76l86 -8l80 24l80 27l76 33l53 40l82 17l68 33l67 36l88 5l2 -7l-57 -67l-72 -27l-67 -33l-66 -53l-65 -12l-76 -37l-70 -43l-72 -47l-49 -72l-69 35l-66 -82
l-88 15l-55 14zM244 668l16 63l74 84l51 35l80 6l80 31l80 22l57 19l90 26l31 70l94 2l80 43l106 -10l2 -2l-63 -88l-82 -35l-63 -70l-72 21l-78 -51l-51 -31l-70 -49l-76 -41l-55 -58l-59 -14l-113 -4l-57 29zM1749 1370l14 109l135 -29l91 33l2 -6l-56 -107l-92 -63
l-92 59zM344 446l39 76l37 62l100 8l33 43l74 16l65 17l88 24l72 23l70 30l65 27l92 16l2 -2l-73 -59l-62 -33l-67 -35l-64 -41l-76 -51l-55 -39l-61 -47l-52 2l-71 -71l-72 14l-82 16zM1792 1122l16 68l70 59l64 21l88 18l45 15l67 69l86 -12l92 8l4 -4l-67 -64l-47 -73
l-94 -8l-41 -27l-70 -55l-57 -35l-93 -17l-61 33zM549 276l24 58l74 57l64 19l88 20l65 37l64 4l47 43l112 10l3 -4l-80 -80l-64 -6l-43 -47l-72 -27l-71 -55l-55 -37l-93 -18l-61 20zM1804 858l29 82l63 45l64 16l74 41l61 9l80 32l41 13l78 18l73 33l80 45l82 6l2 -4
l-57 -61l-86 -31l-72 -35l-63 -49l-37 -23l-76 -41l-45 -41l-80 -30l-51 -39l-78 -19l-80 29zM883 160l12 119l135 -17l100 14l3 -4l-76 -69l-107 -43l-65 -2zM1798 588l25 57l80 68l30 49l99 4l57 25l102 30l60 27l78 29l63 10l80 53l47 27l117 10l2 -2l-84 -82l-51 -21
l-93 -26l-49 -41l-69 -41l-62 -29l-86 -59l-57 -29l-68 -72l-55 9l-104 -19l-60 17zM1763 303l19 74l63 49l70 59h63l88 33l64 21l82 14l47 65l92 -16l41 76l88 -12l66 30l94 15l2 -2l-72 -64l-65 -31l-49 -73l-84 16l-45 -82l-82 6l-64 -53l-57 -37l-80 -43l-41 -49
l-90 -16l-78 -17l-70 33zM2087 186l10 70l78 53l68 -10l86 18l96 27l2 -4l-88 -47l-76 -37l-51 -25l-82 -43l-41 -6z" />
    <glyph glyph-name="one" unicode="1" horiz-adv-x="2695" 
d="M1104 1376l59 29l23 82l114 -2l80 20l4 -4l-71 -47l-70 -90l-49 -25l-86 33zM877 1020l26 45l53 61l86 33l35 41l78 12l76 29l78 25l75 37l60 24l76 29l75 14l60 49l65 37l78 10l76 21l4 -6l-66 -47l-57 -52l-69 -26l-76 -15l-60 -49l-71 -39l-58 -30l-75 -35l-70 -43
l-72 -41l-59 -49l-53 -2l-80 -45l-80 -2l-53 8zM877 768l36 68l50 32l63 82l59 8l93 3l79 43l54 22l73 29l78 30l90 19l62 37l51 30l86 37l100 17l2 -6l-75 -66l-84 -45l-56 -18l-69 -25l-70 -57l-76 -39l-69 -37l-51 -27l-82 -33l-62 -69l-45 -41l-102 4l-60 -16l-73 14z
M862 510l33 63l45 62l68 47l90 -8l55 47l88 33l80 16l68 43l75 12l84 35l49 12l78 54l62 20l108 25l2 -6l-86 -70l-57 -33l-88 -26l-43 -29l-80 -41l-59 -51l-76 -25l-64 -51l-82 -45l-71 -12l-54 -76l-77 -21l-76 7l-70 12zM756 209l35 49l43 90l73 35l78 41l55 -10l93 45
l51 20l88 13l69 40l86 23l62 20l76 33l34 41l93 33l71 18l88 19l2 -2l-71 -58l-62 -41l-84 -51h-53l-74 -37l-55 -32l-72 -52l-75 -28l-66 -58l-51 -28l-94 -41l-25 -47l-82 -35l-76 -35l-96 25l-57 6zM1135 133l24 76l60 41l79 59l64 19h82l55 37l88 26l55 62l80 -11l80 27
l86 16l2 -4l-69 -53l-72 -45l-43 -68l-82 -2l-78 -53l-61 -16l-53 -64l-56 -37l-114 15l-74 -11l-53 -16v2zM1673 133l21 115l88 31l59 16l125 -23l4 -6l-63 -108l-78 22l-92 -24l-62 -25z" />
    <glyph glyph-name="two" unicode="2" horiz-adv-x="2623" 
d="M383 1143l29 98l47 35l112 12l93 6l71 31l82 18l2 -4l-67 -49l-70 -35l-64 -67l-116 -2l-49 -31l-68 -16zM1315 1331l22 66l66 59l86 12l65 15l80 24l86 15l2 -6l-65 -56l-72 -45l-51 -43l-66 -57l-88 -10l-63 22zM248 590l14 31l27 10l49 2l2 -6l-10 -80l-29 -12l-51 51
zM1288 1075l49 23l47 125l54 -4l88 38l65 5l90 53l62 12l76 19l77 36l76 39l96 17l3 -4l-76 -62l-78 -33l-78 -34l-63 -48l-50 -38l-98 -35l-45 -49l-86 -41l-33 -45l-102 -2l-72 24zM195 319l45 82l26 48l96 16l41 22l89 13l63 20l72 10l102 39l2 -4l-74 -100h-75l-58 -37
l-84 -18l-45 -17l-82 -43l-47 -6l-69 -27zM1356 864l22 58l52 61l77 49l82 2l72 29l72 18l82 29l49 12l78 43l61 17l78 41l71 32l89 19l2 -4l-70 -56l-74 -32l-80 -33l-53 -39l-82 -31l-41 -28l-76 -47l-59 -41l-68 -37l-55 -62l-121 43l-59 -41l-45 -8zM715 317l24 107
l58 22l102 13l94 24l39 31l125 10l2 -6l-90 -86l-47 -10l-80 -57l-74 -70l-88 39l-63 -19zM954 184l39 82l43 33l86 45l52 8l61 21l111 24l36 17l80 24l97 29l2 -6l-64 -94l-90 -5l-37 -18l-90 -68l-55 -34l-37 -35l-92 -37l-52 -10l-88 22zM1217 66l28 59l51 76l88 39l82 6
l74 30l51 11l97 41l51 28l69 13l86 28l76 41l64 15l94 34l2 -4l-80 -69l-59 -21l-82 -31l-76 -47l-53 -45l-56 -20l-92 -47l-41 -33l-71 -37l-58 -59l-86 -43l-108 45l-49 -17zM1593 -2l15 63l98 31l37 78l84 10l55 23l94 14l47 27l91 30l63 7l68 36l73 39l95 21l2 -4
l-76 -62l-78 -30l-70 -29l-47 -45l-80 -49l-51 -19l-74 -63l-53 -27l-61 -55l-82 20l-101 -24l-47 2z" />
    <glyph glyph-name="three" unicode="3" horiz-adv-x="2854" 
d="M340 1235l70 37l49 59l137 23l2 -6l-106 -88l-35 -86l-115 57zM629 1106l28 86l88 43l80 41l74 -23l119 31l2 -2l-100 -72l-31 -71l-109 22l-92 -37l-57 -24zM1389 1458l34 47l66 -2l59 29v-4l-41 -64l-41 -53l-75 43zM1421 1206l35 107l47 43l84 -2l60 37l71 12l97 29
l57 10l92 47l88 12l2 -6l-65 -57l-95 -41l-47 -37l-82 -57l-55 -46l-68 -22l-51 -66l-63 -8l-105 41zM279 408l24 43l80 18l82 35l86 31l2 -5l-53 -100l-80 -39l-62 -59l-77 71zM1251 860l58 45l49 33l53 66l62 71l77 10l72 25l41 25l86 16l70 12l59 39l78 37l76 59l65 -18
l80 51l61 31l82 14l86 23v-4l-71 -49l-64 -56l-63 -26l-90 -29l-27 -61l-96 -21l-76 -35l-70 -22l-53 -45l-70 -54l-45 -16l-65 -41l-57 -51h-93l-67 -37l-58 -16l-88 22zM381 188l29 93l28 57l84 4h84l74 37l70 8l75 43l43 25l109 12l2 -6l-80 -74l-45 -16l-82 -31l-51 -49
l-76 -31l-82 -4l-69 -35l-48 -20l-63 -17zM1358 643l26 117l80 -2l113 24l106 15l3 -4l-80 -74l-90 -70l-52 -63l-104 55zM2009 948l6 78l103 53l39 17l86 20l104 10l68 37l84 13l2 -5l-64 -55l-74 -29l-73 -71l-95 -6l-43 -6l-100 -58l-41 -2zM1421 408l41 81l33 35l61 56
l101 2l63 30l76 19h53l86 47l50 24l94 13l2 -4l-72 -66l-49 -22l-90 -35l-35 -41l-61 -45l-68 -29l-64 -76l-83 -10l-46 -4l-90 20zM1354 109l47 61l45 68l33 51l61 22l102 21l78 14l39 25l76 39l59 18l103 14l55 31l76 23l49 30l80 43l43 29l90 23l90 14v-4l-67 -60
l-74 -53l-51 -16l-84 -33l-56 -18l-65 -43l-60 -25l-77 -68l-52 -32l-77 -35l-45 -12l-60 -52l-82 -65l-100 57l-43 -24l-68 -25l-65 -21v3zM1948 123l39 86l26 45l92 41l62 33l94 -19l66 33l63 18l80 21l65 53l99 6l2 -4l-68 -71l-84 -17l-67 -47l-56 -37l-67 -28l-45 -84
l-101 51l-86 -56l-43 -6l-69 -24z" />
    <glyph glyph-name="four" unicode="4" horiz-adv-x="2723" 
d="M862 1260l49 47l58 8l65 100l84 10l78 11l33 20l104 31l78 29l2 -5l-61 -67l-101 -33l-39 -12l-57 -51l-63 -60l-91 -45l-47 -31l-90 45zM864 1008l35 71l49 35l43 53l96 37l78 6l58 41l84 -6l32 49l107 23l51 37l53 18l84 23l52 20l65 31l78 53l55 8l105 25l2 -4
l-84 -64l-43 -39l-92 -24l-66 -31l-49 -24l-70 -52l-49 -28l-61 -17l-84 -65l-62 6l-47 -68l-67 -18l-56 -55l-90 -52l-70 2l-57 -16l-78 18zM866 754l23 61l53 57l82 46l43 18l94 33l74 18l61 45l45 12l86 15l62 24l63 33l84 19l70 71l55 -2l82 43l66 21l92 18l2 -6
l-72 -61l-57 -37l-86 -35l-35 -45l-98 -8l-70 -52l-63 -26l-60 -31l-65 -59l-41 -25l-74 -18l-59 -45l-86 -50l-41 -22l-88 -35l-80 -2l-62 21v4zM860 498l27 41l63 98l47 18l78 21l72 24l70 48l69 10l82 35l45 14l62 84l96 -33l67 21l50 28l77 39l41 90l103 -32l88 24l2 -4
l-76 -53l-41 -99l-94 25l-80 -35l-53 -18l-60 -37l-36 -94l-105 6l-39 -27l-80 -39l-53 -47l-80 -24l-65 -39l-66 -47l-45 -23l-115 14l-49 5zM739 186l45 56l33 55l64 49l59 21l98 6l60 69l61 7l86 26l35 23l72 32l73 31l86 31l72 22l70 27l41 25l90 45l49 22l63 12l101 29
l2 -4l-86 -59l-51 -41l-50 -23l-90 -41l-45 -16l-67 -35l-62 -41l-80 -45l-69 -39l-74 -33l-39 -12l-74 -47l-45 -43l-92 -4l-67 -70l-54 -31l-77 -18l-64 10l-72 -2zM1171 133l39 84l64 51l63 19l56 24l84 4l71 45l78 39l80 19l51 18l45 74l119 -8l76 20l2 -6l-62 -47
l-71 -96l-86 12l-45 -27l-66 -49l-80 -35l-82 -26l-55 -62l-57 -26l-78 16l-76 -24l-67 -21zM1714 135l43 107l98 6l46 10l133 27l4 -9l-107 -83l-37 -27l-90 -27l-86 -8z" />
    <glyph glyph-name="five" unicode="5" horiz-adv-x="2719" 
d="M399 1319l23 100l43 33l106 8l88 4l68 27l76 14l2 -4l-62 -47l-63 -35l-59 -63l-74 -78l-53 -12l-93 49zM414 1071l24 57l66 54l71 45l70 4l66 49l75 16l66 33l76 17l67 30l66 25l69 22l41 37l101 33l76 12l2 -2l-60 -51l-90 -55l-53 -6l-62 -41l-61 -33l-68 -31l-61 -49
l-68 -31l-61 -45l-80 -20l-47 -51l-80 -25l-84 -14l-59 14zM1174 1171l-3 99l86 24l89 31l51 31l80 18l88 19l86 28l71 27l50 35l118 22l2 -2l-94 -76l-59 -16l-66 -39l-78 -47l-69 -55l-66 -49l-57 -21l-113 23l-73 -49l-41 -7zM1726 1176l39 69l45 80l66 8l92 29l80 27
l82 10l74 24l53 27l55 39l113 14l2 -6l-82 -78l-66 -16l-55 -25l-65 -39l-60 -57l-74 -43l-79 -53l-78 16l-80 -4l-59 -27zM272 244l33 86l78 35l41 36l119 23l53 2l92 57h98l2 -2l-63 -75l-104 -35l-33 -39l-121 -23l-49 -22l-58 -76l-86 29zM1270 709l43 39l69 43l93 14
l4 -6l-72 -60l-51 -84l-84 52zM2202 1143l16 100l70 -6l104 -4l2 -4l-63 -82l-66 -4l-63 -4v4zM815 244l10 108l101 -33l71 13l2 -6l-53 -52l-76 -16l-53 -18zM1393 514l20 61l74 54l96 33l74 30l51 27l111 10l59 47l94 6l4 -4l-69 -65l-72 -17l-80 -78l-53 -22l-70 -37
l-88 -53l-88 -23l-61 27zM1399 262l35 64l43 82l57 28l86 25l68 28l77 -8l80 23l49 39l93 18l55 21l55 24l88 51l41 23l109 18l2 -4l-86 -71l-41 -17l-96 -33l-54 -28l-53 -29l-74 -59l-61 -13l-68 -45l-43 -65l-65 -33l-76 -51l-57 -25l-90 19l-74 14v4zM1634 119l37 100
l53 43l68 2l84 4l66 64l94 12l75 31l52 14l47 74l112 12l43 21l113 16l2 -4l-84 -76l-43 -20l-82 -78l-88 12l-45 -31l-72 -39l-69 -63l-90 -10l-58 -62l-77 17l-64 -21l-72 -22z" />
    <glyph glyph-name="six" unicode="6" horiz-adv-x="2881" 
d="M481 1317l47 51l56 8l94 37l72 37l71 25l2 -5l-53 -63l-68 -49l-81 -62l-52 -16l-86 31zM242 936l34 25l41 77l62 47l82 25l76 35l73 39l64 20l82 21l67 32l72 27l80 10l61 45l66 29l69 25l86 16l3 -4l-68 -55l-66 -37l-61 -33l-76 -18l-59 -54l-66 -37l-69 -32l-68 -49
l-55 -35l-78 -33l-76 -35l-72 -45l-73 -18l-72 -19l-57 27zM242 668l49 55l61 53l51 47l52 37l69 19l84 4l76 32l78 43l69 19l56 18l84 41l61 29l105 22l4 -6l-84 -67l-62 -29l-86 -39l-49 -28l-59 -46l-82 -30l-74 -37l-57 -62l-60 -41l-59 -16l-72 -8l-80 -14h-73z
M336 442l26 72l91 47l28 53l82 11l68 22l90 29l72 31l84 10l67 33l80 43l86 10l2 -4l-63 -58l-84 -34l-68 -31l-61 -58l-72 -34l-80 -52l-59 -36l-62 -56l-59 11l-94 -37l-72 24zM1870 1157l41 92l57 51l96 -2l76 -4l58 64l75 12l51 37l123 20l2 -6l-94 -78l-59 -16l-60 -51
l-47 -88l-84 24l-90 -10l-67 -31l-78 -18v4zM530 264l23 72l80 61l69 37l97 2l39 53l114 5l33 53l127 -10l2 -5l-74 -104l-61 8l-78 -84l-63 4l-66 -73l-72 -29l-100 -23l-68 29zM846 145l33 72l79 45l54 39l118 -22l5 -7l-60 -108l-63 -17l-105 11l-59 -19zM1774 575l16 78
l68 72l71 20l82 -16l78 25l55 26l101 15l2 -4l-76 -66l-55 -27l-70 -45l-41 -71l-61 -43l-99 -4l-69 34zM1774 305l34 101l60 53l47 24l80 -2l104 33l76 33l43 22l72 66l63 22l117 -2l88 17l2 -4l-70 -56l-73 -92l-58 -33l-96 -14l-45 -16l-74 -39l-92 -58l-49 -63l-51 -21
l-78 -12l-98 37zM1956 123l29 70l63 59l47 35l107 24l59 13l66 28l67 4l72 62l67 69l113 -41l2 -6l-41 -112l-96 -9l-92 -14l-47 -49l-64 -33l-47 -37l-115 -8l-53 -22l-84 -13l-53 -24v4z" />
    <glyph glyph-name="seven" unicode="7" horiz-adv-x="2912" 
d="M399 1163l33 84l41 39l100 27l74 35l78 10l35 18l96 45l51 13l92 49l50 14l106 19l2 -7l-82 -67l-43 -31l-98 -37l-41 -31l-96 -45l-37 -16l-58 -53l-73 -35l-86 -57l-56 -9l-86 31zM829 1094l19 69l90 72l59 35l64 6l100 10l47 37l82 12l88 51l56 19l116 22l2 -6
l-92 -71l-51 -31l-96 -35l-62 -55l-57 -12l-72 -70l-47 -45l-63 -23l-133 17l-48 -9zM1262 1022l43 65l32 82l60 13l65 18l76 17l82 12l80 26l65 23l45 33l113 18l2 -2l-86 -76l-55 -12l-60 -37l-71 -43l-64 -55l-59 -47l-57 -39l-48 -37l-84 27l-77 10zM1657 934l37 70
l41 88l63 8l96 12l82 21l74 24l72 27l57 16l55 35l68 41l108 10l5 -6l-80 -76l-74 -24l-63 -21l-50 -33l-65 -36l-66 -41l-67 -52l-74 -65l-84 35l-72 -19l-61 -18zM715 223l61 29l58 33l53 100l53 8l88 6l62 54l88 16l69 16l94 31l2 -4l-73 -76l-68 -18l-69 -58l-58 -61
l-84 -16l-41 -35l-80 -41l-63 -21l-90 31zM1106 133l29 64l53 61l69 61l70 -4l98 15l54 45l92 20l67 37l64 10l55 27l96 49l60 -8l94 45l2 -4l-57 -125l-68 31l-100 -43l-58 -27l-47 -41l-71 -29l-76 -57l-70 -12l-73 -66l-74 13l-82 -31l-74 -21l-51 -12zM1688 135l10 101
l90 28l84 -4l74 29l47 16l104 21l2 -4l-82 -68l-43 -25l-69 -39l-74 -16l-84 -43h-57z" />
    <glyph glyph-name="eight" unicode="8" horiz-adv-x="2779" 
d="M358 1270l54 28l34 50l107 14l2 -6l-78 -74l-20 -80l-97 62zM258 965l27 84l73 63l93 6l53 17l100 28l51 21l123 22l2 -4l-96 -80l-49 -26l-86 -58l-47 -30l-64 -66l-96 -16l-82 35zM336 739l47 47l27 68l86 64l59 22l57 8l88 19l50 22l71 19l88 32l49 23l91 39l71 31
l41 28l78 19l92 24l4 -4l-82 -53l-61 -47l-49 -15l-70 -34l-88 -43l-49 -23l-82 -49l-59 -43l-50 -23l-69 -55l-45 -39l-56 -31l-104 -24l-68 22l-65 -6zM547 580l28 51l72 67l39 29l94 35l60 51l71 23l52 2l81 26l66 19l61 41l80 28l72 68l63 -12l89 32l59 33l76 29l59 28
l68 23l96 27l2 -4l-82 -56l-61 -39l-60 -26l-71 -41l-64 -23l-82 -47l-31 -55l-98 -12l-74 -43l-69 -21l-58 -39l-71 -45l-35 -39l-64 -41l-77 -10l-86 -49l-47 -15l-99 -10l-57 10zM889 479l39 56l43 65l65 64l58 -11l65 72l74 14l63 27l60 2l82 29l51 65l94 -18l76 43
l35 20l102 19l49 22l72 39l65 41l80 29l62 12l82 25l2 -4l-72 -46l-49 -40l-74 -43l-74 -23l-75 -31l-49 -22l-78 -66l-41 -14l-80 -31l-47 -84l-84 2l-74 -43l-41 -43l-59 -33l-60 -47l-96 -4l-29 -51l-92 -8l-76 8l-67 6zM1378 449l39 86l66 45l69 34l41 33l99 37l55 14
l65 21l84 31l84 22l58 27l92 28l53 31l60 21l96 43l82 16l4 -8l-64 -51l-96 -48l-53 -32l-60 -21l-79 -53l-58 -27l-71 -49l-78 -45l-58 -35l-47 -34l-90 -52l-51 -10l-94 10l-78 -12l-68 -25zM1933 449l25 57l61 96l72 -4l86 -2l74 49l92 14l72 43l84 13l2 -8l-62 -56
l-78 -28l-71 -60l-84 -26l-56 -68l-43 -57l-122 37l-50 -5zM2169 299l10 92l111 31h137l2 -6l-113 -51l-90 -72l-55 2z" />
    <glyph glyph-name="nine" unicode="9" horiz-adv-x="2881" 
d="M246 1196l51 39l53 18l70 88l74 39l79 4l31 29l105 25l43 28l100 35l80 15l4 -7l-66 -49l-90 -53l-49 -16l-88 -64l-41 -6l-53 -59l-78 -31l-76 -78h-59l-90 39v4zM264 934l35 80l74 18l24 76h119l57 29l50 30l94 13l51 20l68 33l90 39l90 14l2 -4l-70 -61l-86 -43
l-69 -31l-50 -27l-67 -63l-58 -17l-59 -26l-76 -92l-73 30l-62 -45l-84 25v2zM524 791l19 75l84 35l49 31l86 4l76 39l80 37l100 6l2 -4l-70 -72l-80 -39l-77 -33l-60 -61l-55 -18l-98 -3l-54 -4zM1669 1321l14 86l58 39l71 12l93 4l104 19l2 -6l-80 -68l-63 -68l-56 -47
l-67 -18l-74 45zM1673 1055l35 65l49 51l62 62l86 2l71 12l90 31l74 27l76 30l94 17l2 -4l-74 -62l-71 -37l-68 -41l-82 -49l-55 -47l-57 -65l-86 -7l-72 -6l-72 17zM336 162l37 82l37 41l79 18l74 25l78 28l70 11l82 36l84 11l2 -4l-64 -56l-80 -39l-53 -47l-94 4l-66 -39
l-63 -53l-53 -8l-68 -12zM1669 784l35 60l53 76l82 28l51 39l92 -2l43 25l89 39l75 8l76 37l27 65l110 -2l82 6v-4l-55 -57l-72 -84l-67 20l-76 -34l-55 -52l-86 -43l-48 -18l-55 -72l-65 -12l-74 -47l-92 10l-68 10zM1640 502l43 80l25 49l84 20l68 60l94 24l82 6l69 41
l49 17l105 24l53 23l64 26l82 35l96 23l2 -8l-78 -58l-80 -41l-59 -32l-53 -25l-86 -64l-43 -28l-78 -27l-58 -57l-79 -58l-87 -14l-69 -51l-55 14l-89 15zM1542 186l35 19l45 108l61 13l97 28l47 47l80 13l55 20l82 39l49 16l84 35l59 15l66 32l68 47l88 15l77 20l2 -6
l-65 -49l-66 -57l-79 -21l-68 -31l-49 -34l-80 -43l-45 -27l-82 -39l-51 -29l-62 -53l-67 -6l-82 -55l-49 -39l-93 -8l-55 26z" />
    <glyph glyph-name="colon" unicode=":" horiz-adv-x="978" 
d="M295 881l43 77l55 31l111 33l90 27l90 10l2 -4l-65 -62l-80 -53l-97 -63l-57 -23l-88 20zM283 186l16 80l76 31l84 25l98 10l111 35l2 -7l-99 -59l-71 -70l-72 -49l-72 -39l-71 41z" />
    <glyph glyph-name="semicolon" unicode=";" horiz-adv-x="978" 
d="M291 881l43 77l55 31l111 33l90 27l90 10l2 -4l-66 -62l-79 -53l-97 -63l-57 -23l-88 20zM289 195l16 77l76 31l84 23l100 10l111 37l2 -6l-98 -60l-74 -69l-72 -50l-72 -38l-71 38z" />
    <glyph glyph-name="less" unicode="&#x3c;" horiz-adv-x="1089" 
 />
    <glyph glyph-name="equal" unicode="=" 
d="M291 834l35 18l26 22l68 17l2 -4l-57 -39l-33 -6l-39 -15zM836 850l16 24h45l35 17l2 -4l-27 -37l-37 -12l-30 6zM500 455l16 26l47 4l45 17l4 -4l-45 -23l-32 -35l-33 9zM1354 852l30 14l31 23l39 8l2 -6l-24 -39l-43 8l-31 -12zM1032 461l12 31l29 10h47l4 -4l-32 -35
l-25 -14l-33 10zM1544 461l27 12l43 27l43 14l2 -4l-39 -25l-47 -14l-27 -12z" />
    <glyph glyph-name="greater" unicode="&#x3e;" horiz-adv-x="1089" 
 />
    <glyph glyph-name="question" unicode="?" 
d="M205 1262l45 24l26 45l95 6l2 -4l-66 -65l-16 -70l-84 59zM412 1122l26 74l78 39l70 37l65 -19l107 27v-4l-88 -64l-27 -63l-96 20l-82 -30l-51 -23zM1124 1452l13 33l37 -10l28 12l2 -4l-14 -45l-14 -37l-50 47zM1165 1233l33 117l59 20l86 2l60 45l84 -14l115 33l2 -6
l-99 -64l-45 -76l-71 -14l-56 -66l-55 -32l-109 49zM846 846l55 31l53 24l64 37l80 25l45 92l55 18l86 29l47 31l76 32l86 21l59 10l68 33l72 37l102 22l2 -8l-82 -61l-74 -31l-69 -33l-45 -39l-72 -51l-74 -39l-53 -16l-78 -47l-49 -31l-65 -49l-70 -45l-104 49l-52 -25
l-61 -22zM1382 856l17 113l84 8l76 10l73 19l51 20l95 14l2 -4l-72 -63l-49 -27l-76 -10l-61 -43l-78 -19l-60 -22zM766 90l16 80l121 25l55 34l86 29l78 25l101 20l4 -4l-82 -61l-70 -45l-78 -48l-61 -20l-98 -78l-70 41z" />
    <glyph glyph-name="at" unicode="@" horiz-adv-x="3784" 
d="M614 817l25 119l82 -31l125 21l2 -6l-96 -80l-68 2l-68 -29zM1333 901l21 82h94l88 12l2 -6l-65 -57l-62 -72l-76 37zM557 287l16 86l86 22l84 33l62 31l108 -6l2 -4l-67 -87l-62 -28l-77 -43l-103 14l-47 -22zM1346 653l38 101l56 37h65l92 14l54 20l110 25l4 -6
l-90 -70l-49 -29l-72 -61l-43 -49l-63 -19l-100 35zM1364 412l12 67l99 41l59 17l72 28l88 19l98 28l2 -6l-84 -59l-70 -55l-69 -37l-49 -35l-95 -47l-61 35zM2351 870l25 99l94 -19l47 47l94 35l70 23l112 22l3 -4l-91 -72l-61 -38l-88 -52l-39 -61l-74 -27l-92 43v4z
M1581 262l18 82l97 18l129 13l2 -6l-90 -90l-99 -19l-53 -4zM2341 614l43 97l70 47l90 2l61 20l68 23l116 20l2 -4l-92 -76l-59 -36l-55 -35l-60 -70l-82 -20l-100 28zM2400 389l19 115l73 14l103 17l98 12l96 24l2 -4l-81 -57l-72 -68l-78 -67l-57 -49l-101 59zM2646 254
l-2 98l82 -24l86 2l2 -4l-57 -66l-60 -20l-47 10z" />
    <glyph glyph-name="A" unicode="A" horiz-adv-x="3330" 
d="M1333 1372l31 92l53 23l119 -2l84 20l2 -4l-72 -51l-73 -90l-52 -27l-90 35zM1427 1157l25 60l57 61l97 29l39 43l90 -7l73 52l93 12l79 39l54 47h108l4 -8l-71 -82l-70 -12l-82 -35l-68 -62l-86 -24l-55 -74l-57 -2l-82 -55l-86 -4l-62 18v4zM1520 942l36 88l48 49
l92 27l82 6l77 31l68 22l76 21l41 98l102 -20l92 14l4 -8l-69 -62l-51 -92l-101 33l-63 -45l-62 -39l-75 -39l-58 -57l-78 -56l-67 -4l-92 29zM629 268l22 29l39 10l58 17l2 -5l-33 -69l-25 -43l-61 57zM1585 713l35 67l53 64l72 6l47 41l84 18l80 52l55 2l96 16l62 29
l74 32l86 23l4 -8l-72 -51l-72 -37l-63 -29l-74 -61l-37 -41l-90 -29l-70 -53l-61 -11l-51 -51l-82 2l-74 15zM1595 459l33 67l55 76l66 33h88l72 18l71 33l52 12l100 43l43 15l86 57l55 4l107 31l2 -8l-90 -64l-39 -37l-98 -30l-39 -23l-99 -51l-41 -31l-71 -33l-60 -43
l-57 -67l-68 -29l-94 6l-74 17v4zM1501 156l37 55l49 84l84 22l47 50l88 4l45 18l99 19l65 26l80 31l37 45l100 18l31 47h74l100 46l78 10l4 -6l-59 -54l-99 -47l-47 -57l-55 6l-80 -63h-59l-72 -41l-66 -33l-75 -66l-43 -20l-60 -66l-67 -4l-109 25l-59 -58l-66 7z
M2007 133l31 109l43 39h73l80 32l86 13l58 22l88 31l55 24l96 15l2 -4l-73 -64l-54 -26l-82 -48l-53 -28l-65 -58l-76 -43l-88 33l-43 -37l-76 -12zM2562 133l27 84l59 66l107 -58l4 -6l-66 -35l-67 -47l-62 -6z" />
    <glyph glyph-name="B" unicode="B" horiz-adv-x="3180" 
d="M584 1409l57 33l35 55l117 8l2 -4l-82 -82l-21 -88l-106 74zM655 1145l29 72l59 88l76 26l53 12l109 -4l41 39l84 6l74 48l82 28l100 15l2 -5l-76 -65l-76 -45l-82 -27l-59 -59l-55 -8l-68 -86l-43 -33l-69 -39l-105 10l-74 23zM670 856l10 74l80 63l47 31l104 20l80 21
l53 6l78 25l80 45l35 37l125 2l2 -4l-82 -95l-49 -4l-86 -33l-70 -43l-39 -36l-67 -50l-82 -65l-55 -16l-99 -23l-63 41zM651 551l25 94l65 37l52 31l102 10l63 27l78 20l92 37l46 18l92 54l96 4l2 -4l-66 -72l-98 -37l-45 -22l-86 -48l-65 -47l-62 -30l-74 -74l-57 -19
l-70 -26l-88 41zM2159 1253l18 144h68l82 -8l81 22l70 45l119 2l2 -4l-78 -90l-80 -25l-69 -47l-45 -69l-46 -52l-122 78v4zM547 205l41 28l63 60l54 69l77 23l72 29l59 30l86 27l41 16l99 29l49 14l35 115l139 -57l2 -6l-45 -146l-109 47l-43 -30l-86 -56l-39 -20l-73 -47
l-64 -27l-67 -37l-68 -45l-53 -67l-99 16l-69 31zM1952 860l28 55l91 9l51 32l61 88l58 31l83 31l78 10l54 25l59 16l102 31l9 96l88 -37l104 39l76 14l2 -6l-60 -49l-96 -53l-28 -92l-80 55l-88 -57l-52 -35l-53 -25l-57 -55l-78 -45l-61 -23l-76 -55l-45 -43l-109 27
l-59 12zM1030 135l23 92l55 31l92 8l55 56l107 -33l2 -4l-43 -105l-78 -6l-90 -12l-61 -21l-60 -10zM2152 657l46 91l53 36l121 2l90 15l2 -4l-70 -60l-80 -90l-61 -18l-99 24zM2189 379l13 84l82 72l53 2l92 20l47 55l123 -14l65 27l66 55l102 -2l2 -6l-63 -78l-86 -14
l-62 -33l-67 -105h-72l-76 -57l-36 -39l-107 -16l-74 45zM2318 141l31 115l59 25l86 18l54 29l106 30l43 58l96 -31l50 47l125 12l2 -4l-88 -88l-70 -8l-39 -92l-70 4l-94 -63l-55 -23h-94l-60 -25l-80 -8z" />
    <glyph glyph-name="C" unicode="C" horiz-adv-x="3129" 
d="M315 1149l60 31l41 45l76 84l77 32l80 11l37 18l100 45l52 15l94 53l61 -4l103 34l2 -6l-86 -71l-43 -31l-103 -39l-43 -31l-98 -47l-39 -18l-57 -53l-76 -39l-88 -60l-59 -6l-91 33v4zM231 819l25 51l74 107l59 31l55 20l95 14l59 11l70 32l98 25l55 16l99 35l65 51
l51 15l76 33l102 16l3 -2l-80 -70l-72 -37l-45 -28l-82 -19l-90 -53l-47 -31l-84 -59l-70 -33l-45 -39l-72 -63l-51 -29l-61 -27l-129 15l-56 14zM276 547l39 74l50 84l55 22l74 23l81 26l72 25l80 10l39 31l92 4l60 37l53 55l92 6l104 19l2 -5l-82 -67l-63 -68l-78 -4
l-65 -22l-64 -68l-47 -10l-59 -55l-64 -39l-74 -45l-65 -41l-53 -29l-97 16l-79 19zM438 330l17 57l90 59l41 46l71 30l70 17l82 10l68 18l71 25l43 22l92 50l80 8l2 -6l-55 -58l-98 -39l-45 -18l-66 -39l-57 -41l-60 -55l-57 -43l-70 -37l-61 -2l-102 -31l-54 25z
M2550 1315l43 119l55 8l154 -6l2 -6l-92 -123l-41 -37l-119 43zM750 184l18 142l78 -39l90 61l88 -4l86 35l88 16l2 -8l-67 -55l-82 -43l-56 -72l-102 -29l-68 17l-73 -25z" />
    <glyph glyph-name="D" unicode="D" horiz-adv-x="3223" 
d="M602 1362l37 92l57 23l125 2l90 26l4 -4l-79 -51l-84 -94l-54 -29l-96 31v4zM653 1135l25 59l55 59l92 27l39 41l88 -6l70 51l88 12l78 35l53 45l105 2l2 -6l-68 -80l-68 -12l-77 -37l-66 -59l-84 -21l-53 -71l-53 -5l-82 -53l-82 -4l-60 18zM670 893l35 86l43 47l88 23
l75 4l76 30l64 23l71 16l37 95l98 -19l89 10l2 -4l-66 -63l-47 -86l-96 30l-60 -43l-57 -34l-72 -37l-53 -56l-74 -53l-63 -2l-88 29zM662 637l26 76l49 53l66 37l104 2l43 24l94 35l56 60l88 -6l33 40l125 -2l2 -4l-78 -96l-56 2l-51 -72l-80 -4l-88 -51l-47 -16l-67 -78
l-72 -27l-72 -4l-75 27v4zM2181 1348l23 90l84 8l133 12l2 -4l-96 -94l-60 -60l-84 43zM616 367l35 22l76 86l43 41l74 31l67 20l80 13l68 20l71 27l44 20l94 49l78 13l2 -7l-58 -53l-100 -41l-43 -18l-66 -39l-59 -39l-61 -53l-58 -39l-72 -37l-59 -4l-96 -43l-58 26z
M2255 1130l35 95l47 2l90 49l53 18l90 9l66 47l96 2l2 -2l-63 -74l-80 -19l-64 -63l-49 -29l-94 -39l-33 -34l-96 34v4zM655 133l43 86l50 25l59 45l96 26l80 9l43 34l98 27l64 29l41 45l117 -2l2 -4l-74 -95h-62l-61 -30l-84 -58l-53 -10l-60 -57l-80 -56l-98 37l-51 -24
l-68 -29zM2275 889l19 76l80 51l96 6l51 45l94 35l64 16l63 19l99 53l90 6l2 -6l-64 -64l-102 -41l-55 -38l-54 -37l-88 -52l-65 -10l-68 -69l-90 -29l-70 37zM1192 133l18 94l45 -14l91 -6l2 -6l-68 -41l-33 -10l-53 -19zM2263 633l37 78l31 67l98 13l57 24l84 4l80 31
l82 33l78 24l43 35l53 57l123 -10v-4l-70 -98l-80 -4l-53 -13l-67 -43l-80 -41l-74 -41l-57 -63l-56 -27l-73 -67l-70 20l-82 19zM2198 352l36 68l62 76h47l98 30l56 45l83 7l68 28l66 15l77 26l72 45l74 25l90 24l2 -6l-76 -55l-65 -41l-80 -25l-72 -43l-53 -43l-66 -32
l-57 -60l-72 -14l-86 -55l-30 -35l-97 2l-75 12zM2339 168l20 78l74 65l72 -10l73 35l88 12l50 27l114 24l2 -6l-102 -51l-41 -43l-84 -23l-78 -28l-53 -29l-86 -35l-47 -20z" />
    <glyph glyph-name="E" unicode="E" horiz-adv-x="2850" 
d="M545 1466l22 15l17 18l47 6l2 -4l-27 -51l6 -68l-65 80zM635 1241l22 86l74 53l72 35l65 -12l97 27l47 20l67 43l121 12l2 -2l-88 -84l-76 -24l-47 -25l-82 -55l-30 -58l-74 -32l-88 -23l-82 37v2zM670 993l37 103l65 16l47 39l82 41l66 -6l69 35l97 28l57 13l94 43
l76 32l80 17l2 -6l-64 -52l-73 -36l-93 -46l-47 -34l-84 -56l-71 -30l-37 -56l-84 -37l-60 -10l-55 -41l-102 39zM668 725l14 70l53 71l92 2l82 37l68 27l57 18l88 35l72 8l68 41l88 41l90 12l2 -4l-66 -63l-88 -41l-74 -25l-53 -51l-84 -45l-51 -31l-63 -36l-82 -37
l-60 -70l-90 6l-61 33zM2187 1438l45 26l43 13l66 28l2 -4l-51 -63l-51 8l-50 -14zM629 442l28 74l48 82h77l97 4l47 10l75 50l50 40l86 21l80 18l59 45l78 21l86 14l2 -4l-66 -59l-65 -45l-74 -17l-66 -49l-69 -53l-64 -10l-86 -27l-39 -31l-63 -69l-51 -62l-92 17l-78 26
v4zM2472 1305l10 69l58 15l79 -17l2 -6l-36 -74h-66l-45 6zM537 135l26 64l60 82l53 32l112 -18l50 57l94 13l69 32l60 21l61 18l97 47l24 66l84 -25l113 31l2 -4l-94 -68l-37 -80l-66 23l-100 -43l-51 -35l-54 -33l-69 -30l-72 -66l-74 -2l-100 -10l-49 -41l-90 -14
l-45 -21zM1960 797l43 94l90 4l96 10l2 -4l-67 -70l-62 -65l-100 27zM1108 133l33 84l45 45l102 -4l55 21l97 12l2 -6l-70 -66l-51 -31l-96 -10l-49 -35l-66 -12zM2249 133l32 98l80 37l86 2l62 2l110 37l2 -6l-98 -63l-41 -47l-80 -15l-75 -43l-76 -4z" />
    <glyph glyph-name="F" unicode="F" horiz-adv-x="2850" 
d="M543 1464l22 17l17 18l49 6l2 -4l-27 -51l6 -68l-67 78zM633 1241l22 86l76 53l72 35l65 -12l97 27l49 20l65 43l121 12l2 -2l-88 -84l-76 -24l-47 -25l-82 -57l-30 -58l-76 -30l-88 -25l-80 37zM670 993l37 103l65 16l47 39l82 41l66 -6l69 35l97 28l57 13l94 43l76 32
l80 17l2 -6l-64 -52l-73 -36l-93 -46l-47 -36l-84 -56l-71 -28l-37 -56l-84 -37l-60 -12l-55 -39l-102 39zM668 725l14 68l53 73l92 2l82 37l68 27l57 18l88 35l72 8l68 41l88 41l90 12l2 -6l-66 -61l-88 -41l-74 -27l-53 -49l-84 -45l-51 -31l-63 -36l-82 -37l-60 -70
l-90 6l-61 33zM2206 1446l39 24l39 11l57 24l2 -4l-43 -59l-47 10l-43 -12zM629 442l28 74l48 84l79 -2l95 4l49 10l73 50l50 40l86 21l82 18l57 45l78 21l86 12l2 -2l-66 -59l-65 -45l-72 -17l-68 -49l-69 -53l-64 -10l-86 -27l-39 -31l-63 -69l-49 -62l-94 17l-76 24z
M2482 1309l4 67l47 10l70 -22l2 -4l-27 -70l-55 4l-39 9zM539 135l26 64l58 84l53 30l112 -16l50 55l96 13l70 32l57 21l61 18l97 47l24 66l86 -25l113 31v-4l-94 -68l-37 -80l-66 25l-98 -45l-53 -35l-54 -33l-69 -30l-72 -66l-74 -2l-100 -10l-49 -41l-90 -14l-45 -21z
M1950 795l47 94l94 4l98 12l2 -6l-71 -70l-64 -67l-104 26zM1110 133l39 88l53 49l115 2l63 23l107 18l4 -8l-82 -69l-59 -35l-109 -15l-57 -39l-74 -16v2z" />
    <glyph glyph-name="G" unicode="G" horiz-adv-x="3160" 
d="M301 1118l61 29l41 45l70 100l78 33l86 -4l29 39l108 26l51 15l99 45l45 29l75 20l111 23l2 -7l-90 -69l-61 -45l-54 -15l-96 -47l-45 -30l-90 -66l-47 4l-51 -69l-78 -37l-86 -64l-74 27l-82 16zM229 791l31 75l59 54l56 47l71 6l84 55l58 14l102 27l76 29l55 6l74 35
l86 37l29 49l102 4l98 20l2 -4l-77 -63l-70 -76l-57 10l-82 -43l-74 -33l-41 -39l-72 -40l-84 -62l-49 -35l-96 -28l-51 -52l-72 -10l-78 -12l-78 24zM287 522l14 64l74 80l63 39l66 38l61 -20l84 20l53 45l66 29l88 12l64 86l71 -34l84 41l90 10v-4l-65 -62l-84 -39
l-21 -75l-106 6l-66 -60l-63 -32l-70 -13l-69 -49l-25 -61l-72 -25l-69 -24l-109 -5l-57 29zM467 311l35 82l57 51l62 62l79 4l84 8l41 31l119 12l41 23l92 45l88 10l2 -4l-63 -62l-96 -43l-41 -16l-86 -84l-50 -12l-61 -58l-53 -59l-88 -6l-76 -12l-84 26zM2443 1233l39 70
l76 28l106 8l2 -6l-71 -80l-74 -36l-76 14zM803 174l24 92l47 51l95 9l80 2l53 26l98 6l2 -6l-67 -71l-54 -23l-53 -59l-96 -4h-72l-57 -27v4zM1960 420l16 63l76 78l51 45l56 10l88 -10l55 27l82 41l96 -8l45 41l92 18l4 -4l-57 -96l-47 -37l-88 -10l-84 -37l-55 -27
l-49 -76l-43 -32l-68 -13l-109 -6l-59 27zM1960 125l18 61l82 64l37 26l90 54l56 -8l79 16l86 43l56 8l71 49l72 27l90 4l2 -4l-61 -68l-68 -39l-82 -22l-41 -37l-88 -39l-65 -51l-56 10l-92 -45l-43 -16l-96 -37l-45 -2z" />
    <glyph glyph-name="H" unicode="H" horiz-adv-x="3778" 
d="M561 1450l33 20l24 23l64 12l2 -4l-41 -63l2 -78l-82 86zM655 1200l27 68l51 86l70 26l51 9l102 -5l37 35l80 4l70 45l76 27l94 10v-2l-68 -65l-69 -41l-78 -25l-56 -57l-51 -6l-63 -80l-37 -35l-66 -37l-98 14l-70 23zM674 915l12 76l84 62l47 32l105 23l84 18l53 9
l80 26l82 45l36 37l125 4l4 -4l-83 -96l-52 -4l-88 -33l-69 -45l-43 -35l-68 -53l-84 -66l-57 -14l-101 -25l-65 39zM668 618l22 93l62 34l51 31l98 8l62 27l73 20l88 33l45 21l88 49l93 2l2 -4l-62 -68l-96 -37l-41 -22l-84 -45l-63 -43l-60 -31l-69 -70l-56 -18l-67 -25
l-86 41v4zM2355 1405l68 37l51 37l98 26l2 -4l-71 -86l-35 -67l-111 55zM612 299l31 88l43 80l68 -8l75 -15l64 50l102 32l49 31l82 12l64 35l67 37l93 2l2 -4l-60 -70l-73 -28l-66 -27l-63 -53l-56 -17l-90 -59l-78 -18l-39 -68l-36 -55l-91 18l-86 31zM2427 1145l31 69
l63 62l43 49l90 27l101 2l26 49l119 -6l51 28l82 31l76 33l92 16l2 -4l-74 -57l-73 -37l-74 -45l-55 -21l-72 -94l-55 10l-66 -75l-80 -52l-63 -2l-90 -8l-72 19zM887 135l14 90l88 54l72 16l55 18h90l56 37l118 17l4 -9l-88 -82l-63 -18l-59 -70l-50 -30l-86 18l-96 -37
l-51 -8zM2435 856l19 82l81 51l68 39l74 10l88 17l51 43l102 12l60 23l53 36l115 21l4 -6l-88 -78l-64 -16l-55 -31l-76 -72l-65 -10l-70 -57l-55 -52l-74 -26l-90 -29l-76 37zM2435 561l23 76l45 51l100 27l49 45l84 10l62 8l90 27l49 20l84 41l92 13l2 -5l-68 -63l-86 -37
l-47 -24l-78 -54l-45 -41l-61 -57l-68 -10l-84 -60l-67 -2l-74 31zM2374 240l45 39l22 118l70 -6l86 27l67 65l68 -10l96 16l43 64l92 -6l48 65l108 -26l2 -2l-51 -101l-80 6l-55 -73l-76 6l-74 -64l-37 -57l-94 -10l-74 -47l-40 -58l-86 21l-76 26zM2777 135l14 107l103 12
l72 25l86 8l116 32l4 -8l-100 -69l-61 -60l-66 -41l-104 -6l-62 -4z" />
    <glyph glyph-name="I" unicode="I" horiz-adv-x="2129" 
d="M549 1462l24 17l19 18l49 8l2 -4l-31 -51l4 -64l-67 72v4zM639 1257l23 80l69 49l68 33l61 -12l90 27l47 18l62 41l115 12l2 -2l-84 -80l-72 -22l-43 -23l-78 -53l-31 -53l-69 -31l-82 -22l-76 34zM668 1022l47 70l41 65l49 27l82 30l59 5l74 14l84 43l57 8l94 31l70 37
l39 34l76 21l96 23l2 -7l-78 -61l-63 -45l-54 -6l-71 -31l-84 -51l-43 -39l-88 -39l-58 -47l-41 -41l-77 -43l-52 -23l-75 13l-86 8v4zM670 774l16 55l70 78l61 35l86 2l90 39l47 18l99 35l57 62l90 -6l33 45h129v-4l-82 -97l-55 4l-54 -73l-83 -4l-91 -54l-45 -24l-88 -45
l-55 -64l-66 -24l-104 -4l-53 22zM653 518l23 57l65 84l76 23l74 33l82 2l88 24l51 11l84 39l53 43l82 34l101 15l2 -4l-74 -70l-82 -39l-66 -14l-84 -39l-41 -31l-75 -55l-54 -62l-73 -34l-66 -43l-106 4l-58 18zM580 236l47 71l37 39l86 41l34 43l78 12l74 27l90 10l23 53
l112 -8l49 25l66 51l78 18l84 21l2 -6l-68 -55l-63 -46l-82 -18l-51 -22l-66 -91l-55 17l-66 -64l-69 -39l-58 -51l-55 2l-88 -39l-53 -6l-84 8zM893 135l27 70l57 51l76 43l69 8l101 21l75 55l54 37l116 -14l5 -9l-64 -100l-63 -14l-91 -25l-81 -63l-52 -50l-100 17
l-74 -17l-53 -14zM1425 133l-2 82l74 -22l51 2l4 -9l-34 -39l-52 -26l-39 10z" />
    <glyph glyph-name="J" unicode="J" horiz-adv-x="3127" 
d="M1477 1380l24 99l49 20l115 -10l80 16l4 -4l-68 -49l-65 -94l-47 -25l-90 43zM213 500l14 80l62 53l106 6l33 49l78 23l94 4l78 39l80 39l92 4l2 -6l-64 -66l-79 -37l-80 -33l-66 -71l-65 -43l-60 6l-73 -78l-80 -12l-68 37zM1518 1108l34 78l56 69l57 13l96 45l90 2
l52 18l73 35l86 39l37 35l96 20l60 17l117 26l2 -4l-97 -69l-51 -37l-76 -60l-51 -6l-86 -39l-74 -35l-47 -28l-59 -68l-96 -43l-47 -39l-88 4l-82 21zM303 254l27 53l59 96l43 21l92 35l70 26l82 -2l37 33l92 4l67 15l41 79l91 2l106 11l2 -4l-76 -74l-61 -70l-88 21
l-53 -43l-62 -68l-49 -6l-51 -66l-66 -36l-123 30l-47 -12l-82 -43l-47 -8zM1518 817l30 43l37 78l101 43l53 20l78 23l65 31l78 14l59 43l70 31l47 12l109 21l32 34l90 43l50 11l106 24l2 -6l-86 -68l-39 -32l-90 -41l-47 -2l-86 -70l-41 -27l-70 -34l-69 -17l-62 -53
l-65 -29l-66 -45l-51 -28l-96 -50l-86 21l-51 6zM1509 522l35 76l49 49l70 60h82l53 24l62 10l98 37l18 74l86 -31l103 37l37 19l55 77l96 13l76 12l82 10l2 -4l-59 -57l-58 -49l-74 -68l-94 6l-37 -14l-94 -55l-33 -86l-67 34l-92 -51l-47 -41l-54 -26l-53 -62l-90 -16
l-68 -6l-82 24zM1376 168l29 31l76 49l49 94l72 -12l63 82l47 2l96 39l45 10l76 31l96 18l52 14l77 33l66 41l68 41l67 25l53 6l103 26l2 -6l-86 -61l-39 -39l-61 -33l-76 -27l-72 -24l-76 -37l-45 -33l-76 -61l-71 -37l-37 -29l-90 -49l-33 -35l-104 4l-35 -63l-76 -37
l-104 10l-54 23zM1987 162l18 110l86 29l70 4l112 35h94l3 -6l-74 -43l-109 -43l-57 -31l-84 -33l-57 -26z" />
    <glyph glyph-name="K" unicode="K" horiz-adv-x="3602" 
d="M639 1247l23 109l53 12l94 41l88 6l78 12l35 21l104 29l80 28v-2l-57 -73l-105 -31l-39 -13l-57 -53l-62 -61l-92 -47l-45 -33l-96 51zM668 981l30 86l52 33l57 33l104 18l70 31l68 20l73 19l52 16l94 53l78 8l2 -4l-58 -57l-100 -37l-45 -29l-62 -43l-59 -38l-68 -35
l-82 -68l-61 -24l-57 -17l-86 31zM666 700l18 76l51 64l72 43l90 -2l53 22l86 29l37 53l82 21l80 32l111 -20l2 -4l-56 -99l-78 -41l-67 -49l-64 6l-77 -47l-52 -26l-57 -72l-78 -27l-82 3l-69 34zM631 403l47 35l24 97l89 24l94 31l47 26l98 23l70 20l78 37l65 23l103 20
l2 -6l-80 -65l-60 -37l-78 -35l-59 -41l-82 -61l-51 -19l-84 -53l-76 -51l-59 -23l-86 53zM651 135l29 68l39 86l90 6l80 18l74 37l77 17l50 59h98l45 14l113 17l2 -4l-86 -76l-39 -25l-64 -76l-78 3l-61 -52l-76 -32l-65 -48l-107 31l-67 -28l-52 -19zM1829 682l16 102
l84 -2l64 45l98 -4l66 13l55 36l92 33l2 -4l-74 -76l-61 -16l-49 -51l-76 -47l-74 -19l-51 -65l-90 53zM1253 133l-10 74l76 -2l57 -15l2 -2l-26 -53l-64 -20l-35 16v2zM1937 453l39 84l39 75l62 -4l65 43h66l90 27l76 35l49 37l92 6l37 20l112 17v-5l-84 -75l-38 -17
l-64 -65l-59 -15l-76 -34l-78 -52l-43 -51l-76 -22l-35 -49l-81 18l-91 25zM2048 225l35 88l35 54l86 39l61 -5l78 35l70 29l84 10l67 23l49 14l58 37l77 76l103 -25l2 -4l-47 -96l-107 -11l-65 -18l-43 -29l-62 -39l-61 -57l-68 -35l-76 -37l-34 -51l-86 -41l-64 8l-92 31
v4zM2454 133l14 57l80 95l57 -17l82 23l86 26l57 19l54 76l108 -25l2 -8l-49 -96l-92 6l-51 -31l-76 -49l-72 -49l-59 24l-107 -39l-32 -14z" />
    <glyph glyph-name="L" unicode="L" horiz-adv-x="2850" 
d="M541 1460l26 17l19 20l53 8l2 -4l-33 -53l4 -70l-69 78zM629 1235l24 86l76 53l74 37l65 -12l99 28l51 21l67 43l123 14l2 -2l-90 -86l-78 -24l-47 -25l-84 -57l-32 -60l-76 -32l-90 -23l-82 35zM664 985l41 92l49 51l63 2l76 52l61 -2l66 41l100 16l49 27l97 34l71 39
l49 17l105 18l2 -4l-82 -70l-43 -26l-76 -29l-88 -53l-53 -21l-78 -65l-72 -25l-38 -47l-89 -24l-40 -50l-72 -4l-96 29zM666 721l45 78l43 55l102 4l45 41l72 10l65 41l95 29l49 14l94 41l47 82l113 -35l2 -4l-45 -110l-93 16l-94 -45l-41 -29l-82 -55l-73 -23l-56 -47
l-59 -8l-70 -78l-69 4l-88 13zM625 436l24 62l53 61l54 47l100 -2l68 35l69 33l72 12l80 39l55 -4l72 53l55 31l109 12l2 -4l-78 -78l-60 -20l-88 -23l-32 -45l-80 -35l-58 -47l-67 -33l-70 -28l-63 -78l-72 -10l-82 -2l-61 18zM547 135l37 64l53 53l41 49l80 37l80 12
l77 27l93 12l24 51l115 -6l53 23l68 53l78 20l90 21l2 -6l-70 -58l-68 -47l-86 -16l-49 -27l-69 -94l-56 16l-69 -63l-70 -43l-59 -53l-113 33l-55 -21l-64 -29l-61 -12zM1118 133l25 92l84 8l96 19l113 33l2 -6l-97 -68l-75 -59l-80 -21h-68v2zM2499 512l14 27l39 14l51 10
l2 -6l-29 -55l-16 -68l-57 74zM2257 135l10 88l80 43h94l68 6l98 27l4 -6l-84 -57l-47 -50h-96l-78 -45l-47 -10z" />
    <glyph glyph-name="M" unicode="M" horiz-adv-x="3637" 
d="M780 1313l21 110l43 35l110 4l90 2l70 27l78 14l4 -4l-63 -51l-66 -35l-59 -67l-74 -82l-55 -11l-97 56zM920 1096l16 78l65 53l80 30h72l72 41l65 39l74 23l78 12l69 31l60 37l76 12l84 23l2 -7l-72 -47l-57 -51l-68 -22l-68 -33l-59 -51l-66 -41l-71 -25l-78 -31
l-45 -55l-74 -41l-84 -16l-71 37v4zM1057 877l16 75l62 66l67 45l55 14l95 13l39 47l82 18l92 10h61l68 35l71 37l103 18l2 -4l-80 -65l-76 -31l-69 -31l-39 -47l-68 -63l-68 -51h-61l-68 -64l-49 -33l-78 -24l-88 -4l-67 36zM618 391l21 21l10 49l56 -31l2 -2l-13 -63
l-14 -43l-59 65zM1196 659l23 58l47 82l73 18l58 39l90 21l82 2l69 34l70 19l80 35l47 14l74 49l98 8l2 -4l-70 -69l-86 -25l-38 -29l-80 -39l-60 -41l-69 -30l-56 -62l-73 -55l-66 -18l-63 -45l-93 14l-57 20zM2464 1251l18 54l58 104l79 -2h64l80 37l88 -6l61 61l99 6
l4 -4l-70 -69l-51 -86l-88 6l-80 -37l-41 -49l-49 -62l-117 23l-55 20v4zM674 135l18 84l53 19l115 -17l2 -4l-84 -49l-55 -16l-47 -21zM1335 442l11 62l81 69l70 25l51 10l101 13l63 24l25 74l123 -31l4 -4l-82 -63l-47 -25l-60 -31l-73 -71l-41 -33l-64 -37l-106 -16
l-56 30v4zM2454 963l16 73l72 86l57 6l76 -12l80 35l81 20l52 33l100 10l2 -6l-72 -71l-59 -19l-66 -49l-77 -39l-41 -65l-41 -39h-111l-67 32zM1473 223l-11 115l56 -21l100 -24l2 -6l-72 -35l-37 -19l-36 -14zM2390 651l35 82l45 35l80 55l90 17l78 12l59 59l76 -4l98 4
l2 -2l-67 -71l-45 -60l-84 -8l-60 -53l-69 -58l-97 -26l-55 -12l-84 26zM2198 279l36 30l62 45l61 119l62 10l80 -2l51 35l86 29l67 71l80 -32l86 39l86 12l2 -6l-61 -62l-86 -39l-27 -84l-98 -4l-78 -47l-59 -18l-49 -62l-48 -41l-110 -12l-76 -18l-65 30zM2494 133l43 80
l29 55l103 4l75 33l86 14l62 41l108 11l2 -4l-77 -78l-70 -21l-68 -55l-73 -37l-99 -12l-49 -10l-72 -23v2z" />
    <glyph glyph-name="N" unicode="N" horiz-adv-x="3452" 
d="M647 1288l25 96l49 19l94 33l80 20h80l29 31l112 18l2 -4l-88 -74l-41 -2l-51 -61l-68 -47l-84 -51l-47 -27l-90 45zM860 1118l29 70l49 41l82 47l74 16l75 19l70 30l61 41l78 2l68 27l41 37l100 33l76 12l2 -6l-57 -47l-90 -58l-56 -8l-63 -35l-51 -57l-72 -22l-68 -31
l-61 -47l-62 -47l-88 -33l-63 -10l-72 22zM1051 938l28 82l45 35l78 47l45 31h90l76 45l55 10l80 12l78 25l68 55l67 23l94 14l5 -8l-72 -66l-62 -35l-86 -16l-69 -45l-58 -51l-45 -37l-82 -29l-59 -69l-53 -15l-84 -28l-57 -13l-80 29zM1233 756l20 67l62 90l90 -2l68 37
l77 15l52 24l61 21l74 24l61 51l72 11l88 26l94 17v-4l-72 -62l-77 -49l-54 -49l-77 -12l-68 -41l-55 -35l-54 -23l-59 -51l-72 -29l-57 -69l-107 10l-65 29zM2673 1425l20 45l70 11l80 24l2 -2l-60 -71l-35 -82l-75 73zM475 133l39 37l74 72l88 -15l2 -4l-45 -78l-103 -8
l-53 -6zM1415 571l33 95l51 22l64 68l92 -6l88 20l51 43l84 18l35 43l106 3l62 43l84 22l80 16l2 -4l-66 -49l-70 -49l-71 -20l-72 -80h-55l-68 -51l-65 -13l-72 -53l-55 -76l-92 -4l-52 -27l-92 37zM1597 389l17 62l72 69l83 37l35 31l94 -2l74 43l90 35l82 8l70 39l45 24
l98 37l84 10l2 -6l-61 -55l-92 -51l-47 -19l-76 -30l-58 -58l-86 -45l-79 -29l-60 -73l-45 -6l-82 -41l-100 -13l-58 29zM1780 205l24 57l51 53l95 52l69 39l52 2l86 28l41 62l118 -9l62 25l73 37l58 20l88 37l86 19l2 -6l-70 -54l-84 -43l-53 -30l-76 -33l-59 -31l-70 -96
l-71 6l-78 -47l-35 -37l-76 -29l-98 -39l-74 -4l-59 19zM2202 135l18 53l61 86l80 45l76 -24l96 24l54 48l104 -2l2 -7l-63 -84l-70 -10l-80 -57l-33 -74l-125 53l-75 -53l-43 -2z" />
    <glyph glyph-name="O" unicode="O" horiz-adv-x="3098" 
d="M319 1171l56 29l39 45l71 80l74 33l76 8l35 16l94 45l49 11l90 51l49 12l107 15l2 -5l-80 -69l-41 -31l-96 -35l-41 -30l-94 -46l-35 -16l-56 -51l-73 -35l-82 -57l-55 -8l-86 34zM233 844l23 49l68 102l55 31l53 18l90 13l53 8l66 31l94 24l51 15l95 32l61 50l49 12
l70 31l98 14v-4l-74 -66l-67 -35l-41 -28l-78 -15l-84 -51l-45 -31l-78 -55l-65 -31l-43 -36l-68 -60l-47 -28l-59 -25l-121 14l-53 17zM266 569l37 72l47 80l53 24l72 23l78 25l70 24l77 8l37 29l90 4l58 35l49 55l90 4l100 17l2 -2l-77 -68l-60 -65l-76 -5l-63 -20
l-59 -66l-48 -10l-55 -53l-63 -39l-70 -43l-63 -41l-52 -25l-94 15l-78 18zM1923 1341v105l123 16h70l102 17l4 -4l-80 -68l-45 -51l-94 -86l-78 67zM416 350l16 88l78 19l61 49l80 20l86 21l60 41l96 18l45 21l57 106l127 -51l2 -6l-41 -133l-116 24l-47 -20l-74 -62
l-70 -20l-71 -53l-68 -47l-78 -17l-63 -47l-78 45zM1964 1071l16 74l66 80l65 24l99 -12l28 59l115 -14l25 61l76 -8l114 19v-4l-86 -76l-41 -64l-63 21l-64 -98l-63 16l-53 -82l-62 -35l-102 2l-68 35zM715 201l12 129l53 22l127 -10l43 16l84 27l115 21l2 -7l-88 -77
l-74 -46l-41 -22l-117 -12l-47 -37l-67 -8zM1976 788l21 78l61 82l53 25l60 12l102 21l41 16l101 27l45 10l82 12l75 59l49 21l103 6l2 -2l-72 -76l-47 -22l-94 -23l-61 -53l-37 -29l-84 -59l-41 -21l-80 -65l-49 -37l-52 -25l-104 5l-72 32zM1962 492l29 59l51 65l57 31
l92 25l74 24l64 19l100 24l53 45l68 58l73 -21l72 64l60 14l98 12l2 -6l-72 -69l-49 -37l-94 -15l-31 -69l-88 -15l-67 -12l-84 -59l-56 -39l-65 -41l-78 -53l-62 -25l-81 2l-66 16v3zM1886 168l45 82l31 39l76 53l90 18l47 29l72 19l77 32l86 15l48 30h73l82 50l53 43
l70 26l107 12l2 -6l-76 -73l-66 -37l-67 -15l-92 -30l-47 -56l-54 -18l-65 -55l-76 -37l-59 -45l-54 -19l-71 -55l-88 -25l-50 2l-90 17z" />
    <glyph glyph-name="P" unicode="P" horiz-adv-x="3180" 
d="M578 1403l61 35l37 55l125 12l2 -4l-90 -86l-23 -88l-110 72zM649 1139l29 73l57 84l76 29l51 10l109 -2l41 35l82 8l73 45l80 29l99 14l2 -4l-74 -65l-74 -43l-82 -29l-59 -57l-53 -9l-68 -83l-41 -35l-70 -39l-102 12l-74 25zM670 852l10 76l78 59l45 31l102 20l78 19
l53 6l76 24l78 43l35 37l121 2l2 -6l-78 -92l-51 -4l-84 -31l-66 -43l-39 -37l-65 -47l-80 -65l-54 -17l-96 -18l-63 39zM647 545l25 96l63 35l51 31l101 8l63 28l76 19l90 35l45 20l90 51l95 2l2 -4l-64 -69l-96 -37l-45 -23l-84 -45l-64 -47l-61 -31l-72 -71l-55 -19
l-70 -24l-88 43zM2167 1253l20 146h68l82 -8l84 22l69 45l121 2l2 -2l-80 -92l-79 -25l-72 -47l-45 -69l-45 -54l-123 78zM539 199l41 26l61 62l53 67l78 23l72 29l59 30l84 25l41 16l96 31l50 12l34 115l138 -60l2 -4l-43 -145l-109 47l-43 -29l-84 -55l-39 -20l-74 -50
l-61 -24l-68 -37l-67 -45l-53 -68l-97 19l-69 31zM2136 942l27 59l57 84l61 21l95 18l65 19l84 39l74 26l65 4l50 41l102 37l82 10l2 -8l-59 -57l-95 -53l-63 -11l-45 -49l-68 -37l-84 -41l-55 -38l-76 -60l-53 -35l-102 13l-64 14v4zM1038 133l13 115l94 28l57 -12l92 15
l113 30l4 -8l-96 -68l-70 -61l-59 18l-84 -51l-62 -8zM2413 774l32 88l47 45l101 13l53 28l64 8l94 50l90 -5l2 -6l-72 -34l-80 -78l-65 -4l-53 -31l-82 -49l-68 -4l-61 -25z" />
    <glyph glyph-name="Q" unicode="Q" horiz-adv-x="3098" 
d="M319 1171l56 29l39 45l71 80l74 33l76 8l35 16l94 45l49 11l90 51l49 12l107 15l2 -5l-80 -69l-41 -31l-96 -35l-41 -30l-94 -46l-35 -16l-56 -51l-73 -35l-82 -57l-55 -8l-86 34zM233 844l23 49l68 102l55 31l53 18l90 13l53 8l66 31l94 24l51 15l95 32l61 50l49 12
l70 31l98 14v-4l-74 -66l-67 -35l-41 -28l-78 -15l-84 -51l-45 -31l-78 -55l-65 -31l-43 -36l-68 -60l-47 -28l-59 -25l-121 14l-53 17zM266 569l37 72l47 80l53 24l72 23l78 25l70 24l77 8l37 29l90 4l58 35l49 55l90 4l100 17l2 -2l-77 -68l-60 -65l-76 -5l-63 -20
l-59 -66l-48 -10l-55 -53l-63 -39l-70 -43l-63 -41l-52 -25l-94 15l-78 18zM1923 1341v105l123 16h70l102 17l4 -4l-80 -68l-45 -51l-94 -86l-78 67zM416 350l16 88l78 19l61 49l80 20l86 21l60 41l96 18l45 21l57 106l127 -51l2 -6l-41 -133l-116 24l-47 -20l-74 -62
l-70 -20l-71 -53l-68 -47l-78 -17l-63 -47l-78 45zM1964 1071l16 74l66 80l65 24l99 -12l28 59l115 -14l25 61l76 -8l114 19v-4l-86 -76l-41 -64l-63 21l-64 -98l-63 16l-53 -82l-62 -35l-102 2l-68 35zM715 201l12 129l53 22l127 -10l43 16l84 27l115 21l2 -7l-88 -77
l-74 -46l-41 -22l-117 -12l-47 -37l-67 -8zM1976 788l21 78l61 82l53 25l60 12l102 21l41 16l101 27l45 10l82 12l75 59l49 21l103 6l2 -2l-72 -76l-47 -22l-94 -23l-61 -53l-37 -29l-84 -59l-41 -21l-80 -65l-49 -37l-52 -25l-104 5l-72 32zM1962 492l29 59l51 65l57 31
l92 25l74 24l64 19l100 24l53 45l68 58l73 -21l72 64l60 14l98 12l2 -6l-72 -69l-49 -37l-94 -15l-31 -69l-88 -15l-67 -12l-84 -59l-56 -39l-65 -41l-78 -53l-62 -25l-81 2l-66 16v3zM1886 168l45 82l31 39l76 53l90 18l47 29l72 19l77 32l86 15l48 30h73l82 50l53 43
l70 26l107 12l2 -6l-76 -73l-66 -37l-67 -15l-92 -30l-47 -56l-54 -18l-65 -55l-76 -37l-59 -45l-54 -19l-71 -55l-88 -25l-50 2l-90 17zM1528 -287l-4 94l106 -2l99 2l2 -2l-66 -75l-96 -19h-39z" />
    <glyph glyph-name="R" unicode="R" horiz-adv-x="3530" 
d="M627 1296l26 109l47 39l119 8l96 6l74 31l86 16l2 -4l-69 -53l-70 -37l-68 -70l-82 -86l-61 -10l-98 49zM676 1047l26 59l58 72l71 43l74 -7l82 21l70 29l73 22l68 33l70 31l82 12l2 -6l-62 -56l-67 -32l-70 -33l-63 -41l-68 -35l-68 -49l-43 -59l-80 -29l-92 2l-61 18z
M682 774l12 62l74 55l51 27l88 47l64 -4l65 30l86 10l68 43l51 25l109 16l2 -4l-82 -71l-53 -25l-76 -24l-64 -58l-65 -31l-37 -53l-94 -35l-54 -22l-88 -23l-57 31v4zM2116 1444l45 29l53 32l70 17v-4l-35 -91l-54 -26l-77 39zM649 485l27 62l67 86l50 16l98 21l65 24
l82 23l74 6l66 31l82 55l90 4l2 -6l-60 -68l-94 -26l-68 -31l-51 -51l-69 -49l-62 -35l-80 -62l-45 -26l-108 2l-64 20zM2159 1188l28 82l58 73l94 3l82 18l45 74l114 -23l41 25l117 18l4 -4l-92 -78l-45 -14l-57 -102l-84 12l-68 -49l-61 -72l-94 4l-80 29zM485 133l41 31
l66 37l45 90l70 55l59 -24l84 57l61 -4l78 28l70 35l80 29l49 43l82 12l80 17l2 -7l-64 -51l-61 -53l-66 -10l-74 -43l-71 -31l-70 -43l-39 -49l-96 -27l-18 -61l-88 -19l-99 23l-69 -27l-50 -10zM1925 805l33 20l80 52l82 24l26 84l82 31l29 39l86 4l76 28l82 41l69 25
l74 21l45 20l88 47l47 31l62 16l106 17l4 -7l-82 -69l-53 -39l-53 -16l-92 -37l-43 -23l-66 -43l-63 -37l-84 -37l-70 -39l-59 -63l-47 2l-78 -43l-52 -29l-83 -20l-97 -12l-47 8zM1073 135l21 117l61 4l117 -10l94 24l2 -4l-78 -57l-96 -33l-55 -20l-64 -25zM2048 588
l25 82l53 59l57 27l121 -29l51 43l68 51l55 10l98 5l2 -5l-65 -73l-45 -37l-82 -19l-66 -12l-55 -110l-57 -27l-80 -2l-78 33zM2122 348l20 70l35 78l102 20l64 33h86l57 37l84 2l66 30l55 33l109 13l2 -5l-80 -73l-62 -23l-65 -31l-53 -61l-68 -20l-55 -66l-64 -29l-84 -65
l-82 24l-67 29v4zM2320 166l33 86l60 43l69 31l66 22l90 31l59 14l90 23l86 45l93 8l4 -6l-68 -66l-88 -37l-76 -55l-49 -35l-82 -51l-57 -35l-70 -34l-92 26l-68 -14v4zM2748 92l29 94l53 19l92 8l44 102l116 -65l4 -8l-24 -131l-107 32l-84 -26l-49 -25l-72 -4z" />
    <glyph glyph-name="S" unicode="S" horiz-adv-x="2799" 
d="M367 1317l65 31l51 32l103 45l86 33l2 -4l-78 -53l-80 -92l-53 -29l-94 31zM231 993l21 66l59 55l97 25l45 26l65 47l94 7l80 32l86 21l56 43l77 37l76 24l90 10l2 -2l-67 -63l-68 -41l-78 -37l-67 -14l-72 -53l-78 -39l-63 -70l-78 -20l-49 -17l-82 -57l-80 -10l-64 24z
M322 774l38 62l46 71l59 47l80 13l51 26l72 15l82 22l71 31l56 18l90 17l26 69l86 11l76 38l102 -4v-4l-59 -80l-80 -32l-63 -62l-72 25l-70 -60l-49 -28l-69 -35l-70 -49l-57 -47l-54 -21l-61 -53l-74 -16l-84 14l-71 8zM555 625l45 53l53 55l35 70l94 18l80 25l70 28
l72 23l63 2l53 37l72 33l65 37l72 6l82 39l68 36l71 27l92 14l3 -6l-70 -59l-68 -39l-71 -25l-82 -38l-51 -52l-72 -26l-70 -33l-63 -19l-41 -47l-66 -41l-65 -34l-70 -45l-74 -60l-75 19l-78 -7l-70 2zM197 193l36 22l25 64l80 -19l2 -6l-55 -33l-47 -18l-39 -13zM942 543
l19 45l73 86l39 43l90 4l64 47l88 10l59 23l76 26l41 25l88 35l68 20l82 19l24 69l102 13l25 57l84 -25l107 27l2 -6l-91 -62l-34 -79l-60 16l-76 -70l-67 27l-68 -51l-59 -39l-84 -45l-45 -17l-68 -41l-55 -30l-66 -62l-77 -18l-60 -66l-59 -2l-127 31l-33 -16zM1372 483
l23 58l61 75l84 11l43 53l86 33l57 16l64 10l94 37l49 4l95 41l43 17l75 26l82 49l53 15l99 22l2 -6l-82 -57l-43 -33l-90 -31l-70 -41l-41 -24l-92 -45l-35 -33l-90 -49l-47 -43l-49 -33l-80 -45l-68 2l-63 -59l-113 34l-43 -10zM1671 358l29 76l47 58l106 8l43 63l99 -4
l43 39l86 33l59 12l66 55l69 -14l90 53l37 60l115 -23l2 -6l-55 -100l-70 10l-98 -37l-35 -61l-84 -15l-49 -39l-78 -43l-59 -10l-60 -76l-76 6l-75 -75l-74 2l-76 24zM1735 127l32 70l62 53l67 45l70 22l96 7l43 22l80 45l84 10l74 31l59 43l41 86l133 -39l2 -6l-81 -67
l-66 -37l-70 -17l-71 -39l-62 -57l-86 -31l-45 -18l-67 -70l-97 33l-63 -47l-74 -29l-61 -14v4z" />
    <glyph glyph-name="T" unicode="T" horiz-adv-x="3063" 
d="M188 1440l39 24l31 23l74 18l2 -4l-51 -65l-7 -80l-86 78zM188 1153l17 92l92 -6l86 6l2 -4l-74 -35l-63 -55l-58 -4zM1126 1305l23 75l65 66l95 10l71 12l84 29l95 8l2 -4l-70 -63l-76 -47l-53 -48l-70 -65l-92 -8l-72 30zM1126 1020l21 84l59 26l47 52l90 30l56 7
l100 16l70 33l45 18l78 14l69 58l27 47l127 -16l2 -7l-68 -108l-53 10l-90 -16l-59 -51l-43 -23l-70 -33l-78 -65l-41 -39l-80 -49l-69 -2l-60 -29l-78 39zM1126 733l29 68l49 45l53 59l91 21l45 16l98 16l49 66l86 -12l37 30l88 9l51 43l113 10l2 -6l-78 -82l-65 -12
l-64 -62l-47 -8l-45 -74l-84 4l-76 -63l-41 -25l-74 -57l-77 -2l-68 -8l-70 20zM2517 1382l53 39l31 68h70l112 16l2 -4l-86 -76l-45 -51l-28 -71l-107 75zM1118 444l39 70l47 57l84 25l29 41l96 27l47 14l72 33l70 26l92 2l57 31l80 39l84 8l2 -6l-59 -59l-80 -37l-62 -25
l-59 -67l-68 -37l-69 -35l-43 -27l-82 -55l-49 4l-72 -49l-74 2l-80 14zM2730 1196l2 88l74 -6l67 -16l2 -2l-32 -64l-41 -59l-70 55zM1065 135l37 101l53 22l59 51l101 21l78 20l43 35l100 29l76 6l37 59l88 8l57 29l121 14l2 -4l-88 -84l-60 -26l-63 -62l-68 11l-53 -56
l-86 -57l-57 -10l-66 -47l-119 24l-61 -47l-53 -22l-76 -19zM1679 133l21 131l84 -26l102 18l88 18l2 -8l-67 -55l-82 -68l-74 7l-72 -19z" />
    <glyph glyph-name="U" unicode="U" horiz-adv-x="3571" 
d="M547 1229l20 100l49 17l97 28l71 35h78l29 27l98 32l39 29l111 8l2 -2l-78 -80l-49 -12l-86 -53l-41 -6l-49 -60l-72 -32l-82 -54l-45 -28l-92 49v2zM551 954l22 70l70 63l53 43l97 37l65 -32l64 63l100 23l49 39l80 6l43 71l82 -10l86 49l57 15l111 20l2 -4l-88 -72
l-47 -35l-94 -32l-43 -72l-82 14l-58 -57l-59 -12l-84 -62l-88 -8l-19 -72l-90 -51l-65 -12l-94 -12l-68 24zM553 678l43 70l31 73l94 13l41 45l69 2l70 24l84 41l49 6l94 29l48 74l88 -15l26 52l88 8l105 14l2 -6l-76 -72l-63 -63l-56 12l-47 -78l-86 15l-84 -56l-35 -35
l-86 -36l-63 -37l-47 -53l-60 -3l-69 -63l-76 23l-84 12v4zM612 428l21 41l47 84l108 20l41 45l72 37l76 7l74 26l63 31l80 8l47 14l90 62l45 6l107 27l2 -7l-88 -65l-33 -31l-104 -28l-43 -27l-58 -55l-63 -31l-70 -39l-53 -53l-74 -31l-61 -4l-84 -68l-95 17l-47 10v4z
M2802 1450l22 39l45 -4l56 20l2 -2l-31 -73l-19 -52l-73 68zM807 242l33 75l61 66l47 25l107 6l28 55l76 -10l109 30l41 13l49 92l127 -37l2 -4l-53 -119l-103 21l-35 -25l-94 -63l-41 -66l-61 16l-74 -79l-49 -19l-88 -6l-80 25zM1176 135l6 117l108 -4l70 26l84 13l80 14
l4 -8l-62 -53l-63 -56l-68 -37l-98 -14l-59 -2z" />
    <glyph glyph-name="V" unicode="V" horiz-adv-x="3330" 
d="M676 1292l31 105l49 39l118 10l97 10l76 31l86 18l2 -4l-70 -51l-74 -39l-67 -68l-86 -86l-62 -12l-98 45zM780 1083l27 62l59 76l78 36l72 5l74 45l75 22l78 17l72 34l80 13l63 34l70 31l47 29l113 18l2 -2l-86 -76l-54 -16l-67 -35l-70 -24l-59 -54l-72 -32l-63 -52
l-66 -40l-82 -29l-51 -51l-78 -37l-96 2l-64 20zM877 868l22 74l74 53l51 29l80 33l94 16l53 25l78 26l88 15l78 43l64 41l102 14l4 -6l-76 -70l-71 -22l-86 -33l-68 -59l-70 -41l-53 -25l-72 -61l-77 -41l-56 -21l-88 -22l-69 30zM973 655l39 72l43 82l88 14l76 4l71 23
l96 29l60 22l86 60l47 16l113 16l2 -6l-84 -78l-43 -26l-101 -27l-53 -33l-84 -53l-63 -43l-54 -55l-67 -58l-90 21l-82 16v4zM2632 1427l43 31l24 45l99 2l2 -2l-66 -73l-51 10l-51 -15v2zM1065 438l25 56l65 86l78 6l82 45l51 10l72 74l100 -27l66 35l55 25l117 24l4 -6
l-94 -74l-56 -28l-67 -27l-45 -92l-103 -8l-41 -33l-88 -35l-53 -53l-109 4l-59 14v4zM1147 219l45 80l39 51l102 31l45 22l76 9l111 41l41 16l65 72l113 -2l84 16l2 -4l-68 -53l-71 -88l-97 -4l-39 -21l-102 -59l-53 -52l-47 -20l-90 -59l-64 4l-90 16zM1565 154l20 118
l72 17l84 -2l45 18l96 25l78 10l2 -6l-57 -53l-82 -58l-41 -22l-86 6l-60 -45l-69 -10z" />
    <glyph glyph-name="W" unicode="W" horiz-adv-x="4392" 
d="M481 1456l29 19l22 20l58 10l2 -4l-37 -55v-70l-72 76zM584 1247l22 84l74 49l70 37l63 -12l94 25l47 22l68 39l117 14l2 -2l-86 -82l-74 -24l-47 -23l-80 -55l-31 -57l-73 -29l-86 -25l-78 35zM674 1032l39 101l65 20l49 37l82 41l68 -4l70 33l96 30l57 17l96 39l76 36
l82 17l2 -6l-65 -52l-74 -34l-94 -50l-47 -32l-89 -56l-69 -32l-39 -54l-84 -36l-61 -13l-58 -39l-100 35zM764 819l16 60l51 77l80 29l97 2l67 27l60 14l90 31l63 24l62 50l110 14l4 -6l-82 -78l-77 -16l-60 -33l-82 -49l-47 -35l-65 -35l-64 -74l-72 -43l-92 13l-59 24v4z
M2034 1411l45 53l75 31l82 10l5 -4l-64 -55l-53 -78l-88 39zM852 604l20 101l62 43l72 28l90 -8l65 33l82 28h55l74 54l58 24l108 17l2 -2l-82 -74l-57 -29l-88 -20l-35 -43l-76 -45l-67 -29l-52 -74l-67 -39l-72 -16l-90 47zM2122 1196l37 90l43 51l69 23l72 10l53 21
l88 12l45 82l97 -19l81 27l78 12l4 -4l-61 -49l-74 -49l-47 -84l-92 18l-68 -59l-49 -27l-53 -49l-64 -39h-65l-94 29v4zM938 389l29 98l77 35l39 17l78 34l99 21l77 12l43 37l97 33l63 26l90 9l2 -4l-63 -64l-64 -31l-86 -53l-55 -8l-59 -53l-80 -62l-76 -37l-39 -18
l-76 -39l-94 43zM2208 981l37 74l49 69l59 31l96 -10l50 35l94 20l55 19l57 22l95 39l39 23l108 22v-4l-86 -68l-43 -14l-88 -49l-53 -31l-51 -29l-76 -59l-60 -16l-53 -78l-61 -27l-86 8l-80 19zM1008 166l18 63l82 62l72 57h86l59 66l82 -21l63 19l74 30l80 35l98 21l2 -4
l-79 -62l-78 -39l-72 -37l-53 -37l-39 -75l-88 -4l-53 -66l-93 -16l-98 -25l-61 29zM2296 766l18 84l78 47l51 27l90 30l62 25l86 10l49 64l94 -19l41 80l113 -29l4 -6l-51 -106l-88 20l-45 -84l-80 2l-64 -57l-59 -33l-80 -49l-55 -20l-84 -31l-78 41zM3684 1413l47 37
l48 53l106 2l2 -2l-88 -43l-53 -39l-60 -12zM1491 135l45 74l49 20h111l2 -4l-72 -84l-65 13l-68 -23zM2384 551l20 65l66 80l88 9l78 12l41 18l63 23l88 37l64 18l69 35l101 18l2 -4l-80 -65l-70 -31l-55 -35l-84 -43l-59 -37l-41 -18l-60 -51l-61 -64l-105 2l-65 27v4z
M2458 328l26 73l76 66l51 4l99 12l73 45l62 15l59 98l88 -37l53 39l109 12l4 -8l-80 -74l-63 -16l-31 -90l-111 16l-51 -37l-82 -28l-74 -66l-36 -39l-97 -14l-73 27zM2589 135l18 80l68 43l45 41l88 -2l88 25l41 16l94 49h47l66 33l102 20l2 -4l-82 -65l-67 -29l-31 -37
l-96 -41l-41 -20l-76 -51l-82 -9l-51 -26l-82 -17l-49 -10z" />
    <glyph glyph-name="X" unicode="X" horiz-adv-x="3207" 
d="M698 1352l31 82l45 26l96 25l91 -4l67 24l2 -2l-51 -61l-68 -47l-80 -58l-49 -18l-82 29zM864 1180l17 67l57 51l68 43l92 2l73 46l91 14l59 31l86 20l68 37l88 14l2 -4l-68 -57l-74 -27l-69 -53l-62 -25l-67 -61l-82 -27l-64 -69l-75 -25l-76 -10l-62 31zM1030 1008
l39 77l53 56l82 12h74l59 41l45 80l103 -31l51 29l68 28l102 25l2 -6l-84 -64l-65 -32l-54 -21l-43 -98l-90 16l-69 -18l-50 -58l-61 -55l-76 -4l-84 21zM1196 836l25 57l61 86l47 10l101 19l67 30l78 6l27 54l90 4l102 14l2 -4l-76 -70l-61 -67l-57 14l-58 -55l-65 -31
l-78 -65l-39 -31l-105 8l-59 19zM2355 1376l27 111l59 -6h82l109 24l2 -2l-90 -67l-70 -27l-43 -27l-74 -10zM1362 664l49 84l41 61l94 2l70 35l86 16l76 19l67 55l101 2l4 -6l-68 -74l-84 -18l-63 -45l-70 -56l-70 -32l-63 -70l-74 8l-96 14v5zM758 133l4 92l59 -10l80 -12
l2 -8l-57 -33l-45 -19l-41 -12zM1497 479l14 60l76 88l64 -4l75 34l86 5l80 38l66 11l72 39l79 16l5 -6l-66 -51l-76 -31l-49 -45l-80 -35l-59 -63l-76 -35l-39 -51l-115 -3l-55 29zM1561 258l26 64l82 71l60 45l57 15l92 2l59 24l91 43l73 62l62 16l112 -8l2 -6l-67 -90
l-51 -35l-95 -17l-90 -43l-59 -28l-60 -70l-49 -35l-71 -16l-107 -16l-65 18zM1827 135l16 68l78 76l41 20l111 10l43 19l79 22l95 29l45 31l104 8l2 -2l-76 -74l-53 -16l-80 -54l-69 -45l-41 -22h-117l-41 -17l-90 -51l-45 -6zM2361 135l31 111l84 -19l125 19l2 -4l-94 -84
l-74 -6l-72 -21z" />
    <glyph glyph-name="Y" unicode="Y" horiz-adv-x="3362" 
d="M733 1309l25 104l45 35l110 8l93 4l69 29l82 16l2 -4l-65 -49l-68 -37l-61 -65l-78 -80l-58 -13l-94 48zM868 1110l21 74l69 55l82 33l74 4l78 39l68 41l75 24l82 15l72 32l63 39l78 15l86 24l4 -4l-75 -49l-64 -49l-70 -25l-69 -35l-64 -51l-69 -43l-74 -26l-80 -33
l-49 -55l-80 -41l-86 -19l-72 31v4zM1001 911l19 74l67 62l80 26l64 8l88 33l47 33l74 49l88 27l67 -9l113 27l2 -4l-92 -70l-39 -57l-76 -51l-84 -23l-57 -16l-82 -47l-45 -41l-74 -45l-88 -13l-69 33zM1137 713l39 71l53 62l92 20l39 29l88 16l98 27l66 29l78 37l96 12
l2 -4l-72 -68l-78 -33l-65 -32l-82 -60l-70 -55l-47 -12l-74 -58l-81 -2l-80 17zM2544 1368l12 84l113 35h67l103 18l2 -4l-88 -47l-56 -31l-102 -55l-49 -4zM1161 463l27 65l67 35l54 64l84 8l80 31l67 18l88 31l45 20l66 78l90 -14l92 20l4 -6l-74 -57l-49 -80h-102
l-45 -21l-78 -49l-59 -39l-76 -41l-60 -59h-82l-71 -29l-66 21zM1016 133l47 74l45 47l55 35l94 53l48 16l75 -2l103 50l37 26l69 51l111 -4l69 35l43 35l95 39l71 12l84 25l4 -9l-73 -49l-56 -47l-90 -45l-53 -12l-72 -31l-67 -86l-86 -22l-43 -11l-105 -47l-45 -59
l-45 -25l-100 -39l-90 41l-58 -22l-65 -31zM1575 135l27 82l84 68l53 4l119 16l51 12l80 45l112 17l2 -4l-86 -76l-84 -33l-43 -30l-90 -80l-65 20l-101 -29l-55 -16zM2136 135l-18 84l26 10l78 -55l2 -6l-33 -37l-26 -12l-27 12z" />
    <glyph glyph-name="Z" unicode="Z" horiz-adv-x="2936" 
d="M201 1466l22 17l17 16l47 6l4 -4l-27 -51l6 -72l-67 82zM1352 1180l45 39l82 32l73 31l17 88l106 2l39 37l84 6l74 45l80 29l98 16l2 -2l-76 -65l-75 -41l-80 -29l-60 -59l-53 -9l-70 -79l-43 -33l-67 -41l-105 10l-69 19zM795 647l32 21l86 34l39 46l90 38l35 107l58 -8
l65 41l88 18l39 21l84 28l45 41l94 27l49 26l70 21l68 47l73 29l60 4l82 29l20 86l88 2l74 38l64 -4l71 23l68 43l78 29l63 26l53 17l107 28l2 -4l-92 -61l-47 -29l-60 -33l-74 -41l-75 -24l-64 -41l-37 -49l-77 -33l-60 -66l-78 39l-73 -45l-43 -43l-70 -37l-78 -20
l-59 -41l-54 -21l-81 -55l-60 -8l-76 -47l-41 -17l-69 -55l-74 -22l-33 -50l-69 -32l-103 -11l-51 -16l-96 -16l-51 16v4zM283 133l45 43l82 29l18 63l68 88l61 -14l55 66l95 -21l69 45l49 55l93 11l34 37l80 43l78 6l72 10l51 27l80 32l55 58l80 14l88 18l27 45l98 23
l51 23l70 43l71 34l82 25l62 16l74 31l77 21v-5l-63 -45l-72 -36l-53 -37l-72 -47l-71 -31l-78 -27l-49 -24l-82 -62l-52 8l-69 -55l-64 -51l-80 -6l-75 -39l-54 -23l-53 -49l-55 -55l-84 -33l-51 -4l-68 -64l-74 -2l-79 -24l-43 -86h-89l-28 -55l-111 4l-59 26l-76 -45
l-61 -6v2zM868 135l19 78l67 68l66 34l45 15l86 2l88 33l55 4l80 28l62 41l77 19l80 14l2 -4l-61 -51l-66 -47l-71 -21l-72 -43l-39 -41l-82 -45l-57 -63l-82 63l-59 -49l-88 -23l-48 -16zM2630 135l10 47l47 17l63 -9l3 -4l-46 -32l-43 -27l-30 4z" />
    <glyph glyph-name="bracketleft" unicode="[" horiz-adv-x="1200" 
d="M213 1618l49 31l29 49l104 4l2 -4l-71 -74l-15 -82l-96 70zM219 1341l17 107l88 31l75 34l68 -14l92 43l100 4l3 -4l-68 -74l-92 -43l-33 -61l-76 -35l-80 -47l-92 55zM225 1065l25 98l61 25l113 12l47 8l74 43l108 15l2 -6l-77 -74l-82 -31l-37 -31l-82 -77l-58 -31
l-92 43zM229 786l11 105l90 27l49 6l94 18l64 8l110 31l2 -4l-96 -64l-45 -45l-76 -59l-37 -33l-78 -53l-86 57zM227 506l15 82l61 37l80 14l88 12l76 45l98 6l4 -4l-67 -75l-86 -29l-64 -59l-63 -52l-68 -24l-72 41zM221 223l12 70l68 65l76 4l63 41l99 5l108 14l2 -4
l-82 -74l-65 -74l-72 -22l-51 -55l-94 -9l-62 33zM215 -57l12 106l88 39l68 -20l72 30l92 29l100 16l2 -4l-76 -67l-81 -56l-70 -30l-27 -66l-86 -43l-92 60zM383 -258l6 127l100 -25l84 6l84 19v-4l-67 -53l-58 -60l-92 6l-55 -20z" />
    <glyph glyph-name="backslash" unicode="\" horiz-adv-x="1171" 
d="M1284 -422l-18 107l51 -52l61 -12v-4l-37 -33l-26 -4l-29 -6z" />
    <glyph glyph-name="bracketright" unicode="]" horiz-adv-x="1200" 
d="M535 1618l49 29l30 51l103 4l4 -4l-72 -76l-16 -80l-96 70zM541 1341l16 107l88 29l76 36l67 -14l93 43l100 4l2 -4l-68 -76l-92 -43l-32 -59l-76 -35l-80 -49l-92 57zM547 1063l24 100l62 25l112 10l48 8l73 45l109 15l2 -6l-78 -76l-82 -29l-37 -31l-80 -77l-59 -31
l-92 45zM551 784l10 105l90 26l49 9l95 18l63 6l111 33l2 -4l-97 -66l-45 -43l-75 -61l-37 -33l-78 -51l-86 57zM549 504l14 84l62 37l80 14l88 10l75 47l101 6l2 -6l-68 -73l-84 -29l-65 -59l-64 -52l-67 -24l-72 41zM545 223l12 68l68 67l75 4l64 41l96 5l111 14l2 -4
l-82 -74l-66 -74l-71 -22l-52 -55l-96 -9l-59 33zM539 -57l12 106l88 41l70 -20l71 30l94 29l101 16l2 -4l-78 -67l-82 -56l-69 -32l-29 -66l-86 -43l-94 62v4zM705 -258l8 127l102 -23l84 4l84 19l2 -2l-70 -53l-57 -62l-94 6l-55 -20z" />
    <glyph glyph-name="asciicircum" unicode="^" horiz-adv-x="1638" 
d="M866 1608l-8 100l53 -45l68 -6l2 -6l-39 -54l-39 15l-33 -10z" />
    <glyph glyph-name="underscore" unicode="_" horiz-adv-x="2725" 
d="M133 -500l33 90l51 23l119 -2l84 22l2 -2l-72 -51l-76 -90l-79 35l-62 -29v4zM698 -492v103h82l97 14l90 8v-2l-64 -63l-90 -27l-68 -28l-45 -7zM1268 -477l45 94l96 12l107 6l2 -2l-74 -77l-90 -29l-82 -8zM1815 -479l43 88l61 10l76 19l98 14l2 -6l-76 -64l-61 -47
l-66 -2l-75 -14zM2359 -479l21 96l108 8l101 2l2 -2l-68 -76l-108 -6l-54 -24z" />
    <glyph glyph-name="grave" unicode="`" horiz-adv-x="20" 
d="M-485 1630l45 23l34 26l82 23l2 -4l-61 -66l-53 8l-45 -18zM-43 1565l-4 67l51 -18l45 -8l2 -4l-24 -39l-35 -13l-33 9z" />
    <glyph glyph-name="a" unicode="a" horiz-adv-x="2605" 
d="M229 981l50 29l30 55l107 4l2 -8l-72 -78l-12 -88l-103 80zM612 858l15 92l94 -10l84 6l2 -4l-72 -35l-61 -55h-58zM201 360l47 21l69 53l84 33l66 18l90 39v-2l-61 -98l-64 -27l-76 -47l-69 -53l-84 57zM1303 872l36 117l60 39h71l103 12l57 21l121 22l4 -6l-96 -78
l-53 -30l-76 -70l-43 -55l-70 -21l-112 47zM352 129l6 78l91 37l57 10l67 27l84 12l95 22l2 -6l-76 -61l-64 -55l-63 -35l-45 -37h-109l-43 2zM1303 569l32 84l51 70l58 20h110l68 25l72 35l96 31l45 28l123 12l2 -2l-90 -88l-49 -14l-86 -55l-74 -33l-62 -35l-69 -86
l-53 -31l-88 7l-84 26zM1343 285l19 94l57 51l103 6l59 17l80 63l57 -8l62 53l73 8l119 11l2 -5l-82 -86l-55 -51l-80 -12l-31 -51l-100 -19l-51 -34l-70 -76l-75 -10l-84 45zM1647 123l6 78l106 37l35 30l107 15l92 2l2 -4l-62 -70l-78 -74l-47 -6l-120 -4l-39 -8z" />
    <glyph glyph-name="b" unicode="b" horiz-adv-x="3088" 
d="M592 1407l67 37l46 57l133 21l2 -6l-101 -89l-28 -92l-117 68zM655 1149l21 82l67 53l74 23l37 36l98 7l52 6l61 45l86 8l70 39l75 33l86 8l2 -4l-59 -64l-74 -37l-75 -28l-64 -60l-72 -18l-36 -35l-70 -74l-51 -4l-64 -41l-86 -16l-76 37zM678 870l33 95l43 51l88 24
l82 -2l75 31l66 21l74 18l35 104l102 -26l90 8l4 -6l-65 -66l-45 -96l-103 41l-59 -43l-60 -39l-71 -39l-52 -61l-75 -54h-68l-92 35zM672 580l24 84l47 55l66 39l106 -4l43 24l97 35l53 64l90 -11l31 45l129 -12l2 -2l-74 -109l-55 7l-49 -74l-84 -2l-88 -51l-45 -17
l-68 -84l-70 -26h-75l-78 34zM639 276l23 78l47 68l90 37l82 14l80 21l79 10l86 33l54 8l77 53l101 16l4 -6l-76 -69l-92 -25l-41 -35l-80 -45l-59 -55l-68 -47l-63 -56l-86 -43l-82 7l-74 32zM2003 913l22 123l93 17l45 63l112 -47l66 45l110 8l5 -6l-80 -78l-76 -20
l-37 -117l-78 6l-69 -59l-111 61zM942 131l6 107l92 12l56 31l98 12l61 26l105 7l2 -4l-88 -41l-55 -41l-93 -29l-43 -53l-90 -19l-49 -12zM2028 637l30 84l47 76l62 -4l67 20l95 39l63 22l47 27l88 -4l53 33l76 53l103 -6l2 -4l-62 -82l-90 -25l-59 -18l-53 -70l-52 -20
l-57 -33l-88 -49l-62 -39l-36 -49l-88 14l-84 29zM1987 330l32 94l56 25l69 73l43 23l111 8l47 12l84 19l88 43l53 14l86 25l66 43l80 24l82 17l2 -7l-64 -55l-69 -43l-76 -24l-74 -50l-45 -30l-90 -39l-68 -56l-39 -26l-80 -80l-43 -18l-102 -7l-55 -26l-90 35zM2177 129
l31 76l37 76l125 -29l49 49l80 33l51 26l92 15l53 33l66 49l100 -6l2 -7l-59 -82l-80 -18l-58 -20l-71 -60l-53 -22l-76 -41l-70 -8l-100 -23l-64 -18l-53 -25z" />
    <glyph glyph-name="c" unicode="c" horiz-adv-x="2375" 
d="M242 846l51 45l47 27l76 77l76 35l79 2l33 29l101 33l53 4l104 37v-5l-82 -79l-49 -13l-92 -55l-41 -6l-53 -62l-74 -34l-86 -56l-49 -26l-90 43zM197 549l24 61l55 92l60 21l104 12l52 -4l71 45l99 19l53 22l65 33l41 76l125 -29l2 -4l-59 -113l-84 19l-68 -31l-51 -27
l-78 -63l-80 -25l-30 -41l-76 -73l-55 -33l-107 18l-61 21zM301 319l47 64l72 35l45 65l70 -2l59 45l82 15l86 14l76 49l98 14l2 -6l-72 -67l-86 -27l-67 -55l-64 -55l-71 -17l-46 -53l-77 6l-74 -33l-80 4v4zM1425 844l21 100l90 23l45 18l96 -2l111 31v-4l-92 -66l-62 -74
l-43 -22l-73 -55l-91 47zM582 176l24 123l51 12l93 -14l94 29l100 18l2 -4l-78 -66l-82 -55h-84l-47 -24l-71 -25zM1759 725l19 123l90 -12l84 22l76 16l96 19l2 -4l-76 -62l-61 -47l-86 -18l-72 -29l-68 -12z" />
    <glyph glyph-name="d" unicode="d" horiz-adv-x="3026" 
d="M248 872l51 50l59 8l68 108l92 9l80 10l35 24l110 29l80 31l2 -4l-61 -74l-107 -35l-41 -12l-59 -53l-65 -66l-97 -47l-47 -33l-98 51zM1540 1475l21 20l20 12l45 6l2 -4l-16 -65l-41 29l-31 -3v5zM195 565l26 62l60 102l65 -6l60 39l65 18l66 13l96 18l47 27l92 36
l80 15l37 35l69 34l82 35l86 6l2 -4l-61 -61l-78 -41l-69 -31l-54 -6l-61 -51l-86 -47l-51 -21l-76 -59l-53 -43l-56 -39l-69 -21l-37 -55l-115 21l-65 20zM1688 1260l30 110l56 31l75 29h99l59 61l94 -8l47 18l117 29l2 -6l-76 -117l-65 25l-53 -78l-86 -6l-64 -74l-72 -41
l-59 -23l-102 47zM291 328l28 75l46 58l69 41l82 12l68 18l88 31l71 29l84 8l66 35l80 41l86 10l2 -4l-64 -59l-82 -35l-69 -29l-60 -59l-67 -37l-80 -49l-59 -39l-62 -56l-76 -24h-73l-76 29zM1731 997l34 99l56 49l88 2l45 53l78 12l75 5l60 14l78 41l41 96l131 -49l2 -4
l-47 -133l-99 30l-82 -32l-49 -37l-53 -53l-59 -54h-68l-61 -67l-72 -11l-96 35zM555 168l39 108l47 23l66 29l124 14l43 18l68 70l127 -20l2 -4l-65 -113l-97 -8l-41 -21l-92 -86l-63 -33l-80 48l-76 -29zM1733 717l16 94l74 53l49 -8l72 39l81 18l91 27l75 12l64 49l45 17
l106 14l2 -4l-77 -74l-43 -24l-78 -15l-60 -51l-77 -51l-66 -51l-76 -31l-26 -43l-88 -22l-82 45zM1733 434l34 72l43 86l84 10l68 25l53 8l64 24l92 43l86 3l35 32l114 15l2 -7l-84 -79l-47 -7l-55 -63l-94 -45l-60 -31l-38 -37l-62 -37l-63 -55l-95 21l-77 18v4zM1722 147
l56 64l30 94l93 12l51 29l92 21l67 2l58 73l74 -16l98 43l84 8l2 -8l-60 -57l-96 -50l-35 -65l-94 4l-43 -51l-76 -57l-55 -21l-110 29l-50 -56h-84zM2298 135l4 125l102 -45l103 16l2 -6l-78 -65l-74 -19l-57 -10z" />
    <glyph glyph-name="e" unicode="e" horiz-adv-x="2437" 
d="M238 813l59 31l41 45l78 82l78 35l79 10l37 18l101 45l49 15l96 51l51 16l111 17l2 -4l-84 -72l-45 -31l-100 -41l-46 -29l-98 -49l-39 -14l-57 -55l-78 -39l-88 -58l-59 -8l-88 31v4zM197 510l14 68l74 92l69 -4l49 28l86 21l52 18l71 17l95 18l45 33l92 35l82 14v-4
l-64 -51l-84 -50l-53 -14l-76 -59l-59 -45l-47 -27l-70 -53l-55 -19l-43 -57l-115 4l-61 31zM1489 1114l16 25h39l53 24l2 -4l-30 -69l-8 -70l-70 90zM338 293l20 72l58 69l100 21l49 16l111 16l55 70l88 4l99 4l2 -6l-64 -76l-59 -63l-90 2l-84 -74l-43 -26l-82 -66l-88 2
l-70 31zM1538 852l16 137l68 2l109 6l51 7l67 45l115 2l2 -4l-76 -86l-78 -23l-36 -37l-76 -78l-45 -51l-115 76zM659 158l5 118l96 -2l94 -6l94 25l2 -4l-80 -58l-55 -75l-104 20l-49 -20zM1815 698l8 103l78 22l92 8l73 11l101 18l2 -2l-80 -65l-55 -50l-95 -2l-75 -28
l-47 -19z" />
    <glyph glyph-name="f" unicode="f" horiz-adv-x="2408" 
d="M625 1090l22 102l51 18l99 29l73 37h82l31 27l102 34l41 33l115 8l2 -4l-82 -82l-51 -10l-90 -57l-41 -6l-53 -62l-74 -33l-86 -57l-47 -27l-92 45zM623 809l24 61l66 72l63 12l98 31l52 -4l69 49l99 21l47 39l98 8l2 -6l-70 -70l-59 -12l-80 -62l-82 -22l-28 -41
l-86 -56l-52 -41l-96 -4l-63 21zM1618 1274l41 35l80 20l104 49l2 -4l-82 -94l-61 -61l-82 51zM623 528l14 62l82 47l29 70l81 4l89 -2l77 36l68 23l53 20l76 52l102 2l2 -4l-67 -76l-88 -27l-51 -26l-60 -37l-78 -37l-55 -70l-55 -59l-74 22l-88 -32l-55 28zM1997 1171
l37 103l77 16h144l2 -4l-115 -63l-61 -49l-82 -9zM588 231l22 68l60 63l59 35l94 23l76 18l72 35l80 4l82 37l49 14l106 31l2 -4l-90 -63l-43 -29l-82 -39l-53 -57l-74 -33l-63 -47l-78 -58l-66 -24l-86 -2l-63 22zM981 135l18 133l84 -18l82 18l33 74l123 -49l2 -4
l-41 -125l-78 22l-67 -51l-82 12l-72 -16z" />
    <glyph glyph-name="g" unicode="g" horiz-adv-x="2701" 
d="M268 799l29 104l47 35l117 12l94 6l72 31l84 21l2 -7l-68 -51l-70 -37l-67 -67l-82 -82l-59 -12l-97 45zM453 635l28 86l103 20l123 13l2 -6l-86 -86l-103 -27l-63 -4zM1272 1016l41 84l86 6l88 10l2 -6l-64 -59l-59 -62l-92 23zM242 283l18 36l37 15l61 6l4 -8l-24 -90
l-37 -13l-59 50v4zM1276 766l14 96l90 29l52 6l94 23l63 10l111 33l2 -2l-98 -66l-48 -41l-77 -57l-37 -35l-80 -51l-84 49zM287 51l2 107l76 10l77 18l90 7l105 22l2 -6l-84 -64l-63 -63l-66 -49l-92 26l-47 -12v4zM2122 907l35 78l61 45l45 17l94 -5l101 23l2 -4l-82 -64
l-58 -73l-41 -25l-73 -18l-82 22zM596 -53l20 90l64 39l100 14l62 14l94 37l51 6l76 27l100 35l2 -6l-75 -86l-84 -6l-39 -37l-88 -47l-52 -35l-102 -8l-68 -33l-59 -8zM2228 705l29 98l82 10l57 43l98 4l82 10l4 -6l-61 -59l-65 -72l-70 -16l-90 6l-64 -21zM1090 -76l20 53
l53 97l82 -2l68 20l47 31l82 27l63 40l84 7l88 18l17 61l112 -2l80 19v-2l-65 -49l-70 -88l-59 26l-70 -53l-57 -61l-72 -23l-74 -43l-55 -16l-78 6l-67 -33l-89 -23l-38 -14zM1864 33l34 102l72 -10l123 14l2 -4l-90 -84l-37 -61l-102 39z" />
    <glyph glyph-name="h" unicode="h" horiz-adv-x="3272" 
d="M616 1298l29 95l53 20l99 37l82 23l84 2l30 30l119 23l2 -6l-94 -74l-45 -4l-53 -62l-72 -49l-90 -51l-49 -27l-93 39zM668 1067l24 88l53 29l93 37l80 12l73 24l66 41l78 17l65 28l70 29l88 19l2 -7l-70 -55l-67 -35l-64 -32l-61 -50l-74 -24l-68 -41l-59 -53l-86 -47
l-59 -23l-82 39zM678 817l16 57l82 60l41 47l74 10l78 27l80 18l55 19l82 32l28 66l134 -23l2 -4l-68 -116l-70 18l-77 -41l-50 -29l-63 -51l-72 -43l-55 -49h-64l-98 -27l-53 25zM655 553l33 90l45 14l64 68l69 14h80l84 27l70 78l67 -25l84 45l92 10l3 -4l-66 -65l-90 -35
l-25 -68l-104 -4l-74 -47l-51 -61l-55 -43l-93 -6l-40 -25l-89 31zM575 260l31 41l64 80l59 27l86 26l72 43l74 19l79 18l70 25l74 34l43 25l116 20l3 -4l-91 -75l-49 -17l-71 -35l-64 -36l-65 -52l-64 -41l-78 -28l-76 -49l-57 -29l-102 4h-51zM1962 907l20 92l72 52
l55 -19l89 41l57 8l78 27l92 14l2 -4l-72 -59l-69 -43l-43 -39l-89 -41l-22 -55l-84 -21l-84 43zM850 133l18 123l93 8l40 17l89 22l104 10l70 41l84 13l2 -5l-64 -57l-76 -24l-75 -74l-74 -53l-66 36l-71 -53l-74 -6v2zM1987 664l43 86l28 51l86 16l92 29l78 10l74 33
l49 16l94 41l82 12l2 -8l-61 -53l-92 -47l-43 -25l-72 -37l-59 -53l-82 -51l-68 -57l-55 12l-94 23zM1982 408l43 75l33 66l86 20l68 25l49 43l68 -8l94 41l82 4l37 31l110 18l2 -6l-84 -76l-47 -8l-55 -60l-92 -45l-37 -57l-64 -10l-63 -37l-70 -53l-74 18l-83 17z
M1944 135l57 60l35 90l94 12l49 31l94 22l68 4l59 72l72 -10l100 43l82 10l2 -6l-61 -57l-96 -50l-37 -61h-95l-47 -49l-75 -56l-58 -20l-106 20l-53 -51l-82 -6zM2484 135l10 117l101 -39l102 23l4 -9l-84 -63l-71 -21l-60 -12z" />
    <glyph glyph-name="i" unicode="i" horiz-adv-x="1904" 
d="M563 1581l29 105l55 22l105 35l88 24h88l33 35l126 21l3 -6l-99 -82l-47 -2l-57 -66l-74 -53l-94 -58l-53 -28l-101 47zM559 985l31 94l67 29l123 8l103 19v-5l-80 -65l-84 -88l-66 -35l-92 39zM614 715l17 82l69 80l68 -9l66 29l57 39l72 2l96 16l51 19l88 47l86 6l2 -4
l-59 -61l-94 -37l-48 -27l-75 -63l-47 -54l-64 -20l-65 -31l-37 -57l-107 -2l-74 39zM598 410l14 63l82 49l29 74l84 2l92 -2l80 37l68 22l55 21l78 53l104 2l2 -4l-67 -80l-93 -26l-49 -27l-61 -39l-80 -37l-57 -72l-58 -63l-73 27l-91 -33l-57 29zM639 133l35 82l33 82
l102 10l88 19l74 30l88 2l55 29l60 35l114 16l2 -6l-86 -78l-63 -22l-58 -25l-57 -65l-72 -39l-69 -56l-113 9h-72l-59 -25zM1274 135l-4 74l45 -14l49 -17l2 -8l-33 -18l-20 -39l-37 18z" />
    <glyph glyph-name="j" unicode="j" horiz-adv-x="2125" 
d="M1022 1628l27 92l49 19l92 33l78 20l78 4l28 29l113 20l2 -6l-88 -70l-41 -4l-51 -57l-68 -47l-86 -49l-45 -27l-86 39zM1270 1499l26 86l52 41l110 -2l70 33l76 26l90 11l2 -4l-66 -62l-69 -41l-70 -33l-105 -10l-49 -49l-63 -2zM1112 928l10 69l78 62l66 -10l88 41
l84 8l37 37l106 10l2 -2l-76 -74l-53 -6l-59 -57l-90 -43l-33 -56l-96 -20l-62 37zM1159 702l45 64l74 29l45 65l57 23l78 2l70 39l82 20l84 29l65 33l94 22l5 -6l-78 -61l-68 -29l-76 -45l-69 -49l-74 -29l-51 -57l-56 -31l-75 8l-72 -37l-78 6zM156 -12l57 49l63 65l84 4
l107 25l2 -4l-86 -66l-57 -61l-68 -61l-100 43zM1167 457l23 69l47 62l86 35l76 14l76 22l75 11l84 30l49 11l76 51l94 18l2 -6l-73 -63l-86 -25l-41 -31l-76 -45l-57 -51l-66 -43l-61 -49l-82 -43l-76 2l-68 29zM285 -201l37 88l79 33l58 31l78 20l77 13l56 24l118 27l3 -8
l-97 -72l-55 -25l-57 -51l-86 -4l-62 -22l-78 -39l-69 -17zM1167 209l39 86l41 29l80 59l84 -8l76 39l43 30l108 9l27 57l76 -2l112 24l5 -6l-93 -73l-45 -58l-63 17l-74 -78l-53 -15l-78 -32l-47 -70l-98 -24l-47 -13l-91 25zM1167 -37l29 82l82 37l37 29l76 32l102 9
l63 41l78 18l49 14l89 51l81 9l5 -6l-58 -62l-98 -33l-41 -28l-66 -50l-71 -22l-72 -72l-74 -37l-47 -8l-80 -39l-82 31zM1303 -219l20 117l84 24h86l53 17l76 10l117 35l2 -4l-103 -68l-73 -14l-49 -25l-68 -35l-80 -35l-63 -28z" />
    <glyph glyph-name="k" unicode="k" horiz-adv-x="3446" 
d="M555 1479l20 14l17 18l45 7l2 -7l-25 -49l9 -69l-66 82zM641 1251l25 78l67 55l66 37l65 -18l84 37l45 22l78 8l70 48l102 14l2 -6l-78 -68l-80 -24l-57 -54l-45 -18l-84 -41l-27 -64l-71 -26l-84 -17l-76 33zM676 999l31 66l49 55l53 43l98 21l58 6l98 31l76 22l49 14
l69 41l99 19l2 -4l-78 -64l-74 -28l-45 -27l-65 -45l-86 -55l-43 -41l-78 -62l-68 -12l-73 -2l-70 16zM674 731l24 117l45 22l93 4l65 25l53 23l86 28l64 19l74 18l79 49l89 8l2 -4l-62 -63l-90 -31l-59 -43l-56 -37l-80 -49l-49 -24l-61 -35l-64 -68l-47 -20l-104 57z
M639 446l35 101l59 59l88 -2l56 25l67 14l72 33l67 45h78l84 43l101 14l2 -6l-74 -70l-86 -36l-51 -60l-78 -22l-72 -35l-53 -43l-55 -25l-56 -69l-82 -6l-98 34zM545 133l22 68l60 45l51 63l94 -22l62 63l71 8l84 27l45 18l56 95l96 -31l63 29l97 14l2 -6l-72 -68l-64 -28
l-36 -93l-109 17l-43 -21l-74 -49l-51 -49l-90 -6l-86 4l-61 -41l-70 -20l-47 -19v2zM1800 721l64 29l67 49l45 8l64 45l110 33l4 -6l-98 -64l-51 -70l-35 -26l-67 -55l-99 51zM1118 133l27 78l100 18l123 21l2 -4l-96 -80l-92 -35h-62zM1845 473l41 82l33 35l63 55l101 2
l65 33l74 20l53 -2l88 47l50 25l96 12l2 -4l-72 -65l-49 -23l-92 -37l-35 -41l-63 -45l-68 -28l-66 -76l-81 -12l-48 -2l-90 20zM1966 262l37 90l49 66l51 12l68 16l104 23l82 8l43 21l62 80l53 34l133 -30l4 -7l-63 -122l-60 -19l-100 4l-43 -20l-59 -58l-84 -65l-58 -39
l-43 -33l-82 4l-92 31zM2267 135l25 62l69 61l95 23l55 28l78 35l67 -2l109 27l4 -9l-90 -65l-41 -53l-78 -37l-57 -25l-99 -14l-88 -23l-47 -12z" />
    <glyph glyph-name="l" unicode="l" horiz-adv-x="1966" 
d="M641 1268l18 112l56 15l96 41l92 6l78 10l37 21l106 26l80 31l2 -2l-59 -78l-107 -29l-39 -14l-57 -53l-63 -66l-93 -49l-47 -33l-100 58v4zM680 981l27 92l51 33l55 33l109 16l69 29l68 18l74 21l51 14l92 55l80 6l2 -6l-53 -59l-103 -35l-45 -31l-61 -43l-58 -41
l-67 -32l-82 -72l-62 -23l-57 -18l-90 39v4zM676 674l14 80l49 67l72 41l90 -4l53 23l86 26l35 56l82 20l80 31l113 -27l2 -4l-52 -102l-75 -43l-68 -50l-65 11l-76 -49l-51 -27l-56 -72l-78 -28l-81 6l-72 41zM621 342l45 25l22 90l72 45l94 20l39 33l94 20l70 11l78 18
l57 31l61 35l101 14l2 -4l-74 -70l-68 -22l-61 -25l-63 -49l-54 -47l-75 -57l-50 -11l-75 -57l-82 -27l-54 -22l-79 45v4zM829 135l29 90l55 76l84 -8l82 18l43 29l117 16l39 27l117 16l2 -8l-86 -78l-45 -12l-88 -80l-50 -14l-65 -51l-96 30l-74 -34l-62 -21z" />
    <glyph glyph-name="m" unicode="m" horiz-adv-x="4128" 
d="M549 1028l59 35l41 55l125 15l2 -7l-92 -84l-27 -84l-108 66v4zM614 782l23 88l76 54l73 37l68 -15l96 31l49 20l70 43l123 13l2 -4l-88 -86l-78 -25l-47 -25l-86 -55l-31 -61l-76 -33l-90 -23l-82 39zM618 510l37 106l64 27l49 35l106 -6l50 28l75 21l93 43l96 14l2 -6
l-70 -67l-92 -43l-65 -44l-56 -20l-61 -84l-60 -16l-61 -31l-104 39zM1724 1026l25 94l59 15l103 -2l96 24l2 -6l-80 -55l-65 -80l-49 -37l-89 43zM549 203l35 76l49 67l59 19l105 2l65 24l68 37l96 31l43 26l119 15l2 -2l-88 -84l-49 -15l-84 -53l-72 -29l-61 -34l-70 -78
l-51 -33l-84 4l-78 21zM1780 776l14 98l59 39l97 9l59 12l90 35h49l54 65l112 -6l4 -8l-67 -90l-84 2l-33 -39l-84 -45l-47 -37l-70 -70l-67 -20l-84 51zM991 135l21 121l102 -29l92 6l2 -4l-65 -65l-86 -6l-64 -27zM1786 504l10 90l84 20l80 35l65 27l97 16l45 23l57 102
l127 -47l2 -6l-43 -129l-117 22l-45 -20l-75 -62l-62 -34l-80 -39l-67 -49l-76 47zM2890 1020l18 115l74 -5l100 15l96 8l3 -2l-68 -70l-78 -67l-43 -58l-100 60zM1763 219l17 62l90 92l55 -13l82 37l107 17l77 24l31 68l127 -14l2 -5l-72 -104l-69 18l-70 -43l-80 -71
l-82 -39l-26 -49l-127 -11l-58 25zM2943 768l18 86l99 39l61 27l80 20l68 12l90 39l92 17l2 -9l-70 -59l-88 -43l-53 -45l-66 -47l-61 -31l-94 -49l-76 41zM2171 133l8 100l107 -2l88 -4v-4l-54 -67l-92 -27l-55 2zM2949 498l8 73l88 64l76 31l57 -11l80 45l52 41l108 17
l94 4l2 -6l-61 -72l-82 -72l-66 -12l-86 -33l-28 -51l-72 -37l-106 -26l-62 39zM2927 211l39 80l81 45l52 31l94 30l67 11l70 53l66 8l116 18l4 -6l-90 -80l-47 -45l-86 -20l-51 -45l-84 -51l-57 -21l-86 -33l-86 19zM3351 135l24 103l66 24l116 -31l2 -4l-84 -41l-51 -57
l-71 2z" />
    <glyph glyph-name="n" unicode="n" horiz-adv-x="3170" 
d="M537 1047l36 24l31 23l74 18l2 -6l-51 -66l-2 -82l-88 84zM621 791l24 83l72 60l71 41l70 -21l90 39l47 23l84 10l74 51l111 15l4 -7l-82 -75l-86 -25l-62 -57l-49 -21l-88 -45l-29 -65l-77 -29l-90 -18l-82 36zM625 496l20 92l60 41l69 14l94 37l60 8l98 39l82 21l39 38
l115 9l2 -7l-78 -83l-56 -5l-69 -51l-92 -47l-45 -41l-88 -49l-58 -43l-67 -20l-86 43v4zM1837 1061l45 55l68 8l104 37l2 -4l-78 -96l-39 -72l-100 68zM524 154l47 28l64 23l22 123l95 22l53 -4l92 37l49 68l96 -31l29 49l82 23l109 8l2 -6l-74 -80l-70 -49l-55 10l-41 -92
l-82 4l-88 -45l-33 -45l-76 -58l-110 62l-55 -33l-54 -18zM1917 803l25 96l63 55l90 7l74 22l96 18l51 17l113 24l2 -4l-92 -71l-45 -29l-74 -61l-66 -43l-61 -64l-84 -14l-90 43zM1116 133l-10 109l59 30l121 -59l2 -4l-63 -66l-66 -12h-41zM1925 510l10 76l68 78l70 18
l61 4l82 31l65 41h91l75 43l88 -4l2 -4l-53 -70l-82 -33l-57 -69l-74 -23l-76 -45l-43 -43l-59 -41l-102 -2l-64 41zM1898 203l27 123l45 12l66 37h129l41 18l73 49l105 13l63 49l93 -2l2 -4l-58 -72l-80 -16l-75 -74l-86 -25l-39 -18l-82 -98l-72 -27l-37 -27l-112 58z
M2384 135l12 94l109 2h88v-4l-56 -69l-90 -39l-61 12z" />
    <glyph glyph-name="o" unicode="o" horiz-adv-x="2523" 
d="M207 750l59 28l15 101l102 30l78 35l80 8l37 19l100 45l51 12l94 53l54 15l108 18l2 -4l-84 -74l-43 -32l-102 -37l-43 -33l-99 -45l-38 -19l-58 -55l-76 -37l-88 -59l-59 -8l-90 34v5zM221 463l15 74l90 73l57 35l63 8l99 4l47 37l80 11l88 49l55 18l113 23l2 -7
l-88 -75l-49 -29l-95 -35l-59 -55l-57 -14l-68 -72l-47 -45l-64 -21l-112 -20l-68 37zM1552 1083l17 64l55 -23l51 17l2 -6l-32 -56l-31 -28l-60 28zM410 256l16 63l72 84l75 11l89 4l102 24l41 39l123 19l2 -6l-92 -84l-56 -7l-84 -63l-61 -64l-55 -51l-125 29l-45 -2z
M1597 809l27 94l47 60l90 -5l66 17l71 14l82 39l88 2l3 -4l-58 -68l-84 -36l-55 -48l-55 -38l-56 -72l-75 2l-89 41zM793 139v82l92 23l80 -21l2 -6l-35 -78l-98 -2h-39zM1599 516l17 62l70 110l51 -8l102 20l53 11l56 71l88 -6l86 19l61 30l103 11l2 -2l-74 -72l-64 -27
l-69 -55l-51 -72l-93 2l-41 -32l-81 -64l-27 -45l-129 16l-57 29zM1559 203l38 96l54 45l67 53l66 -22l92 37l66 37l90 12l24 76l117 -9l20 80l138 -45l2 -4l-56 -133l-71 35l-70 -94l-74 30l-67 -61l-70 -27l-88 -47l-25 -65l-86 -17l-67 -12l-98 31z" />
    <glyph glyph-name="p" unicode="p" horiz-adv-x="3088" 
d="M625 879l20 108l53 14l93 41l88 5l75 8l35 22l103 27l77 29l2 -5l-57 -73l-102 -29l-37 -12l-57 -53l-60 -64l-90 -45l-45 -31l-96 53zM666 610l30 86l52 35l55 31l106 20l70 31l70 18l71 21l51 16l95 54l80 6l2 -4l-56 -58l-102 -39l-45 -28l-62 -41l-59 -41l-68 -35
l-84 -68l-59 -24l-59 -17l-86 33zM672 324l16 77l49 66l72 41l90 -2l53 22l86 27l35 55l82 19l80 35l111 -25l2 -4l-54 -100l-77 -39l-66 -52l-66 9l-75 -47l-52 -27l-55 -72l-78 -26l-82 2l-69 39zM1997 942l18 84l53 27l76 34l84 41l66 -22l104 22l2 -4l-86 -63l-24 -64
l-84 -39l-76 -34l-55 -25l-76 39zM653 27l17 108l61 45l72 29l92 -14l66 34l83 31l58 -4l74 55l59 27l111 12l2 -4l-82 -76l-58 -28l-90 -21l-33 -47l-77 -45l-68 -27l-51 -79l-68 -37l-73 -17l-95 56v2zM2032 670l36 100l46 53l73 27l76 10l57 19l93 14l47 90l102 -25
l88 29l84 10l2 -4l-63 -55l-78 -49l-47 -96l-99 22l-71 -59l-51 -33l-56 -51l-67 -41l-70 2l-100 35zM633 -268l24 106l72 35l33 29l80 22h104l64 39l41 37l104 2l59 31l27 69l127 -28l2 -4l-59 -113l-70 23l-63 -27l-72 -76l-53 -8l-70 -23l-65 -82l-111 41l-39 -14
l-72 -39l-61 -22zM2007 371l29 84l43 30l65 74l84 21l64 2l84 39l47 8l98 30l49 5l74 34l80 56l57 2l98 22v-4l-77 -61l-39 -41l-94 -29l-74 -31l-35 -37l-88 -55l-35 -31l-84 -38l-43 -50l-69 -49l-99 -4l-51 -12l-82 29zM1249 -266l29 61l84 33l106 6l5 -6l-76 -74
l-90 -20l-54 -4zM2114 133l24 86l64 51l69 25l66 35l71 12l72 27l111 16l28 80l93 -25l55 29l117 25l2 -7l-93 -73l-57 -25l-41 -86l-80 29l-84 -74l-65 -39l-58 -45l-67 -29l-88 17l-76 -27l-63 -6v4z" />
    <glyph glyph-name="q" unicode="q" horiz-adv-x="3026" 
d="M256 872l51 50l58 8l67 108l90 9l80 10l37 22l109 29l79 31l2 -4l-61 -74l-106 -33l-39 -12l-60 -55l-65 -64l-97 -47l-47 -33l-98 51v4zM197 561l36 70l31 69l51 37l105 21l67 26l70 15l80 -4l37 47l104 22l56 29l53 16l71 54l52 16l108 16l2 -6l-80 -76l-47 -28
l-86 -21l-47 -30l-57 -25l-84 -64l-60 3l-49 -64l-55 -45l-63 -35l-82 -67l-62 -15l-74 21l-77 16v2zM295 326l8 127l57 16l93 2l79 37l68 27l55 18l88 33l74 6l64 41l88 43l90 8l2 -6l-64 -66l-88 -39l-73 -22l-52 -51l-82 -47l-51 -31l-63 -35l-80 -39l-59 -67l-50 -35
l-102 76zM1823 1038l45 31l43 12l65 29l4 -6l-51 -64l-26 -47l-76 39zM559 166l27 92l65 55l80 13l98 14l56 4l86 43l100 19l2 -5l-78 -65l-90 -37l-39 -41l-71 -65l-62 -54l-108 37l-64 -12zM1722 709l4 106l78 19l68 59l84 -19l76 52l53 4l67 74l91 -15l61 35l104 4v-2
l-69 -76l-66 -24l-47 -80l-100 -4l-37 -39l-88 -25l-41 -78l-88 -12l-64 -47l-84 66zM1722 428l33 76l64 67l45 25l108 6l29 55l78 -10l108 31l41 12l51 92l127 -37l2 -4l-55 -118l-102 18l-35 -23l-94 -63l-41 -68l-62 15l-73 -80l-50 -19l-92 -4l-80 23zM1702 135l27 74
l65 84h86l72 39l49 14l106 21l54 22l63 25l80 43l102 8l2 -4l-71 -74l-84 -35l-60 -33l-51 -26l-84 -68l-43 -30l-76 -29l-55 -66l-108 4l-72 25zM1595 -195l39 25l33 92l100 29l64 49l41 23l76 45l61 18l117 -8l57 28l72 39l55 21l105 20l2 -4l-82 -67l-51 -31l-76 -29
l-60 -26l-69 -92l-54 -35l-83 -29l-44 -16l-79 -17l-86 -59l-70 -12l-64 30zM2046 -268l20 90l56 51l69 -2l76 53l88 25l103 -21l4 -6l-49 -96l-76 -51l-90 -23l-70 6l-78 -4l-53 -24v2z" />
    <glyph glyph-name="r" unicode="r" horiz-adv-x="2437" 
d="M522 1065l27 20l22 19l56 10l2 -6l-35 -55l4 -76l-74 84zM602 819l21 82l67 53l64 39l65 -20l84 37l45 20l78 6l68 47l102 15l2 -6l-76 -70l-80 -23l-55 -55l-43 -20l-84 -41l-24 -64l-72 -24l-84 -17l-76 37zM612 541l19 100l76 6l55 47l96 33l64 2l100 31l72 43l88 2
l2 -4l-58 -66l-79 -26l-89 -58l-43 -47l-86 -53l-73 -12l-51 -54l-91 52zM541 221l24 41l64 76l82 41l53 27l84 10l82 30l86 29l67 33l103 14l2 -4l-78 -67l-68 -31l-77 -47l-76 -43l-62 -58l-55 -24l-84 -37l-67 -64l-78 72zM1718 770l21 121l35 35l94 -11l96 19l59 37
l86 10l54 43l106 4l2 -6l-71 -76l-68 -14l-64 -60l-65 -20l-76 -64l-53 -77l-86 73l-68 -16zM961 135l22 64l78 49l72 6l114 12l2 -2l-84 -80l-49 -51l-106 8l-47 -10z" />
    <glyph glyph-name="s" unicode="s" horiz-adv-x="2367" 
d="M227 829l52 45l24 74l96 31l74 35h80l31 28l100 33l43 31l113 10l2 -4l-82 -80l-49 -12l-90 -55l-41 -7l-52 -61l-75 -35l-84 -55l-47 -27l-93 45zM285 582l26 57l66 74l49 43l104 16l56 -12l67 47l99 20l57 21l59 45l101 8l2 -4l-70 -72l-74 -18l-51 -31l-80 -61
l-80 -23l-26 -51l-80 -68l-66 -10l-96 -2l-61 17zM545 426l37 94l47 27l69 53l52 29l84 20l94 13l53 20l78 20l78 29l84 31l59 47l55 20l117 21l4 -6l-92 -74l-51 -31l-74 -14l-78 -45l-74 -41l-63 -47l-51 -27l-70 -65l-72 -49l-53 -21l-86 -20l-76 34l-69 -22zM1038 381
l25 65l67 74l48 33l100 12l39 29l69 24l64 25l92 12l74 19l70 31l61 34l74 47h86l4 -6l-58 -65l-81 -27l-68 -24l-68 -33l-61 -45l-70 -62l-59 -32l-64 -39l-47 -11l-71 -69l-90 55l-87 -33l-47 -18zM1466 303l19 84l39 55l88 29l71 10l54 19l88 14l43 86l96 -25l84 25
l78 14l4 -8l-62 -51l-71 -47l-45 -90l-92 22l-68 -59l-47 -29l-55 -47l-78 -49l-68 4l-78 39v4zM1626 104l33 97l76 43l55 -15l70 58l106 8l88 8l2 -4l-76 -35l-90 -43l-73 -51l-41 -14l-70 -56h-76z" />
    <glyph glyph-name="t" unicode="t" horiz-adv-x="1730" 
d="M272 1100l43 24l33 29l82 21l4 -5l-61 -67l-11 -78l-88 72zM795 1343l24 37l66 6l51 27l2 -6l-41 -51l-35 -64l-63 47zM260 825l27 60l57 69l72 41l71 -2l80 19l70 30l72 23l67 31l68 30l82 13l2 -6l-62 -56l-65 -33l-68 -32l-63 -41l-68 -33l-65 -49l-45 -58l-78 -28
h-90l-62 20zM260 557l12 61l74 54l51 26l88 47l64 -2l65 29l84 12l68 43l51 25l109 16l2 -4l-82 -71l-51 -25l-76 -25l-66 -57l-63 -33l-39 -49l-92 -37l-53 -22l-89 -23l-57 31v4zM336 324l41 79l63 60l80 20l45 29l99 6l71 25l53 65l140 -8l2 -4l-82 -113h-86l-64 -39
l-69 -69l-49 -17l-68 -49l-86 -10l-88 20zM573 168l15 82l74 29l100 10l78 22l98 25l2 -4l-80 -60l-67 -47l-76 -69l-96 26l-43 -20z" />
    <glyph glyph-name="u" unicode="u" horiz-adv-x="3149" 
d="M524 1057l31 22l27 21l63 14l4 -4l-43 -63l2 -78l-84 86v2zM610 805l27 67l51 86l72 27l49 8l104 -4l37 35l78 4l70 45l76 27l94 12l2 -4l-70 -66l-70 -41l-77 -24l-56 -57l-51 -7l-61 -79l-39 -35l-66 -37l-98 14l-70 23zM625 518l16 66l68 96l67 -6l103 28l77 29l58 8
l82 19l82 49l90 12l2 -6l-68 -61l-90 -31l-65 -53l-43 -37l-72 -43l-88 -60l-39 -55l-117 10l-61 31zM1804 1067l2 41l45 -8l54 14l2 -6l-33 -55l-10 -68l-60 78v4zM698 258l17 84l80 64l43 24l118 -2l58 64l92 -13l22 68l140 -21l2 -6l-72 -121l-65 25l-52 -78l-86 -4
l-73 -90l-48 -21l-100 -18l-74 41zM1898 817l27 72l39 69l74 19l69 29l70 8l84 30l76 13l65 39l68 22l96 10v-4l-67 -65l-62 -37l-72 -25l-59 -51l-76 -45l-51 -47l-68 -37l-61 -45l-78 16l-71 27zM1016 113l-6 133l106 -19l98 6l99 21l4 -8l-78 -64l-70 -71l-98 4l-53 -6z
M1909 528l18 84l58 72l92 4l86 37l37 29l120 -4l52 30l75 47l107 4l2 -6l-70 -80l-86 -28l-55 -19l-76 -96l-45 -10l-84 -41l-63 -68l-90 2l-78 39v4zM1905 233l30 84l43 48l105 47l82 10l59 10l100 33l66 33l35 63l133 -24l2 -2l-68 -119l-71 14l-68 -29l-90 -55l-43 -39
l-63 -55l-103 -51l-63 -2l-84 30zM2310 131l29 111l74 41l98 -35l102 24l4 -8l-86 -61l-71 -23l-68 -53l-80 -2z" />
    <glyph glyph-name="v" unicode="v" horiz-adv-x="2625" 
d="M524 1026l49 29l29 45l98 8l2 -4l-69 -68l-19 -73l-88 61zM633 834l24 73l68 49l66 39l61 -16l84 37l43 22l78 11l67 45l101 14l4 -4l-78 -66l-80 -24l-57 -51l-45 -19l-82 -41l-27 -57l-69 -27l-84 -20l-72 30zM733 635l25 78l55 37l66 14l88 37l55 10l90 39l78 18
l39 37l104 13l2 -7l-75 -73l-52 -7l-63 -49l-90 -43l-43 -37l-84 -43l-54 -41l-63 -20l-76 33zM831 436l25 90l55 23l66 29l76 20l84 16l82 25l61 41l98 10l2 -4l-71 -70l-70 -18l-74 -47l-65 -53l-64 -47l-63 -31l-55 -27l-84 39zM2111 1032l-6 72h54l71 -14l2 -5l-51 -28
l-37 -37l-30 8zM930 238l28 108l72 27l82 4l57 14l64 19l74 20l57 62l111 2l4 -9l-74 -84l-82 -4l-66 -43l-53 -37l-47 -36l-57 -60l-66 -37l-102 49zM1235 133l29 94l77 13l58 41l96 4l80 10l4 -8l-61 -56l-64 -69l-68 -19l-86 7l-63 -19z" />
    <glyph glyph-name="w" unicode="w" horiz-adv-x="3866" 
d="M627 881l26 96l54 20l96 35l82 23l82 2l30 30l117 21l4 -4l-94 -76l-43 -2l-53 -61l-70 -50l-90 -51l-49 -28l-90 41zM705 659l22 89l51 30l86 33l78 10l70 23l65 39l72 16l63 27l68 26l84 17l2 -4l-66 -56l-63 -35l-61 -30l-60 -47l-72 -23l-63 -39l-55 -53l-82 -45
l-58 -21l-79 41zM780 438l17 54l71 81h64l65 37l82 19l78 26l60 9l73 55l99 4l4 -6l-68 -72l-90 -22l-43 -41l-70 -41l-67 -52l-70 -26l-41 -49h-110l-52 20zM1913 967l33 88l102 22l55 2l117 29l2 -2l-98 -72l-37 -41l-82 -63l-90 33zM854 215l18 51l48 90l96 19l71 10
l76 31l68 10l72 16l81 45l82 15l4 -6l-65 -54l-86 -34l-59 -46l-52 -45l-73 -36l-54 -48l-75 -63l-99 23l-51 18zM1987 741l32 70l54 84l77 6l82 19l66 32l80 21l51 10l98 51l43 15l115 20l2 -4l-88 -76l-39 -22l-104 -43l-41 -33l-66 -49l-68 -29l-65 -49l-55 -57l-99 12
l-73 20zM1233 135l27 103l102 -19l78 39l104 23l4 -7l-86 -65l-78 -35l-79 -35l-70 -8zM2058 518l27 78l69 68l70 26l74 -12l53 31l107 22l26 57l76 -4l113 21l2 -4l-90 -72l-45 -59l-60 14l-86 -68l-59 -20l-37 -66l-66 -34l-96 -11l-76 31zM2132 295l33 76l37 49l96 41
l45 8l84 12l78 31l92 23l61 45l88 4l2 -9l-57 -63l-74 -18l-77 -56l-74 -39l-64 -57l-35 -29l-92 -49l-63 4l-78 23zM2337 135l26 72l68 47l68 27l102 12l61 14l80 41l88 17l2 -5l-67 -57l-84 -37l-49 -37l-78 -71l-88 24l-78 -30l-47 -21z" />
    <glyph glyph-name="x" unicode="x" horiz-adv-x="2885" 
d="M735 942l33 88l47 31l107 24l96 -2l74 25l2 -2l-58 -66l-69 -51l-88 -65l-54 -17l-90 31v4zM911 756l17 71l59 54l68 43l96 2l76 47l92 14l61 31l88 20l72 37l90 19l2 -7l-69 -59l-76 -31l-72 -53l-63 -29l-70 -61l-84 -29l-63 -71l-78 -25l-78 -10l-66 33zM1090 569
l32 103l66 43l88 12l82 -2l67 37l50 82l104 -17l92 17l4 -8l-73 -62l-52 -90l-96 14l-72 -26l-51 -64l-65 -61l-76 -23l-98 41zM2150 1065l15 35l37 2l45 6l2 -2l-25 -53l-35 -4l-37 12zM1262 381l38 80l64 57l78 23l45 26l96 6l70 25l55 66l137 -11v-4l-80 -112l-84 2
l-63 -39l-68 -70l-49 -16l-67 -47l-84 -11l-86 21zM1311 135l22 60l47 77l86 37l80 15l80 20l78 12l86 29l49 12l78 52l98 16l4 -6l-75 -66l-91 -26l-41 -31l-77 -47l-60 -51l-65 -48l-64 -51l-112 21l-76 -17l-45 -12zM1886 135l23 127l106 -12l51 49l121 -25l4 -6
l-61 -106l-70 -8l-98 -4l-74 -19z" />
    <glyph glyph-name="y" unicode="y" horiz-adv-x="2625" 
d="M528 991l72 37l47 53l135 27l4 -4l-108 -84l-37 -84l-111 51zM649 801l29 61l57 78l72 25l49 12l98 4l39 31l76 10l72 43l76 29l92 14l2 -2l-72 -62l-72 -38l-77 -27l-56 -53l-49 -8l-67 -74l-41 -31l-66 -37l-94 4l-66 19zM748 602l20 55l76 78l55 19l105 24l81 19l56 8
l69 47l105 14l2 -4l-80 -69l-80 -23l-41 -37l-67 -51l-86 -66l-50 -28l-108 -8l-55 20zM82 47l22 41l89 23l81 26l5 -6l-56 -84l-67 -70l-72 66zM846 403l28 68l50 53l80 6l90 31l47 14l94 35l51 66l103 -17l2 -6l-52 -92l-84 4l-88 -49l-39 -29l-81 -49l-58 -55l-71 -4
l-70 20zM272 -106l25 83l90 46l72 2l94 51l96 -8l2 -7l-55 -75l-100 -39l-47 -53l-121 16l-54 -21zM942 203l29 45l51 100l74 -6l88 16l78 29l71 16l64 56l92 2l4 -6l-61 -70l-82 -14l-62 -43l-69 -43l-70 -58l-43 -57l-111 23l-51 6zM1317 135l-19 96l48 -38l63 -17v-4
l-41 -27l-20 -16l-29 2z" />
    <glyph glyph-name="z" unicode="z" horiz-adv-x="2484" 
d="M909 784l52 47l49 29l77 78l76 39l84 -2l33 31l104 32l43 35l117 8l2 -2l-84 -86l-51 -10l-94 -59l-43 -4l-53 -66l-78 -35l-88 -57l-49 -29l-95 47zM483 297l39 25l80 30l29 82l84 53l51 -8l45 92l98 11l49 30l76 4l47 54l72 -2l84 43l47 26l96 23l68 39l47 14l76 18
l80 31l18 70l96 2l52 27l90 32l53 23l63 26l103 21l2 -4l-82 -64l-64 -32l-49 -25l-84 -49l-53 -23l-63 -71l-64 30l-76 -43l-63 -47l-41 -24l-72 -29l-82 -57l-49 -19l-88 -37l-43 -55l-72 -2l-53 -57l-53 -19l-72 -67l-100 24l-27 -43l-92 -31l-55 -26l-92 -8l-54 8z
M758 137l20 60l51 71l74 23l49 57h99l75 14l72 29l68 27l75 41l56 -2l76 43l49 43l88 16l92 16l2 -2l-72 -61l-69 -55l-64 -13l-84 -28l-33 -43l-82 -33l-61 -35l-70 -35l-59 -51l-63 -76h-74l-94 21l-74 -25l-45 -6z" />
    <glyph glyph-name="braceleft" unicode="{" horiz-adv-x="1634" 
d="M532 1536l58 27l45 30l88 47l82 23l2 -6l-70 -45l-69 -90l-47 -25l-86 33zM449 1243l18 74l65 49l103 16l55 11l74 32l82 39l112 17l3 -4l-87 -76l-79 -39l-74 -35l-43 -35l-80 -67l-80 -21l-67 33zM432 981l19 92l88 62l69 -2l78 22l68 31l73 10l119 27l2 -6l-94 -76
l-57 -49l-66 -33l-67 -45l-43 -53l-105 -29l-82 43zM338 682l39 74l41 65l84 15l55 16l92 16l31 72l86 14l121 -14l2 -4l-94 -45l-72 -47l-41 -45l-94 -11l-27 -81l-65 -56l-76 11l-80 18zM428 471l35 98l90 13l41 41l143 -9l2 -2l-88 -116l-57 -4l-66 -60l-100 35v4z
M446 225l19 123l78 -2l106 16l84 37l80 31l92 10l2 -6l-67 -63l-74 -41l-82 -41l-82 -70l-47 -61l-106 63zM479 -12l39 78l47 10l70 55h70l83 25l70 37l88 12l2 -4l-65 -60l-74 -30l-74 -48l-43 -53l-86 -16l-39 -31l-88 21v4zM651 -184l35 86l78 18l104 14l90 27l3 -6
l-76 -53l-80 -72l-62 -47l-90 29z" />
    <glyph glyph-name="bar" unicode="|" horiz-adv-x="1079" 
d="M274 1192l27 98l51 17l94 39l86 10l76 12l35 21l88 57l92 2l2 -4l-59 -68l-102 -33l-39 -12l-58 -49l-63 -59l-90 -47l-45 -31l-93 43zM283 944l20 105l62 10l59 20l104 21l72 24l64 25l65 35l88 10l2 -4l-65 -62l-68 -26l-61 -35l-64 -37l-82 -69l-55 -31l-47 -41
l-92 51zM289 696l47 64l53 69l82 17l92 12l62 19l67 45l117 16l2 -4l-88 -80l-78 -23l-53 -32l-68 -64l-65 -53l-90 4l-78 6zM287 442l20 105l101 22l63 6l68 29l77 25l93 45l94 12l2 -6l-70 -66l-92 -41l-70 -45l-63 -32l-47 -45l-82 -64l-92 53zM281 188l20 74l86 60
l78 10l90 20l66 31l71 31l113 18l2 -4l-86 -74l-70 -35l-67 -30l-74 -53l-57 -56l-103 -26l-65 28zM272 -66l27 52l35 86l123 -4l53 18l78 27l69 18l62 55h92l4 -6l-59 -71l-82 -11l-60 -45l-69 -41l-49 -26l-76 -97l-90 29l-56 12zM391 -262l27 80l49 45l108 2l66 33l61 14
l117 29l2 -7l-96 -71l-49 -39l-68 -29l-100 -24l-57 -25l-58 -10z" />
    <glyph glyph-name="braceright" unicode="}" horiz-adv-x="1634" 
d="M662 1450l40 92l60 27l131 4l94 29l2 -7l-82 -53l-88 -96l-57 -29l-98 29zM674 1200l14 74l62 45l96 14l51 10l70 29l73 37l107 12l2 -4l-78 -71l-76 -37l-67 -33l-41 -33l-72 -65l-74 -17l-67 35v4zM717 967l24 82l93 59l67 8l86 12l55 60l129 -8l3 -4l-76 -107l-82 -4
l-64 -57l-49 -47l-106 -31l-80 33v4zM895 797l-2 104l125 -8l59 22l113 21l4 -6l-88 -76l-55 -31l-111 -20l-43 -10zM729 465l47 43l53 29l68 22l53 70l86 14l84 29l60 39l100 10l2 -4l-72 -70l-69 -20l-76 -47l-66 -56l-63 -45l-64 -33l-55 -26l-86 41zM672 184l12 82
l70 60l104 16l60 4l102 23l63 34l101 21l4 -4l-82 -66l-68 -26l-82 -64l-41 -43l-79 -69l-91 -15l-71 43zM655 -76l31 90l64 49l104 -2h59l84 48l58 36l116 17l3 -2l-89 -78l-65 -23l-90 -34l-37 -43l-68 -80l-77 -19l-91 37zM866 -229l21 96l55 -25l94 6l2 -4l-75 -45
l-29 -30l-66 -5z" />
    <glyph glyph-name="asciitilde" unicode="~" horiz-adv-x="2174" 
d="M918 731l38 25l23 43l86 2l2 -6l-55 -62l-49 10l-43 -14zM1231 627l-4 67l53 -16l47 -8l4 -6l-26 -39l-39 -11l-33 7z" />
    <glyph glyph-name="nbspace" unicode="&#xa0;" horiz-adv-x="479" 
 />
    <glyph glyph-name="exclamdown" unicode="&#xa1;" horiz-adv-x="1226" 
d="M369 1360l59 26l45 31l90 53l82 19l4 -6l-69 -49l-68 -97l-51 -22l-90 39zM502 1137l8 88l61 41l101 4l49 10l74 18l108 27l2 -6l-88 -68l-61 -45l-41 -30l-99 -5l-65 -32l-47 -6zM309 473l70 35l22 59l78 37l101 27l55 24l98 17l4 -6l-78 -62l-53 -29l-86 -57l-78 -37
l-30 -45l-103 33v4zM250 160l14 65l72 54l51 28l88 47l66 -4l65 31l86 10l68 43l53 23l109 16l2 -4l-84 -72l-49 -26l-78 -25l-64 -59l-65 -29l-39 -53l-90 -37l-56 -23l-90 -20l-57 33zM539 8l24 98l78 13l64 41l43 20l90 6l63 23l109 22l2 -6l-84 -71l-60 -35l-63 -66
l-43 -18l-72 -23l-82 -2l-69 -6v4z" />
    <glyph glyph-name="cent" unicode="&#xa2;" horiz-adv-x="2367" 
d="M211 827l33 88l43 39l100 29l78 35l78 8l37 18l98 48l51 12l92 51l53 14l107 21l4 -6l-84 -70l-45 -33l-100 -37l-41 -30l-99 -47l-38 -15l-58 -57l-76 -35l-86 -59l-57 -8l-88 32zM272 582l13 71l86 66l53 33l59 6l92 8l46 31l73 10l84 47l51 18l107 21l2 -6l-82 -70
l-47 -29l-90 -32l-55 -51l-54 -15l-65 -65l-43 -41l-60 -21l-104 -22l-64 37zM494 408l49 75l61 43l60 31l81 8l82 25l119 31l2 -7l-98 -71l-72 -47l-59 -58l-62 -24l-71 -21l-90 13zM1622 934l23 65l71 82h56l88 25l75 8l52 66l135 -13l2 -6l-78 -108l-84 2l-55 -54
l-74 -51l-35 -43l-129 39l-45 -16zM885 315l-19 111l62 -16l88 -35l2 -4l-53 -37l-39 -33l-39 10z" />
    <glyph glyph-name="sterling" unicode="&#xa3;" horiz-adv-x="3569" 
d="M682 1212l53 50l60 8l100 43l61 73l80 13l37 22l111 31l82 33l2 -4l-64 -76l-108 -33l-41 -14l-60 -53l-67 -64l-97 -49l-49 -33l-98 49zM694 940l35 78l47 41l55 31l95 49l75 14l72 12l74 17l49 22l98 43l56 33l90 8l2 -4l-64 -63l-61 -23l-96 -47l-47 -25l-62 -45
l-55 -47l-62 -49l-96 -41l-59 -22l-62 -9l-82 23zM1006 807l32 121l74 -19l86 49l45 52l150 -19l2 -6l-80 -131h-70l-90 -33h-68l-79 -18zM1176 332l8 96l67 -2l105 -10l2 -4l-60 -86l-41 -54l-79 56zM3021 1192l35 57l59 29h90l2 -4l-57 -68l-72 -4l-55 -12zM1374 147
l19 123l82 4l65 13l88 43l94 4l64 51l92 -2l4 -6l-59 -70l-80 -18l-64 -68l-90 -39l-51 -45l-55 -59l-107 65zM1624 -12l31 37l53 94l57 24l78 37l80 23l76 6l76 22l63 29l76 23l39 30l100 43l80 9l4 -7l-59 -57l-97 -47l-49 -10l-65 -43l-64 -31l-67 -43l-54 -55l-65 -47
l-80 -33l-55 -27l-107 19l-49 2zM1960 -133l20 49l78 80l37 51l90 6l70 39l82 33h69l68 47l45 21l92 28l76 12l74 39l32 56l105 10l51 6l100 29l3 -4l-56 -127l-69 37l-76 -76l-64 10l-77 -31l-56 -49l-84 -53l-43 -21l-80 -22l-45 -51l-78 -41l-73 -31l-62 -64l-65 5
l-125 20l-37 -10zM2468 -172l18 78l72 55l72 23l57 32l90 2l49 37l90 29l60 10l53 31l92 43l84 2l2 -4l-55 -66l-92 -43l-58 -20l-47 -37l-78 -51l-61 -15l-59 -65l-82 20l-66 -34l-92 -17l-47 -14z" />
    <glyph glyph-name="currency" unicode="&#xa4;" horiz-adv-x="3299" 
d="M516 1149l59 31l41 45l76 84l78 32l80 11l37 18l100 45l51 15l95 53l61 -4l102 34l2 -6l-86 -71l-43 -31l-102 -39l-43 -31l-98 -47l-39 -18l-58 -53l-75 -39l-88 -60l-60 -6l-90 33v4zM432 819l25 51l73 107l60 31l55 20l94 14l60 11l69 32l99 25l55 16l98 35l66 51
l51 15l76 33l102 16l2 -2l-80 -70l-71 -37l-45 -28l-82 -19l-90 -53l-48 -31l-83 -59l-70 -33l-45 -39l-72 -63l-51 -29l-62 -27l-129 15l-55 14zM477 547l39 74l49 84l56 22l73 23l82 26l72 25l80 10l39 31l92 4l59 37l53 55l93 6l104 19l2 -5l-82 -67l-63 -68l-78 -4
l-66 -22l-63 -68l-47 -10l-60 -55l-63 -39l-74 -45l-65 -41l-54 -29l-96 16l-80 19zM639 330l16 57l90 59l41 46l72 30l70 17l82 10l67 18l72 25l43 22l92 50l80 8l2 -6l-55 -58l-99 -39l-45 -18l-65 -39l-58 -41l-59 -55l-57 -43l-70 -37l-61 -2l-103 -31l-53 25z
M2750 1315l43 119l56 8l153 -6l2 -6l-92 -123l-41 -37l-118 43zM950 184l19 142l78 -39l90 61l88 -4l86 35l88 16l2 -8l-68 -55l-82 -43l-55 -72l-102 -29l-68 17l-74 -25z" />
    <glyph glyph-name="yen" unicode="&#xa5;" horiz-adv-x="3264" 
d="M733 1309l21 100l43 35l104 4l86 4l66 27l75 14l2 -4l-59 -47l-63 -33l-58 -63l-71 -78l-54 -11l-90 48zM868 1118l21 72l67 51l76 33h72l72 41l63 39l74 20l76 17l67 28l62 37l73 14l82 23l2 -4l-71 -47l-60 -45l-65 -25l-66 -33l-61 -47l-64 -43l-69 -26l-78 -27
l-45 -55l-76 -37l-82 -19l-68 31zM1006 930l18 71l68 60l79 26l62 9l88 32l47 33l72 49l88 27l67 -6l113 26l2 -4l-92 -69l-39 -56l-76 -51l-84 -22l-57 -17l-80 -47l-47 -41l-72 -45l-88 -12l-67 33zM1141 739l37 68l55 59l88 23l39 26l84 17l96 26l66 27l73 39l95 10l2 -4
l-68 -65l-78 -33l-63 -33l-80 -57l-68 -54l-47 -12l-72 -53l-79 -4l-78 16zM2566 1403l6 76l109 -13l61 21l2 -4l-53 -37l-86 -43l-37 -4zM1167 498l23 43l78 86l47 4l86 49l47 16l57 66l97 -27l77 31l62 31l82 30l82 15l4 -6l-66 -54l-78 -43l-61 -26l-74 -41l-41 -88
l-86 -2l-43 -27l-94 -35l-33 -35l-116 -4l-48 13zM1049 188l53 35l33 80l71 55l78 7l55 22l60 14l96 35l21 70l81 -25l103 37l35 19l57 71l96 17l74 14l78 14l4 -8l-62 -51l-59 -47l-72 -64l-92 2l-37 -14l-94 -55l-35 -78l-65 29l-90 -52l-49 -36l-52 -27l-55 -57l-88 -19
l-68 -8l-75 16zM1477 133l18 57l64 80l81 29l64 4l88 35l47 8l98 37l39 27l111 12l4 -6l-80 -80l-47 -12l-90 -54l-37 -28l-82 -47l-45 -45l-102 18l-86 -35l-43 -2zM2019 135l19 82l39 19l106 -27l2 -4l-69 -51l-39 -21l-54 -2z" />
    <glyph glyph-name="brokenbar" unicode="&#xa6;" horiz-adv-x="2050" 
d="M846 1444l67 37l48 53l131 25l2 -5l-105 -84l-35 -77l-106 47zM135 874l29 80l86 31l72 39l102 -12l4 -6l-55 -88l-78 -29l-78 -49l-80 30zM1001 1280l31 55l68 27l82 2l2 -6l-54 -62l-73 -14l-53 -6zM668 645l26 45l58 70l82 47l69 -12l62 34l49 54l80 -21l80 53l90 9
l2 -6l-64 -62l-92 -27l-37 -75l-72 -2l-65 -27l-37 -59l-88 -35l-90 4l-51 6zM819 477l27 76l94 12l72 37l59 35l57 27l72 18l74 33l110 28l2 -6l-92 -67l-71 -35l-60 -45l-57 -27l-66 -22l-73 -31l-86 -31l-60 -6zM1675 877l33 88l78 10l117 10l2 -8l-80 -84l-60 -51
l-90 30v5zM463 72l26 112l117 -12l109 18l2 -4l-84 -73l-92 -39l-76 -4zM1364 14l31 109l59 -6l82 2l111 28l2 -4l-95 -65l-69 -29l-45 -26l-74 -11z" />
    <glyph glyph-name="section" unicode="&#xa7;" horiz-adv-x="2420" 
d="M559 1083l31 93l49 28l127 -20l78 41l74 26l2 -4l-56 -67l-71 -54l-88 -63l-54 -19l-90 35zM969 995l14 68l53 55l62 43l94 -4l70 45l88 10l59 27l82 21l65 34l86 13l3 -7l-64 -57l-70 -29l-67 -49l-60 -26l-63 -62l-80 -24l-98 14l-53 -61l-74 -15l-45 -2zM506 494
l24 114l93 -16l79 22l89 13l2 -4l-66 -60l-72 -47l-45 -82l-102 55zM1688 1047l34 96l47 24l86 19l33 65l94 -2l121 -10l4 -6l-71 -98l-60 -72l-69 16l-95 -4l-55 -6l-67 -29zM793 344l30 86l25 59l100 15l66 33l86 -11l30 43l95 -8l94 31l2 -4l-70 -80l-69 -51l-52 4
l-47 -74l-67 -29l-121 31l-39 -29l-63 -18v2zM2038 926l-2 80l55 12l92 -23l2 -4l-61 -43l-47 -28l-37 2zM1360 330l18 73l58 33l73 31l107 29l53 22l82 21l61 36l70 41h94l2 -4l-59 -73l-76 -27l-69 -25l-68 -47l-51 -26l-90 -66l-99 23l-53 -41l-51 -6z" />
    <glyph glyph-name="dieresis" unicode="&#xa8;" horiz-adv-x="20" 
d="M344 1493l16 127l80 -37l121 14l2 -8l-88 -82l-65 6l-64 -22z" />
    <glyph glyph-name="copyright" unicode="&#xa9;" horiz-adv-x="3098" 
d="M647 1063l37 24l18 46l82 -3l2 -6l-49 -65l-47 14l-39 -14zM1346 1389l24 96l94 28l101 -6l90 27l2 -6l-55 -98l-105 12l-92 -31l-57 -25zM594 750l6 57l45 12l57 -16l3 -6l-25 -56l-37 -26l-47 28zM1917 1366l10 55l55 25l84 -10l2 -4l-47 -68l-67 2l-35 -2zM674 498
l-21 100l70 -33l55 -18l2 -4l-20 -56l-51 -8l-33 15zM1589 926l47 53l72 47l100 2l2 -4l-65 -76l-55 -86l-99 60zM887 309l-8 72l43 31l92 -45l2 -5l-27 -96l-78 45l-22 -6zM1620 649l41 92l55 25l80 -4l109 22l2 -6l-86 -69l-49 -62l-74 19l-76 -19zM2363 997l15 35l16 35
l62 -25l4 -8l-21 -63l-16 -37l-58 59zM1247 186l37 52l68 41l94 2v-5l-60 -71l-73 -27l-64 6zM2308 682l49 47l29 47l113 -6l2 -4l-68 -90l-23 -64l-102 66v4zM1878 195l27 63l88 -12l84 106h71l80 35l99 14l2 -4l-84 -41l-78 -45l-60 -24l-112 -45l-64 -43l-51 -11z" />
    <glyph glyph-name="ordfeminine" unicode="&#xaa;" horiz-adv-x="2879" 
d="M498 1610l28 16l21 23l57 10l2 -6l-37 -56l2 -71l-71 78zM643 1411l21 82l77 37l66 37l67 -25l105 23l2 -4l-86 -64l-23 -67l-98 26l-78 -31l-51 -20zM1518 1548l16 125l104 -33l76 31l88 10l2 -6l-65 -59l-70 -39l-43 -100l-106 65zM416 766l22 102l60 9l65 38l96 33
l64 4l100 31l70 43l88 4l2 -4l-57 -65l-80 -27l-88 -57l-43 -46l-86 -53l-74 -24l-45 -41l-92 49zM1520 1280l4 86l86 27l84 39l63 2l66 49l92 8l82 39l96 18l2 -4l-76 -63l-82 -37l-65 -66l-80 -18l-43 -47l-84 -39l-76 -49l-67 49zM754 655l41 76l77 31l117 2l2 -4
l-78 -88l-90 -2l-67 -19zM1520 1012l22 80l45 69l101 2l53 25l92 24l43 23l63 41l74 -2l80 41l96 10l2 -4l-69 -70l-82 -32l-47 -60l-72 -22l-43 -17l-80 -55l-53 -25l-66 -75l-82 8l-75 33zM207 131l8 109l86 -7l86 3l102 26l3 -2l-68 -106l-76 -21l-86 4l-53 -10z
M1606 786l22 82l94 47l47 29l66 53l107 -22l86 39l26 55l135 -14l2 -2l-77 -113l-58 14l-86 -41l-51 -94l-84 -16l-51 -19l-96 -43l-80 39zM811 145l53 103l60 -4l141 18l4 -4l-106 -96l-62 4l-88 -25zM1919 664l12 90l76 24l123 8l86 15l2 -6l-66 -58l-110 -30l-70 -39
l-51 -11zM1401 150l31 92l108 16l102 6l3 -6l-70 -74l-111 -16l-61 -21zM1976 150l2 108l113 -8l55 16l99 10l2 -4l-72 -69l-47 -31l-107 -8l-43 -17zM2552 152l6 77h27l75 -26l2 -6l-49 -29l-18 -18l-41 -3z" />
    <glyph glyph-name="guillemotleft" unicode="&#xab;" horiz-adv-x="1660" 
d="M264 629l51 51l56 12l98 37l66 62l86 4v-4l-56 -62l-71 -51l-86 -64l-54 -18l-88 31zM504 483l-12 84l47 -10l75 -22l2 -5l-30 -73l-51 14l-29 8zM1065 743l57 37l58 29l98 35l2 -4l-74 -88l-43 -60l-96 47zM1094 500l-4 92l79 -23l58 -6l4 -6l-33 -47l-70 -2l-32 -12z
" />
    <glyph glyph-name="logicalnot" unicode="&#xac;" horiz-adv-x="1617" 
d="M231 684l29 84l49 20l111 -4l78 21l4 -4l-68 -45l-92 -37l-53 -14l-56 -27zM795 694l26 76l90 31l142 12l2 -6l-101 -98l-106 4l-51 -25zM1241 649v76l43 -12l68 -11l4 -4l-37 -59l-47 20l-29 -14z" />
    <glyph glyph-name="registered" unicode="&#xae;" horiz-adv-x="3098" 
d="M1341 1389l33 100l58 24l129 -4l92 23l4 -4l-80 -55l-109 -39l-59 -19l-66 -31zM590 748l33 30l45 76l96 10l90 6l2 -4l-61 -63l-72 -68l-47 -67l-84 75zM1927 1374l8 88l62 -8l69 -18l2 -4l-32 -64l-51 -8l-56 8zM1245 186l55 95l74 10l119 10l2 -2l-86 -84l-80 4
l-82 -37zM2386 719l-16 106l75 -47l54 -6l2 -4l-29 -45l-57 4l-27 -12zM1882 195l51 32l35 49l103 7l2 -7l-82 -45l-49 -22l-58 -19z" />
    <glyph glyph-name="macron" unicode="&#xaf;" horiz-adv-x="20" 
 />
    <glyph glyph-name="degree" unicode="&#xb0;" horiz-adv-x="1638" 
d="M193 1165l38 95l60 24l129 4l94 29l2 -4l-82 -56l-86 -96l-55 -31l-98 31zM369 995l6 68l55 12l92 -8l2 -6l-51 -78l-72 21l-28 -15zM1116 1341l27 91l71 -2l119 12l2 -4l-86 -82l-45 -58l-86 39zM1108 1083l31 109l57 -18l74 36l94 29l82 4l2 -6l-53 -61l-82 -54
l-76 -32l-23 -58l-104 45z" />
    <glyph glyph-name="plusminus" unicode="&#xb1;" 
d="M924 1126l6 103l63 -33l90 6l2 -4l-63 -65l-14 -70l-82 59zM379 635l33 82l110 10l101 21l4 -7l-82 -61l-96 -39l-68 -12zM952 901l-4 68l47 -2l60 -15l2 -6l-25 -57l-28 -39l-50 47zM930 653l45 23l41 45l65 2l2 -6l-43 -47l-39 -52l-69 31zM944 420l17 33l14 55l76 -37
l2 -4l-21 -84l-33 -14l-55 47v4zM1386 627l9 106l102 -12l35 35l121 -4l2 -4l-76 -97l-47 -4l-88 -18l-55 -6zM545 -2l37 20l57 43l68 9l2 -2l-52 -48l-69 -16l-41 -10zM907 164l27 84l53 4l90 -6l2 -6l-51 -74l-39 -41l-82 35v4zM1061 -2l10 90l96 -37l56 21l2 -2l-43 -52
l-74 -8l-45 -14zM1571 0l8 72l88 -27l82 33l2 -4l-61 -74l-74 -8l-41 4z" />
    <glyph glyph-name="twosuperior" unicode="&#xb2;" 
d="M846 1444l67 37l48 53l131 25l2 -5l-105 -84l-35 -77l-106 47zM135 874l29 80l86 31l72 39l102 -12l4 -6l-55 -88l-78 -29l-78 -49l-80 30zM1001 1280l31 55l68 27l82 2l2 -6l-54 -62l-73 -14l-53 -6zM668 645l26 45l58 70l82 47l69 -12l62 34l49 54l80 -21l80 53l90 9
l2 -6l-64 -62l-92 -27l-37 -75l-72 -2l-65 -27l-37 -59l-88 -35l-90 4l-51 6zM819 477l27 76l94 12l72 37l59 35l57 27l72 18l74 33l110 28l2 -6l-92 -67l-71 -35l-60 -45l-57 -27l-66 -22l-73 -31l-86 -31l-60 -6zM1675 877l33 88l78 10l117 10l2 -8l-80 -84l-60 -51
l-90 30v5zM463 72l26 112l117 -12l109 18l2 -4l-84 -73l-92 -39l-76 -4zM1364 14l31 109l59 -6l82 2l111 28l2 -4l-95 -65l-69 -29l-45 -26l-74 -11z" />
    <glyph glyph-name="threesuperior" unicode="&#xb3;" 
d="M846 1444l67 37l48 53l131 25l2 -5l-105 -84l-35 -77l-106 47zM135 874l29 80l86 31l72 39l102 -12l4 -6l-55 -88l-78 -29l-78 -49l-80 30zM1001 1280l31 55l68 27l82 2l2 -6l-54 -62l-73 -14l-53 -6zM668 645l26 45l58 70l82 47l69 -12l62 34l49 54l80 -21l80 53l90 9
l2 -6l-64 -62l-92 -27l-37 -75l-72 -2l-65 -27l-37 -59l-88 -35l-90 4l-51 6zM819 477l27 76l94 12l72 37l59 35l57 27l72 18l74 33l110 28l2 -6l-92 -67l-71 -35l-60 -45l-57 -27l-66 -22l-73 -31l-86 -31l-60 -6zM1675 877l33 88l78 10l117 10l2 -8l-80 -84l-60 -51
l-90 30v5zM463 72l26 112l117 -12l109 18l2 -4l-84 -73l-92 -39l-76 -4zM1364 14l31 109l59 -6l82 2l111 28l2 -4l-95 -65l-69 -29l-45 -26l-74 -11z" />
    <glyph glyph-name="acute" unicode="&#xb4;" horiz-adv-x="20" 
d="M530 1581l64 33l39 55l125 17l4 -7l-94 -84l-68 4l-68 -24z" />
    <glyph glyph-name="mu" unicode="&#xb5;" horiz-adv-x="3747" 
d="M1057 1036l61 35l39 57l125 13l2 -6l-90 -84l-25 -88l-110 69zM1145 786l24 86l74 58l74 39l67 -19l93 41l47 23l86 10l73 51l113 17l2 -7l-84 -77l-86 -25l-61 -57l-49 -21l-91 -45l-30 -65l-76 -29l-92 -21l-82 37zM154 33l36 47l62 24l100 21l2 -6l-55 -117l-61 -20
l-82 47zM1157 500l27 73l67 78l60 -14l92 27l55 26l96 43l64 6l63 47l115 13l2 -4l-84 -80l-76 -19l-45 -45l-94 -45l-55 -26l-80 -54l-29 -53l-102 -4l-74 27zM2324 1044l48 48l79 14l72 31l2 -4l-51 -74l-61 -53l-89 34v4zM426 -129l8 80l92 14l68 27l119 12l2 -6l-86 -82
l-64 -35l-90 -18l-47 4zM1264 258l30 84l52 80l84 -4l79 6l56 16l65 9l64 45l104 14v-4l-78 -70l-73 -22l-50 -43l-47 -33l-55 -55l-51 -68l-94 10l-84 31zM2427 801l29 82l53 67l63 29l88 -10l50 10l96 43l45 4l86 49l39 33l112 4l2 -6l-73 -84l-51 -10l-93 -35l-30 -33
l-97 -45l-39 -31l-49 -73l-63 -31l-86 2l-80 31zM1583 117l6 100l140 19l116 2l2 -5l-78 -86l-137 -24l-47 -10zM2437 514l14 78l76 80l72 26l102 -8l33 60l121 -11l27 62l79 -6l121 20l2 -4l-92 -80l-47 -63l-66 18l-69 -100l-68 14l-59 -84l-66 -37l-110 -6l-68 35z
M2488 246l27 84l35 49l92 41l45 4l84 8l74 29l92 20l59 45h86l2 -6l-55 -67l-72 -17l-73 -57l-70 -39l-61 -57l-31 -33l-90 -45l-62 6l-80 33zM2826 115l6 118h95l84 -6l108 23l2 -4l-88 -68l-49 -67l-92 -7l-64 7z" />
    <glyph glyph-name="paragraph" unicode="&#xb6;" horiz-adv-x="3665" 
d="M240 1202l53 45l24 78l103 31l76 37h84l32 28l105 35l55 6l107 37l2 -2l-84 -86l-54 -10l-94 -58l-43 -6l-53 -63l-78 -37l-90 -57l-47 -29l-96 45zM324 956l26 60l68 76l51 45l109 20l59 -16l72 51l102 20l59 21l64 49l104 8l2 -4l-73 -76l-78 -18l-53 -31l-82 -65
l-86 -23l-27 -55l-82 -70l-70 -10l-100 -4l-65 18v4zM647 823l35 121l74 -16l86 47l45 55l153 -22l2 -9l-79 -131l-72 2l-92 -36l-68 4l-82 -19zM1821 1370l8 111l72 2l79 2l107 8l2 -2l-76 -76l-53 -61l-47 -54l-90 64zM1821 1085l18 99l62 22l90 25l84 63l114 -37l2 -4
l-45 -114l-102 -23l-78 -51l-57 -35l-86 51zM1821 801l4 121h98l59 -7l74 13l105 33l2 -7l-90 -59l-58 -49l-33 -49l-65 -76l-94 74zM2693 1206l17 117l86 25l90 -5l88 19l96 20v-4l-76 -59l-69 -57l-56 -70l-76 -51l-100 61v4zM1804 508l15 76l86 43l77 4l86 35l91 8l2 -4
l-64 -64l-82 -47l-53 -55l-88 -39l-68 39zM2718 932l30 108l41 21l125 -17l86 21l2 -4l-69 -53l-70 -107l-41 -16l-104 45v2zM1614 135l61 27l58 57l55 88l55 8l105 21l34 45l78 -6l119 22l2 -4l-92 -78l-47 -61h-55l-84 -66l-43 -36l-103 14l-80 -6l-61 -29zM2716 647
l10 101l70 4l77 57l121 -31l2 -4l-53 -115l-94 -22l-47 -49l-84 55zM2693 352l31 47l59 82l72 19l74 -4l94 12l2 -8l-68 -64l-45 -59l-59 -43l-78 -43l-80 57zM2836 133l17 117l110 2l127 2l5 -6l-84 -96l-105 -17l-67 -4z" />
    <glyph glyph-name="periodcentered" unicode="&#xb7;" horiz-adv-x="970" 
d="M250 655l35 95l49 36l117 17l96 14l76 29l84 24l4 -6l-74 -49l-72 -39l-71 -65l-88 -80l-60 -15l-96 35v4zM545 565l10 72l70 12l84 -4l2 -6l-66 -35l-55 -43l-43 2z" />
    <glyph glyph-name="cedilla" unicode="&#xb8;" horiz-adv-x="20" 
d="M371 -461v123l71 -45l97 2l4 -6l-76 -49l-43 -13l-51 -16z" />
    <glyph glyph-name="onesuperior" unicode="&#xb9;" 
d="M846 1444l67 37l48 53l131 25l2 -5l-105 -84l-35 -77l-106 47zM135 874l29 80l86 31l72 39l102 -12l4 -6l-55 -88l-78 -29l-78 -49l-80 30zM1001 1280l31 55l68 27l82 2l2 -6l-54 -62l-73 -14l-53 -6zM668 645l26 45l58 70l82 47l69 -12l62 34l49 54l80 -21l80 53l90 9
l2 -6l-64 -62l-92 -27l-37 -75l-72 -2l-65 -27l-37 -59l-88 -35l-90 4l-51 6zM819 477l27 76l94 12l72 37l59 35l57 27l72 18l74 33l110 28l2 -6l-92 -67l-71 -35l-60 -45l-57 -27l-66 -22l-73 -31l-86 -31l-60 -6zM1675 877l33 88l78 10l117 10l2 -8l-80 -84l-60 -51
l-90 30v5zM463 72l26 112l117 -12l109 18l2 -4l-84 -73l-92 -39l-76 -4zM1364 14l31 109l59 -6l82 2l111 28l2 -4l-95 -65l-69 -29l-45 -26l-74 -11z" />
    <glyph glyph-name="ordmasculine" unicode="&#xba;" horiz-adv-x="2879" 
d="M387 1290l59 29l21 92l100 33l78 35l80 8l35 22l100 45l51 13l95 51l53 14l108 23l2 -6l-86 -70l-43 -31l-102 -41l-43 -30l-98 -47l-39 -13l-58 -57l-77 -35l-91 -57l-55 -13l-88 31zM389 1022l17 70l92 71l59 33l64 10l98 11l49 32l80 17l90 49l55 20l115 23l2 -4
l-92 -74l-49 -31l-97 -37l-63 -51l-57 -16l-72 -68l-47 -43l-64 -24l-114 -25l-66 33v4zM539 823l49 64l47 61l57 25l80 2l66 49l90 6l82 39l94 16l2 -2l-74 -63l-82 -37l-65 -63l-78 -19l-53 -61l-56 -29l-77 4l-82 4v4zM1772 1399l38 63l52 64l86 22l51 -2l82 19l104 26
l4 -6l-90 -61l-67 -51l-31 -41l-72 -52l-82 2l-73 13zM840 694l24 97l84 4l84 10l94 24l2 -4l-79 -57l-62 -59l-88 8l-57 -25zM1782 1135l24 67l56 84l86 6l86 17l69 39l56 47l104 -4l37 32l119 9l2 -5l-84 -86l-47 -6l-64 -84l-72 -12l-75 -27l-66 -57l-61 -61l-101 12
l-67 22zM207 131l37 29l65 82l97 10l83 10l3 -4l-62 -57l-72 -68l-104 4l-45 -10zM1761 856l43 72l33 49l90 37l60 41l92 4l32 51l115 -10l31 51l76 -6l102 45l76 16l2 -6l-62 -47l-100 -49l-43 -62l-59 11l-66 -95l-61 7l-62 -68l-69 -20l-86 -46l-58 9l-84 12zM811 145
l10 109l117 -8l127 16l4 -4l-96 -86l-103 -25l-57 -6zM1960 680l8 86l68 59l100 -22l45 43l94 12l52 31l96 10l2 -6l-78 -49l-45 -41l-92 -19l-41 -53l-88 -4l-72 -49l-47 -2zM1399 152l49 22l72 35l122 55l3 -6l-121 -57l-74 -33l-47 -21zM1974 152l19 112l57 2l109 -10
l86 20l2 -4l-72 -53l-88 -31l-51 -18l-58 -23zM2552 150l-2 77h45l65 -24l2 -6l-43 -23l-28 -35l-37 8z" />
    <glyph glyph-name="guillemotright" unicode="&#xbb;" horiz-adv-x="1660" 
d="M453 688l-4 107l57 -43l78 -4l2 -5l-47 -59l-7 -72l-77 72zM1073 719v72l62 -15l55 -4l2 -4l-33 -43l-29 -57l-55 47zM981 418l33 41l63 53l86 10l80 19l2 -4l-71 -39l-76 -31l-62 -55h-53z" />
    <glyph glyph-name="onequarter" unicode="&#xbc;" 
d="M846 1444l67 37l48 53l131 25l2 -5l-105 -84l-35 -77l-106 47zM135 874l29 80l86 31l72 39l102 -12l4 -6l-55 -88l-78 -29l-78 -49l-80 30zM1001 1280l31 55l68 27l82 2l2 -6l-54 -62l-73 -14l-53 -6zM668 645l26 45l58 70l82 47l69 -12l62 34l49 54l80 -21l80 53l90 9
l2 -6l-64 -62l-92 -27l-37 -75l-72 -2l-65 -27l-37 -59l-88 -35l-90 4l-51 6zM819 477l27 76l94 12l72 37l59 35l57 27l72 18l74 33l110 28l2 -6l-92 -67l-71 -35l-60 -45l-57 -27l-66 -22l-73 -31l-86 -31l-60 -6zM1675 877l33 88l78 10l117 10l2 -8l-80 -84l-60 -51
l-90 30v5zM463 72l26 112l117 -12l109 18l2 -4l-84 -73l-92 -39l-76 -4zM1364 14l31 109l59 -6l82 2l111 28l2 -4l-95 -65l-69 -29l-45 -26l-74 -11z" />
    <glyph glyph-name="onehalf" unicode="&#xbd;" 
d="M846 1444l67 37l48 53l131 25l2 -5l-105 -84l-35 -77l-106 47zM135 874l29 80l86 31l72 39l102 -12l4 -6l-55 -88l-78 -29l-78 -49l-80 30zM1001 1280l31 55l68 27l82 2l2 -6l-54 -62l-73 -14l-53 -6zM668 645l26 45l58 70l82 47l69 -12l62 34l49 54l80 -21l80 53l90 9
l2 -6l-64 -62l-92 -27l-37 -75l-72 -2l-65 -27l-37 -59l-88 -35l-90 4l-51 6zM819 477l27 76l94 12l72 37l59 35l57 27l72 18l74 33l110 28l2 -6l-92 -67l-71 -35l-60 -45l-57 -27l-66 -22l-73 -31l-86 -31l-60 -6zM1675 877l33 88l78 10l117 10l2 -8l-80 -84l-60 -51
l-90 30v5zM463 72l26 112l117 -12l109 18l2 -4l-84 -73l-92 -39l-76 -4zM1364 14l31 109l59 -6l82 2l111 28l2 -4l-95 -65l-69 -29l-45 -26l-74 -11z" />
    <glyph glyph-name="threequarters" unicode="&#xbe;" 
d="M846 1444l67 37l48 53l131 25l2 -5l-105 -84l-35 -77l-106 47zM135 874l29 80l86 31l72 39l102 -12l4 -6l-55 -88l-78 -29l-78 -49l-80 30zM1001 1280l31 55l68 27l82 2l2 -6l-54 -62l-73 -14l-53 -6zM668 645l26 45l58 70l82 47l69 -12l62 34l49 54l80 -21l80 53l90 9
l2 -6l-64 -62l-92 -27l-37 -75l-72 -2l-65 -27l-37 -59l-88 -35l-90 4l-51 6zM819 477l27 76l94 12l72 37l59 35l57 27l72 18l74 33l110 28l2 -6l-92 -67l-71 -35l-60 -45l-57 -27l-66 -22l-73 -31l-86 -31l-60 -6zM1675 877l33 88l78 10l117 10l2 -8l-80 -84l-60 -51
l-90 30v5zM463 72l26 112l117 -12l109 18l2 -4l-84 -73l-92 -39l-76 -4zM1364 14l31 109l59 -6l82 2l111 28l2 -4l-95 -65l-69 -29l-45 -26l-74 -11z" />
    <glyph glyph-name="questiondown" unicode="&#xbf;" 
d="M760 1280l31 98l49 37l114 12l95 11l75 28l82 23l2 -6l-71 -47l-70 -39l-68 -66l-84 -80l-59 -14l-96 39v4zM1042 1176l23 77l90 19l107 6l4 -6l-90 -45l-74 -53l-58 -5zM213 309l37 84l51 66l70 16l84 -6l45 25l96 45l59 24l56 15l84 26l49 25l63 37l111 18l2 -4
l-86 -72l-70 -24l-51 -21l-74 -49l-47 -33l-55 -28l-96 -45l-49 -21l-50 -68l-55 -43l-84 3l-88 26zM346 133l12 64l84 39l43 34l72 21l82 14l80 25l59 37l94 12l2 -4l-69 -68l-68 -18l-69 -47l-64 -52l-61 -43l-56 -12l-98 -4l-41 -2zM690 57l10 74l78 12l103 2l4 -8
l-68 -76l-78 -12l-45 2zM1272 326l39 28l47 15l49 18v-2l-35 -45l-20 -74l-78 53zM1581 233l43 93l96 -9l84 19l2 -4l-67 -56l-56 -77l-100 28z" />
    <glyph glyph-name="Agrave" unicode="&#xc0;" horiz-adv-x="3330" 
d="M1333 1372l31 92l53 23l119 -2l84 20l2 -4l-72 -51l-73 -90l-52 -27l-90 35zM1427 1157l25 60l57 61l97 29l39 43l90 -7l73 52l93 12l79 39l54 47h108l4 -8l-71 -82l-70 -12l-82 -35l-68 -62l-86 -24l-55 -74l-57 -2l-82 -55l-86 -4l-62 18v4zM1520 942l36 88l48 49
l92 27l82 6l77 31l68 22l76 21l41 98l102 -20l92 14l4 -8l-69 -62l-51 -92l-101 33l-63 -45l-62 -39l-75 -39l-58 -57l-78 -56l-67 -4l-92 29zM629 268l22 29l39 10l58 17l2 -5l-33 -69l-25 -43l-61 57zM1585 713l35 67l53 64l72 6l47 41l84 18l80 52l55 2l96 16l62 29
l74 32l86 23l4 -8l-72 -51l-72 -37l-63 -29l-74 -61l-37 -41l-90 -29l-70 -53l-61 -11l-51 -51l-82 2l-74 15zM1595 459l33 67l55 76l66 33h88l72 18l71 33l52 12l100 43l43 15l86 57l55 4l107 31l2 -8l-90 -64l-39 -37l-98 -30l-39 -23l-99 -51l-41 -31l-71 -33l-60 -43
l-57 -67l-68 -29l-94 6l-74 17v4zM1501 156l37 55l49 84l84 22l47 50l88 4l45 18l99 19l65 26l80 31l37 45l100 18l31 47h74l100 46l78 10l4 -6l-59 -54l-99 -47l-47 -57l-55 6l-80 -63h-59l-72 -41l-66 -33l-75 -66l-43 -20l-60 -66l-67 -4l-109 25l-59 -58l-66 7z
M2007 133l31 109l43 39h73l80 32l86 13l58 22l88 31l55 24l96 15l2 -4l-73 -64l-54 -26l-82 -48l-53 -28l-65 -58l-76 -43l-88 33l-43 -37l-76 -12zM2562 133l27 84l59 66l107 -58l4 -6l-66 -35l-67 -47l-62 -6zM995 1999l45 22l35 27l82 23l2 -5l-61 -65l-54 8l-45 -18z
M1438 1933l-4 68l51 -19l45 -8l2 -4l-25 -39l-34 -12l-33 8z" />
    <glyph glyph-name="Aacute" unicode="&#xc1;" horiz-adv-x="3330" 
d="M1333 1372l31 92l53 23l119 -2l84 20l2 -4l-72 -51l-73 -90l-52 -27l-90 35zM1427 1157l25 60l57 61l97 29l39 43l90 -7l73 52l93 12l79 39l54 47h108l4 -8l-71 -82l-70 -12l-82 -35l-68 -62l-86 -24l-55 -74l-57 -2l-82 -55l-86 -4l-62 18v4zM1520 942l36 88l48 49
l92 27l82 6l77 31l68 22l76 21l41 98l102 -20l92 14l4 -8l-69 -62l-51 -92l-101 33l-63 -45l-62 -39l-75 -39l-58 -57l-78 -56l-67 -4l-92 29zM629 268l22 29l39 10l58 17l2 -5l-33 -69l-25 -43l-61 57zM1585 713l35 67l53 64l72 6l47 41l84 18l80 52l55 2l96 16l62 29
l74 32l86 23l4 -8l-72 -51l-72 -37l-63 -29l-74 -61l-37 -41l-90 -29l-70 -53l-61 -11l-51 -51l-82 2l-74 15zM1595 459l33 67l55 76l66 33h88l72 18l71 33l52 12l100 43l43 15l86 57l55 4l107 31l2 -8l-90 -64l-39 -37l-98 -30l-39 -23l-99 -51l-41 -31l-71 -33l-60 -43
l-57 -67l-68 -29l-94 6l-74 17v4zM1501 156l37 55l49 84l84 22l47 50l88 4l45 18l99 19l65 26l80 31l37 45l100 18l31 47h74l100 46l78 10l4 -6l-59 -54l-99 -47l-47 -57l-55 6l-80 -63h-59l-72 -41l-66 -33l-75 -66l-43 -20l-60 -66l-67 -4l-109 25l-59 -58l-66 7z
M2007 133l31 109l43 39h73l80 32l86 13l58 22l88 31l55 24l96 15l2 -4l-73 -64l-54 -26l-82 -48l-53 -28l-65 -58l-76 -43l-88 33l-43 -37l-76 -12zM2562 133l27 84l59 66l107 -58l4 -6l-66 -35l-67 -47l-62 -6zM2052 1950l64 32l38 56l125 16l5 -6l-95 -84l-67 4l-68 -24z
" />
    <glyph glyph-name="Acircumflex" unicode="&#xc2;" horiz-adv-x="3330" 
d="M1333 1372l31 92l53 23l119 -2l84 20l2 -4l-72 -51l-73 -90l-52 -27l-90 35zM1427 1157l25 60l57 61l97 29l39 43l90 -7l73 52l93 12l79 39l54 47h108l4 -8l-71 -82l-70 -12l-82 -35l-68 -62l-86 -24l-55 -74l-57 -2l-82 -55l-86 -4l-62 18v4zM1520 942l36 88l48 49
l92 27l82 6l77 31l68 22l76 21l41 98l102 -20l92 14l4 -8l-69 -62l-51 -92l-101 33l-63 -45l-62 -39l-75 -39l-58 -57l-78 -56l-67 -4l-92 29zM629 268l22 29l39 10l58 17l2 -5l-33 -69l-25 -43l-61 57zM1585 713l35 67l53 64l72 6l47 41l84 18l80 52l55 2l96 16l62 29
l74 32l86 23l4 -8l-72 -51l-72 -37l-63 -29l-74 -61l-37 -41l-90 -29l-70 -53l-61 -11l-51 -51l-82 2l-74 15zM1595 459l33 67l55 76l66 33h88l72 18l71 33l52 12l100 43l43 15l86 57l55 4l107 31l2 -8l-90 -64l-39 -37l-98 -30l-39 -23l-99 -51l-41 -31l-71 -33l-60 -43
l-57 -67l-68 -29l-94 6l-74 17v4zM1501 156l37 55l49 84l84 22l47 50l88 4l45 18l99 19l65 26l80 31l37 45l100 18l31 47h74l100 46l78 10l4 -6l-59 -54l-99 -47l-47 -57l-55 6l-80 -63h-59l-72 -41l-66 -33l-75 -66l-43 -20l-60 -66l-67 -4l-109 25l-59 -58l-66 7z
M2007 133l31 109l43 39h73l80 32l86 13l58 22l88 31l55 24l96 15l2 -4l-73 -64l-54 -26l-82 -48l-53 -28l-65 -58l-76 -43l-88 33l-43 -37l-76 -12zM2562 133l27 84l59 66l107 -58l4 -6l-66 -35l-67 -47l-62 -6z" />
    <glyph glyph-name="Atilde" unicode="&#xc3;" horiz-adv-x="3330" 
d="M1333 1372l31 92l53 23l119 -2l84 20l2 -4l-72 -51l-73 -90l-52 -27l-90 35zM1427 1157l25 60l57 61l97 29l39 43l90 -7l73 52l93 12l79 39l54 47h108l4 -8l-71 -82l-70 -12l-82 -35l-68 -62l-86 -24l-55 -74l-57 -2l-82 -55l-86 -4l-62 18v4zM1520 942l36 88l48 49
l92 27l82 6l77 31l68 22l76 21l41 98l102 -20l92 14l4 -8l-69 -62l-51 -92l-101 33l-63 -45l-62 -39l-75 -39l-58 -57l-78 -56l-67 -4l-92 29zM629 268l22 29l39 10l58 17l2 -5l-33 -69l-25 -43l-61 57zM1585 713l35 67l53 64l72 6l47 41l84 18l80 52l55 2l96 16l62 29
l74 32l86 23l4 -8l-72 -51l-72 -37l-63 -29l-74 -61l-37 -41l-90 -29l-70 -53l-61 -11l-51 -51l-82 2l-74 15zM1595 459l33 67l55 76l66 33h88l72 18l71 33l52 12l100 43l43 15l86 57l55 4l107 31l2 -8l-90 -64l-39 -37l-98 -30l-39 -23l-99 -51l-41 -31l-71 -33l-60 -43
l-57 -67l-68 -29l-94 6l-74 17v4zM1501 156l37 55l49 84l84 22l47 50l88 4l45 18l99 19l65 26l80 31l37 45l100 18l31 47h74l100 46l78 10l4 -6l-59 -54l-99 -47l-47 -57l-55 6l-80 -63h-59l-72 -41l-66 -33l-75 -66l-43 -20l-60 -66l-67 -4l-109 25l-59 -58l-66 7z
M2007 133l31 109l43 39h73l80 32l86 13l58 22l88 31l55 24l96 15l2 -4l-73 -64l-54 -26l-82 -48l-53 -28l-65 -58l-76 -43l-88 33l-43 -37l-76 -12zM2562 133l27 84l59 66l107 -58l4 -6l-66 -35l-67 -47l-62 -6z" />
    <glyph glyph-name="Adieresis" unicode="&#xc4;" horiz-adv-x="3330" 
d="M1333 1372l31 92l53 23l119 -2l84 20l2 -4l-72 -51l-73 -90l-52 -27l-90 35zM1427 1157l25 60l57 61l97 29l39 43l90 -7l73 52l93 12l79 39l54 47h108l4 -8l-71 -82l-70 -12l-82 -35l-68 -62l-86 -24l-55 -74l-57 -2l-82 -55l-86 -4l-62 18v4zM1520 942l36 88l48 49
l92 27l82 6l77 31l68 22l76 21l41 98l102 -20l92 14l4 -8l-69 -62l-51 -92l-101 33l-63 -45l-62 -39l-75 -39l-58 -57l-78 -56l-67 -4l-92 29zM629 268l22 29l39 10l58 17l2 -5l-33 -69l-25 -43l-61 57zM1585 713l35 67l53 64l72 6l47 41l84 18l80 52l55 2l96 16l62 29
l74 32l86 23l4 -8l-72 -51l-72 -37l-63 -29l-74 -61l-37 -41l-90 -29l-70 -53l-61 -11l-51 -51l-82 2l-74 15zM1595 459l33 67l55 76l66 33h88l72 18l71 33l52 12l100 43l43 15l86 57l55 4l107 31l2 -8l-90 -64l-39 -37l-98 -30l-39 -23l-99 -51l-41 -31l-71 -33l-60 -43
l-57 -67l-68 -29l-94 6l-74 17v4zM1501 156l37 55l49 84l84 22l47 50l88 4l45 18l99 19l65 26l80 31l37 45l100 18l31 47h74l100 46l78 10l4 -6l-59 -54l-99 -47l-47 -57l-55 6l-80 -63h-59l-72 -41l-66 -33l-75 -66l-43 -20l-60 -66l-67 -4l-109 25l-59 -58l-66 7z
M2007 133l31 109l43 39h73l80 32l86 13l58 22l88 31l55 24l96 15l2 -4l-73 -64l-54 -26l-82 -48l-53 -28l-65 -58l-76 -43l-88 33l-43 -37l-76 -12zM2562 133l27 84l59 66l107 -58l4 -6l-66 -35l-67 -47l-62 -6zM2009 1862l16 127l80 -37l121 14l2 -8l-88 -82l-65 6l-64 -22
z" />
    <glyph glyph-name="Aring" unicode="&#xc5;" horiz-adv-x="3330" 
d="M1333 1372l31 92l53 23l119 -2l84 20l2 -4l-72 -51l-73 -90l-52 -27l-90 35zM1427 1157l25 60l57 61l97 29l39 43l90 -7l73 52l93 12l79 39l54 47h108l4 -8l-71 -82l-70 -12l-82 -35l-68 -62l-86 -24l-55 -74l-57 -2l-82 -55l-86 -4l-62 18v4zM1520 942l36 88l48 49
l92 27l82 6l77 31l68 22l76 21l41 98l102 -20l92 14l4 -8l-69 -62l-51 -92l-101 33l-63 -45l-62 -39l-75 -39l-58 -57l-78 -56l-67 -4l-92 29zM629 268l22 29l39 10l58 17l2 -5l-33 -69l-25 -43l-61 57zM1585 713l35 67l53 64l72 6l47 41l84 18l80 52l55 2l96 16l62 29
l74 32l86 23l4 -8l-72 -51l-72 -37l-63 -29l-74 -61l-37 -41l-90 -29l-70 -53l-61 -11l-51 -51l-82 2l-74 15zM1595 459l33 67l55 76l66 33h88l72 18l71 33l52 12l100 43l43 15l86 57l55 4l107 31l2 -8l-90 -64l-39 -37l-98 -30l-39 -23l-99 -51l-41 -31l-71 -33l-60 -43
l-57 -67l-68 -29l-94 6l-74 17v4zM1501 156l37 55l49 84l84 22l47 50l88 4l45 18l99 19l65 26l80 31l37 45l100 18l31 47h74l100 46l78 10l4 -6l-59 -54l-99 -47l-47 -57l-55 6l-80 -63h-59l-72 -41l-66 -33l-75 -66l-43 -20l-60 -66l-67 -4l-109 25l-59 -58l-66 7z
M2007 133l31 109l43 39h73l80 32l86 13l58 22l88 31l55 24l96 15l2 -4l-73 -64l-54 -26l-82 -48l-53 -28l-65 -58l-76 -43l-88 33l-43 -37l-76 -12zM2562 133l27 84l59 66l107 -58l4 -6l-66 -35l-67 -47l-62 -6z" />
    <glyph glyph-name="AE" unicode="&#xc6;" horiz-adv-x="3688" 
d="M1571 1370l24 96l50 23l114 -10l80 16l4 -4l-67 -49l-66 -94l-47 -23l-90 41zM1692 1141l16 80l61 51l107 6l35 51l78 23l96 6l78 39l80 39l94 8l2 -6l-66 -70l-82 -35l-80 -35l-65 -69l-68 -45l-61 6l-74 -78l-78 -14l-71 39zM1753 883l41 67l53 80l56 19l110 20l86 16
l58 9l69 49l111 12l2 -4l-80 -78l-84 -20l-43 -39l-68 -56l-86 -71l-51 -31l-94 10l-78 11zM1743 590l31 24l51 107l47 31l76 14l77 20l89 7l63 28l51 25l109 22l2 -4l-88 -69l-51 -23l-62 -31l-63 -63l-66 -47l-57 -49l-54 -17l-92 -20l-61 43zM3346 1339l-8 86l72 -4
l92 -8l2 -6l-51 -78l-66 -6l-39 12zM1602 238l45 26l61 96l27 52l80 6l63 22l86 27l70 27l82 6l61 35l78 38l82 9l2 -4l-60 -60l-79 -33l-66 -26l-57 -58l-66 -34l-76 -50l-57 -36l-57 -56l-58 13l-88 -33l-71 28zM2861 825l49 56l53 34h86l3 -6l-54 -67l-61 -19l-74 -2z
M2032 154l22 86l64 69l114 -35l105 21l2 -4l-82 -68l-84 -33l-76 -43l-63 3zM3262 152l25 120l113 -8h104l2 -2l-69 -80l-97 -20l-75 -12z" />
    <glyph glyph-name="Ccedilla" unicode="&#xc7;" horiz-adv-x="3129" 
d="M315 1149l60 31l41 45l76 84l77 32l80 11l37 18l100 45l52 15l94 53l61 -4l103 34l2 -6l-86 -71l-43 -31l-103 -39l-43 -31l-98 -47l-39 -18l-57 -53l-76 -39l-88 -60l-59 -6l-91 33v4zM231 819l25 51l74 107l59 31l55 20l95 14l59 11l70 32l98 25l55 16l99 35l65 51
l51 15l76 33l102 16l3 -2l-80 -70l-72 -37l-45 -28l-82 -19l-90 -53l-47 -31l-84 -59l-70 -33l-45 -39l-72 -63l-51 -29l-61 -27l-129 15l-56 14zM276 547l39 74l50 84l55 22l74 23l81 26l72 25l80 10l39 31l92 4l60 37l53 55l92 6l104 19l2 -5l-82 -67l-63 -68l-78 -4
l-65 -22l-64 -68l-47 -10l-59 -55l-64 -39l-74 -45l-65 -41l-53 -29l-97 16l-79 19zM438 330l17 57l90 59l41 46l71 30l70 17l82 10l68 18l71 25l43 22l92 50l80 8l2 -6l-55 -58l-98 -39l-45 -18l-66 -39l-57 -41l-60 -55l-57 -43l-70 -37l-61 -2l-102 -31l-54 25z
M2550 1315l43 119l55 8l154 -6l2 -6l-92 -123l-41 -37l-119 43zM750 184l18 142l78 -39l90 61l88 -4l86 35l88 16l2 -8l-67 -55l-82 -43l-56 -72l-102 -29l-68 17l-73 -25zM1751 -461v123l72 -45l96 2l4 -6l-76 -49l-43 -13l-51 -16z" />
    <glyph glyph-name="Egrave" unicode="&#xc8;" horiz-adv-x="2850" 
d="M545 1466l22 15l17 18l47 6l2 -4l-27 -51l6 -68l-65 80zM635 1241l22 86l74 53l72 35l65 -12l97 27l47 20l67 43l121 12l2 -2l-88 -84l-76 -24l-47 -25l-82 -55l-30 -58l-74 -32l-88 -23l-82 37v2zM670 993l37 103l65 16l47 39l82 41l66 -6l69 35l97 28l57 13l94 43
l76 32l80 17l2 -6l-64 -52l-73 -36l-93 -46l-47 -34l-84 -56l-71 -30l-37 -56l-84 -37l-60 -10l-55 -41l-102 39zM668 725l14 70l53 71l92 2l82 37l68 27l57 18l88 35l72 8l68 41l88 41l90 12l2 -4l-66 -63l-88 -41l-74 -25l-53 -51l-84 -45l-51 -31l-63 -36l-82 -37
l-60 -70l-90 6l-61 33zM2187 1438l45 26l43 13l66 28l2 -4l-51 -63l-51 8l-50 -14zM629 442l28 74l48 82h77l97 4l47 10l75 50l50 40l86 21l80 18l59 45l78 21l86 14l2 -4l-66 -59l-65 -45l-74 -17l-66 -49l-69 -53l-64 -10l-86 -27l-39 -31l-63 -69l-51 -62l-92 17l-78 26
v4zM2472 1305l10 69l58 15l79 -17l2 -6l-36 -74h-66l-45 6zM537 135l26 64l60 82l53 32l112 -18l50 57l94 13l69 32l60 21l61 18l97 47l24 66l84 -25l113 31l2 -4l-94 -68l-37 -80l-66 23l-100 -43l-51 -35l-54 -33l-69 -30l-72 -66l-74 -2l-100 -10l-49 -41l-90 -14
l-45 -21zM1960 797l43 94l90 4l96 10l2 -4l-67 -70l-62 -65l-100 27zM1108 133l33 84l45 45l102 -4l55 21l97 12l2 -6l-70 -66l-51 -31l-96 -10l-49 -35l-66 -12zM2249 133l32 98l80 37l86 2l62 2l110 37l2 -6l-98 -63l-41 -47l-80 -15l-75 -43l-76 -4zM940 1999l45 22
l35 27l82 23l2 -5l-62 -65l-53 8l-45 -18zM1382 1933l-4 68l52 -19l45 -8l2 -4l-25 -39l-35 -12l-33 8z" />
    <glyph glyph-name="Eacute" unicode="&#xc9;" horiz-adv-x="2850" 
d="M545 1466l22 15l17 18l47 6l2 -4l-27 -51l6 -68l-65 80zM635 1241l22 86l74 53l72 35l65 -12l97 27l47 20l67 43l121 12l2 -2l-88 -84l-76 -24l-47 -25l-82 -55l-30 -58l-74 -32l-88 -23l-82 37v2zM670 993l37 103l65 16l47 39l82 41l66 -6l69 35l97 28l57 13l94 43
l76 32l80 17l2 -6l-64 -52l-73 -36l-93 -46l-47 -34l-84 -56l-71 -30l-37 -56l-84 -37l-60 -10l-55 -41l-102 39zM668 725l14 70l53 71l92 2l82 37l68 27l57 18l88 35l72 8l68 41l88 41l90 12l2 -4l-66 -63l-88 -41l-74 -25l-53 -51l-84 -45l-51 -31l-63 -36l-82 -37
l-60 -70l-90 6l-61 33zM2187 1438l45 26l43 13l66 28l2 -4l-51 -63l-51 8l-50 -14zM629 442l28 74l48 82h77l97 4l47 10l75 50l50 40l86 21l80 18l59 45l78 21l86 14l2 -4l-66 -59l-65 -45l-74 -17l-66 -49l-69 -53l-64 -10l-86 -27l-39 -31l-63 -69l-51 -62l-92 17l-78 26
v4zM2472 1305l10 69l58 15l79 -17l2 -6l-36 -74h-66l-45 6zM537 135l26 64l60 82l53 32l112 -18l50 57l94 13l69 32l60 21l61 18l97 47l24 66l84 -25l113 31l2 -4l-94 -68l-37 -80l-66 23l-100 -43l-51 -35l-54 -33l-69 -30l-72 -66l-74 -2l-100 -10l-49 -41l-90 -14
l-45 -21zM1960 797l43 94l90 4l96 10l2 -4l-67 -70l-62 -65l-100 27zM1108 133l33 84l45 45l102 -4l55 21l97 12l2 -6l-70 -66l-51 -31l-96 -10l-49 -35l-66 -12zM2249 133l32 98l80 37l86 2l62 2l110 37l2 -6l-98 -63l-41 -47l-80 -15l-75 -43l-76 -4zM1956 1950l63 32
l39 56l125 16l4 -6l-94 -84l-68 4l-67 -24z" />
    <glyph glyph-name="Ecircumflex" unicode="&#xca;" horiz-adv-x="2850" 
d="M545 1466l22 15l17 18l47 6l2 -4l-27 -51l6 -68l-65 80zM635 1241l22 86l74 53l72 35l65 -12l97 27l47 20l67 43l121 12l2 -2l-88 -84l-76 -24l-47 -25l-82 -55l-30 -58l-74 -32l-88 -23l-82 37v2zM670 993l37 103l65 16l47 39l82 41l66 -6l69 35l97 28l57 13l94 43
l76 32l80 17l2 -6l-64 -52l-73 -36l-93 -46l-47 -34l-84 -56l-71 -30l-37 -56l-84 -37l-60 -10l-55 -41l-102 39zM668 725l14 70l53 71l92 2l82 37l68 27l57 18l88 35l72 8l68 41l88 41l90 12l2 -4l-66 -63l-88 -41l-74 -25l-53 -51l-84 -45l-51 -31l-63 -36l-82 -37
l-60 -70l-90 6l-61 33zM2187 1438l45 26l43 13l66 28l2 -4l-51 -63l-51 8l-50 -14zM629 442l28 74l48 82h77l97 4l47 10l75 50l50 40l86 21l80 18l59 45l78 21l86 14l2 -4l-66 -59l-65 -45l-74 -17l-66 -49l-69 -53l-64 -10l-86 -27l-39 -31l-63 -69l-51 -62l-92 17l-78 26
v4zM2472 1305l10 69l58 15l79 -17l2 -6l-36 -74h-66l-45 6zM537 135l26 64l60 82l53 32l112 -18l50 57l94 13l69 32l60 21l61 18l97 47l24 66l84 -25l113 31l2 -4l-94 -68l-37 -80l-66 23l-100 -43l-51 -35l-54 -33l-69 -30l-72 -66l-74 -2l-100 -10l-49 -41l-90 -14
l-45 -21zM1960 797l43 94l90 4l96 10l2 -4l-67 -70l-62 -65l-100 27zM1108 133l33 84l45 45l102 -4l55 21l97 12l2 -6l-70 -66l-51 -31l-96 -10l-49 -35l-66 -12zM2249 133l32 98l80 37l86 2l62 2l110 37l2 -6l-98 -63l-41 -47l-80 -15l-75 -43l-76 -4z" />
    <glyph glyph-name="Edieresis" unicode="&#xcb;" horiz-adv-x="2850" 
d="M545 1466l22 15l17 18l47 6l2 -4l-27 -51l6 -68l-65 80zM635 1241l22 86l74 53l72 35l65 -12l97 27l47 20l67 43l121 12l2 -2l-88 -84l-76 -24l-47 -25l-82 -55l-30 -58l-74 -32l-88 -23l-82 37v2zM670 993l37 103l65 16l47 39l82 41l66 -6l69 35l97 28l57 13l94 43
l76 32l80 17l2 -6l-64 -52l-73 -36l-93 -46l-47 -34l-84 -56l-71 -30l-37 -56l-84 -37l-60 -10l-55 -41l-102 39zM668 725l14 70l53 71l92 2l82 37l68 27l57 18l88 35l72 8l68 41l88 41l90 12l2 -4l-66 -63l-88 -41l-74 -25l-53 -51l-84 -45l-51 -31l-63 -36l-82 -37
l-60 -70l-90 6l-61 33zM2187 1438l45 26l43 13l66 28l2 -4l-51 -63l-51 8l-50 -14zM629 442l28 74l48 82h77l97 4l47 10l75 50l50 40l86 21l80 18l59 45l78 21l86 14l2 -4l-66 -59l-65 -45l-74 -17l-66 -49l-69 -53l-64 -10l-86 -27l-39 -31l-63 -69l-51 -62l-92 17l-78 26
v4zM2472 1305l10 69l58 15l79 -17l2 -6l-36 -74h-66l-45 6zM537 135l26 64l60 82l53 32l112 -18l50 57l94 13l69 32l60 21l61 18l97 47l24 66l84 -25l113 31l2 -4l-94 -68l-37 -80l-66 23l-100 -43l-51 -35l-54 -33l-69 -30l-72 -66l-74 -2l-100 -10l-49 -41l-90 -14
l-45 -21zM1960 797l43 94l90 4l96 10l2 -4l-67 -70l-62 -65l-100 27zM1108 133l33 84l45 45l102 -4l55 21l97 12l2 -6l-70 -66l-51 -31l-96 -10l-49 -35l-66 -12zM2249 133l32 98l80 37l86 2l62 2l110 37l2 -6l-98 -63l-41 -47l-80 -15l-75 -43l-76 -4zM1769 1862l17 127
l80 -37l121 14l2 -8l-88 -82l-66 6l-63 -22z" />
    <glyph glyph-name="Igrave" unicode="&#xcc;" horiz-adv-x="2129" 
d="M549 1462l24 17l19 18l49 8l2 -4l-31 -51l4 -64l-67 72v4zM639 1257l23 80l69 49l68 33l61 -12l90 27l47 18l62 41l115 12l2 -2l-84 -80l-72 -22l-43 -23l-78 -53l-31 -53l-69 -31l-82 -22l-76 34zM668 1022l47 70l41 65l49 27l82 30l59 5l74 14l84 43l57 8l94 31l70 37
l39 34l76 21l96 23l2 -7l-78 -61l-63 -45l-54 -6l-71 -31l-84 -51l-43 -39l-88 -39l-58 -47l-41 -41l-77 -43l-52 -23l-75 13l-86 8v4zM670 774l16 55l70 78l61 35l86 2l90 39l47 18l99 35l57 62l90 -6l33 45h129v-4l-82 -97l-55 4l-54 -73l-83 -4l-91 -54l-45 -24l-88 -45
l-55 -64l-66 -24l-104 -4l-53 22zM653 518l23 57l65 84l76 23l74 33l82 2l88 24l51 11l84 39l53 43l82 34l101 15l2 -4l-74 -70l-82 -39l-66 -14l-84 -39l-41 -31l-75 -55l-54 -62l-73 -34l-66 -43l-106 4l-58 18zM580 236l47 71l37 39l86 41l34 43l78 12l74 27l90 10l23 53
l112 -8l49 25l66 51l78 18l84 21l2 -6l-68 -55l-63 -46l-82 -18l-51 -22l-66 -91l-55 17l-66 -64l-69 -39l-58 -51l-55 2l-88 -39l-53 -6l-84 8zM893 135l27 70l57 51l76 43l69 8l101 21l75 55l54 37l116 -14l5 -9l-64 -100l-63 -14l-91 -25l-81 -63l-52 -50l-100 17
l-74 -17l-53 -14zM1425 133l-2 82l74 -22l51 2l4 -9l-34 -39l-52 -26l-39 10zM580 1999l45 22l34 27l82 23l2 -5l-61 -65l-53 8l-45 -18zM1022 1933l-4 68l51 -19l45 -8l2 -4l-24 -39l-35 -12l-33 8z" />
    <glyph glyph-name="Iacute" unicode="&#xcd;" horiz-adv-x="2129" 
d="M549 1462l24 17l19 18l49 8l2 -4l-31 -51l4 -64l-67 72v4zM639 1257l23 80l69 49l68 33l61 -12l90 27l47 18l62 41l115 12l2 -2l-84 -80l-72 -22l-43 -23l-78 -53l-31 -53l-69 -31l-82 -22l-76 34zM668 1022l47 70l41 65l49 27l82 30l59 5l74 14l84 43l57 8l94 31l70 37
l39 34l76 21l96 23l2 -7l-78 -61l-63 -45l-54 -6l-71 -31l-84 -51l-43 -39l-88 -39l-58 -47l-41 -41l-77 -43l-52 -23l-75 13l-86 8v4zM670 774l16 55l70 78l61 35l86 2l90 39l47 18l99 35l57 62l90 -6l33 45h129v-4l-82 -97l-55 4l-54 -73l-83 -4l-91 -54l-45 -24l-88 -45
l-55 -64l-66 -24l-104 -4l-53 22zM653 518l23 57l65 84l76 23l74 33l82 2l88 24l51 11l84 39l53 43l82 34l101 15l2 -4l-74 -70l-82 -39l-66 -14l-84 -39l-41 -31l-75 -55l-54 -62l-73 -34l-66 -43l-106 4l-58 18zM580 236l47 71l37 39l86 41l34 43l78 12l74 27l90 10l23 53
l112 -8l49 25l66 51l78 18l84 21l2 -6l-68 -55l-63 -46l-82 -18l-51 -22l-66 -91l-55 17l-66 -64l-69 -39l-58 -51l-55 2l-88 -39l-53 -6l-84 8zM893 135l27 70l57 51l76 43l69 8l101 21l75 55l54 37l116 -14l5 -9l-64 -100l-63 -14l-91 -25l-81 -63l-52 -50l-100 17
l-74 -17l-53 -14zM1425 133l-2 82l74 -22l51 2l4 -9l-34 -39l-52 -26l-39 10zM1452 1950l64 32l38 56l125 16l4 -6l-94 -84l-67 4l-68 -24z" />
    <glyph glyph-name="Icircumflex" unicode="&#xce;" horiz-adv-x="2129" 
d="M549 1462l24 17l19 18l49 8l2 -4l-31 -51l4 -64l-67 72v4zM639 1257l23 80l69 49l68 33l61 -12l90 27l47 18l62 41l115 12l2 -2l-84 -80l-72 -22l-43 -23l-78 -53l-31 -53l-69 -31l-82 -22l-76 34zM668 1022l47 70l41 65l49 27l82 30l59 5l74 14l84 43l57 8l94 31l70 37
l39 34l76 21l96 23l2 -7l-78 -61l-63 -45l-54 -6l-71 -31l-84 -51l-43 -39l-88 -39l-58 -47l-41 -41l-77 -43l-52 -23l-75 13l-86 8v4zM670 774l16 55l70 78l61 35l86 2l90 39l47 18l99 35l57 62l90 -6l33 45h129v-4l-82 -97l-55 4l-54 -73l-83 -4l-91 -54l-45 -24l-88 -45
l-55 -64l-66 -24l-104 -4l-53 22zM653 518l23 57l65 84l76 23l74 33l82 2l88 24l51 11l84 39l53 43l82 34l101 15l2 -4l-74 -70l-82 -39l-66 -14l-84 -39l-41 -31l-75 -55l-54 -62l-73 -34l-66 -43l-106 4l-58 18zM580 236l47 71l37 39l86 41l34 43l78 12l74 27l90 10l23 53
l112 -8l49 25l66 51l78 18l84 21l2 -6l-68 -55l-63 -46l-82 -18l-51 -22l-66 -91l-55 17l-66 -64l-69 -39l-58 -51l-55 2l-88 -39l-53 -6l-84 8zM893 135l27 70l57 51l76 43l69 8l101 21l75 55l54 37l116 -14l5 -9l-64 -100l-63 -14l-91 -25l-81 -63l-52 -50l-100 17
l-74 -17l-53 -14zM1425 133l-2 82l74 -22l51 2l4 -9l-34 -39l-52 -26l-39 10z" />
    <glyph glyph-name="Idieresis" unicode="&#xcf;" horiz-adv-x="2129" 
d="M549 1462l24 17l19 18l49 8l2 -4l-31 -51l4 -64l-67 72v4zM639 1257l23 80l69 49l68 33l61 -12l90 27l47 18l62 41l115 12l2 -2l-84 -80l-72 -22l-43 -23l-78 -53l-31 -53l-69 -31l-82 -22l-76 34zM668 1022l47 70l41 65l49 27l82 30l59 5l74 14l84 43l57 8l94 31l70 37
l39 34l76 21l96 23l2 -7l-78 -61l-63 -45l-54 -6l-71 -31l-84 -51l-43 -39l-88 -39l-58 -47l-41 -41l-77 -43l-52 -23l-75 13l-86 8v4zM670 774l16 55l70 78l61 35l86 2l90 39l47 18l99 35l57 62l90 -6l33 45h129v-4l-82 -97l-55 4l-54 -73l-83 -4l-91 -54l-45 -24l-88 -45
l-55 -64l-66 -24l-104 -4l-53 22zM653 518l23 57l65 84l76 23l74 33l82 2l88 24l51 11l84 39l53 43l82 34l101 15l2 -4l-74 -70l-82 -39l-66 -14l-84 -39l-41 -31l-75 -55l-54 -62l-73 -34l-66 -43l-106 4l-58 18zM580 236l47 71l37 39l86 41l34 43l78 12l74 27l90 10l23 53
l112 -8l49 25l66 51l78 18l84 21l2 -6l-68 -55l-63 -46l-82 -18l-51 -22l-66 -91l-55 17l-66 -64l-69 -39l-58 -51l-55 2l-88 -39l-53 -6l-84 8zM893 135l27 70l57 51l76 43l69 8l101 21l75 55l54 37l116 -14l5 -9l-64 -100l-63 -14l-91 -25l-81 -63l-52 -50l-100 17
l-74 -17l-53 -14zM1425 133l-2 82l74 -22l51 2l4 -9l-34 -39l-52 -26l-39 10zM1430 1862l16 127l80 -37l121 14l2 -8l-88 -82l-66 6l-63 -22z" />
    <glyph glyph-name="Eth" unicode="&#xd0;" horiz-adv-x="3223" 
d="M602 1362l37 92l57 23l125 2l90 26l4 -4l-79 -51l-84 -94l-54 -29l-96 31v4zM653 1135l25 59l55 59l92 27l39 41l88 -6l70 51l88 12l78 35l53 45l105 2l2 -6l-68 -80l-68 -12l-77 -37l-66 -59l-84 -21l-53 -71l-53 -5l-82 -53l-82 -4l-60 18zM670 893l35 86l43 47l88 23
l75 4l76 30l64 23l71 16l37 95l98 -19l89 10l2 -4l-66 -63l-47 -86l-96 30l-60 -43l-57 -34l-72 -37l-53 -56l-74 -53l-63 -2l-88 29zM662 637l26 76l49 53l66 37l104 2l43 24l94 35l56 60l88 -6l33 40l125 -2l2 -4l-78 -96l-56 2l-51 -72l-80 -4l-88 -51l-47 -16l-67 -78
l-72 -27l-72 -4l-75 27v4zM2181 1348l23 90l84 8l133 12l2 -4l-96 -94l-60 -60l-84 43zM616 367l35 22l76 86l43 41l74 31l67 20l80 13l68 20l71 27l44 20l94 49l78 13l2 -7l-58 -53l-100 -41l-43 -18l-66 -39l-59 -39l-61 -53l-58 -39l-72 -37l-59 -4l-96 -43l-58 26z
M2255 1130l35 95l47 2l90 49l53 18l90 9l66 47l96 2l2 -2l-63 -74l-80 -19l-64 -63l-49 -29l-94 -39l-33 -34l-96 34v4zM655 133l43 86l50 25l59 45l96 26l80 9l43 34l98 27l64 29l41 45l117 -2l2 -4l-74 -95h-62l-61 -30l-84 -58l-53 -10l-60 -57l-80 -56l-98 37l-51 -24
l-68 -29zM2275 889l19 76l80 51l96 6l51 45l94 35l64 16l63 19l99 53l90 6l2 -6l-64 -64l-102 -41l-55 -38l-54 -37l-88 -52l-65 -10l-68 -69l-90 -29l-70 37zM1192 133l18 94l45 -14l91 -6l2 -6l-68 -41l-33 -10l-53 -19zM2263 633l37 78l31 67l98 13l57 24l84 4l80 31
l82 33l78 24l43 35l53 57l123 -10v-4l-70 -98l-80 -4l-53 -13l-67 -43l-80 -41l-74 -41l-57 -63l-56 -27l-73 -67l-70 20l-82 19zM2198 352l36 68l62 76h47l98 30l56 45l83 7l68 28l66 15l77 26l72 45l74 25l90 24l2 -6l-76 -55l-65 -41l-80 -25l-72 -43l-53 -43l-66 -32
l-57 -60l-72 -14l-86 -55l-30 -35l-97 2l-75 12zM2339 168l20 78l74 65l72 -10l73 35l88 12l50 27l114 24l2 -6l-102 -51l-41 -43l-84 -23l-78 -28l-53 -29l-86 -35l-47 -20z" />
    <glyph glyph-name="Ntilde" unicode="&#xd1;" horiz-adv-x="3452" 
d="M647 1288l25 96l49 19l94 33l80 20h80l29 31l112 18l2 -4l-88 -74l-41 -2l-51 -61l-68 -47l-84 -51l-47 -27l-90 45zM860 1118l29 70l49 41l82 47l74 16l75 19l70 30l61 41l78 2l68 27l41 37l100 33l76 12l2 -6l-57 -47l-90 -58l-56 -8l-63 -35l-51 -57l-72 -22l-68 -31
l-61 -47l-62 -47l-88 -33l-63 -10l-72 22zM1051 938l28 82l45 35l78 47l45 31h90l76 45l55 10l80 12l78 25l68 55l67 23l94 14l5 -8l-72 -66l-62 -35l-86 -16l-69 -45l-58 -51l-45 -37l-82 -29l-59 -69l-53 -15l-84 -28l-57 -13l-80 29zM1233 756l20 67l62 90l90 -2l68 37
l77 15l52 24l61 21l74 24l61 51l72 11l88 26l94 17v-4l-72 -62l-77 -49l-54 -49l-77 -12l-68 -41l-55 -35l-54 -23l-59 -51l-72 -29l-57 -69l-107 10l-65 29zM2673 1425l20 45l70 11l80 24l2 -2l-60 -71l-35 -82l-75 73zM475 133l39 37l74 72l88 -15l2 -4l-45 -78l-103 -8
l-53 -6zM1415 571l33 95l51 22l64 68l92 -6l88 20l51 43l84 18l35 43l106 3l62 43l84 22l80 16l2 -4l-66 -49l-70 -49l-71 -20l-72 -80h-55l-68 -51l-65 -13l-72 -53l-55 -76l-92 -4l-52 -27l-92 37zM1597 389l17 62l72 69l83 37l35 31l94 -2l74 43l90 35l82 8l70 39l45 24
l98 37l84 10l2 -6l-61 -55l-92 -51l-47 -19l-76 -30l-58 -58l-86 -45l-79 -29l-60 -73l-45 -6l-82 -41l-100 -13l-58 29zM1780 205l24 57l51 53l95 52l69 39l52 2l86 28l41 62l118 -9l62 25l73 37l58 20l88 37l86 19l2 -6l-70 -54l-84 -43l-53 -30l-76 -33l-59 -31l-70 -96
l-71 6l-78 -47l-35 -37l-76 -29l-98 -39l-74 -4l-59 19zM2202 135l18 53l61 86l80 45l76 -24l96 24l54 48l104 -2l2 -7l-63 -84l-70 -10l-80 -57l-33 -74l-125 53l-75 -53l-43 -2z" />
    <glyph glyph-name="Ograve" unicode="&#xd2;" horiz-adv-x="3098" 
d="M319 1171l56 29l39 45l71 80l74 33l76 8l35 16l94 45l49 11l90 51l49 12l107 15l2 -5l-80 -69l-41 -31l-96 -35l-41 -30l-94 -46l-35 -16l-56 -51l-73 -35l-82 -57l-55 -8l-86 34zM233 844l23 49l68 102l55 31l53 18l90 13l53 8l66 31l94 24l51 15l95 32l61 50l49 12
l70 31l98 14v-4l-74 -66l-67 -35l-41 -28l-78 -15l-84 -51l-45 -31l-78 -55l-65 -31l-43 -36l-68 -60l-47 -28l-59 -25l-121 14l-53 17zM266 569l37 72l47 80l53 24l72 23l78 25l70 24l77 8l37 29l90 4l58 35l49 55l90 4l100 17l2 -2l-77 -68l-60 -65l-76 -5l-63 -20
l-59 -66l-48 -10l-55 -53l-63 -39l-70 -43l-63 -41l-52 -25l-94 15l-78 18zM1923 1341v105l123 16h70l102 17l4 -4l-80 -68l-45 -51l-94 -86l-78 67zM416 350l16 88l78 19l61 49l80 20l86 21l60 41l96 18l45 21l57 106l127 -51l2 -6l-41 -133l-116 24l-47 -20l-74 -62
l-70 -20l-71 -53l-68 -47l-78 -17l-63 -47l-78 45zM1964 1071l16 74l66 80l65 24l99 -12l28 59l115 -14l25 61l76 -8l114 19v-4l-86 -76l-41 -64l-63 21l-64 -98l-63 16l-53 -82l-62 -35l-102 2l-68 35zM715 201l12 129l53 22l127 -10l43 16l84 27l115 21l2 -7l-88 -77
l-74 -46l-41 -22l-117 -12l-47 -37l-67 -8zM1976 788l21 78l61 82l53 25l60 12l102 21l41 16l101 27l45 10l82 12l75 59l49 21l103 6l2 -2l-72 -76l-47 -22l-94 -23l-61 -53l-37 -29l-84 -59l-41 -21l-80 -65l-49 -37l-52 -25l-104 5l-72 32zM1962 492l29 59l51 65l57 31
l92 25l74 24l64 19l100 24l53 45l68 58l73 -21l72 64l60 14l98 12l2 -6l-72 -69l-49 -37l-94 -15l-31 -69l-88 -15l-67 -12l-84 -59l-56 -39l-65 -41l-78 -53l-62 -25l-81 2l-66 16v3zM1886 168l45 82l31 39l76 53l90 18l47 29l72 19l77 32l86 15l48 30h73l82 50l53 43
l70 26l107 12l2 -6l-76 -73l-66 -37l-67 -15l-92 -30l-47 -56l-54 -18l-65 -55l-76 -37l-59 -45l-54 -19l-71 -55l-88 -25l-50 2l-90 17zM1063 1999l45 22l35 27l82 23l2 -5l-62 -65l-53 8l-45 -18zM1505 1933l-4 68l51 -19l45 -8l2 -4l-24 -39l-35 -12l-33 8z" />
    <glyph glyph-name="Oacute" unicode="&#xd3;" horiz-adv-x="3098" 
d="M319 1171l56 29l39 45l71 80l74 33l76 8l35 16l94 45l49 11l90 51l49 12l107 15l2 -5l-80 -69l-41 -31l-96 -35l-41 -30l-94 -46l-35 -16l-56 -51l-73 -35l-82 -57l-55 -8l-86 34zM233 844l23 49l68 102l55 31l53 18l90 13l53 8l66 31l94 24l51 15l95 32l61 50l49 12
l70 31l98 14v-4l-74 -66l-67 -35l-41 -28l-78 -15l-84 -51l-45 -31l-78 -55l-65 -31l-43 -36l-68 -60l-47 -28l-59 -25l-121 14l-53 17zM266 569l37 72l47 80l53 24l72 23l78 25l70 24l77 8l37 29l90 4l58 35l49 55l90 4l100 17l2 -2l-77 -68l-60 -65l-76 -5l-63 -20
l-59 -66l-48 -10l-55 -53l-63 -39l-70 -43l-63 -41l-52 -25l-94 15l-78 18zM1923 1341v105l123 16h70l102 17l4 -4l-80 -68l-45 -51l-94 -86l-78 67zM416 350l16 88l78 19l61 49l80 20l86 21l60 41l96 18l45 21l57 106l127 -51l2 -6l-41 -133l-116 24l-47 -20l-74 -62
l-70 -20l-71 -53l-68 -47l-78 -17l-63 -47l-78 45zM1964 1071l16 74l66 80l65 24l99 -12l28 59l115 -14l25 61l76 -8l114 19v-4l-86 -76l-41 -64l-63 21l-64 -98l-63 16l-53 -82l-62 -35l-102 2l-68 35zM715 201l12 129l53 22l127 -10l43 16l84 27l115 21l2 -7l-88 -77
l-74 -46l-41 -22l-117 -12l-47 -37l-67 -8zM1976 788l21 78l61 82l53 25l60 12l102 21l41 16l101 27l45 10l82 12l75 59l49 21l103 6l2 -2l-72 -76l-47 -22l-94 -23l-61 -53l-37 -29l-84 -59l-41 -21l-80 -65l-49 -37l-52 -25l-104 5l-72 32zM1962 492l29 59l51 65l57 31
l92 25l74 24l64 19l100 24l53 45l68 58l73 -21l72 64l60 14l98 12l2 -6l-72 -69l-49 -37l-94 -15l-31 -69l-88 -15l-67 -12l-84 -59l-56 -39l-65 -41l-78 -53l-62 -25l-81 2l-66 16v3zM1886 168l45 82l31 39l76 53l90 18l47 29l72 19l77 32l86 15l48 30h73l82 50l53 43
l70 26l107 12l2 -6l-76 -73l-66 -37l-67 -15l-92 -30l-47 -56l-54 -18l-65 -55l-76 -37l-59 -45l-54 -19l-71 -55l-88 -25l-50 2l-90 17zM2079 1950l63 32l39 56l125 16l4 -6l-94 -84l-68 4l-67 -24z" />
    <glyph glyph-name="Ocircumflex" unicode="&#xd4;" horiz-adv-x="3098" 
d="M319 1171l56 29l39 45l71 80l74 33l76 8l35 16l94 45l49 11l90 51l49 12l107 15l2 -5l-80 -69l-41 -31l-96 -35l-41 -30l-94 -46l-35 -16l-56 -51l-73 -35l-82 -57l-55 -8l-86 34zM233 844l23 49l68 102l55 31l53 18l90 13l53 8l66 31l94 24l51 15l95 32l61 50l49 12
l70 31l98 14v-4l-74 -66l-67 -35l-41 -28l-78 -15l-84 -51l-45 -31l-78 -55l-65 -31l-43 -36l-68 -60l-47 -28l-59 -25l-121 14l-53 17zM266 569l37 72l47 80l53 24l72 23l78 25l70 24l77 8l37 29l90 4l58 35l49 55l90 4l100 17l2 -2l-77 -68l-60 -65l-76 -5l-63 -20
l-59 -66l-48 -10l-55 -53l-63 -39l-70 -43l-63 -41l-52 -25l-94 15l-78 18zM1923 1341v105l123 16h70l102 17l4 -4l-80 -68l-45 -51l-94 -86l-78 67zM416 350l16 88l78 19l61 49l80 20l86 21l60 41l96 18l45 21l57 106l127 -51l2 -6l-41 -133l-116 24l-47 -20l-74 -62
l-70 -20l-71 -53l-68 -47l-78 -17l-63 -47l-78 45zM1964 1071l16 74l66 80l65 24l99 -12l28 59l115 -14l25 61l76 -8l114 19v-4l-86 -76l-41 -64l-63 21l-64 -98l-63 16l-53 -82l-62 -35l-102 2l-68 35zM715 201l12 129l53 22l127 -10l43 16l84 27l115 21l2 -7l-88 -77
l-74 -46l-41 -22l-117 -12l-47 -37l-67 -8zM1976 788l21 78l61 82l53 25l60 12l102 21l41 16l101 27l45 10l82 12l75 59l49 21l103 6l2 -2l-72 -76l-47 -22l-94 -23l-61 -53l-37 -29l-84 -59l-41 -21l-80 -65l-49 -37l-52 -25l-104 5l-72 32zM1962 492l29 59l51 65l57 31
l92 25l74 24l64 19l100 24l53 45l68 58l73 -21l72 64l60 14l98 12l2 -6l-72 -69l-49 -37l-94 -15l-31 -69l-88 -15l-67 -12l-84 -59l-56 -39l-65 -41l-78 -53l-62 -25l-81 2l-66 16v3zM1886 168l45 82l31 39l76 53l90 18l47 29l72 19l77 32l86 15l48 30h73l82 50l53 43
l70 26l107 12l2 -6l-76 -73l-66 -37l-67 -15l-92 -30l-47 -56l-54 -18l-65 -55l-76 -37l-59 -45l-54 -19l-71 -55l-88 -25l-50 2l-90 17z" />
    <glyph glyph-name="Otilde" unicode="&#xd5;" horiz-adv-x="3098" 
d="M319 1171l56 29l39 45l71 80l74 33l76 8l35 16l94 45l49 11l90 51l49 12l107 15l2 -5l-80 -69l-41 -31l-96 -35l-41 -30l-94 -46l-35 -16l-56 -51l-73 -35l-82 -57l-55 -8l-86 34zM233 844l23 49l68 102l55 31l53 18l90 13l53 8l66 31l94 24l51 15l95 32l61 50l49 12
l70 31l98 14v-4l-74 -66l-67 -35l-41 -28l-78 -15l-84 -51l-45 -31l-78 -55l-65 -31l-43 -36l-68 -60l-47 -28l-59 -25l-121 14l-53 17zM266 569l37 72l47 80l53 24l72 23l78 25l70 24l77 8l37 29l90 4l58 35l49 55l90 4l100 17l2 -2l-77 -68l-60 -65l-76 -5l-63 -20
l-59 -66l-48 -10l-55 -53l-63 -39l-70 -43l-63 -41l-52 -25l-94 15l-78 18zM1923 1341v105l123 16h70l102 17l4 -4l-80 -68l-45 -51l-94 -86l-78 67zM416 350l16 88l78 19l61 49l80 20l86 21l60 41l96 18l45 21l57 106l127 -51l2 -6l-41 -133l-116 24l-47 -20l-74 -62
l-70 -20l-71 -53l-68 -47l-78 -17l-63 -47l-78 45zM1964 1071l16 74l66 80l65 24l99 -12l28 59l115 -14l25 61l76 -8l114 19v-4l-86 -76l-41 -64l-63 21l-64 -98l-63 16l-53 -82l-62 -35l-102 2l-68 35zM715 201l12 129l53 22l127 -10l43 16l84 27l115 21l2 -7l-88 -77
l-74 -46l-41 -22l-117 -12l-47 -37l-67 -8zM1976 788l21 78l61 82l53 25l60 12l102 21l41 16l101 27l45 10l82 12l75 59l49 21l103 6l2 -2l-72 -76l-47 -22l-94 -23l-61 -53l-37 -29l-84 -59l-41 -21l-80 -65l-49 -37l-52 -25l-104 5l-72 32zM1962 492l29 59l51 65l57 31
l92 25l74 24l64 19l100 24l53 45l68 58l73 -21l72 64l60 14l98 12l2 -6l-72 -69l-49 -37l-94 -15l-31 -69l-88 -15l-67 -12l-84 -59l-56 -39l-65 -41l-78 -53l-62 -25l-81 2l-66 16v3zM1886 168l45 82l31 39l76 53l90 18l47 29l72 19l77 32l86 15l48 30h73l82 50l53 43
l70 26l107 12l2 -6l-76 -73l-66 -37l-67 -15l-92 -30l-47 -56l-54 -18l-65 -55l-76 -37l-59 -45l-54 -19l-71 -55l-88 -25l-50 2l-90 17z" />
    <glyph glyph-name="Odieresis" unicode="&#xd6;" horiz-adv-x="3098" 
d="M319 1171l56 29l39 45l71 80l74 33l76 8l35 16l94 45l49 11l90 51l49 12l107 15l2 -5l-80 -69l-41 -31l-96 -35l-41 -30l-94 -46l-35 -16l-56 -51l-73 -35l-82 -57l-55 -8l-86 34zM233 844l23 49l68 102l55 31l53 18l90 13l53 8l66 31l94 24l51 15l95 32l61 50l49 12
l70 31l98 14v-4l-74 -66l-67 -35l-41 -28l-78 -15l-84 -51l-45 -31l-78 -55l-65 -31l-43 -36l-68 -60l-47 -28l-59 -25l-121 14l-53 17zM266 569l37 72l47 80l53 24l72 23l78 25l70 24l77 8l37 29l90 4l58 35l49 55l90 4l100 17l2 -2l-77 -68l-60 -65l-76 -5l-63 -20
l-59 -66l-48 -10l-55 -53l-63 -39l-70 -43l-63 -41l-52 -25l-94 15l-78 18zM1923 1341v105l123 16h70l102 17l4 -4l-80 -68l-45 -51l-94 -86l-78 67zM416 350l16 88l78 19l61 49l80 20l86 21l60 41l96 18l45 21l57 106l127 -51l2 -6l-41 -133l-116 24l-47 -20l-74 -62
l-70 -20l-71 -53l-68 -47l-78 -17l-63 -47l-78 45zM1964 1071l16 74l66 80l65 24l99 -12l28 59l115 -14l25 61l76 -8l114 19v-4l-86 -76l-41 -64l-63 21l-64 -98l-63 16l-53 -82l-62 -35l-102 2l-68 35zM715 201l12 129l53 22l127 -10l43 16l84 27l115 21l2 -7l-88 -77
l-74 -46l-41 -22l-117 -12l-47 -37l-67 -8zM1976 788l21 78l61 82l53 25l60 12l102 21l41 16l101 27l45 10l82 12l75 59l49 21l103 6l2 -2l-72 -76l-47 -22l-94 -23l-61 -53l-37 -29l-84 -59l-41 -21l-80 -65l-49 -37l-52 -25l-104 5l-72 32zM1962 492l29 59l51 65l57 31
l92 25l74 24l64 19l100 24l53 45l68 58l73 -21l72 64l60 14l98 12l2 -6l-72 -69l-49 -37l-94 -15l-31 -69l-88 -15l-67 -12l-84 -59l-56 -39l-65 -41l-78 -53l-62 -25l-81 2l-66 16v3zM1886 168l45 82l31 39l76 53l90 18l47 29l72 19l77 32l86 15l48 30h73l82 50l53 43
l70 26l107 12l2 -6l-76 -73l-66 -37l-67 -15l-92 -30l-47 -56l-54 -18l-65 -55l-76 -37l-59 -45l-54 -19l-71 -55l-88 -25l-50 2l-90 17zM1892 1862l17 127l80 -37l120 14l2 -8l-88 -82l-65 6l-64 -22z" />
    <glyph glyph-name="multiply" unicode="&#xd7;" horiz-adv-x="2050" 
d="M846 1444l67 37l48 53l131 25l2 -5l-105 -84l-35 -77l-106 47zM135 874l29 80l86 31l72 39l102 -12l4 -6l-55 -88l-78 -29l-78 -49l-80 30zM1001 1280l31 55l68 27l82 2l2 -6l-54 -62l-73 -14l-53 -6zM668 645l26 45l58 70l82 47l69 -12l62 34l49 54l80 -21l80 53l90 9
l2 -6l-64 -62l-92 -27l-37 -75l-72 -2l-65 -27l-37 -59l-88 -35l-90 4l-51 6zM819 477l27 76l94 12l72 37l59 35l57 27l72 18l74 33l110 28l2 -6l-92 -67l-71 -35l-60 -45l-57 -27l-66 -22l-73 -31l-86 -31l-60 -6zM1675 877l33 88l78 10l117 10l2 -8l-80 -84l-60 -51
l-90 30v5zM463 72l26 112l117 -12l109 18l2 -4l-84 -73l-92 -39l-76 -4zM1364 14l31 109l59 -6l82 2l111 28l2 -4l-95 -65l-69 -29l-45 -26l-74 -11z" />
    <glyph glyph-name="Oslash" unicode="&#xd8;" horiz-adv-x="3094" 
d="M319 1171l56 29l39 45l71 80l74 33l76 8l35 16l94 45l49 11l90 51l49 12l107 15l2 -5l-80 -69l-41 -31l-96 -35l-41 -30l-94 -46l-35 -16l-56 -51l-73 -35l-82 -57l-55 -8l-86 34zM233 844l23 49l68 102l55 31l53 18l90 13l53 8l66 31l94 24l51 15l95 32l61 50l49 12
l70 31l98 14v-4l-74 -66l-67 -35l-41 -28l-78 -15l-84 -51l-45 -31l-78 -55l-65 -31l-43 -36l-68 -60l-47 -28l-59 -25l-121 14l-53 17zM266 569l37 72l47 80l53 24l72 23l78 25l70 24l77 8l37 29l90 4l58 35l49 55l90 4l100 17l2 -2l-77 -68l-60 -65l-76 -5l-63 -20
l-59 -66l-48 -10l-55 -53l-63 -39l-70 -43l-63 -41l-52 -25l-94 15l-78 18zM1923 1341v105l123 16h70l102 17l4 -4l-80 -68l-45 -51l-94 -86l-78 67zM416 350l16 88l78 19l61 49l80 20l86 21l60 41l96 18l45 21l57 106l127 -51l2 -6l-41 -133l-116 24l-47 -20l-74 -62
l-70 -20l-71 -53l-68 -47l-78 -17l-63 -47l-78 45zM1964 1071l16 74l66 80l65 24l99 -12l28 59l115 -14l25 61l76 -8l114 19v-4l-86 -76l-41 -64l-63 21l-64 -98l-63 16l-53 -82l-62 -35l-102 2l-68 35zM715 201l12 129l53 22l127 -10l43 16l84 27l115 21l2 -7l-88 -77
l-74 -46l-41 -22l-117 -12l-47 -37l-67 -8zM1976 788l21 78l61 82l53 25l60 12l102 21l41 16l101 27l45 10l82 12l75 59l49 21l103 6l2 -2l-72 -76l-47 -22l-94 -23l-61 -53l-37 -29l-84 -59l-41 -21l-80 -65l-49 -37l-52 -25l-104 5l-72 32zM1962 492l29 59l51 65l57 31
l92 25l74 24l64 19l100 24l53 45l68 58l73 -21l72 64l60 14l98 12l2 -6l-72 -69l-49 -37l-94 -15l-31 -69l-88 -15l-67 -12l-84 -59l-56 -39l-65 -41l-78 -53l-62 -25l-81 2l-66 16v3zM1886 168l45 82l31 39l76 53l90 18l47 29l72 19l77 32l86 15l48 30h73l82 50l53 43
l70 26l107 12l2 -6l-76 -73l-66 -37l-67 -15l-92 -30l-47 -56l-54 -18l-65 -55l-76 -37l-59 -45l-54 -19l-71 -55l-88 -25l-50 2l-90 17z" />
    <glyph glyph-name="Ugrave" unicode="&#xd9;" horiz-adv-x="3571" 
d="M547 1229l20 100l49 17l97 28l71 35h78l29 27l98 32l39 29l111 8l2 -2l-78 -80l-49 -12l-86 -53l-41 -6l-49 -60l-72 -32l-82 -54l-45 -28l-92 49v2zM551 954l22 70l70 63l53 43l97 37l65 -32l64 63l100 23l49 39l80 6l43 71l82 -10l86 49l57 15l111 20l2 -4l-88 -72
l-47 -35l-94 -32l-43 -72l-82 14l-58 -57l-59 -12l-84 -62l-88 -8l-19 -72l-90 -51l-65 -12l-94 -12l-68 24zM553 678l43 70l31 73l94 13l41 45l69 2l70 24l84 41l49 6l94 29l48 74l88 -15l26 52l88 8l105 14l2 -6l-76 -72l-63 -63l-56 12l-47 -78l-86 15l-84 -56l-35 -35
l-86 -36l-63 -37l-47 -53l-60 -3l-69 -63l-76 23l-84 12v4zM612 428l21 41l47 84l108 20l41 45l72 37l76 7l74 26l63 31l80 8l47 14l90 62l45 6l107 27l2 -7l-88 -65l-33 -31l-104 -28l-43 -27l-58 -55l-63 -31l-70 -39l-53 -53l-74 -31l-61 -4l-84 -68l-95 17l-47 10v4z
M2802 1450l22 39l45 -4l56 20l2 -2l-31 -73l-19 -52l-73 68zM807 242l33 75l61 66l47 25l107 6l28 55l76 -10l109 30l41 13l49 92l127 -37l2 -4l-53 -119l-103 21l-35 -25l-94 -63l-41 -66l-61 16l-74 -79l-49 -19l-88 -6l-80 25zM1176 135l6 117l108 -4l70 26l84 13l80 14
l4 -8l-62 -53l-63 -56l-68 -37l-98 -14l-59 -2zM1464 1999l45 22l35 27l82 23l2 -5l-61 -65l-54 8l-45 -18zM1907 1933l-4 68l51 -19l45 -8l2 -4l-25 -39l-34 -12l-33 8z" />
    <glyph glyph-name="Uacute" unicode="&#xda;" horiz-adv-x="3571" 
d="M547 1229l20 100l49 17l97 28l71 35h78l29 27l98 32l39 29l111 8l2 -2l-78 -80l-49 -12l-86 -53l-41 -6l-49 -60l-72 -32l-82 -54l-45 -28l-92 49v2zM551 954l22 70l70 63l53 43l97 37l65 -32l64 63l100 23l49 39l80 6l43 71l82 -10l86 49l57 15l111 20l2 -4l-88 -72
l-47 -35l-94 -32l-43 -72l-82 14l-58 -57l-59 -12l-84 -62l-88 -8l-19 -72l-90 -51l-65 -12l-94 -12l-68 24zM553 678l43 70l31 73l94 13l41 45l69 2l70 24l84 41l49 6l94 29l48 74l88 -15l26 52l88 8l105 14l2 -6l-76 -72l-63 -63l-56 12l-47 -78l-86 15l-84 -56l-35 -35
l-86 -36l-63 -37l-47 -53l-60 -3l-69 -63l-76 23l-84 12v4zM612 428l21 41l47 84l108 20l41 45l72 37l76 7l74 26l63 31l80 8l47 14l90 62l45 6l107 27l2 -7l-88 -65l-33 -31l-104 -28l-43 -27l-58 -55l-63 -31l-70 -39l-53 -53l-74 -31l-61 -4l-84 -68l-95 17l-47 10v4z
M2802 1450l22 39l45 -4l56 20l2 -2l-31 -73l-19 -52l-73 68zM807 242l33 75l61 66l47 25l107 6l28 55l76 -10l109 30l41 13l49 92l127 -37l2 -4l-53 -119l-103 21l-35 -25l-94 -63l-41 -66l-61 16l-74 -79l-49 -19l-88 -6l-80 25zM1176 135l6 117l108 -4l70 26l84 13l80 14
l4 -8l-62 -53l-63 -56l-68 -37l-98 -14l-59 -2zM2623 1950l64 32l39 56l125 16l4 -6l-94 -84l-68 4l-67 -24z" />
    <glyph glyph-name="Ucircumflex" unicode="&#xdb;" horiz-adv-x="3571" 
d="M547 1229l20 100l49 17l97 28l71 35h78l29 27l98 32l39 29l111 8l2 -2l-78 -80l-49 -12l-86 -53l-41 -6l-49 -60l-72 -32l-82 -54l-45 -28l-92 49v2zM551 954l22 70l70 63l53 43l97 37l65 -32l64 63l100 23l49 39l80 6l43 71l82 -10l86 49l57 15l111 20l2 -4l-88 -72
l-47 -35l-94 -32l-43 -72l-82 14l-58 -57l-59 -12l-84 -62l-88 -8l-19 -72l-90 -51l-65 -12l-94 -12l-68 24zM553 678l43 70l31 73l94 13l41 45l69 2l70 24l84 41l49 6l94 29l48 74l88 -15l26 52l88 8l105 14l2 -6l-76 -72l-63 -63l-56 12l-47 -78l-86 15l-84 -56l-35 -35
l-86 -36l-63 -37l-47 -53l-60 -3l-69 -63l-76 23l-84 12v4zM612 428l21 41l47 84l108 20l41 45l72 37l76 7l74 26l63 31l80 8l47 14l90 62l45 6l107 27l2 -7l-88 -65l-33 -31l-104 -28l-43 -27l-58 -55l-63 -31l-70 -39l-53 -53l-74 -31l-61 -4l-84 -68l-95 17l-47 10v4z
M2802 1450l22 39l45 -4l56 20l2 -2l-31 -73l-19 -52l-73 68zM807 242l33 75l61 66l47 25l107 6l28 55l76 -10l109 30l41 13l49 92l127 -37l2 -4l-53 -119l-103 21l-35 -25l-94 -63l-41 -66l-61 16l-74 -79l-49 -19l-88 -6l-80 25zM1176 135l6 117l108 -4l70 26l84 13l80 14
l4 -8l-62 -53l-63 -56l-68 -37l-98 -14l-59 -2z" />
    <glyph glyph-name="Udieresis" unicode="&#xdc;" horiz-adv-x="3571" 
d="M547 1229l20 100l49 17l97 28l71 35h78l29 27l98 32l39 29l111 8l2 -2l-78 -80l-49 -12l-86 -53l-41 -6l-49 -60l-72 -32l-82 -54l-45 -28l-92 49v2zM551 954l22 70l70 63l53 43l97 37l65 -32l64 63l100 23l49 39l80 6l43 71l82 -10l86 49l57 15l111 20l2 -4l-88 -72
l-47 -35l-94 -32l-43 -72l-82 14l-58 -57l-59 -12l-84 -62l-88 -8l-19 -72l-90 -51l-65 -12l-94 -12l-68 24zM553 678l43 70l31 73l94 13l41 45l69 2l70 24l84 41l49 6l94 29l48 74l88 -15l26 52l88 8l105 14l2 -6l-76 -72l-63 -63l-56 12l-47 -78l-86 15l-84 -56l-35 -35
l-86 -36l-63 -37l-47 -53l-60 -3l-69 -63l-76 23l-84 12v4zM612 428l21 41l47 84l108 20l41 45l72 37l76 7l74 26l63 31l80 8l47 14l90 62l45 6l107 27l2 -7l-88 -65l-33 -31l-104 -28l-43 -27l-58 -55l-63 -31l-70 -39l-53 -53l-74 -31l-61 -4l-84 -68l-95 17l-47 10v4z
M2802 1450l22 39l45 -4l56 20l2 -2l-31 -73l-19 -52l-73 68zM807 242l33 75l61 66l47 25l107 6l28 55l76 -10l109 30l41 13l49 92l127 -37l2 -4l-53 -119l-103 21l-35 -25l-94 -63l-41 -66l-61 16l-74 -79l-49 -19l-88 -6l-80 25zM1176 135l6 117l108 -4l70 26l84 13l80 14
l4 -8l-62 -53l-63 -56l-68 -37l-98 -14l-59 -2zM2355 1862l17 127l79 -37l121 14l2 -8l-88 -82l-65 6l-64 -22z" />
    <glyph glyph-name="Yacute" unicode="&#xdd;" horiz-adv-x="3362" 
d="M733 1309l25 104l45 35l110 8l93 4l69 29l82 16l2 -4l-65 -49l-68 -37l-61 -65l-78 -80l-58 -13l-94 48zM868 1110l21 74l69 55l82 33l74 4l78 39l68 41l75 24l82 15l72 32l63 39l78 15l86 24l4 -4l-75 -49l-64 -49l-70 -25l-69 -35l-64 -51l-69 -43l-74 -26l-80 -33
l-49 -55l-80 -41l-86 -19l-72 31v4zM1001 911l19 74l67 62l80 26l64 8l88 33l47 33l74 49l88 27l67 -9l113 27l2 -4l-92 -70l-39 -57l-76 -51l-84 -23l-57 -16l-82 -47l-45 -41l-74 -45l-88 -13l-69 33zM1137 713l39 71l53 62l92 20l39 29l88 16l98 27l66 29l78 37l96 12
l2 -4l-72 -68l-78 -33l-65 -32l-82 -60l-70 -55l-47 -12l-74 -58l-81 -2l-80 17zM2544 1368l12 84l113 35h67l103 18l2 -4l-88 -47l-56 -31l-102 -55l-49 -4zM1161 463l27 65l67 35l54 64l84 8l80 31l67 18l88 31l45 20l66 78l90 -14l92 20l4 -6l-74 -57l-49 -80h-102
l-45 -21l-78 -49l-59 -39l-76 -41l-60 -59h-82l-71 -29l-66 21zM1016 133l47 74l45 47l55 35l94 53l48 16l75 -2l103 50l37 26l69 51l111 -4l69 35l43 35l95 39l71 12l84 25l4 -9l-73 -49l-56 -47l-90 -45l-53 -12l-72 -31l-67 -86l-86 -22l-43 -11l-105 -47l-45 -59
l-45 -25l-100 -39l-90 41l-58 -22l-65 -31zM1575 135l27 82l84 68l53 4l119 16l51 12l80 45l112 17l2 -4l-86 -76l-84 -33l-43 -30l-90 -80l-65 20l-101 -29l-55 -16zM2136 135l-18 84l26 10l78 -55l2 -6l-33 -37l-26 -12l-27 12zM2163 1950l63 32l39 56l125 16l4 -6
l-94 -84l-68 4l-67 -24z" />
    <glyph glyph-name="Thorn" unicode="&#xde;" horiz-adv-x="3088" 
d="M578 1432l47 28l30 49l101 4l4 -4l-70 -73l-14 -86l-96 77zM655 1180l31 69l59 88l78 29l54 10h110l41 37l86 8l76 45l84 33l100 14l2 -2l-78 -67l-77 -43l-84 -31l-60 -59l-55 -8l-72 -84l-43 -35l-71 -41l-105 10l-76 23v4zM678 901l10 74l80 59l45 33l100 20l78 17
l53 6l74 27l80 43l33 37l121 2l2 -7l-78 -92l-49 -4l-84 -31l-68 -41l-39 -36l-63 -50l-80 -63l-55 -14l-97 -21l-61 37zM664 606l22 92l64 37l49 29l98 8l61 27l74 18l88 37l45 18l88 48l93 6l2 -4l-64 -68l-92 -37l-43 -22l-84 -43l-64 -45l-59 -31l-70 -72l-53 -18
l-67 -25l-86 41zM2001 1231l18 139h68l76 -8l80 20l67 45h115l2 -2l-76 -88l-78 -22l-65 -49l-43 -64l-43 -51l-119 76zM584 283l43 28l37 121l71 33l94 -4l78 18l47 60l103 -7l41 21l88 53l47 25l117 8l2 -4l-82 -86l-49 -19l-97 -32l-43 -19l-61 -82h-76l-63 -47l-58 -74
l-71 -34l-99 12l-67 25zM2028 954l43 93l38 75l82 -14l64 47l100 -2l62 23l86 45l69 16l82 51l92 2v-4l-59 -69l-92 -29l-58 -43l-90 -37l-55 -33l-63 -80l-76 -16l-43 -72l-84 17l-96 26zM881 131l24 102l80 31l70 12l82 43l51 39h104l88 9l2 -5l-63 -63l-66 -82l-63 -12
l-84 -37l-80 4l-82 -25l-61 -18zM1995 651l18 68l68 59l78 37l59 14l92 25l43 16l98 35l46 19l73 32l92 33l41 41l84 23l92 12l3 -4l-68 -64l-72 -49l-57 -6l-84 -49l-74 -37l-43 -20l-90 -54l-39 -24l-80 -53l-49 -37l-78 -35l-90 -15l-63 29v4zM2144 436l21 51l61 76
l60 47l75 -12l103 8l51 43l63 60l66 -13l76 45l57 13l92 20l2 -6l-71 -59l-47 -37l-84 -29l-33 -57l-86 -11l-66 -12l-74 -74l-75 17l-72 -23l-72 -51l-43 -2z" />
    <glyph glyph-name="germandbls" unicode="&#xdf;" horiz-adv-x="2930" 
d="M672 1202l53 41l51 19l70 90l74 39l79 2l31 28l107 25l43 29l100 34l80 15l4 -6l-66 -50l-90 -53l-49 -16l-88 -66l-41 -4l-53 -61l-78 -31l-76 -78l-61 2l-88 37zM618 905l37 84l74 29l35 61l123 6l61 29l62 16l94 21l45 41l121 16l2 -4l-90 -82l-62 -8l-76 -59l-51 -37
l-61 -29l-84 -88l-70 12l-69 -39l-88 27zM618 631l35 98h60l61 72l57 10l80 29l84 37l70 -17l63 49l115 17l2 -6l-84 -80l-78 -17l-32 -65l-82 -39l-74 -43l-45 -39h-94l-39 -45l-96 35zM606 352l12 76l68 33l80 41l80 57l63 -8l97 24l65 29l76 37l96 8l2 -4l-67 -67
l-78 -33l-64 -33l-82 -59l-32 -54l-99 -24l-82 -37l-67 -29l-66 39zM1595 813l35 37l94 84l70 2l104 18l5 -4l-84 -65l-45 -54l-103 -65l-74 45zM723 135l22 84l72 37l70 47l92 4l94 17l66 38l108 19l2 -6l-82 -74l-71 -25l-74 -61l-61 -68l-109 35l-76 -28l-51 -23z
M1606 545l28 82l74 53l66 14l55 39l74 15l77 38l64 9l88 32l63 23l82 41l70 31l84 8l2 -6l-59 -58l-70 -32l-84 -37l-57 -33l-82 -47l-47 -45l-82 -33l-58 -47l-65 -17l-51 -43l-90 -22l-80 31zM1829 377l33 100l55 33l84 37l35 28l96 -2l72 45l92 35l80 11l73 34l43 29
l99 37l84 8l4 -6l-62 -59l-92 -52l-49 -16l-74 -33l-59 -53l-84 -49l-82 -27l-59 -76l-45 -6l-84 -43l-84 37l-74 -16zM2357 348l17 80l69 27l105 43l88 14l92 10l2 -4l-68 -65l-67 -56l-98 -53l-93 21l-45 -19z" />
    <glyph glyph-name="agrave" unicode="&#xe0;" horiz-adv-x="2605" 
d="M229 981l50 29l30 55l107 4l2 -8l-72 -78l-12 -88l-103 80zM612 858l15 92l94 -10l84 6l2 -4l-72 -35l-61 -55h-58zM201 360l47 21l69 53l84 33l66 18l90 39v-2l-61 -98l-64 -27l-76 -47l-69 -53l-84 57zM1303 872l36 117l60 39h71l103 12l57 21l121 22l4 -6l-96 -78
l-53 -30l-76 -70l-43 -55l-70 -21l-112 47zM352 129l6 78l91 37l57 10l67 27l84 12l95 22l2 -6l-76 -61l-64 -55l-63 -35l-45 -37h-109l-43 2zM1303 569l32 84l51 70l58 20h110l68 25l72 35l96 31l45 28l123 12l2 -2l-90 -88l-49 -14l-86 -55l-74 -33l-62 -35l-69 -86
l-53 -31l-88 7l-84 26zM1343 285l19 94l57 51l103 6l59 17l80 63l57 -8l62 53l73 8l119 11l2 -5l-82 -86l-55 -51l-80 -12l-31 -51l-100 -19l-51 -34l-70 -76l-75 -10l-84 45zM1647 123l6 78l106 37l35 30l107 15l92 2l2 -4l-62 -70l-78 -74l-47 -6l-120 -4l-39 -8z
M545 1630l45 23l35 26l82 23l2 -4l-62 -66l-53 8l-45 -18zM987 1565l-4 67l51 -18l45 -8l2 -4l-24 -39l-35 -13l-33 9z" />
    <glyph glyph-name="aacute" unicode="&#xe1;" horiz-adv-x="2605" 
d="M229 981l50 29l30 55l107 4l2 -8l-72 -78l-12 -88l-103 80zM612 858l15 92l94 -10l84 6l2 -4l-72 -35l-61 -55h-58zM201 360l47 21l69 53l84 33l66 18l90 39v-2l-61 -98l-64 -27l-76 -47l-69 -53l-84 57zM1303 872l36 117l60 39h71l103 12l57 21l121 22l4 -6l-96 -78
l-53 -30l-76 -70l-43 -55l-70 -21l-112 47zM352 129l6 78l91 37l57 10l67 27l84 12l95 22l2 -6l-76 -61l-64 -55l-63 -35l-45 -37h-109l-43 2zM1303 569l32 84l51 70l58 20h110l68 25l72 35l96 31l45 28l123 12l2 -2l-90 -88l-49 -14l-86 -55l-74 -33l-62 -35l-69 -86
l-53 -31l-88 7l-84 26zM1343 285l19 94l57 51l103 6l59 17l80 63l57 -8l62 53l73 8l119 11l2 -5l-82 -86l-55 -51l-80 -12l-31 -51l-100 -19l-51 -34l-70 -76l-75 -10l-84 45zM1647 123l6 78l106 37l35 30l107 15l92 2l2 -4l-62 -70l-78 -74l-47 -6l-120 -4l-39 -8z
M1524 1581l63 33l39 55l125 17l4 -7l-94 -84l-68 4l-67 -24z" />
    <glyph glyph-name="acircumflex" unicode="&#xe2;" horiz-adv-x="2603" 
d="M229 981l50 29l30 55l107 4l2 -8l-72 -78l-12 -88l-103 80zM612 858l15 92l94 -10l84 6l2 -4l-72 -35l-61 -55h-58zM201 360l47 21l69 53l84 33l66 18l90 39v-2l-61 -98l-64 -27l-76 -47l-69 -53l-84 57zM1303 872l36 117l60 39h71l103 12l57 21l121 22l4 -6l-96 -78
l-53 -30l-76 -70l-43 -55l-70 -21l-112 47zM352 129l6 78l91 37l57 10l67 27l84 12l95 22l2 -6l-76 -61l-64 -55l-63 -35l-45 -37h-109l-43 2zM1303 569l32 84l51 70l58 20h110l68 25l72 35l96 31l45 28l123 12l2 -2l-90 -88l-49 -14l-86 -55l-74 -33l-62 -35l-69 -86
l-53 -31l-88 7l-84 26zM1343 285l19 94l57 51l103 6l59 17l80 63l57 -8l62 53l73 8l119 11l2 -5l-82 -86l-55 -51l-80 -12l-31 -51l-100 -19l-51 -34l-70 -76l-75 -10l-84 45zM1647 123l6 78l106 37l35 30l107 15l92 2l2 -4l-62 -70l-78 -74l-47 -6l-120 -4l-39 -8z" />
    <glyph glyph-name="atilde" unicode="&#xe3;" horiz-adv-x="2605" 
d="M229 981l50 29l30 55l107 4l2 -8l-72 -78l-12 -88l-103 80zM612 858l15 92l94 -10l84 6l2 -4l-72 -35l-61 -55h-58zM201 360l47 21l69 53l84 33l66 18l90 39v-2l-61 -98l-64 -27l-76 -47l-69 -53l-84 57zM1303 872l36 117l60 39h71l103 12l57 21l121 22l4 -6l-96 -78
l-53 -30l-76 -70l-43 -55l-70 -21l-112 47zM352 129l6 78l91 37l57 10l67 27l84 12l95 22l2 -6l-76 -61l-64 -55l-63 -35l-45 -37h-109l-43 2zM1303 569l32 84l51 70l58 20h110l68 25l72 35l96 31l45 28l123 12l2 -2l-90 -88l-49 -14l-86 -55l-74 -33l-62 -35l-69 -86
l-53 -31l-88 7l-84 26zM1343 285l19 94l57 51l103 6l59 17l80 63l57 -8l62 53l73 8l119 11l2 -5l-82 -86l-55 -51l-80 -12l-31 -51l-100 -19l-51 -34l-70 -76l-75 -10l-84 45zM1647 123l6 78l106 37l35 30l107 15l92 2l2 -4l-62 -70l-78 -74l-47 -6l-120 -4l-39 -8z" />
    <glyph glyph-name="adieresis" unicode="&#xe4;" horiz-adv-x="2605" 
d="M229 981l50 29l30 55l107 4l2 -8l-72 -78l-12 -88l-103 80zM612 858l15 92l94 -10l84 6l2 -4l-72 -35l-61 -55h-58zM201 360l47 21l69 53l84 33l66 18l90 39v-2l-61 -98l-64 -27l-76 -47l-69 -53l-84 57zM1303 872l36 117l60 39h71l103 12l57 21l121 22l4 -6l-96 -78
l-53 -30l-76 -70l-43 -55l-70 -21l-112 47zM352 129l6 78l91 37l57 10l67 27l84 12l95 22l2 -6l-76 -61l-64 -55l-63 -35l-45 -37h-109l-43 2zM1303 569l32 84l51 70l58 20h110l68 25l72 35l96 31l45 28l123 12l2 -2l-90 -88l-49 -14l-86 -55l-74 -33l-62 -35l-69 -86
l-53 -31l-88 7l-84 26zM1343 285l19 94l57 51l103 6l59 17l80 63l57 -8l62 53l73 8l119 11l2 -5l-82 -86l-55 -51l-80 -12l-31 -51l-100 -19l-51 -34l-70 -76l-75 -10l-84 45zM1647 123l6 78l106 37l35 30l107 15l92 2l2 -4l-62 -70l-78 -74l-47 -6l-120 -4l-39 -8z
M1448 1493l16 127l80 -37l121 14l2 -8l-88 -82l-66 6l-63 -22z" />
    <glyph glyph-name="aring" unicode="&#xe5;" horiz-adv-x="2603" 
d="M229 981l50 29l30 55l107 4l2 -8l-72 -78l-12 -88l-103 80zM612 858l15 92l94 -10l84 6l2 -4l-72 -35l-61 -55h-58zM201 360l47 21l69 53l84 33l66 18l90 39v-2l-61 -98l-64 -27l-76 -47l-69 -53l-84 57zM1303 872l36 117l60 39h71l103 12l57 21l121 22l4 -6l-96 -78
l-53 -30l-76 -70l-43 -55l-70 -21l-112 47zM352 129l6 78l91 37l57 10l67 27l84 12l95 22l2 -6l-76 -61l-64 -55l-63 -35l-45 -37h-109l-43 2zM1303 569l32 84l51 70l58 20h110l68 25l72 35l96 31l45 28l123 12l2 -2l-90 -88l-49 -14l-86 -55l-74 -33l-62 -35l-69 -86
l-53 -31l-88 7l-84 26zM1343 285l19 94l57 51l103 6l59 17l80 63l57 -8l62 53l73 8l119 11l2 -5l-82 -86l-55 -51l-80 -12l-31 -51l-100 -19l-51 -34l-70 -76l-75 -10l-84 45zM1647 123l6 78l106 37l35 30l107 15l92 2l2 -4l-62 -70l-78 -74l-47 -6l-120 -4l-39 -8z" />
    <glyph glyph-name="ae" unicode="&#xe6;" horiz-adv-x="3485" 
d="M266 1061l33 18l25 23l61 14l2 -4l-41 -59l-2 -74l-76 76zM422 862l29 90l96 33l100 -2l92 27l4 -6l-61 -97l-84 -33l-117 11l-57 -27zM1303 1001l40 68l89 35l102 6l2 -6l-70 -74l-84 -45l-77 12zM199 215l22 59l51 95l107 10l59 14l80 8l51 60l76 2l117 18l2 -6
l-88 -80l-49 -57h-78l-57 -55l-52 -37l-75 -76l-105 23l-59 18zM1307 733l24 74l72 43l41 49l98 4l41 45l78 29l92 14l59 6l66 43l115 13l2 -4l-84 -80l-74 -23l-43 -43l-70 -59l-73 -43l-62 -2l-65 -74l-64 2l-78 -27l-73 29zM551 111l14 86l92 16l125 6l4 -6l-84 -92
l-96 -15h-53zM1305 461l30 106l70 37l86 4l61 15l54 45l82 12l65 53l72 12l119 15l2 -4l-86 -84l-58 -47l-80 -15l-63 -57l-70 -12l-49 -37l-57 -62l-74 -30l-104 45v4zM2501 1018l4 90l129 2l86 10l2 -2l-64 -61l-84 -96l-71 53zM1427 248l27 94l64 35l96 20l49 17l72 78
l98 -25l98 14l2 -2l-73 -67l-45 -90l-107 -5l-45 -28l-76 -60l-92 25l-65 -10zM2535 764l41 100l52 56l96 2l45 26l113 4l65 43l100 9l5 -7l-72 -71l-76 -23l-76 -84l-49 -16l-63 -74l-74 -2l-105 33zM1772 139l4 82l94 2l74 -4l2 -8l-43 -59l-91 -13l-36 -6zM2816 623
l25 112l53 23l98 -2l39 14l78 25l104 16l4 -6l-82 -70l-67 -43l-37 -22l-96 -2l-47 -33l-70 -14z" />
    <glyph glyph-name="ccedilla" unicode="&#xe7;" horiz-adv-x="2375" 
d="M242 846l51 45l47 27l76 77l76 35l79 2l33 29l101 33l53 4l104 37v-5l-82 -79l-49 -13l-92 -55l-41 -6l-53 -62l-74 -34l-86 -56l-49 -26l-90 43zM197 549l24 61l55 92l60 21l104 12l52 -4l71 45l99 19l53 22l65 33l41 76l125 -29l2 -4l-59 -113l-84 19l-68 -31l-51 -27
l-78 -63l-80 -25l-30 -41l-76 -73l-55 -33l-107 18l-61 21zM301 319l47 64l72 35l45 65l70 -2l59 45l82 15l86 14l76 49l98 14l2 -6l-72 -67l-86 -27l-67 -55l-64 -55l-71 -17l-46 -53l-77 6l-74 -33l-80 4v4zM1425 844l21 100l90 23l45 18l96 -2l111 31v-4l-92 -66l-62 -74
l-43 -22l-73 -55l-91 47zM582 176l24 123l51 12l93 -14l94 29l100 18l2 -4l-78 -66l-82 -55h-84l-47 -24l-71 -25zM1759 725l19 123l90 -12l84 22l76 16l96 19l2 -4l-76 -62l-61 -47l-86 -18l-72 -29l-68 -12zM1477 -461v123l71 -45l97 2l4 -6l-76 -49l-43 -13l-51 -16z" />
    <glyph glyph-name="egrave" unicode="&#xe8;" horiz-adv-x="2437" 
d="M238 813l59 31l41 45l78 82l78 35l79 10l37 18l101 45l49 15l96 51l51 16l111 17l2 -4l-84 -72l-45 -31l-100 -41l-46 -29l-98 -49l-39 -14l-57 -55l-78 -39l-88 -58l-59 -8l-88 31v4zM197 510l14 68l74 92l69 -4l49 28l86 21l52 18l71 17l95 18l45 33l92 35l82 14v-4
l-64 -51l-84 -50l-53 -14l-76 -59l-59 -45l-47 -27l-70 -53l-55 -19l-43 -57l-115 4l-61 31zM1489 1114l16 25h39l53 24l2 -4l-30 -69l-8 -70l-70 90zM338 293l20 72l58 69l100 21l49 16l111 16l55 70l88 4l99 4l2 -6l-64 -76l-59 -63l-90 2l-84 -74l-43 -26l-82 -66l-88 2
l-70 31zM1538 852l16 137l68 2l109 6l51 7l67 45l115 2l2 -4l-76 -86l-78 -23l-36 -37l-76 -78l-45 -51l-115 76zM659 158l5 118l96 -2l94 -6l94 25l2 -4l-80 -58l-55 -75l-104 20l-49 -20zM1815 698l8 103l78 22l92 8l73 11l101 18l2 -2l-80 -65l-55 -50l-95 -2l-75 -28
l-47 -19zM733 1630l45 23l35 26l82 23l2 -4l-61 -66l-54 8l-45 -18zM1176 1565l-5 67l52 -18l45 -8l2 -4l-25 -39l-35 -13l-32 9z" />
    <glyph glyph-name="eacute" unicode="&#xe9;" horiz-adv-x="2437" 
d="M238 813l59 31l41 45l78 82l78 35l79 10l37 18l101 45l49 15l96 51l51 16l111 17l2 -4l-84 -72l-45 -31l-100 -41l-46 -29l-98 -49l-39 -14l-57 -55l-78 -39l-88 -58l-59 -8l-88 31v4zM197 510l14 68l74 92l69 -4l49 28l86 21l52 18l71 17l95 18l45 33l92 35l82 14v-4
l-64 -51l-84 -50l-53 -14l-76 -59l-59 -45l-47 -27l-70 -53l-55 -19l-43 -57l-115 4l-61 31zM1489 1114l16 25h39l53 24l2 -4l-30 -69l-8 -70l-70 90zM338 293l20 72l58 69l100 21l49 16l111 16l55 70l88 4l99 4l2 -6l-64 -76l-59 -63l-90 2l-84 -74l-43 -26l-82 -66l-88 2
l-70 31zM1538 852l16 137l68 2l109 6l51 7l67 45l115 2l2 -4l-76 -86l-78 -23l-36 -37l-76 -78l-45 -51l-115 76zM659 158l5 118l96 -2l94 -6l94 25l2 -4l-80 -58l-55 -75l-104 20l-49 -20zM1815 698l8 103l78 22l92 8l73 11l101 18l2 -2l-80 -65l-55 -50l-95 -2l-75 -28
l-47 -19zM1749 1581l63 33l39 55l125 17l4 -7l-94 -84l-67 4l-68 -24z" />
    <glyph glyph-name="ecircumflex" unicode="&#xea;" horiz-adv-x="2437" 
d="M238 813l59 31l41 45l78 82l78 35l79 10l37 18l101 45l49 15l96 51l51 16l111 17l2 -4l-84 -72l-45 -31l-100 -41l-46 -29l-98 -49l-39 -14l-57 -55l-78 -39l-88 -58l-59 -8l-88 31v4zM197 510l14 68l74 92l69 -4l49 28l86 21l52 18l71 17l95 18l45 33l92 35l82 14v-4
l-64 -51l-84 -50l-53 -14l-76 -59l-59 -45l-47 -27l-70 -53l-55 -19l-43 -57l-115 4l-61 31zM1489 1114l16 25h39l53 24l2 -4l-30 -69l-8 -70l-70 90zM338 293l20 72l58 69l100 21l49 16l111 16l55 70l88 4l99 4l2 -6l-64 -76l-59 -63l-90 2l-84 -74l-43 -26l-82 -66l-88 2
l-70 31zM1538 852l16 137l68 2l109 6l51 7l67 45l115 2l2 -4l-76 -86l-78 -23l-36 -37l-76 -78l-45 -51l-115 76zM659 158l5 118l96 -2l94 -6l94 25l2 -4l-80 -58l-55 -75l-104 20l-49 -20zM1815 698l8 103l78 22l92 8l73 11l101 18l2 -2l-80 -65l-55 -50l-95 -2l-75 -28
l-47 -19z" />
    <glyph glyph-name="edieresis" unicode="&#xeb;" horiz-adv-x="2437" 
d="M238 813l59 31l41 45l78 82l78 35l79 10l37 18l101 45l49 15l96 51l51 16l111 17l2 -4l-84 -72l-45 -31l-100 -41l-46 -29l-98 -49l-39 -14l-57 -55l-78 -39l-88 -58l-59 -8l-88 31v4zM197 510l14 68l74 92l69 -4l49 28l86 21l52 18l71 17l95 18l45 33l92 35l82 14v-4
l-64 -51l-84 -50l-53 -14l-76 -59l-59 -45l-47 -27l-70 -53l-55 -19l-43 -57l-115 4l-61 31zM1489 1114l16 25h39l53 24l2 -4l-30 -69l-8 -70l-70 90zM338 293l20 72l58 69l100 21l49 16l111 16l55 70l88 4l99 4l2 -6l-64 -76l-59 -63l-90 2l-84 -74l-43 -26l-82 -66l-88 2
l-70 31zM1538 852l16 137l68 2l109 6l51 7l67 45l115 2l2 -4l-76 -86l-78 -23l-36 -37l-76 -78l-45 -51l-115 76zM659 158l5 118l96 -2l94 -6l94 25l2 -4l-80 -58l-55 -75l-104 20l-49 -20zM1815 698l8 103l78 22l92 8l73 11l101 18l2 -2l-80 -65l-55 -50l-95 -2l-75 -28
l-47 -19zM1563 1493l16 127l80 -37l121 14l2 -8l-88 -82l-66 6l-63 -22z" />
    <glyph glyph-name="igrave" unicode="&#xec;" horiz-adv-x="1904" 
d="M559 985l35 105l59 24l133 -4l97 25l2 -7l-82 -55l-82 -104l-57 -29l-103 41zM614 715l19 61l51 68l92 20l35 45l88 -12l68 49l88 6l73 39l50 45l106 -8l2 -6l-61 -86l-66 -8l-78 -35l-61 -62l-82 -20l-47 -76l-55 2l-76 -57l-84 4l-60 25zM600 412l31 96l43 51l88 23h80
l76 28l65 21l72 18l35 105l102 -29l92 8l2 -6l-63 -68l-45 -96l-101 41l-61 -43l-58 -39l-71 -39l-51 -61l-74 -53l-68 2l-92 37zM680 152l25 77l43 68l73 18l92 21l56 -2l92 37l51 69l84 -2h92l2 -6l-57 -72l-53 -65l-86 6l-88 -49l-33 -41l-76 -59l-104 45l-62 -27
l-49 -20zM283 1630l45 23l34 26l82 23l2 -4l-61 -66l-53 8l-45 -18zM725 1565l-4 67l51 -18l45 -8l2 -4l-24 -39l-35 -13l-33 9z" />
    <glyph glyph-name="iacute" unicode="&#xed;" horiz-adv-x="1904" 
d="M559 985l35 105l59 24l133 -4l97 25l2 -7l-82 -55l-82 -104l-57 -29l-103 41zM614 715l19 61l51 68l92 20l35 45l88 -12l68 49l88 6l73 39l50 45l106 -8l2 -6l-61 -86l-66 -8l-78 -35l-61 -62l-82 -20l-47 -76l-55 2l-76 -57l-84 4l-60 25zM600 412l31 96l43 51l88 23h80
l76 28l65 21l72 18l35 105l102 -29l92 8l2 -6l-63 -68l-45 -96l-101 41l-61 -43l-58 -39l-71 -39l-51 -61l-74 -53l-68 2l-92 37zM680 152l25 77l43 68l73 18l92 21l56 -2l92 37l51 69l84 -2h92l2 -6l-57 -72l-53 -65l-86 6l-88 -49l-33 -41l-76 -59l-104 45l-62 -27
l-49 -20zM1237 1581l63 33l39 55l125 17l4 -7l-94 -84l-67 4l-68 -24z" />
    <glyph glyph-name="icircumflex" unicode="&#xee;" horiz-adv-x="1904" 
d="M559 985l35 105l59 24l133 -4l97 25l2 -7l-82 -55l-82 -104l-57 -29l-103 41zM614 715l19 61l51 68l92 20l35 45l88 -12l68 49l88 6l73 39l50 45l106 -8l2 -6l-61 -86l-66 -8l-78 -35l-61 -62l-82 -20l-47 -76l-55 2l-76 -57l-84 4l-60 25zM600 412l31 96l43 51l88 23h80
l76 28l65 21l72 18l35 105l102 -29l92 8l2 -6l-63 -68l-45 -96l-101 41l-61 -43l-58 -39l-71 -39l-51 -61l-74 -53l-68 2l-92 37zM680 152l25 77l43 68l73 18l92 21l56 -2l92 37l51 69l84 -2h92l2 -6l-57 -72l-53 -65l-86 6l-88 -49l-33 -41l-76 -59l-104 45l-62 -27
l-49 -20z" />
    <glyph glyph-name="idieresis" unicode="&#xef;" horiz-adv-x="1904" 
d="M559 985l35 105l59 24l133 -4l97 25l2 -7l-82 -55l-82 -104l-57 -29l-103 41zM614 715l19 61l51 68l92 20l35 45l88 -12l68 49l88 6l73 39l50 45l106 -8l2 -6l-61 -86l-66 -8l-78 -35l-61 -62l-82 -20l-47 -76l-55 2l-76 -57l-84 4l-60 25zM600 412l31 96l43 51l88 23h80
l76 28l65 21l72 18l35 105l102 -29l92 8l2 -6l-63 -68l-45 -96l-101 41l-61 -43l-58 -39l-71 -39l-51 -61l-74 -53l-68 2l-92 37zM680 152l25 77l43 68l73 18l92 21l56 -2l92 37l51 69l84 -2h92l2 -6l-57 -72l-53 -65l-86 6l-88 -49l-33 -41l-76 -59l-104 45l-62 -27
l-49 -20zM1296 1493l17 127l80 -37l120 14l3 -8l-89 -82l-65 6l-64 -22z" />
    <glyph glyph-name="eth" unicode="&#xf0;" horiz-adv-x="2754" 
d="M1544 1624l43 25l27 47l90 4l2 -6l-61 -66l-13 -76l-86 70zM201 741l32 62l66 67l66 48l45 24l112 -14l35 47l78 18l82 27l82 24l73 48l54 43l108 -5l2 -6l-65 -82l-68 -14l-84 -27l-71 -47l-74 -47l-64 -47l-57 4l-61 -96l-50 -18l-77 -21l-95 -6l-69 14v4zM1663 1423
l27 117l96 12l84 4l80 23l102 27l2 -7l-86 -61l-70 -45l-57 -63l-69 -64l-109 53v4zM205 487l18 54l60 65l79 35l56 14l69 33l84 10l78 39l70 21l49 26l88 31l55 37l72 22l102 25l2 -6l-81 -64l-64 -41l-65 -18l-80 -47l-54 -21l-59 -38l-78 -35l-63 -60l-70 -32l-47 -33
l-78 -39l-88 -2l-53 20zM1712 1190l53 72l37 43l68 49l78 2l94 30l80 21l69 47l103 6v-4l-70 -74l-80 -22l-67 -49l-84 -51l-54 -60l-79 -18l-56 -2l-92 6v4zM334 289l24 76l66 55l51 8l64 49l86 -8l69 47l66 16l86 21l41 25l51 104l121 -53l2 -4l-37 -129l-113 30l-45 -16
l-71 -53l-54 -41l-82 -21l-49 -73l-78 -17l-38 -33l-86 -16l-74 29v4zM1726 938l35 100l74 31l55 31l60 24l114 19l29 59l86 -18l105 51l40 18l117 21l2 -6l-90 -78l-39 -19l-108 -47l-39 -77l-66 18l-86 -78l-59 -29l-60 -22l-69 -37l-98 37zM621 166l20 84l76 35l96 28
l86 9l70 49h90l2 -2l-60 -72l-81 -21l-62 -59l-84 -55l-96 8l-55 -6zM1729 684l43 74l24 51l100 22l43 19l80 16l88 35l43 31l86 16l66 35l70 37l69 18l82 15l2 -2l-65 -54l-58 -41l-73 -28l-70 -31l-68 -53l-51 -15l-82 -45l-65 -49l-41 -22l-82 -64l-55 15l-84 16z
M1726 426l46 66l57 65l47 25l63 32l111 15l43 14l78 39l88 25l57 20l66 53l57 17l111 12l2 -4l-82 -76l-49 -33l-82 -16l-53 -33l-76 -51l-78 -35l-41 -22l-80 -76l-67 -27l-50 -20l-86 -2l-79 6zM1702 158l14 67l74 51l74 50l53 10l76 6l67 45l82 19l49 22l70 4l76 57
l61 23l99 16l2 -4l-76 -65l-58 -33l-92 -20l-47 -52l-49 -22l-66 -51l-79 -25l-52 -53l-45 -35l-82 -25l-88 -22l-61 33z" />
    <glyph glyph-name="ntilde" unicode="&#xf1;" horiz-adv-x="3170" 
d="M537 1047l36 24l31 23l74 18l2 -6l-51 -66l-2 -82l-88 84zM621 791l24 83l72 60l71 41l70 -21l90 39l47 23l84 10l74 51l111 15l4 -7l-82 -75l-86 -25l-62 -57l-49 -21l-88 -45l-29 -65l-77 -29l-90 -18l-82 36zM625 496l20 92l60 41l69 14l94 37l60 8l98 39l82 21l39 38
l115 9l2 -7l-78 -83l-56 -5l-69 -51l-92 -47l-45 -41l-88 -49l-58 -43l-67 -20l-86 43v4zM1837 1061l45 55l68 8l104 37l2 -4l-78 -96l-39 -72l-100 68zM524 154l47 28l64 23l22 123l95 22l53 -4l92 37l49 68l96 -31l29 49l82 23l109 8l2 -6l-74 -80l-70 -49l-55 10l-41 -92
l-82 4l-88 -45l-33 -45l-76 -58l-110 62l-55 -33l-54 -18zM1917 803l25 96l63 55l90 7l74 22l96 18l51 17l113 24l2 -4l-92 -71l-45 -29l-74 -61l-66 -43l-61 -64l-84 -14l-90 43zM1116 133l-10 109l59 30l121 -59l2 -4l-63 -66l-66 -12h-41zM1925 510l10 76l68 78l70 18
l61 4l82 31l65 41h91l75 43l88 -4l2 -4l-53 -70l-82 -33l-57 -69l-74 -23l-76 -45l-43 -43l-59 -41l-102 -2l-64 41zM1898 203l27 123l45 12l66 37h129l41 18l73 49l105 13l63 49l93 -2l2 -4l-58 -72l-80 -16l-75 -74l-86 -25l-39 -18l-82 -98l-72 -27l-37 -27l-112 58z
M2384 135l12 94l109 2h88v-4l-56 -69l-90 -39l-61 12z" />
    <glyph glyph-name="ograve" unicode="&#xf2;" horiz-adv-x="2523" 
d="M207 750l59 28l15 101l102 30l78 35l80 8l37 19l100 45l51 12l94 53l54 15l108 18l2 -4l-84 -74l-43 -32l-102 -37l-43 -33l-99 -45l-38 -19l-58 -55l-76 -37l-88 -59l-59 -8l-90 34v5zM221 463l15 74l90 73l57 35l63 8l99 4l47 37l80 11l88 49l55 18l113 23l2 -7
l-88 -75l-49 -29l-95 -35l-59 -55l-57 -14l-68 -72l-47 -45l-64 -21l-112 -20l-68 37zM1552 1083l17 64l55 -23l51 17l2 -6l-32 -56l-31 -28l-60 28zM410 256l16 63l72 84l75 11l89 4l102 24l41 39l123 19l2 -6l-92 -84l-56 -7l-84 -63l-61 -64l-55 -51l-125 29l-45 -2z
M1597 809l27 94l47 60l90 -5l66 17l71 14l82 39l88 2l3 -4l-58 -68l-84 -36l-55 -48l-55 -38l-56 -72l-75 2l-89 41zM793 139v82l92 23l80 -21l2 -6l-35 -78l-98 -2h-39zM1599 516l17 62l70 110l51 -8l102 20l53 11l56 71l88 -6l86 19l61 30l103 11l2 -2l-74 -72l-64 -27
l-69 -55l-51 -72l-93 2l-41 -32l-81 -64l-27 -45l-129 16l-57 29zM1559 203l38 96l54 45l67 53l66 -22l92 37l66 37l90 12l24 76l117 -9l20 80l138 -45l2 -4l-56 -133l-71 35l-70 -94l-74 30l-67 -61l-70 -27l-88 -47l-25 -65l-86 -17l-67 -12l-98 31zM776 1630l45 23l35 26
l82 23l2 -4l-61 -66l-54 8l-45 -18zM1219 1565l-5 67l52 -18l45 -8l2 -4l-25 -39l-35 -13l-32 9z" />
    <glyph glyph-name="oacute" unicode="&#xf3;" horiz-adv-x="2523" 
d="M207 750l59 28l15 101l102 30l78 35l80 8l37 19l100 45l51 12l94 53l54 15l108 18l2 -4l-84 -74l-43 -32l-102 -37l-43 -33l-99 -45l-38 -19l-58 -55l-76 -37l-88 -59l-59 -8l-90 34v5zM221 463l15 74l90 73l57 35l63 8l99 4l47 37l80 11l88 49l55 18l113 23l2 -7
l-88 -75l-49 -29l-95 -35l-59 -55l-57 -14l-68 -72l-47 -45l-64 -21l-112 -20l-68 37zM1552 1083l17 64l55 -23l51 17l2 -6l-32 -56l-31 -28l-60 28zM410 256l16 63l72 84l75 11l89 4l102 24l41 39l123 19l2 -6l-92 -84l-56 -7l-84 -63l-61 -64l-55 -51l-125 29l-45 -2z
M1597 809l27 94l47 60l90 -5l66 17l71 14l82 39l88 2l3 -4l-58 -68l-84 -36l-55 -48l-55 -38l-56 -72l-75 2l-89 41zM793 139v82l92 23l80 -21l2 -6l-35 -78l-98 -2h-39zM1599 516l17 62l70 110l51 -8l102 20l53 11l56 71l88 -6l86 19l61 30l103 11l2 -2l-74 -72l-64 -27
l-69 -55l-51 -72l-93 2l-41 -32l-81 -64l-27 -45l-129 16l-57 29zM1559 203l38 96l54 45l67 53l66 -22l92 37l66 37l90 12l24 76l117 -9l20 80l138 -45l2 -4l-56 -133l-71 35l-70 -94l-74 30l-67 -61l-70 -27l-88 -47l-25 -65l-86 -17l-67 -12l-98 31zM1792 1581l63 33
l39 55l125 17l4 -7l-94 -84l-67 4l-68 -24z" />
    <glyph glyph-name="ocircumflex" unicode="&#xf4;" horiz-adv-x="2523" 
d="M207 750l59 28l15 101l102 30l78 35l80 8l37 19l100 45l51 12l94 53l54 15l108 18l2 -4l-84 -74l-43 -32l-102 -37l-43 -33l-99 -45l-38 -19l-58 -55l-76 -37l-88 -59l-59 -8l-90 34v5zM221 463l15 74l90 73l57 35l63 8l99 4l47 37l80 11l88 49l55 18l113 23l2 -7
l-88 -75l-49 -29l-95 -35l-59 -55l-57 -14l-68 -72l-47 -45l-64 -21l-112 -20l-68 37zM1552 1083l17 64l55 -23l51 17l2 -6l-32 -56l-31 -28l-60 28zM410 256l16 63l72 84l75 11l89 4l102 24l41 39l123 19l2 -6l-92 -84l-56 -7l-84 -63l-61 -64l-55 -51l-125 29l-45 -2z
M1597 809l27 94l47 60l90 -5l66 17l71 14l82 39l88 2l3 -4l-58 -68l-84 -36l-55 -48l-55 -38l-56 -72l-75 2l-89 41zM793 139v82l92 23l80 -21l2 -6l-35 -78l-98 -2h-39zM1599 516l17 62l70 110l51 -8l102 20l53 11l56 71l88 -6l86 19l61 30l103 11l2 -2l-74 -72l-64 -27
l-69 -55l-51 -72l-93 2l-41 -32l-81 -64l-27 -45l-129 16l-57 29zM1559 203l38 96l54 45l67 53l66 -22l92 37l66 37l90 12l24 76l117 -9l20 80l138 -45l2 -4l-56 -133l-71 35l-70 -94l-74 30l-67 -61l-70 -27l-88 -47l-25 -65l-86 -17l-67 -12l-98 31z" />
    <glyph glyph-name="otilde" unicode="&#xf5;" horiz-adv-x="2523" 
d="M207 750l59 28l15 101l102 30l78 35l80 8l37 19l100 45l51 12l94 53l54 15l108 18l2 -4l-84 -74l-43 -32l-102 -37l-43 -33l-99 -45l-38 -19l-58 -55l-76 -37l-88 -59l-59 -8l-90 34v5zM221 463l15 74l90 73l57 35l63 8l99 4l47 37l80 11l88 49l55 18l113 23l2 -7
l-88 -75l-49 -29l-95 -35l-59 -55l-57 -14l-68 -72l-47 -45l-64 -21l-112 -20l-68 37zM1552 1083l17 64l55 -23l51 17l2 -6l-32 -56l-31 -28l-60 28zM410 256l16 63l72 84l75 11l89 4l102 24l41 39l123 19l2 -6l-92 -84l-56 -7l-84 -63l-61 -64l-55 -51l-125 29l-45 -2z
M1597 809l27 94l47 60l90 -5l66 17l71 14l82 39l88 2l3 -4l-58 -68l-84 -36l-55 -48l-55 -38l-56 -72l-75 2l-89 41zM793 139v82l92 23l80 -21l2 -6l-35 -78l-98 -2h-39zM1599 516l17 62l70 110l51 -8l102 20l53 11l56 71l88 -6l86 19l61 30l103 11l2 -2l-74 -72l-64 -27
l-69 -55l-51 -72l-93 2l-41 -32l-81 -64l-27 -45l-129 16l-57 29zM1559 203l38 96l54 45l67 53l66 -22l92 37l66 37l90 12l24 76l117 -9l20 80l138 -45l2 -4l-56 -133l-71 35l-70 -94l-74 30l-67 -61l-70 -27l-88 -47l-25 -65l-86 -17l-67 -12l-98 31z" />
    <glyph glyph-name="odieresis" unicode="&#xf6;" horiz-adv-x="2523" 
d="M207 750l59 28l15 101l102 30l78 35l80 8l37 19l100 45l51 12l94 53l54 15l108 18l2 -4l-84 -74l-43 -32l-102 -37l-43 -33l-99 -45l-38 -19l-58 -55l-76 -37l-88 -59l-59 -8l-90 34v5zM221 463l15 74l90 73l57 35l63 8l99 4l47 37l80 11l88 49l55 18l113 23l2 -7
l-88 -75l-49 -29l-95 -35l-59 -55l-57 -14l-68 -72l-47 -45l-64 -21l-112 -20l-68 37zM1552 1083l17 64l55 -23l51 17l2 -6l-32 -56l-31 -28l-60 28zM410 256l16 63l72 84l75 11l89 4l102 24l41 39l123 19l2 -6l-92 -84l-56 -7l-84 -63l-61 -64l-55 -51l-125 29l-45 -2z
M1597 809l27 94l47 60l90 -5l66 17l71 14l82 39l88 2l3 -4l-58 -68l-84 -36l-55 -48l-55 -38l-56 -72l-75 2l-89 41zM793 139v82l92 23l80 -21l2 -6l-35 -78l-98 -2h-39zM1599 516l17 62l70 110l51 -8l102 20l53 11l56 71l88 -6l86 19l61 30l103 11l2 -2l-74 -72l-64 -27
l-69 -55l-51 -72l-93 2l-41 -32l-81 -64l-27 -45l-129 16l-57 29zM1559 203l38 96l54 45l67 53l66 -22l92 37l66 37l90 12l24 76l117 -9l20 80l138 -45l2 -4l-56 -133l-71 35l-70 -94l-74 30l-67 -61l-70 -27l-88 -47l-25 -65l-86 -17l-67 -12l-98 31zM1606 1493l16 127
l80 -37l121 14l2 -8l-88 -82l-66 6l-63 -22z" />
    <glyph glyph-name="divide" unicode="&#xf7;" horiz-adv-x="2195" 
d="M887 1243l69 37l48 57l135 23l4 -4l-107 -86l-35 -86l-112 55zM285 709l24 32l60 4l49 23l4 -4l-39 -47l-55 -17l-41 2zM862 721l15 31h45l45 16l4 -4l-43 -23l-31 -34l-33 10zM1411 721l31 18l33 21l41 8l4 -4l-27 -43l-47 6l-33 -10zM872 213l50 35l34 92l82 -10
l119 16l4 -6l-90 -80l-45 -70l-57 -43l-95 62z" />
    <glyph glyph-name="oslash" unicode="&#xf8;" horiz-adv-x="2523" 
d="M203 750l59 28l14 101l103 30l78 35l80 8l36 19l101 45l51 12l94 53l53 15l109 18l2 -4l-84 -74l-43 -32l-102 -37l-43 -33l-99 -45l-39 -19l-57 -55l-76 -37l-88 -59l-59 -8l-90 34v5zM217 463l14 74l91 73l57 35l63 8l99 4l47 37l80 11l88 49l55 18l113 23l2 -7
l-88 -75l-50 -29l-94 -35l-59 -55l-57 -14l-68 -72l-47 -45l-64 -21l-112 -20l-68 37zM1548 1083l17 64l55 -23l51 17l2 -6l-33 -56l-30 -28l-60 28zM406 256l16 63l72 84l75 11l88 4l103 24l41 39l123 19l2 -6l-92 -84l-56 -7l-84 -63l-61 -64l-55 -51l-125 29l-45 -2z
M1593 809l27 94l47 60l90 -5l66 17l71 14l82 39l88 2l2 -4l-57 -68l-84 -36l-55 -48l-55 -38l-56 -72l-76 2l-88 41zM788 139v82l93 23l80 -21l2 -6l-35 -78l-99 -2h-38zM1595 516l17 62l69 110l52 -8l102 20l53 11l56 71l88 -6l86 19l61 30l102 11l3 -2l-74 -72l-64 -27
l-69 -55l-52 -72l-92 2l-41 -32l-82 -64l-26 -45l-129 16l-58 29zM1554 203l39 96l54 45l67 53l66 -22l92 37l65 37l91 12l24 76l117 -9l20 80l138 -45l2 -4l-56 -133l-71 35l-70 -94l-74 30l-67 -61l-70 -27l-88 -47l-25 -65l-86 -17l-67 -12l-99 31z" />
    <glyph glyph-name="ugrave" unicode="&#xf9;" horiz-adv-x="3149" 
d="M524 1057l31 22l27 21l63 14l4 -4l-43 -63l2 -78l-84 86v2zM610 805l27 67l51 86l72 27l49 8l104 -4l37 35l78 4l70 45l76 27l94 12l2 -4l-70 -66l-70 -41l-77 -24l-56 -57l-51 -7l-61 -79l-39 -35l-66 -37l-98 14l-70 23zM625 518l16 66l68 96l67 -6l103 28l77 29l58 8
l82 19l82 49l90 12l2 -6l-68 -61l-90 -31l-65 -53l-43 -37l-72 -43l-88 -60l-39 -55l-117 10l-61 31zM1804 1067l2 41l45 -8l54 14l2 -6l-33 -55l-10 -68l-60 78v4zM698 258l17 84l80 64l43 24l118 -2l58 64l92 -13l22 68l140 -21l2 -6l-72 -121l-65 25l-52 -78l-86 -4
l-73 -90l-48 -21l-100 -18l-74 41zM1898 817l27 72l39 69l74 19l69 29l70 8l84 30l76 13l65 39l68 22l96 10v-4l-67 -65l-62 -37l-72 -25l-59 -51l-76 -45l-51 -47l-68 -37l-61 -45l-78 16l-71 27zM1016 113l-6 133l106 -19l98 6l99 21l4 -8l-78 -64l-70 -71l-98 4l-53 -6z
M1909 528l18 84l58 72l92 4l86 37l37 29l120 -4l52 30l75 47l107 4l2 -6l-70 -80l-86 -28l-55 -19l-76 -96l-45 -10l-84 -41l-63 -68l-90 2l-78 39v4zM1905 233l30 84l43 48l105 47l82 10l59 10l100 33l66 33l35 63l133 -24l2 -2l-68 -119l-71 14l-68 -29l-90 -55l-43 -39
l-63 -55l-103 -51l-63 -2l-84 30zM2310 131l29 111l74 41l98 -35l102 24l4 -8l-86 -61l-71 -23l-68 -53l-80 -2zM1100 1630l45 23l35 26l82 23l2 -4l-62 -66l-53 8l-45 -18zM1542 1565l-4 67l51 -18l45 -8l2 -4l-24 -39l-35 -13l-33 9z" />
    <glyph glyph-name="uacute" unicode="&#xfa;" horiz-adv-x="3149" 
d="M524 1057l31 22l27 21l63 14l4 -4l-43 -63l2 -78l-84 86v2zM610 805l27 67l51 86l72 27l49 8l104 -4l37 35l78 4l70 45l76 27l94 12l2 -4l-70 -66l-70 -41l-77 -24l-56 -57l-51 -7l-61 -79l-39 -35l-66 -37l-98 14l-70 23zM625 518l16 66l68 96l67 -6l103 28l77 29l58 8
l82 19l82 49l90 12l2 -6l-68 -61l-90 -31l-65 -53l-43 -37l-72 -43l-88 -60l-39 -55l-117 10l-61 31zM1804 1067l2 41l45 -8l54 14l2 -6l-33 -55l-10 -68l-60 78v4zM698 258l17 84l80 64l43 24l118 -2l58 64l92 -13l22 68l140 -21l2 -6l-72 -121l-65 25l-52 -78l-86 -4
l-73 -90l-48 -21l-100 -18l-74 41zM1898 817l27 72l39 69l74 19l69 29l70 8l84 30l76 13l65 39l68 22l96 10v-4l-67 -65l-62 -37l-72 -25l-59 -51l-76 -45l-51 -47l-68 -37l-61 -45l-78 16l-71 27zM1016 113l-6 133l106 -19l98 6l99 21l4 -8l-78 -64l-70 -71l-98 4l-53 -6z
M1909 528l18 84l58 72l92 4l86 37l37 29l120 -4l52 30l75 47l107 4l2 -6l-70 -80l-86 -28l-55 -19l-76 -96l-45 -10l-84 -41l-63 -68l-90 2l-78 39v4zM1905 233l30 84l43 48l105 47l82 10l59 10l100 33l66 33l35 63l133 -24l2 -2l-68 -119l-71 14l-68 -29l-90 -55l-43 -39
l-63 -55l-103 -51l-63 -2l-84 30zM2310 131l29 111l74 41l98 -35l102 24l4 -8l-86 -61l-71 -23l-68 -53l-80 -2zM2116 1581l63 33l39 55l125 17l4 -7l-94 -84l-68 4l-67 -24z" />
    <glyph glyph-name="ucircumflex" unicode="&#xfb;" horiz-adv-x="3170" 
d="M524 1057l31 22l27 21l63 14l4 -4l-43 -63l2 -78l-84 86v2zM610 805l27 67l51 86l72 27l49 8l104 -4l37 35l78 4l70 45l76 27l94 12l2 -4l-70 -66l-70 -41l-77 -24l-56 -57l-51 -7l-61 -79l-39 -35l-66 -37l-98 14l-70 23zM625 518l16 66l68 96l67 -6l103 28l77 29l58 8
l82 19l82 49l90 12l2 -6l-68 -61l-90 -31l-65 -53l-43 -37l-72 -43l-88 -60l-39 -55l-117 10l-61 31zM1804 1067l2 41l45 -8l54 14l2 -6l-33 -55l-10 -68l-60 78v4zM698 258l17 84l80 64l43 24l118 -2l58 64l92 -13l22 68l140 -21l2 -6l-72 -121l-65 25l-52 -78l-86 -4
l-73 -90l-48 -21l-100 -18l-74 41zM1898 817l27 72l39 69l74 19l69 29l70 8l84 30l76 13l65 39l68 22l96 10v-4l-67 -65l-62 -37l-72 -25l-59 -51l-76 -45l-51 -47l-68 -37l-61 -45l-78 16l-71 27zM1016 113l-6 133l106 -19l98 6l99 21l4 -8l-78 -64l-70 -71l-98 4l-53 -6z
M1909 528l18 84l58 72l92 4l86 37l37 29l120 -4l52 30l75 47l107 4l2 -6l-70 -80l-86 -28l-55 -19l-76 -96l-45 -10l-84 -41l-63 -68l-90 2l-78 39v4zM1905 233l30 84l43 48l105 47l82 10l59 10l100 33l66 33l35 63l133 -24l2 -2l-68 -119l-71 14l-68 -29l-90 -55l-43 -39
l-63 -55l-103 -51l-63 -2l-84 30zM2310 131l29 111l74 41l98 -35l102 24l4 -8l-86 -61l-71 -23l-68 -53l-80 -2z" />
    <glyph glyph-name="udieresis" unicode="&#xfc;" horiz-adv-x="3149" 
d="M524 1057l31 22l27 21l63 14l4 -4l-43 -63l2 -78l-84 86v2zM610 805l27 67l51 86l72 27l49 8l104 -4l37 35l78 4l70 45l76 27l94 12l2 -4l-70 -66l-70 -41l-77 -24l-56 -57l-51 -7l-61 -79l-39 -35l-66 -37l-98 14l-70 23zM625 518l16 66l68 96l67 -6l103 28l77 29l58 8
l82 19l82 49l90 12l2 -6l-68 -61l-90 -31l-65 -53l-43 -37l-72 -43l-88 -60l-39 -55l-117 10l-61 31zM1804 1067l2 41l45 -8l54 14l2 -6l-33 -55l-10 -68l-60 78v4zM698 258l17 84l80 64l43 24l118 -2l58 64l92 -13l22 68l140 -21l2 -6l-72 -121l-65 25l-52 -78l-86 -4
l-73 -90l-48 -21l-100 -18l-74 41zM1898 817l27 72l39 69l74 19l69 29l70 8l84 30l76 13l65 39l68 22l96 10v-4l-67 -65l-62 -37l-72 -25l-59 -51l-76 -45l-51 -47l-68 -37l-61 -45l-78 16l-71 27zM1016 113l-6 133l106 -19l98 6l99 21l4 -8l-78 -64l-70 -71l-98 4l-53 -6z
M1909 528l18 84l58 72l92 4l86 37l37 29l120 -4l52 30l75 47l107 4l2 -6l-70 -80l-86 -28l-55 -19l-76 -96l-45 -10l-84 -41l-63 -68l-90 2l-78 39v4zM1905 233l30 84l43 48l105 47l82 10l59 10l100 33l66 33l35 63l133 -24l2 -2l-68 -119l-71 14l-68 -29l-90 -55l-43 -39
l-63 -55l-103 -51l-63 -2l-84 30zM2310 131l29 111l74 41l98 -35l102 24l4 -8l-86 -61l-71 -23l-68 -53l-80 -2zM1929 1493l17 127l79 -37l121 14l2 -8l-88 -82l-65 6l-64 -22z" />
    <glyph glyph-name="yacute" unicode="&#xfd;" horiz-adv-x="2625" 
d="M528 991l72 37l47 53l135 27l4 -4l-108 -84l-37 -84l-111 51zM649 801l29 61l57 78l72 25l49 12l98 4l39 31l76 10l72 43l76 29l92 14l2 -2l-72 -62l-72 -38l-77 -27l-56 -53l-49 -8l-67 -74l-41 -31l-66 -37l-94 4l-66 19zM748 602l20 55l76 78l55 19l105 24l81 19l56 8
l69 47l105 14l2 -4l-80 -69l-80 -23l-41 -37l-67 -51l-86 -66l-50 -28l-108 -8l-55 20zM82 47l22 41l89 23l81 26l5 -6l-56 -84l-67 -70l-72 66zM846 403l28 68l50 53l80 6l90 31l47 14l94 35l51 66l103 -17l2 -6l-52 -92l-84 4l-88 -49l-39 -29l-81 -49l-58 -55l-71 -4
l-70 20zM272 -106l25 83l90 46l72 2l94 51l96 -8l2 -7l-55 -75l-100 -39l-47 -53l-121 16l-54 -21zM942 203l29 45l51 100l74 -6l88 16l78 29l71 16l64 56l92 2l4 -6l-61 -70l-82 -14l-62 -43l-69 -43l-70 -58l-43 -57l-111 23l-51 6zM1317 135l-19 96l48 -38l63 -17v-4
l-41 -27l-20 -16l-29 2zM1843 1581l64 33l39 55l125 17l4 -7l-95 -84l-67 4l-68 -24z" />
    <glyph glyph-name="thorn" unicode="&#xfe;" horiz-adv-x="3088" 
d="M545 1417l61 35l39 53l121 15l4 -4l-90 -84l-23 -91l-110 72zM631 1169l22 82l70 56l76 24l39 37l100 8l53 6l64 45l90 11l74 41l77 34l88 9l2 -4l-63 -64l-76 -39l-78 -29l-65 -63l-76 -18l-39 -37l-71 -74l-54 -4l-67 -43l-86 -19l-78 37zM670 899l32 94l43 51l91 25
h82l75 31l68 20l74 19l34 104l103 -26l92 8l4 -4l-65 -68l-48 -96l-102 41l-61 -45l-58 -39l-73 -39l-52 -62l-78 -53h-67l-92 35zM680 616l22 82l46 56l65 37l105 -3l40 23l95 33l53 63l88 -12l29 47l129 -14l2 -2l-74 -107l-53 6l-49 -73h-82l-84 -52l-45 -16l-66 -82
l-70 -27h-71l-78 37zM662 319l18 76l45 66l84 35l78 12l78 20l75 9l84 30l52 6l73 54l97 14l2 -6l-72 -68l-88 -22l-37 -35l-78 -43l-55 -53l-64 -47l-61 -52l-80 -43l-80 9l-69 34zM1997 942l16 121l84 12l88 -43l58 53l59 41l102 7l2 -7l-69 -73l-70 -19l-29 -112l-73 8
l-64 -58l-102 66zM610 6l27 60l55 81l58 19l94 18l63 17l82 37l70 26l63 4l49 39l97 39l80 8l2 -6l-56 -57l-92 -51l-61 -13l-45 -45l-64 -37l-82 -39l-53 -38l-74 -58l-51 -30l-98 10l-62 14zM2028 668l18 98l78 53l51 -6l76 39l86 20l94 29l80 12l65 52l50 18l110 14v-2
l-82 -75l-45 -25l-82 -18l-59 -54l-84 -53l-70 -51l-78 -35l-30 -43l-90 -25l-86 48zM616 -276l27 92l62 55l69 45l78 8l51 13l74 6l92 51l86 6l37 31l59 84l125 -37l2 -4l-51 -121l-102 10l-49 -8l-60 -61l-98 -37l-51 -54l-43 -30l-90 16l-76 -31l-80 -14l-60 -23z
M2005 369l23 57l51 88l82 37l53 22l90 -4l47 35l103 23l45 41l75 4l56 20l63 72l68 63l114 -51l2 -4l-34 -123l-90 -10l-97 -2l-53 -29l-51 -55l-60 -8l-84 -66l-55 -12l-55 -72l-53 -26l-80 -39l-101 18l-59 17v4zM1233 -274l10 88l103 10l114 6l2 -4l-78 -84l-102 -10
l-45 -11zM2103 127l27 78l76 35l47 82l94 6l59 6l86 37l62 14l82 16l71 52l54 14l114 20l2 -4l-90 -75l-45 -31l-86 -21l-65 -53l-49 -37l-84 -43l-43 -41l-109 29l-49 -82l-98 18l-54 -24z" />
    <glyph glyph-name="ydieresis" unicode="&#xff;" horiz-adv-x="2625" 
d="M528 991l72 37l47 53l135 27l4 -4l-108 -84l-37 -84l-111 51zM649 801l29 61l57 78l72 25l49 12l98 4l39 31l76 10l72 43l76 29l92 14l2 -2l-72 -62l-72 -38l-77 -27l-56 -53l-49 -8l-67 -74l-41 -31l-66 -37l-94 4l-66 19zM748 602l20 55l76 78l55 19l105 24l81 19l56 8
l69 47l105 14l2 -4l-80 -69l-80 -23l-41 -37l-67 -51l-86 -66l-50 -28l-108 -8l-55 20zM82 47l22 41l89 23l81 26l5 -6l-56 -84l-67 -70l-72 66zM846 403l28 68l50 53l80 6l90 31l47 14l94 35l51 66l103 -17l2 -6l-52 -92l-84 4l-88 -49l-39 -29l-81 -49l-58 -55l-71 -4
l-70 20zM272 -106l25 83l90 46l72 2l94 51l96 -8l2 -7l-55 -75l-100 -39l-47 -53l-121 16l-54 -21zM942 203l29 45l51 100l74 -6l88 16l78 29l71 16l64 56l92 2l4 -6l-61 -70l-82 -14l-62 -43l-69 -43l-70 -58l-43 -57l-111 23l-51 6zM1317 135l-19 96l48 -38l63 -17v-4
l-41 -27l-20 -16l-29 2zM1898 1430l17 126l80 -36l121 14l2 -8l-88 -82l-66 6l-63 -23z" />
    <glyph glyph-name="dotlessi" unicode="&#x131;" horiz-adv-x="1904" 
d="M559 985l35 105l59 24l133 -4l97 25l2 -7l-82 -55l-82 -104l-57 -29l-103 41zM614 715l19 61l51 68l92 20l35 45l88 -12l68 49l88 6l73 39l50 45l106 -8l2 -6l-61 -86l-66 -8l-78 -35l-61 -62l-82 -20l-47 -76l-55 2l-76 -57l-84 4l-60 25zM600 412l31 96l43 51l88 23h80
l76 28l65 21l72 18l35 105l102 -29l92 8l2 -6l-63 -68l-45 -96l-101 41l-61 -43l-58 -39l-71 -39l-51 -61l-74 -53l-68 2l-92 37zM680 152l25 77l43 68l73 18l92 21l56 -2l92 37l51 69l84 -2h92l2 -6l-57 -72l-53 -65l-86 6l-88 -49l-33 -41l-76 -59l-104 45l-62 -27
l-49 -20z" />
    <glyph glyph-name="Lslash" unicode="&#x141;" horiz-adv-x="2850" 
d="M541 1460l26 17l19 20l53 8l2 -4l-33 -53l4 -70l-69 78zM629 1235l24 86l76 53l74 37l65 -12l99 28l51 21l67 43l123 14l2 -2l-90 -86l-78 -24l-47 -25l-84 -57l-32 -60l-76 -32l-90 -23l-82 35zM664 985l41 92l49 51l63 2l76 52l61 -2l66 41l100 16l49 27l97 34l71 39
l49 17l105 18l2 -4l-82 -70l-43 -26l-76 -29l-88 -53l-53 -21l-78 -65l-72 -25l-38 -47l-89 -24l-40 -50l-72 -4l-96 29zM666 721l45 78l43 55l102 4l45 41l72 10l65 41l95 29l49 14l94 41l47 82l113 -35l2 -4l-45 -110l-93 16l-94 -45l-41 -29l-82 -55l-73 -23l-56 -47
l-59 -8l-70 -78l-69 4l-88 13zM625 436l24 62l53 61l54 47l100 -2l68 35l69 33l72 12l80 39l55 -4l72 53l55 31l109 12l2 -4l-78 -78l-60 -20l-88 -23l-32 -45l-80 -35l-58 -47l-67 -33l-70 -28l-63 -78l-72 -10l-82 -2l-61 18zM547 135l37 64l53 53l41 49l80 37l80 12
l77 27l93 12l24 51l115 -6l53 23l68 53l78 20l90 21l2 -6l-70 -58l-68 -47l-86 -16l-49 -27l-69 -94l-56 16l-69 -63l-70 -43l-59 -53l-113 33l-55 -21l-64 -29l-61 -12zM1118 133l25 92l84 8l96 19l113 33l2 -6l-97 -68l-75 -59l-80 -21h-68v2zM2499 512l14 27l39 14l51 10
l2 -6l-29 -55l-16 -68l-57 74zM2257 135l10 88l80 43h94l68 6l98 27l4 -6l-84 -57l-47 -50h-96l-78 -45l-47 -10z" />
    <glyph glyph-name="lslash" unicode="&#x142;" horiz-adv-x="1966" 
d="M641 1268l18 112l56 15l96 41l92 6l78 10l37 21l106 26l80 31l2 -2l-59 -78l-107 -29l-39 -14l-57 -53l-63 -66l-93 -49l-47 -33l-100 58v4zM680 981l27 92l51 33l55 33l109 16l69 29l68 18l74 21l51 14l92 55l80 6l2 -6l-53 -59l-103 -35l-45 -31l-61 -43l-58 -41
l-67 -32l-82 -72l-62 -23l-57 -18l-90 39v4zM676 674l14 80l49 67l72 41l90 -4l53 23l86 26l35 56l82 20l80 31l113 -27l2 -4l-52 -102l-75 -43l-68 -50l-65 11l-76 -49l-51 -27l-56 -72l-78 -28l-81 6l-72 41zM621 342l45 25l22 90l72 45l94 20l39 33l94 20l70 11l78 18
l57 31l61 35l101 14l2 -4l-74 -70l-68 -22l-61 -25l-63 -49l-54 -47l-75 -57l-50 -11l-75 -57l-82 -27l-54 -22l-79 45v4zM829 135l29 90l55 76l84 -8l82 18l43 29l117 16l39 27l117 16l2 -8l-86 -78l-45 -12l-88 -80l-50 -14l-65 -51l-96 30l-74 -34l-62 -21z" />
    <glyph glyph-name="OE" unicode="&#x152;" horiz-adv-x="4061" 
d="M309 1184l53 41l54 18l71 90l74 41l82 2l33 31l106 25l45 28l103 35l82 16l2 -6l-66 -49l-92 -55l-51 -17l-88 -67l-43 -4l-56 -62l-77 -28l-78 -80h-64l-90 37v4zM217 870l33 84l78 7l26 69l92 55l74 -6l51 25l84 29l54 16l73 16l90 31l48 31l90 41l71 32l80 13l2 -6
l-59 -54l-72 -34l-88 -43l-53 -17l-84 -49l-59 -47l-48 -31l-75 -43l-52 -24l-43 -62l-100 -33l-70 25l-55 -55l-86 28zM233 608l48 74l45 41l49 57l76 19l90 32l53 3l90 49l57 57l97 -25l32 41l84 31l66 21l113 20l2 -4l-88 -74l-60 -39l-74 -43l-55 2l-43 -90l-80 -8
l-96 -37l-35 -39l-84 -49l-63 -45l-74 -2l-59 -6l-88 10zM1917 1393l47 73l55 7l115 20l2 -4l-90 -72l-39 -39l-88 11zM350 391l29 92l63 56l50 18l104 43l55 -10l101 33l47 24l65 55l78 23l90 18l96 13l2 -4l-71 -68l-72 -55l-67 -45l-84 -17l-50 -20l-90 -55l-26 -50
l-101 -53l-45 -24l-84 -15l-88 39zM1964 1145l31 76l41 49l90 20l59 25l84 28l66 33l61 6l55 23l93 45l51 6l96 27l2 -2l-53 -123l-66 31l-94 -43l-53 -27l-45 -43l-68 -29l-76 -47l-55 -29l-74 -57l-65 2l-78 25zM592 233l26 111l46 4l71 41l92 2l84 41l78 12l64 50l86 -2
l4 -7l-53 -69l-80 -17l-60 -51l-86 -39l-59 -69l-78 -29l-61 31l-72 -13zM1982 883l25 55l47 100l107 13h61l78 45l80 20l82 25l67 33l45 32l117 6l2 -2l-82 -86l-53 -14l-68 -29l-71 -47l-66 -49l-86 -31l-39 -47l-78 -73l-106 26l-59 19zM969 141l12 72l100 12l101 15
l2 -4l-74 -70l-98 -19l-41 -12zM1978 610l25 86l82 52l59 20l76 37l61 10l105 35l53 31l76 14l59 25l117 22l2 -2l-94 -76l-55 -30l-60 -50l-57 -20l-94 -57l-47 -39l-78 -37l-56 -33l-90 -29l-82 37zM3629 1380l25 109l114 -6l99 8l2 -4l-68 -70l-100 -28l-70 -13z
M1939 322l19 57l55 90l86 4l68 41l78 -4l53 55l90 13l70 16l65 33l53 41l115 6l4 -4l-80 -88l-63 -15l-70 -28l-55 -43l-68 -60l-78 -8l-47 -59l-75 -27l-58 -61l-104 14l-55 20zM2150 152l13 88l75 55h64l80 33l72 49l69 -33l60 100l108 -41l4 -6l-39 -112l-114 22l-21 -76
l-84 -22l-76 -41l-71 16l-90 -24l-48 -15zM3441 209l37 24l77 37l82 35l51 21l74 55l90 20l2 -4l-73 -53l-78 -51l-41 -39l-66 -72l-92 -4l-61 27z" />
    <glyph glyph-name="oe" unicode="&#x153;" horiz-adv-x="3600" 
d="M240 705l51 40l51 17l68 90l71 41h80l31 29l104 22l41 29l99 33l79 16l3 -4l-64 -53l-88 -52l-47 -16l-86 -66l-41 -4l-51 -61l-78 -29l-74 -80l-59 5l-90 38v5zM264 436l33 86l70 27l32 59l117 4l59 29l58 12l90 19l43 41l115 12l2 -4l-84 -80l-58 -6l-73 -57l-45 -37
l-60 -27l-80 -88l-65 14l-66 -37l-86 31zM1524 1024l14 76l39 -4l78 -11l2 -4l-43 -65l-23 -33l-67 37v4zM451 244l28 123l49 22l101 2l73 19l62 12l119 24l2 -4l-94 -75l-50 -39l-61 -45l-66 -76l-86 53l-75 -18zM1554 760l15 100l63 8l78 41l80 58l63 -11l97 23l65 29
l74 39l94 6l2 -4l-65 -70l-78 -31l-62 -33l-79 -59l-33 -53l-96 -25l-82 -33l-48 -45l-86 56zM815 137l-10 72l57 4l53 -29l5 -6l-31 -24l-45 -29l-27 6zM1554 479l7 76l84 70l41 14l96 23h53l61 53l78 12l84 14l88 17l2 -6l-67 -60l-66 -55l-57 -51l-80 -13l-37 -41
l-78 -59l-39 -22l-106 -19l-62 43zM2724 1024l18 111l76 -9l113 -6l2 -2l-68 -90l-43 -63l-96 57zM1509 178l50 47l55 88l47 27l102 27l45 24l72 10l111 35l34 29l121 10l2 -4l-86 -84l-45 -10l-98 -62l-53 -47l-47 -20l-86 -60l-52 -20l-102 12l-68 -6zM2753 758l28 102
l37 25l80 26l84 15l100 10l60 49l92 -2l2 -4l-58 -72l-75 -14l-72 -72l-65 -55l-107 31l-31 -35l-75 -8v4zM2066 158v96l66 -31l55 -8l2 -4l-30 -47l-50 -2l-41 -8z" />
    <glyph glyph-name="Scaron" unicode="&#x160;" horiz-adv-x="2799" 
d="M367 1317l65 31l51 32l103 45l86 33l2 -4l-78 -53l-80 -92l-53 -29l-94 31zM231 993l21 66l59 55l97 25l45 26l65 47l94 7l80 32l86 21l56 43l77 37l76 24l90 10l2 -2l-67 -63l-68 -41l-78 -37l-67 -14l-72 -53l-78 -39l-63 -70l-78 -20l-49 -17l-82 -57l-80 -10l-64 24z
M322 774l38 62l46 71l59 47l80 13l51 26l72 15l82 22l71 31l56 18l90 17l26 69l86 11l76 38l102 -4v-4l-59 -80l-80 -32l-63 -62l-72 25l-70 -60l-49 -28l-69 -35l-70 -49l-57 -47l-54 -21l-61 -53l-74 -16l-84 14l-71 8zM555 625l45 53l53 55l35 70l94 18l80 25l70 28
l72 23l63 2l53 37l72 33l65 37l72 6l82 39l68 36l71 27l92 14l3 -6l-70 -59l-68 -39l-71 -25l-82 -38l-51 -52l-72 -26l-70 -33l-63 -19l-41 -47l-66 -41l-65 -34l-70 -45l-74 -60l-75 19l-78 -7l-70 2zM197 193l36 22l25 64l80 -19l2 -6l-55 -33l-47 -18l-39 -13zM942 543
l19 45l73 86l39 43l90 4l64 47l88 10l59 23l76 26l41 25l88 35l68 20l82 19l24 69l102 13l25 57l84 -25l107 27l2 -6l-91 -62l-34 -79l-60 16l-76 -70l-67 27l-68 -51l-59 -39l-84 -45l-45 -17l-68 -41l-55 -30l-66 -62l-77 -18l-60 -66l-59 -2l-127 31l-33 -16zM1372 483
l23 58l61 75l84 11l43 53l86 33l57 16l64 10l94 37l49 4l95 41l43 17l75 26l82 49l53 15l99 22l2 -6l-82 -57l-43 -33l-90 -31l-70 -41l-41 -24l-92 -45l-35 -33l-90 -49l-47 -43l-49 -33l-80 -45l-68 2l-63 -59l-113 34l-43 -10zM1671 358l29 76l47 58l106 8l43 63l99 -4
l43 39l86 33l59 12l66 55l69 -14l90 53l37 60l115 -23l2 -6l-55 -100l-70 10l-98 -37l-35 -61l-84 -15l-49 -39l-78 -43l-59 -10l-60 -76l-76 6l-75 -75l-74 2l-76 24zM1735 127l32 70l62 53l67 45l70 22l96 7l43 22l80 45l84 10l74 31l59 43l41 86l133 -39l2 -6l-81 -67
l-66 -37l-70 -17l-71 -39l-62 -57l-86 -31l-45 -18l-67 -70l-97 33l-63 -47l-74 -29l-61 -14v4z" />
    </font>
</defs>
</svg>
