<?xml version="1.0" standalone="no"?>
<!DOCTYPE svg PUBLIC "-//W3C//DTD SVG 20010904//EN"
 "http://www.w3.org/TR/2001/REC-SVG-20010904/DTD/svg10.dtd">
<svg version="1.0" xmlns="http://www.w3.org/2000/svg"
 width="453.000000pt" height="453.000000pt" viewBox="0 0 453.000000 453.000000"
 preserveAspectRatio="xMidYMid meet">
<metadata>
Created by potrace 1.11, written by Peter Selinger 2001-2013
</metadata>
<g transform="translate(0.000000,453.000000) scale(0.100000,-0.100000)"
fill="#000000" stroke="none">
<path d="M3405 3682 c-3 -3 -5 -13 -5 -22 0 -13 -11 -17 -55 -18 -58 -1 -79
-8 -70 -23 6 -9 5 -10 -32 -14 -35 -4 -53 -14 -53 -30 0 -12 -13 -15 -60 -15
-53 0 -60 -2 -60 -20 0 -18 -7 -20 -80 -20 -73 0 -80 2 -80 20 0 18 -7 20 -86
20 -81 0 -86 1 -81 20 6 23 8 22 -120 21 -77 0 -83 1 -88 22 -6 22 -7 22 -213
21 -261 -2 -242 -1 -242 -23 0 -17 -7 -19 -57 -19 -108 0 -114 -1 -111 -19 3
-15 -6 -18 -59 -21 -55 -3 -63 -6 -63 -22 0 -17 -7 -20 -40 -20 -33 0 -40 -3
-40 -20 0 -16 -8 -19 -62 -22 -54 -3 -63 -6 -60 -20 2 -15 -6 -18 -50 -19 -29
-1 -58 -1 -65 0 -6 1 -13 -9 -15 -21 -2 -19 -9 -23 -40 -22 -30 0 -38 -3 -38
-18 0 -11 -7 -18 -20 -18 -15 0 -20 -7 -20 -25 0 -14 -3 -24 -7 -24 -25 4 -83
-2 -82 -8 4 -23 -3 -33 -21 -33 -13 0 -20 -7 -20 -20 0 -13 -7 -20 -20 -20
-13 0 -20 -7 -20 -20 0 -13 -7 -20 -20 -20 -13 0 -20 -7 -20 -20 0 -13 -7 -20
-20 -20 -13 0 -20 -7 -20 -20 0 -13 -7 -20 -20 -20 -19 0 -26 -24 -21 -67 2
-12 -4 -14 -26 -12 -5 0 -10 -10 -13 -23 -5 -18 -13 -23 -43 -25 -37 -2 -37
-2 -37 37 0 34 3 40 22 40 12 0 18 3 15 6 -11 12 13 43 28 38 13 -5 15 10 15
100 0 98 -1 106 -19 106 -13 0 -21 8 -23 23 -3 21 -7 22 -101 23 -96 0 -99 0
-108 -24 -7 -19 -15 -23 -34 -20 -45 9 -48 -1 -48 -146 0 -109 -3 -136 -14
-141 -9 -3 -17 2 -20 13 -2 10 -14 22 -26 27 -12 6 -22 17 -22 25 0 12 -15 16
-62 17 -60 2 -63 1 -63 -22 0 -21 5 -24 43 -27 34 -2 41 -6 39 -20 -2 -15 5
-18 42 -18 39 0 44 -2 41 -20 -3 -16 2 -20 22 -20 20 0 24 -4 20 -20 -5 -18 0
-20 39 -20 37 0 44 -3 44 -20 0 -13 7 -20 20 -20 13 0 20 -7 20 -20 0 -13 7
-20 20 -20 13 0 20 -7 20 -19 0 -20 29 -32 61 -26 10 2 20 1 20 -3 1 -4 2 -97
3 -206 1 -189 2 -199 21 -206 18 -6 20 -17 21 -116 2 -131 2 -134 12 -133 27
5 33 -3 30 -38 -3 -33 0 -38 20 -41 20 -3 22 -9 21 -45 -2 -69 0 -77 21 -77
13 0 20 -7 20 -20 0 -13 7 -20 20 -20 13 0 20 -7 20 -20 0 -13 -7 -20 -20 -20
-13 0 -20 -7 -20 -20 0 -13 -7 -20 -20 -20 -13 0 -20 -7 -20 -20 0 -13 -7 -20
-20 -20 -16 0 -20 -7 -20 -32 0 -33 -11 -60 -24 -59 -17 3 -26 0 -25 -6 4 -22
-3 -33 -19 -33 -16 0 -17 -18 -17 -265 0 -172 -3 -265 -10 -266 -5 -1 -15 -1
-21 0 -7 1 -11 -22 -12 -63 l0 -65 41 -3 c34 -2 41 -7 39 -20 -3 -16 7 -18 83
-18 78 0 85 2 85 20 0 13 7 20 20 20 13 0 20 -7 20 -20 0 -17 7 -20 45 -20 38
0 45 3 45 20 0 13 7 20 20 20 19 0 20 7 20 125 0 119 1 125 20 125 19 0 21 5
18 63 -3 53 -6 62 -21 61 -13 -2 -17 4 -15 20 3 18 9 21 41 18 33 -3 37 -1 37
20 0 23 2 24 83 23 66 0 82 3 82 15 0 22 12 27 51 25 30 -2 34 0 34 22 0 18 5
24 18 21 12 -2 18 -15 20 -46 3 -34 7 -42 20 -40 14 2 17 -5 18 -37 0 -33 4
-41 22 -43 14 -2 22 -10 22 -23 0 -12 7 -19 20 -19 17 0 20 -7 20 -40 0 -22 5
-41 10 -41 6 -1 16 -2 23 -3 6 -1 11 -9 9 -19 -2 -10 3 -17 13 -17 8 0 20 -11
25 -25 6 -16 14 -23 25 -19 16 7 16 7 18 -45 2 -24 8 -36 22 -41 11 -4 20 -13
20 -21 0 -8 10 -15 23 -17 17 -3 23 -10 22 -25 -5 -56 -4 -57 60 -57 57 0 66
5 61 33 0 4 8 7 19 7 16 0 20 -7 21 -32 0 -18 1 -132 2 -253 2 -213 3 -220 22
-220 19 0 20 7 20 253 l0 252 22 0 c16 0 23 6 23 20 0 21 7 23 53 20 21 -1 27
3 27 18 0 11 9 22 20 25 17 4 20 14 20 66 0 54 -2 61 -20 61 -13 0 -20 7 -20
20 0 13 -7 20 -20 20 -13 0 -20 7 -20 20 0 13 -7 20 -20 20 -13 0 -20 7 -20
20 0 13 -7 20 -20 20 -11 0 -20 3 -21 8 -3 29 -4 220 -1 230 3 9 31 12 103 11
90 -1 99 -3 99 -20 0 -12 7 -19 19 -19 13 0 21 -8 23 -22 2 -13 10 -23 18 -23
11 0 16 -15 18 -59 3 -48 7 -59 23 -63 19 -5 22 -18 19 -85 -1 -32 2 -38 19
-38 12 0 22 -6 22 -12 7 -67 3 -75 -34 -69 -5 1 -7 -9 -5 -21 2 -15 9 -22 21
-20 17 3 18 0 21 -53 l2 -30 207 -3 207 -2 0 24 c0 19 -4 24 -20 21 -17 -3
-20 2 -21 33 -1 20 0 49 1 65 1 22 -3 27 -22 27 -22 0 -23 3 -20 60 3 51 7 60
23 60 16 0 18 8 18 56 -1 36 4 59 12 65 21 12 29 1 29 -42 0 -39 0 -39 40 -39
33 0 40 -3 40 -20 0 -13 7 -20 20 -20 13 0 20 -7 20 -20 0 -17 7 -20 40 -20
33 0 40 -3 40 -20 0 -13 7 -20 20 -20 18 0 25 -10 21 -33 -1 -7 15 -10 61 -9
15 0 27 -2 27 -6 -4 -24 3 -43 14 -39 6 2 17 -5 24 -17 10 -19 20 -21 112 -21
76 -1 100 2 97 11 -5 13 22 42 33 36 3 -1 7 7 9 19 3 15 9 20 23 16 15 -4 19
0 19 19 0 18 5 24 18 22 15 -3 17 7 20 65 3 61 1 68 -15 65 -12 -2 -19 4 -21
18 -3 20 -9 22 -58 20 -59 -2 -77 4 -72 25 2 7 -6 15 -18 17 -19 3 -21 8 -18
43 3 36 2 39 -21 39 -18 0 -25 5 -25 20 0 14 -7 20 -21 20 -15 0 -19 5 -15 15
4 11 -3 19 -19 25 -20 8 -25 16 -25 45 l0 35 49 0 c61 0 81 7 74 26 -5 13 22
18 75 13 4 0 9 10 12 23 5 19 12 23 42 22 30 -1 37 2 40 20 2 17 10 21 41 20
32 -1 37 2 37 22 0 18 5 22 28 22 58 -1 59 0 57 42 -2 36 1 40 21 40 17 0 22
5 19 20 -3 16 2 20 21 20 18 0 24 5 22 18 -2 13 6 18 37 22 38 5 40 7 45 45 5
39 6 40 43 40 27 -1 37 3 38 15 1 8 2 26 2 40 1 14 7 25 14 25 6 0 15 3 19 7
5 6 9 195 5 241 -1 4 -10 7 -21 7 -16 0 -19 6 -17 38 2 37 2 37 -40 40 -34 3
-43 7 -43 22 0 12 -8 20 -22 22 -16 2 -22 9 -20 21 2 11 -4 17 -18 17 -13 0
-20 7 -20 20 0 11 -4 21 -10 21 -5 1 -16 2 -22 3 -7 0 -13 10 -13 21 0 12 -7
20 -17 19 -10 -1 -19 8 -22 22 -4 13 -10 23 -14 23 -22 -4 -32 3 -32 21 0 13
-7 20 -20 20 -13 0 -20 7 -20 20 0 13 -7 20 -20 20 -17 0 -20 7 -20 40 0 33
-3 40 -20 40 -13 0 -20 7 -20 20 0 17 7 20 44 20 39 0 44 2 39 20 -4 15 0 20
16 20 14 0 21 6 21 19 0 13 8 21 23 23 17 2 22 10 23 33 3 51 4 53 21 51 13
-1 17 8 19 34 1 19 2 38 3 43 1 4 10 7 20 7 16 0 19 7 19 38 0 75 1 82 21 82
17 0 19 9 19 125 1 125 0 125 -23 125 -18 0 -23 -5 -20 -20 3 -16 -2 -20 -21
-20 -17 0 -24 -5 -24 -20 0 -18 -7 -20 -60 -20 -53 0 -60 -2 -60 -20 0 -22 -3
-23 -71 -20 -39 1 -47 -2 -56 -22 -9 -20 -17 -23 -64 -23 -49 0 -54 -2 -57
-23 -2 -15 -9 -22 -20 -20 -11 2 -18 -5 -20 -19 -6 -42 -37 -22 -40 25 -2 26
1 32 18 32 12 0 20 7 21 18 1 23 1 243 0 263 -1 15 -25 22 -36 11z m-2524
-479 c4 -82 3 -87 -22 -93 -44 -11 -59 -1 -56 38 2 28 7 37 25 42 13 3 23 8
23 13 -2 22 0 27 14 27 9 0 15 -10 16 -27z"/>
<path d="M430 3125 c0 -27 1 -28 24 -19 24 9 20 44 -4 44 -15 0 -20 -7 -20
-25z"/>
</g>
</svg>
