<svg xmlns="http://www.w3.org/2000/svg" viewBox="0 0 740.63 744.64"><defs><style>.cls-1{font-size:76.56px;}.cls-1,.cls-2{stroke:#000;stroke-linecap:round;stroke-linejoin:round;font-family:Federal-Regular, Federal;}.cls-2{font-size:63.8px;}.cls-2,.cls-3{fill:#f2f2f2;}</style></defs><g id="Layer_2" data-name="Layer 2"><g id="burnographic"><g id="_1" data-name="1"><text class="cls-1" transform="matrix(0.12, -0.99, 0.99, 0.12, 65.93, 368.86)">*</text><text class="cls-2" transform="translate(76.92 295.35) rotate(-74.79)"> </text><text class="cls-2" transform="matrix(0.31, -0.95, 0.95, 0.31, 80.58, 281.82)"> </text><text class="cls-2" transform="matrix(0.35, -0.94, 0.94, 0.35, 84.86, 268.47)"> </text><text class="cls-2" transform="translate(89.76 255.37) rotate(-66.76)"> </text><text class="cls-2" transform="matrix(0.44, -0.9, 0.9, 0.44, 95.27, 242.48)"> </text><text class="cls-2" transform="translate(97.26 229.26) rotate(-53.78)">B</text><text class="cls-2" transform="translate(152.51 151.14) rotate(-34.8)">U</text><text class="cls-2" transform="translate(240.51 89.28) rotate(-14.65)">R</text><text class="cls-2" transform="translate(343.3 62.05) rotate(4.98)">N</text><text class="cls-2" transform="translate(446.56 73.38) rotate(20.8)">I</text><text class="cls-2" transform="translate(507.02 92.89) rotate(36.6)">N</text><text class="cls-2" transform="matrix(0.59, 0.81, -0.81, 0.59, 586.42, 150.96)">G</text><text class="cls-2" transform="translate(639.62 230.52) rotate(64.4)"> </text><text class="cls-2" transform="matrix(0.39, 0.92, -0.92, 0.39, 645.69, 243.14)"> </text><text class="cls-2" transform="matrix(0.35, 0.94, -0.94, 0.35, 651.16, 256.02)"> </text><text class="cls-2" transform="translate(656.03 269.15) rotate(72.42)"> </text><text class="cls-2" transform="translate(660.28 282.51) rotate(75.1)"> </text><text class="cls-1" transform="matrix(0.11, 0.99, -0.99, 0.11, 665.91, 294.44)">*</text><text class="cls-2" transform="translate(17.78 444.12) rotate(68.67)">M</text><text class="cls-2" transform="translate(67.25 559.83) rotate(50.45)">E</text><text class="cls-2" transform="translate(131 635.7) rotate(33.98)">C</text><text class="cls-2" transform="matrix(0.97, 0.25, -0.25, 0.97, 223.89, 697.53)">H</text><text class="cls-2" transform="translate(352.23 726.88) rotate(-5.35)">A</text><text class="cls-2" transform="translate(468.83 714.02) rotate(-24.48)">N</text><text class="cls-2" transform="matrix(0.76, -0.64, 0.64, 0.76, 574.45, 661.23)">I</text><text class="cls-2" transform="translate(633.5 612.34) rotate(-54.8)">C</text><text class="cls-2" transform="matrix(0.32, -0.95, 0.95, 0.32, 693.25, 524.17)">S</text><g id="piggie"><path class="cls-3" d="M595.55,361.08c-.36-6.28-1.46-17.93-14.14-16.17l-14.72-14.82h0c-1.21-2-2.26-4.09-3.64-5.94-7.37-9.9-14.81-19.73-22.23-29.59h0c16.48-.58,19.73-14.42,25.18-25.71,3-6.27,5.79-13,6.94-19.8,1.66-9.79,1.75-19.85,2.35-29.8a5,5,0,0,0-3.15-.62c-11.48,4.77-23,9.57-34.32,14.63-7.44,3.33-14.65,7.18-22.06,10.6-1.79.83-3.92.9-5.9,1.32a36.18,36.18,0,0,0,1.5-5.76q1.74-17.53,3.14-35.1c0-.4-1.74-1.5-2.35-1.3-5.62,1.86-11.16,4-16.75,5.95q-20.38,7.14-40.78,14.21c-9.67-3.34-19.1-8.23-29-9.7-18.88-2.79-38-3.63-57.09-5.28l-4.89,5.08h0l4.89-5.08-11.05,0c-9.37,1.72-18.95,2.71-28,5.43-6.24,1.87-11.77,6.12-17.62,9.31l3.09.61-3.09-.61c-7.48,1.84-15.16,3.12-22.39,5.69-6.78,2.41-13.21,6-19.58,9.41-6,3.27-12.51,6.28-17.53,10.82-11,9.92-21.14,20.71-31.59,31.2-3,3-5.51,6.44-8.74,9.06-.86.69-3.55-.9-5.4-1.45,1.39-3.37,3.37-6.63,4.06-10.14,1.82-9.19,7.47-21.37,3.69-27.17-9.34-14.3-24-7.93-35.67-.94-3.06,1.83-2.89,9.86-3.32,15.12-.49,6.12,0,12.32,0,18.48-.59.12-1.35.54-1.76.32-8.19-4.38-16.31-8.88-24.5-13.25-.94-.5-2.54-.91-3.2-.45s-1.14,2.75-.75,3.06a108.62,108.62,0,0,0,9.67,7c5.15,3.28,10.42,6.37,15.64,9.54,5.77,3.49,12,6.42,17.23,10.59,10.59,8.43,22.07,16.15,17.88,33.45-2,8.06-1.39,17.39.5,25.58,4.12,17.79,9.82,35.22,14.88,52.8.76,1.63,1.25,3.47,2.34,4.85,2.2,2.78,7.12,7.19,6.75,7.67-7.6,9.75-15.79,19.05-23.87,28.43q-.66,32.5-1.33,65c-1.58,1.59-4.05,2.92-4.58,4.81-3.68,13.1,8.6,13.65,15,15.56,8.24,2.48,17.79.73,26.77.48,1.54,0,4.13-1.47,4.37-2.65,1.91-9.24,3.37-18.57,5-27.87,1.78-7.39,3.55-14.78,6.26-26,2.57-.55,11-1.46,18.78-4.32,5.85-2.15,10.79-6.79,16.13-10.33,1.27.51,3.12.65,3.71,1.58,8.67,13.91,16.92,28.1,25.84,41.85,3.33,5.12,7.45,9.72,11.45,14.4l-.71.37,3.7,3.2c-.51,10.07,5.67,11.44,13.35,9.71,2.73-.62,5-3.18,7.51-4.86l0,63h6.15q0-31.35,0-62.71c2.43-1.73,4.78-4.81,7.3-5,12.25-.67,15-9.7,11.6-17.6-2.55-5.92-11.58-9.05-17.72-13.42q-.59-17.17-1.15-34.34c34.22-8.12,34.52,20.36,42.82,40.05,1.17,2.77,1,6.12,1.45,9.2l-4.63,2.68c3,4.38,5.72,12.2,9.14,12.54,14.33,1.41,28.88.62,43.35.49a5.44,5.44,0,0,0,3.43-1.71c.42-.44,0-2-.37-2.85-3.11-7-6.3-14-9.47-20.93,1.81-7.65,3.56-15.32,5.57-22.91.17-.64,2.74-1.48,3.19-1.09,3.73,3.31,6.81,7.48,10.86,10.27,10.08,7,20.57,13.32,30.9,19.93.12,1,.05,2.81.38,2.89,9.33,2.13,20.11,7.84,27.67,5s12.6-13.9,17.21-22.21c1.27-2.29-3-7.65-4.68-11.61-5.12-1.42-11.56-1.38-15.09-4.57-7.32-6.63-13.4-14.75-19.26-22.8-1.12-1.55.33-7.46,1.95-8.16,13.39-5.75,27.25-10.38,40.61-16.18,4.43-1.92,8-6.09,11.61-9.55s6.61-7.07,9.89-10.62l20.73-15.81C592.68,384,596.2,372.43,595.55,361.08ZM425.08,325.24l-55.78-1h0Zm48.33,5c4.83-.23,9.66-.54,14.5-.81-4.84.27-9.67.58-14.5.81L481,343.78l-7.56-13.57c-1.67-.41-3.35-.89-5-1.37s-3.35-1-5-1.43c1.67.44,3.35.94,5,1.43S471.74,329.8,473.41,330.21Zm75.08,33.06c-1.27,5.19-.31,11.17,3.23,17.56-.23.76-.42,1.68-.6,2.62.18-.94.37-1.86.6-2.62C548.18,374.44,547.22,368.46,548.49,363.27ZM551,383.89c-.1.5-.19,1-.3,1.46C550.84,384.88,550.93,384.39,551,383.89Zm-.36,1.72c-.06.28-.13.55-.2.8C550.54,386.16,550.61,385.89,550.67,385.61ZM346.28,415.74a21.5,21.5,0,0,0-1.44-1.68A21.5,21.5,0,0,1,346.28,415.74Zm-3.59-4.13Zm57.92-55.46-5.13.34ZM417.33,355l-10.93.73,10.93-.73,17.42-3.87Zm-74.7,56.5h0c.39.53.86,1.06,1.34,1.59-.48-.53-1-1.06-1.34-1.59l-.09,30.89h0Zm224.92-64.71c-1.35.37-2.65.8-3.87,1.27C564.9,347.63,566.2,347.2,567.55,346.83ZM368.62,217.61a5.52,5.52,0,0,1-1.06-.62A5.52,5.52,0,0,0,368.62,217.61ZM340.19,317.93c0,2,0,3.95,0,5.93l-30.75,1.36h0l30.75-1.36v-5.93c-2.32-.62-4.61-1.45-6.94-2C335.58,316.48,337.87,317.31,340.19,317.93ZM281.46,471.46c3.73-1.33,7.39-2.82,11.08-4.24h0C288.85,468.64,285.19,470.13,281.46,471.46Z"/><path d="M335.91,357.87H315c4-3.46,9.78-6.23,11.58-10.63,2-4.94.47-11.35.47-19.3l-16.9,13.85c-1-5.62-1.76-10.28-2.55-14.94v-1.09l13.24-1c11,.18,22.07.8,33.08.41,15.27-.54,15.4-.71,13.34,16.42l-16.53-13.81c-5.29,13.83-1.28,23.59,11.66,30.08h-21.6Z"/><path d="M489.3,357.42H427.13c10.77-5.83,13.33-17,17.81-26.67,1.85-4,4.3-4.91,8.39-5.44,11.48-1.51,18.85,1.78,22.07,13.86C477.38,346.59,481.46,353.48,489.3,357.42Zm-46.74-11.49c-.13,4.78.57,9.34,5.77,8.87,2.25-.2,4.1-4.7,6.14-7.24l-1.72-1.63Zm10.52-3c-1.74-4.22-3.12-7.59-5.22-12.69-2.13,5.12-3.53,8.5-5.28,12.69Z"/><path d="M370.65,357.14c7.37-3.47,8.29-9.64,8.35-16.26.05-6.23-.55-12.11-8-15.31h10.47l33.17,0c9.12,0,9.66.71,7.42,10.91l-21.31-9.86v12.7l12.84-4.68v12.61L401.45,342c-2.37,7.64-1,9.2,13.88,15.11Z"/><path d="M307.6,325.76v1.09c-9.56,3.3-11,5.4-11.06,16.24-.1,14.36-.11,14.15-14.56,14.61-5.15.17-8.88-1.24-12.31-5.08-4.53-5.08-9.6-9.69-15.1-15.17-.5,12.34,1.37,15.28,13,19.41H242.74c6.53-3,7.87-9,8-15.34S250,329.25,243,325.74c10.09,0,20.26-.74,30.22.37,3.78.42,7.14,5,10.58,7.85,2.64,2.17,5.1,4.57,7.92,7.12,1.24-7.82-.77-10.78-9.19-15.32Z"/></g></g></g></g></svg>