<svg id="Layer_1" data-name="Layer 1" xmlns="http://www.w3.org/2000/svg" viewBox="0 0 740.63 744.64"><defs><style>.cls-1{isolation:isolate;}.cls-2{fill:#f2f2f2;}</style></defs><g id="Layer_2" data-name="Layer 2"><g class="cls-1"><path d="M47.77,289.8s.52,12.21-.57,19.93c-.5,3.47-1.68,8.79-1.68,8.79s3.16-4.54,5.32-7.12c4.77-5.73,13.84-13.25,13.84-13.25l7.42,4.75,3.26,6.7-.31,9.58s-10.48,4.57-17.41,6c-3.16.7-8.15,1.25-8.15,1.25s4.78,1.73,7.7,3.08c6.39,3.09,15.39,10.1,15.39,10.1l-1.9,9.31-4.92,5.71-8.34,2.75s-7-9.46-10.27-16.16c-1.47-3.1-3.4-8.1-3.4-8.1,0-.16-.13,5.52-.47,9-.79,7.75-4.29,19.48-4.29,19.48l-8.66,1L24,359.45l-4.82-7.82s6.11-10.41,11.1-16.11c2.31-2.56,3.26-3.37,6.15-6.25,0,0-4.83,1.72-8.07,2.48-6.9,1.7-18.09,2-18.09,2L7,325.08l.93-7.66,5.3-7.59s10.79,3,17.08,6.3c3,1.52,7.24,4.34,7.24,4.34s-2.9-4.58-4.53-7.7c-3.5-6.65-6.86-18.21-6.86-18.21l6.55-6.44,6.94-1.46Z"/></g><g class="cls-1"><path d="M30.33,363.1a.43.43,0,0,1-.22-.06L23.8,359.9a.55.55,0,0,1-.21-.19l-4.82-7.81a.51.51,0,0,1,0-.52c.06-.1,6.19-10.52,11.16-16.19,1.67-1.85,2.64-2.8,4.11-4.24l.51-.51c-1.71.57-4.16,1.35-6.06,1.79-6.86,1.7-18.08,2-18.19,2.06a.5.5,0,0,1-.48-.33l-3.33-8.71a.45.45,0,0,1,0-.23l.93-7.66a.43.43,0,0,1,.09-.22l5.3-7.59a.52.52,0,0,1,.54-.2c.11,0,10.92,3.06,17.18,6.34,1.72.88,3.9,2.21,5.42,3.17-1-1.63-2.42-4-3.38-5.86-3.48-6.62-6.87-18.19-6.9-18.3a.51.51,0,0,1,.13-.5l6.55-6.43a.45.45,0,0,1,.24-.14l6.95-1.46a.54.54,0,0,1,.28,0L48,289.33a.52.52,0,0,1,.32.45c0,.12.5,12.35-.58,20-.28,2-.8,4.6-1.18,6.47,1.12-1.55,2.7-3.7,4-5.19,4.74-5.7,13.81-13.23,13.9-13.31a.5.5,0,0,1,.58,0l7.43,4.75a.58.58,0,0,1,.18.2l3.26,6.7a.52.52,0,0,1,0,.24l-.31,9.57a.53.53,0,0,1-.3.45c-.11,0-10.61,4.61-17.52,6-1.87.41-4.42.78-6.17,1,1.67.63,4.1,1.57,5.84,2.38,6.37,3.07,15.39,10.08,15.48,10.16a.5.5,0,0,1,.19.49L71.17,349a.57.57,0,0,1-.11.22l-4.93,5.71a.44.44,0,0,1-.22.15l-8.33,2.76a.52.52,0,0,1-.56-.18c-.07-.09-7.07-9.58-10.31-16.24-.84-1.77-1.83-4.16-2.53-5.89,0,.24,0,.51,0,.8-.08,1.66-.2,4-.38,5.83-.78,7.71-4.27,19.46-4.3,19.57a.52.52,0,0,1-.42.36l-8.66,1Zm-6-4,6.05,3,8.18-1c.56-1.91,3.48-12.16,4.18-19.07.32-3.21.47-8.45.48-8.92a.21.21,0,0,1,0-.11.48.48,0,0,1,.55-.43c.21,0,.33,0,.39.32h0c0,.05,1.94,5,3.38,8.07,2.89,5.92,8.82,14.15,10,15.79l7.86-2.6,4.75-5.51L72,339.77c-1.48-1.13-9.37-7.1-15.06-9.85-2.27-1.05-5.79-2.36-7.11-2.86-.72-.27-1-.36-.86-.79a.49.49,0,0,1,.43-.38s5-.55,8.1-1.23c6.17-1.24,15.3-5.07,17-5.81l.3-9.14-3.15-6.47-7-4.47c-1.56,1.31-9.28,7.88-13.5,13-2.12,2.54-5.26,7-5.29,7.09a.52.52,0,0,1-.61.17.51.51,0,0,1-.29-.57c0-.05,1.18-5.34,1.67-8.75,1-6.89.65-17.52.58-19.51l-7.71-3-6.66,1.41-6.23,6.12c.54,1.82,3.61,11.88,6.75,17.84,1.59,3.07,4.47,7.62,4.5,7.67a.49.49,0,0,1-.07.62.5.5,0,0,1-.62.06c-.05,0-4.29-2.83-7.2-4.31-5.55-2.92-14.77-5.63-16.65-6.17l-5,7.19L7.47,325l3.15,8.27c2-.08,11.55-.51,17.64-2,3.18-.75,8-2.46,8-2.47a.5.5,0,0,1,.59.2.51.51,0,0,1-.07.62c-.82.82-1.48,1.47-2.07,2-1.45,1.43-2.41,2.37-4.06,4.19C26.2,341,20.76,350,19.78,351.63Z"/></g><g class="cls-1"><path class="cls-2" d="M131.33,179.31l-34.64,47.3-2.06-1.51c6.9-9.42,4.21-17.08-10.36-27.75-13.07-9.58-19.91-8.66-26.7.61l-2.06-1.51,32.23-44c18.85-25.73,27.65-30.19,34.76-25,6.28,4.6,5.42,11.17-.88,19.76l.52.38c6.37-8.7,13.77-12.54,20.3-7.75C150,145.35,147.84,156.76,131.33,179.31ZM85.09,160.39,100.94,172c7.31-10,6.83-14.93,1.57-18.78S91.87,151.12,85.09,160.39Zm18.06,13.23,19,13.91c7.2-9.83,6.73-16.11.5-20.67C116.11,162.07,110.17,164,103.15,173.62Z"/></g><g class="cls-1"><path d="M96.69,227.11a.47.47,0,0,1-.3-.1l-2.06-1.51a.52.52,0,0,1-.2-.32.56.56,0,0,1,.09-.38c6.8-9.27,4-16.6-10.24-27.05-6.46-4.73-11.36-6.85-15.4-6.66-3.83.17-7.11,2.38-10.61,7.16a.46.46,0,0,1-.32.2.52.52,0,0,1-.38-.09l-2.05-1.51a.49.49,0,0,1-.11-.7l32.23-44c17.75-24.23,27.35-31,35.45-25.11,5.45,4,5.94,9.62,1.46,17.13,6.31-7.06,12.93-8.81,18.49-4.73,8.29,6.07,4.89,18.46-11,40.16L97.09,226.9A.49.49,0,0,1,96.69,227.11ZM95.32,225l1.26.92L130.93,179h0c15.49-21.15,18.95-33.1,11.22-38.77-7.94-5.81-15.69,2.3-19.61,7.64a.5.5,0,0,1-.7.11l-.51-.38a.46.46,0,0,1-.2-.32.48.48,0,0,1,.09-.37c6.43-8.79,6.75-14.85,1-19.07-6.18-4.53-14.34-2-34,24.89l-31.94,43.6,1.25.92c3.59-4.77,7-7,11.08-7.17,4.28-.19,9.37,2,16,6.86C99,207.53,102.08,215.44,95.32,225Zm26.83-37a.54.54,0,0,1-.3-.1l-19-13.91a.5.5,0,0,1-.2-.33.49.49,0,0,1,.09-.37c7.14-9.75,13.37-11.86,20.2-6.86s6.64,11.75-.4,21.36a.5.5,0,0,1-.33.2Zm-18.3-14.52L122,186.83c6.44-9,6.53-15,.32-19.56S110.54,164.54,103.85,173.51Zm-2.91-1a.51.51,0,0,1-.29-.1L84.79,160.79a.5.5,0,0,1-.1-.7c3.43-4.69,6.53-7.53,9.47-8.7s5.76-.69,8.65,1.43,4.26,4.55,4.13,7.51c-.15,3.15-1.92,6.95-5.6,12A.48.48,0,0,1,100.94,172.5ZM85.79,160.28l15,11c3.31-4.59,5-8.2,5.11-11,.12-2.63-1-4.68-3.72-6.66s-5.07-2.33-7.7-1.3S89,156,85.79,160.28Z"/></g><g class="cls-1"><path class="cls-2" d="M212.25,75.35l2.59,3.72c8.73,12.58,7.8,22.08-14.25,37.41-23.84,16.57-40.09,23.36-50.87,7.85l-8.05-11.58c-5.1-7.33-11.18-8.15-17.68-3.63l-1.56-2.26c6.86-4.77,19-12.81,25.85-17.58S166.9,76,173.77,71.18c5.34-3.71,14.85-9.93,20.19-13.65s14.49-10.45,19.83-14.17l1.57,2.26C204.72,53,204,63.46,212.25,75.35Zm-3,2.12c-8.34-12-18.79-14.52-33.88-4-6.23,4.34-7.43,10-2.23,17.48l8,11.52c8.49,12.21,14.41,12.91,25.1,5.48,9.53-6.63,13.78-14.94,5.55-26.78Z"/></g><g class="cls-1"><path d="M165.05,133.53c-6.41,0-11.59-2.95-15.74-8.91L141.26,113c-4.76-6.85-10.48-8-17-3.51a.55.55,0,0,1-.38.08.54.54,0,0,1-.32-.21L122,107.15a.51.51,0,0,1,.12-.7c3.44-2.39,8.28-5.65,13-8.8s9.48-6.4,12.9-8.78,8.16-5.77,12.74-9,9.32-6.67,12.75-9.06c2.68-1.86,6.45-4.39,10.11-6.83s7.42-5,10.08-6.82S200,52.61,203.58,50s7.25-5.23,9.92-7.09a.56.56,0,0,1,.38-.08.54.54,0,0,1,.32.21l1.57,2.25a.51.51,0,0,1-.13.7c-5.12,3.55-7.95,7.87-8.43,12.82s1.37,10.35,5.45,16.22l2.59,3.72c8.54,12.29,8.78,22-14.38,38.1-13.78,9.58-22.9,14.37-30.51,16A24.67,24.67,0,0,1,165.05,133.53Zm-33.41-27.69c3.85,0,7.38,2.22,10.44,6.63l8,11.58c5.05,7.26,11.41,9.77,20,7.89,7.47-1.62,16.49-6.37,30.15-15.87,22.47-15.62,22.3-24.95,14.13-36.71l-2.59-3.72h0c-4.22-6.07-6.11-11.76-5.62-16.89s3.33-9.58,8.44-13.26l-1-1.43c-2.63,1.84-6.12,4.35-9.5,6.79-3.57,2.58-7.25,5.23-9.92,7.09s-6.46,4.39-10.11,6.83-7.42,5-10.09,6.82c-3.43,2.38-8.16,5.77-12.74,9s-9.31,6.67-12.75,9-8.25,5.64-12.91,8.79c-4.49,3-9.13,6.15-12.53,8.51l1,1.43A13.72,13.72,0,0,1,131.64,105.84Zm63.1,7.38a10.2,10.2,0,0,1-2-.19c-3.91-.78-7.62-4-12-10.31l-8-11.53c-5.14-7.4-4.35-13.51,2.36-18.17,14.57-10.13,25.56-8.81,34.57,4.16h0l2.55,3.67c4,5.77,5.31,10.93,4,15.76-1.17,4.19-4.32,8-9.64,11.71C201.66,111.68,198,113.22,194.74,113.22ZM192.3,67.38c-5,0-10.49,2.16-16.68,6.46s-6.93,9.83-2.1,16.78l8,11.53c4.26,6.12,7.78,9.17,11.41,9.89s7.4-.65,13-4.54c5.12-3.55,8.14-7.2,9.24-11.16,1.27-4.53,0-9.41-3.81-14.92l-2.55-3.67C204,70.83,198.58,67.38,192.3,67.38Z"/></g><g class="cls-1"><path class="cls-2" d="M317.94,65c-21.17,5.54-26.69,1.31-30.87-7.09-2.5-5-4.95-10.12-13-8l-3,.79,2.6,9.94c2.08,8,6.76,10.23,16.33,7.73l.69,2.65c-7.77,2-21.49,5.29-29.27,7.33s-21.4,5.92-29.18,7.95l-.69-2.65c12.16-3.18,12.48-17.84,9.79-28.14-2.94-11.24-9.56-19.4-21.41-16.3l-.64-2.47,58.57-15.31c25.06-6.55,37.41-6.75,40,3.25,2.44,9.32-6.12,13.67-12.11,15.24l.33,1.23c7.22-1.89,12.81,1.33,17.13,6.53s9,9.64,14.73,8.15l.64,2.47C334.2,60.32,328.74,62.14,317.94,65ZM265,27.37l5.34,20.43c11.91-3.11,14.36-8.37,12.8-14.36C281.06,25.54,275.54,24.61,265,27.37Z"/></g><g class="cls-1"><path d="M233.7,86.59a.51.51,0,0,1-.49-.37l-.69-2.66a.49.49,0,0,1,.36-.61c11.49-3,12.26-16.71,9.43-27.53-2-7.47-7.26-19.48-20.8-15.94a.5.5,0,0,1-.61-.36l-.64-2.47a.47.47,0,0,1,.05-.38.57.57,0,0,1,.3-.23l58.58-15.31c13.55-3.54,22.36-5,28.58-4.59,6.86.4,10.69,3,12.05,8.2a10.55,10.55,0,0,1-3,11,22.08,22.08,0,0,1-8.94,4.69l.07.28c6.39-1.49,12.16.81,17.16,6.82,4.13,5,8.71,9.42,14.22,8a.46.46,0,0,1,.38,0,.52.52,0,0,1,.23.3l.64,2.47a.5.5,0,0,1-.27.58c-4.62,2.18-10.24,4-20.75,6.75l-.12-.48.12.48c-20.79,5.44-26.9,1.79-31.44-7.36L288,57.8c-2.45-4.94-4.77-9.6-12.33-7.62l-2.54.66,2.47,9.46c1,3.93,2.64,6.3,5.09,7.46s5.86,1.16,10.63-.09a.56.56,0,0,1,.38,0,.52.52,0,0,1,.23.31l.69,2.65a.5.5,0,0,1-.35.61c-3.89,1-9.36,2.37-14.64,3.67S266.89,77.6,263,78.62s-9.33,2.52-14.6,4-10.69,3-14.58,4A.25.25,0,0,1,233.7,86.59Zm-.09-2.8.45,1.69c3.84-1,9-2.45,14.08-3.85,5.26-1.45,10.71-3,14.61-4s9.36-2.36,14.65-3.67c5.06-1.24,10.29-2.53,14.14-3.53l-.44-1.69c-4.76,1.19-8.21,1.15-10.83-.09s-4.52-3.88-5.63-8.12L272,50.61a.5.5,0,0,1,.36-.61l3-.79c8.34-2.18,10.95,3.07,13.48,8.14l.07.14c3.67,7.4,8.24,12.6,30.29,6.84,10.15-2.66,15.71-4.45,20.2-6.52l-.42-1.59c-5.83,1.21-10.53-3.32-14.75-8.43-4.86-5.84-10.45-8-16.62-6.37a.55.55,0,0,1-.38-.05.48.48,0,0,1-.23-.31l-.33-1.23a.5.5,0,0,1,.36-.61,21.54,21.54,0,0,0,9-4.59,9.61,9.61,0,0,0,2.75-10c-1.23-4.72-4.77-7.09-11.14-7.46-6.11-.36-14.83,1.05-28.27,4.56L221.35,36.88l.4,1.51c10.41-2.48,18,3.46,21.53,16.78C246.18,66.29,245.36,80.35,233.61,83.79Zm38.18-35.64a.59.59,0,0,1-.26-.07.52.52,0,0,1-.23-.31L266,27.34a.5.5,0,0,1,.36-.61c9.86-2.57,16.44-2.4,18.75,6.43.9,3.45.43,6.29-1.44,8.69-2.11,2.72-5.94,4.77-11.72,6.28Zm-4.73-20.57L272.14,47c5.22-1.42,8.82-3.37,10.7-5.79,1.67-2.14,2.08-4.7,1.26-7.82C282.27,26.41,277.79,24.85,267.06,27.58Z"/></g><g class="cls-1"><path class="cls-2" d="M432.74,41.92,430.5,67.59c-4.32-.37-11.92-1.36-16.24-1.73s-12-.73-16.3-1.1L366.3,27.61l-.68,7.82c-1.36,15.57,4,24.29,19.09,25.61l-.22,2.54c-5.6-.48-15.42-1.66-21-2.15s-15.47-1-21.13-1.52l.22-2.54c11.44,1,17.14-5.55,18.59-22.2,1.43-16.4-2.91-22.54-14.6-23.56l.22-2.54c7.05.61,19.42,2,26.48,2.62s19.41,1.37,26.46,2L427.6,43.52l.19-2.16c1.51-17.29-7.13-23.29-18-24.24l.22-2.54c5.84.51,16.11,1.72,22,2.23s16.11,1.08,22,1.59L453.71,21C442.15,19.94,434.26,24.5,432.74,41.92Z"/></g><g class="cls-1"><path d="M430.5,68.09h0c-2.17-.19-5.21-.54-8.15-.87s-5.94-.68-8.09-.87-5.2-.37-8.14-.54-6-.37-8.16-.55a.57.57,0,0,1-.34-.18L366.69,28.84l-.58,6.63c-.69,7.92.38,13.75,3.28,17.82,3,4.24,8,6.61,15.36,7.25a.5.5,0,0,1,.34.18.48.48,0,0,1,.12.36L385,63.63a.5.5,0,0,1-.55.45c-2.8-.24-6.72-.67-10.51-1.08s-7.7-.83-10.5-1.07-6.75-.51-10.55-.76-7.74-.51-10.57-.76a.5.5,0,0,1-.46-.54l.22-2.54a.51.51,0,0,1,.54-.46c11.23,1,16.63-5.52,18.05-21.75.71-8.17,0-13.65-2.3-17.23s-5.95-5.27-11.84-5.78a.51.51,0,0,1-.46-.54L346.28,9a.5.5,0,0,1,.54-.45c3.53.31,8.47.82,13.25,1.31s9.71,1,13.23,1.31,8.46.66,13.23,1,9.71.68,13.24,1a.52.52,0,0,1,.32.16l27.11,29,.09-1c1.28-14.59-4.62-22.57-17.54-23.69a.5.5,0,0,1-.45-.54l.22-2.55a.52.52,0,0,1,.18-.34.48.48,0,0,1,.36-.11c2.92.25,7,.69,11,1.11s8.07.87,11,1.12,7,.53,11,.8,8.06.54,11,.8a.49.49,0,0,1,.45.54L454.21,21a.48.48,0,0,1-.54.45c-12.8-1.11-19.1,5.22-20.43,20.52l-.5,0,.5,0L431,67.64A.49.49,0,0,1,430.5,68.09Zm-32.29-3.81c2.14.18,5.08.36,7.93.53s6,.36,8.16.55,5.19.53,8.12.87c2.71.31,5.51.62,7.63.82l2.19-25.18c1.38-15.79,7.87-22.43,21-21.46l.13-1.55c-2.87-.24-6.73-.5-10.47-.75-4-.27-8.05-.55-11-.8s-7.05-.7-11-1.12c-3.73-.4-7.58-.81-10.45-1.07l-.13,1.55c13,1.33,19.24,9.87,18,24.73l-.19,2.16a.49.49,0,0,1-.33.43.52.52,0,0,1-.53-.13l-27.75-29.7c-3.51-.3-8.35-.64-13-1s-9.72-.69-13.25-1-8.47-.82-13.25-1.31c-4.55-.47-9.24-1-12.73-1.27l-.13,1.55c5.94.6,9.8,2.58,12.1,6.19,2.41,3.78,3.19,9.45,2.45,17.86-1.43,16.46-7.18,23.47-18.62,22.7l-.14,1.55c2.78.23,6.47.47,10.06.71,3.8.26,7.74.52,10.57.76S370.25,61.6,374,62c3.56.39,7.25.78,10,1l.14-1.55c-7.37-.73-12.47-3.22-15.6-7.62s-4.16-10.32-3.45-18.49l.68-7.81a.51.51,0,0,1,.34-.44.5.5,0,0,1,.54.16Z"/></g><g class="cls-1"><path class="cls-2" d="M476.67,82.9c-8.29-3.15-22.84-8.33-31.13-11.48l1-2.56c11.8,4.48,18-1.68,23.63-16.41C476,37.06,473.62,30,462.83,25.92l1-2.57c8.29,3.15,22.61,8.93,30.9,12.08s22.84,8.33,31.13,11.48l-1,2.57C513,45,507.06,49.61,501.46,64.34c-5.66,14.91-3.65,24,7.08,28.08l-1,2.56C499.28,91.83,485,86.05,476.67,82.9Z"/></g><g class="cls-1"><path d="M507.57,95.48a.57.57,0,0,1-.18,0c-4.15-1.58-9.9-3.85-15.46-6s-11.3-4.47-15.44-6h0c-4.13-1.57-9.92-3.68-15.52-5.73s-11.45-4.17-15.61-5.75a.48.48,0,0,1-.27-.27.5.5,0,0,1,0-.38l1-2.56a.5.5,0,0,1,.64-.29c10.75,4.08,17-.29,23-16.12,2.92-7.68,3.74-13.14,2.57-17.18-1.12-3.88-4.17-6.64-9.6-8.71a.51.51,0,0,1-.28-.26.5.5,0,0,1,0-.38l1-2.57a.52.52,0,0,1,.65-.29c4.15,1.58,9.92,3.86,15.49,6.06s11.27,4.45,15.41,6,9.92,3.69,15.52,5.73,11.45,4.18,15.6,5.75a.5.5,0,0,1,.28.27.46.46,0,0,1,0,.38l-1,2.56a.5.5,0,0,1-.65.29c-5.79-2.2-10.11-2.15-13.59.17s-6.23,6.71-9.15,14.41c-5.63,14.82-3.47,23.53,6.79,27.43a.5.5,0,0,1,.29.64l-1,2.57a.51.51,0,0,1-.26.28A.45.45,0,0,1,507.57,95.48ZM446.19,71.13c4.11,1.56,9.7,3.6,15.12,5.57,5.6,2,11.4,4.16,15.53,5.73h0c4.15,1.58,9.9,3.85,15.46,6,5.35,2.11,10.88,4.29,15,5.86l.62-1.64c-10.5-4.22-12.69-13.3-6.91-28.54,3-7.9,5.95-12.49,9.54-14.88s8.14-2.59,14-.45l.62-1.63c-4.11-1.55-9.71-3.6-15.12-5.57-5.6-2.05-11.4-4.16-15.54-5.73s-9.87-3.84-15.42-6c-5.36-2.12-10.9-4.31-15-5.87l-.62,1.63c5.46,2.17,8.56,5.09,9.74,9.18,1.23,4.26.41,9.92-2.59,17.81-5.1,13.44-11.12,21.45-23.81,16.88Z"/></g><g class="cls-1"><path class="cls-2" d="M592.48,122.82l-15.37,20.69c-3.48-2.59-9.44-7.41-12.92-10s-9.82-6.9-13.31-9.49L543.4,75.8l-4.68,6.3c-9.32,12.55-9.36,22.77,2.83,31.82L540,116c-4.51-3.35-12.26-9.5-16.77-12.85s-12.63-9-17.19-12.37l1.52-2c9.22,6.85,17.5,4.26,27.47-9.16,9.81-13.21,9.34-20.71-.08-27.71l1.52-2C542.18,54,552,61.67,557.67,65.9s15.81,11.34,21.49,15.56l8.1,40,1.3-1.74c10.34-13.93,6.14-23.57-2.62-30.08l1.52-2c4.71,3.49,12.82,9.91,17.53,13.41s13.15,9.37,17.86,12.87l-1.52,2C612,109,602.9,108.78,592.48,122.82Z"/></g><g class="cls-1"><path d="M577.11,144a.47.47,0,0,1-.3-.1c-1.75-1.3-4.15-3.18-6.47-5s-4.72-3.69-6.45-5-4.24-3-6.65-4.74-4.91-3.45-6.65-4.74a.5.5,0,0,1-.2-.33l-7.3-47-4,5.34c-4.74,6.38-6.88,11.91-6.55,16.89.34,5.19,3.38,9.85,9.28,14.23a.51.51,0,0,1,.1.7l-1.52,2a.51.51,0,0,1-.7.1c-2.26-1.68-5.39-4.1-8.41-6.44s-6.11-4.74-8.35-6.4-5.49-4-8.59-6.19-6.33-4.49-8.61-6.19a.5.5,0,0,1-.1-.7l1.52-2a.53.53,0,0,1,.33-.19.49.49,0,0,1,.37.09c4.53,3.37,8.78,4.33,13,3s8.82-5.35,13.77-12,7.14-11.63,7.07-15.88c-.06-4.07-2.3-7.61-7.05-11.13a.49.49,0,0,1-.1-.7l1.52-2.05a.5.5,0,0,1,.7-.1c2.85,2.11,6.79,5.14,10.61,8.08s7.72,5.93,10.55,8,6.84,5,10.71,7.76,7.94,5.69,10.79,7.81a.49.49,0,0,1,.19.3l7.88,38.93.62-.84c4.73-6.36,6.66-12.22,5.77-17.44-.76-4.4-3.54-8.42-8.28-11.93a.5.5,0,0,1-.1-.7l1.52-2a.51.51,0,0,1,.7-.11c2.37,1.76,5.65,4.3,8.81,6.75s6.38,4.93,8.72,6.67,5.67,4.11,8.89,6.41,6.6,4.7,9,6.46a.5.5,0,0,1,.1.7l-1.52,2.05a.53.53,0,0,1-.33.19.5.5,0,0,1-.37-.09c-4.92-3.66-9.38-5.08-13.63-4.34-4.86.85-9.61,4.48-14.52,11.1h0l-15.37,20.69A.51.51,0,0,1,577.11,144Zm-25.76-20.26c1.72,1.28,4.13,3,6.46,4.61s4.93,3.46,6.67,4.75,4.15,3.19,6.47,5c2.15,1.68,4.36,3.42,6.06,4.69l15.06-20.29c5.08-6.84,10-10.59,15.16-11.48,4.42-.77,9,.61,14,4.22l.93-1.25c-2.33-1.72-5.49-4-8.55-6.15-3.22-2.29-6.55-4.67-8.91-6.42s-5.59-4.25-8.73-6.68-6.07-4.7-8.4-6.43l-.92,1.24c4.7,3.61,7.48,7.73,8.26,12.27,1,5.5-1,11.62-5.94,18.21l-1.3,1.74a.49.49,0,0,1-.51.19.52.52,0,0,1-.38-.39l-8.06-39.84c-2.84-2.1-6.79-4.94-10.62-7.69s-7.88-5.66-10.72-7.76-6.77-5.13-10.57-8c-3.64-2.79-7.39-5.68-10.2-7.77l-.93,1.25c4.75,3.63,7,7.33,7.06,11.61.07,4.48-2.24,9.72-7.27,16.5S525.72,90.71,521.2,92.2s-8.84.53-13.5-2.8l-.93,1.25C509,92.3,512,94.45,515,96.53c3.11,2.21,6.32,4.5,8.6,6.19s5.37,4.09,8.38,6.42c2.84,2.2,5.77,4.47,8,6.13l.93-1.25c-5.89-4.48-8.92-9.28-9.28-14.67-.35-5.22,1.86-11,6.75-17.55L543,75.5a.49.49,0,0,1,.52-.18.48.48,0,0,1,.37.4Zm41.13-.93h0Z"/></g><g class="cls-1"><path class="cls-2" d="M651.69,210.53l-14.93,10.88c-3.13-4.29-4.27-8.68-3.68-11.56-3.91-2.45-13.07-11.44-19.85-20.74-15.47-21.24-23.41-40.29-6.36-52.71,18.09-13.18,33.55-1.18,50.26,21.76,5.27,7.24,8.83,14,8.78,18.68a112.15,112.15,0,0,1,17.17,18.58s-7.27.87-12.41,1.21-12.44.28-12.44.28l-5.42-7.44c8.94-6.51,13-14.9,5.24-25.49-5.08-7-14.07-7.15-28.54,3.39-13,9.44-17.35,16-13.51,21.3,1.39,1.92,3.52,4.08,4.85,4.38l11.47-8.35c5.53-4,3.25-9.33-.14-14l2.07-1.51c4.22,5.79,11.26,16,15.48,21.79s11.78,15.63,16,21.41l-2.07,1.51C660,208.85,656.5,207,651.69,210.53Z"/></g><g class="cls-1"><path d="M636.76,221.91h-.08a.5.5,0,0,1-.33-.2c-2.88-4-4.33-8.37-3.82-11.61-4.28-2.83-13.25-11.82-19.7-20.69-8.94-12.26-13.85-21.75-15.47-29.86-2-9.89,1-17.6,9.22-23.55,8.74-6.37,17.31-7.25,26.17-2.7,7.51,3.86,15.38,11.67,24.79,24.58,5.83,8,8.82,14.31,8.87,18.74a113.81,113.81,0,0,1,17.08,18.51.52.52,0,0,1,0,.5.49.49,0,0,1-.4.29c-.07,0-7.35.88-12.43,1.22s-12.41.28-12.49.28a.51.51,0,0,1-.4-.2l-5.42-7.44a.52.52,0,0,1-.09-.38.46.46,0,0,1,.2-.32c4.71-3.44,7.63-7.12,8.68-10.95,1.18-4.33,0-9-3.55-13.85-5.3-7.27-14.66-6.09-27.84,3.5-6.54,4.77-10.77,8.72-12.93,12.09s-2.25,6.06-.46,8.52c1.47,2,3.28,3.72,4.35,4.12L632,184.29c2.38-1.73,3.38-3.79,3.07-6.29-.25-2-1.33-4.26-3.32-7a.49.49,0,0,1-.09-.37.5.5,0,0,1,.2-.33L634,168.8a.5.5,0,0,1,.7.12c2.11,2.9,5,7,7.76,10.92s5.61,8,7.71,10.86,5.1,6.86,8,10.7,5.9,7.82,8,10.72a.49.49,0,0,1,.09.37.54.54,0,0,1-.2.33l-2.07,1.5a.49.49,0,0,1-.7-.11c-1.93-2.65-3.62-4.15-5.32-4.72s-3.76-.15-5.94,1.44l-14.94,10.88A.45.45,0,0,1,636.76,221.91Zm-15-90.46c-4.86,0-9.7,1.78-14.6,5.35-7.83,5.7-10.71,13.08-8.82,22.55,1.58,8,6.44,17.32,15.29,29.46,6.53,9,15.63,18.07,19.71,20.61a.48.48,0,0,1,.22.53c-.59,2.9.67,7,3.3,10.76l14.53-10.59c2.46-1.79,4.7-2.31,6.85-1.58,1.81.61,3.57,2.1,5.51,4.68l1.26-.92c-2.08-2.85-4.94-6.63-7.7-10.3-2.89-3.84-5.89-7.81-8-10.71s-5-6.94-7.72-10.87c-2.65-3.76-5.38-7.65-7.46-10.51l-1.26.92a15.94,15.94,0,0,1,3.21,7c.36,2.85-.81,5.28-3.47,7.22l-11.47,8.36a.54.54,0,0,1-.41.08c-1.49-.34-3.71-2.61-5.14-4.57-2.06-2.83-1.92-6,.43-9.65,2.22-3.48,6.54-7.52,13.18-12.36,13.71-10,23.55-11.09,29.24-3.27,3.73,5.11,5,10.06,3.71,14.7-1.08,3.94-4,7.7-8.66,11.19l5,6.83c1.32,0,7.56,0,12.16-.28,4-.27,9.45-.87,11.53-1.11a112.73,112.73,0,0,0-16.58-17.8.48.48,0,0,1-.18-.39c.05-4.15-2.95-10.51-8.68-18.37-9.31-12.78-17.08-20.5-24.44-24.28A22.84,22.84,0,0,0,621.77,131.45Zm29.92,79.08h0Z"/></g><g class="cls-1"><path d="M699.3,363.15s-3.3-11.76-4-19.51c-.31-3.49-.37-8.93-.37-8.93s-2,5.13-3.55,8.14c-3.33,6.66-10.42,16-10.42,16l-8.3-2.91-4.71-5.77-1.89-9.38s9.14-6.85,15.57-9.79c2.91-1.4,7.64-3.07,7.64-3.07s-5.06-.59-8.2-1.24c-6.92-1.53-17.27-6.29-17.27-6.29L663.5,311l3.48-6.68,7.47-4.59s9,7.59,13.69,13.36c2.14,2.68,5.16,7.1,5.16,7.1,0,.15-1.14-5.4-1.6-8.87-1-7.72-.3-19.92-.3-19.92l8.19-3,6.86,1.61,6.47,6.5s-3.55,11.52-7.11,18.2c-1.66,3-2.39,4-4.54,7.49,0,0,4.3-2.78,7.28-4.26,6.32-3.23,17.12-6.12,17.12-6.12l5.23,7.7.85,7.66-3.42,8.59s-11.17-.45-18-2.21c-3.24-.8-8-2.57-8-2.57s3.88,3.79,6.17,6.46c4.92,5.66,10.84,16.13,10.84,16.13l-4.89,7.76-6.42,3Z"/></g><g class="cls-1"><path d="M708,364.83h-.06l-8.65-1.19a.52.52,0,0,1-.42-.36c0-.12-3.32-11.89-4-19.59-.18-2-.28-4.67-.33-6.57-.74,1.77-1.79,4.22-2.65,5.95-3.31,6.63-10.4,16-10.47,16.12a.49.49,0,0,1-.56.17l-8.31-2.91a.57.57,0,0,1-.22-.16l-4.71-5.77a.51.51,0,0,1-.1-.21l-1.88-9.38a.48.48,0,0,1,.19-.5c.09-.07,9.25-6.91,15.65-9.84,1.73-.83,4.12-1.77,5.77-2.39-1.76-.23-4.34-.6-6.22-1-6.9-1.53-17.28-6.28-17.38-6.33a.51.51,0,0,1-.29-.44L663,311a.5.5,0,0,1,.06-.24l3.48-6.68a.49.49,0,0,1,.18-.2l7.47-4.59a.5.5,0,0,1,.58.05c.09.07,9.07,7.69,13.75,13.43,1.22,1.52,2.73,3.62,3.81,5.14q-.08-.36-.15-.78c-.31-1.63-.73-4-1-5.76-1-7.67-.3-19.89-.29-20a.5.5,0,0,1,.32-.44l8.19-3a.54.54,0,0,1,.28,0l6.86,1.62a.56.56,0,0,1,.24.13l6.47,6.5a.5.5,0,0,1,.13.49c0,.12-3.61,11.65-7.15,18.3-1.2,2.19-1.93,3.34-3,5.08-.11.19-.24.39-.37.59,1.53-.94,3.74-2.26,5.48-3.13,6.29-3.21,17.11-6.12,17.21-6.15a.47.47,0,0,1,.54.2l5.24,7.7a.63.63,0,0,1,.08.23l.85,7.66a.45.45,0,0,1,0,.23l-3.42,8.59a.54.54,0,0,1-.49.32c-.11,0-11.3-.47-18.15-2.23-1.87-.46-4.29-1.25-6-1.84,1.34,1.36,3.27,3.34,4.62,4.92,4.91,5.64,10.85,16.11,10.91,16.22a.49.49,0,0,1,0,.51l-4.89,7.75a.48.48,0,0,1-.21.19l-6.41,3A.42.42,0,0,1,708,364.83Zm-8.25-2.13,8.18,1.12,6.15-2.89,4.65-7.38c-.94-1.64-6.23-10.72-10.64-15.8-2.25-2.61-6.1-6.38-6.14-6.42a.5.5,0,0,1,.52-.82c.05,0,4.82,1.77,8,2.54,6.07,1.56,15.65,2.09,17.6,2.19l3.24-8.15-.82-7.41-5-7.31c-1.88.52-11.11,3.14-16.68,6-2.93,1.46-7.19,4.21-7.24,4.24a.48.48,0,0,1-.61-.06.5.5,0,0,1-.08-.62l1.53-2.44c1.09-1.73,1.81-2.86,3-5,3.18-6,6.4-16,7-17.83l-6.17-6.18-6.57-1.55-7.74,2.81c-.1,2-.59,12.62.31,19.5.43,3.22,1.47,8.32,1.58,8.79a.36.36,0,0,1,0,.1.49.49,0,0,1-.43.55c-.21,0-.33,0-.45-.23h0s-3-4.43-5.14-7.07c-4.17-5.1-11.81-11.74-13.35-13.06l-7,4.33L664,311.07l.28,9c1.7.77,10.73,4.77,16.89,6.13,2.45.51,6.17,1,7.57,1.16.76.09,1,.13,1,.57a.52.52,0,0,1-.34.47s-4.73,1.68-7.59,3.05c-5.72,2.62-13.71,8.43-15.22,9.55L668.4,350l4.55,5.57,7.82,2.74c1.22-1.63,7.21-9.78,10.15-15.67,1.49-3,3.51-8.06,3.53-8.11a.49.49,0,0,1,.56-.3.48.48,0,0,1,.4.48c0,.05.07,5.46.38,8.9C696.42,350.51,699.17,360.78,699.7,362.7Z"/></g><g class="cls-1"><path class="cls-2" d="M46.7,493.43c-3.07-7.84-8.75-21.51-11.81-29.36l-3.76-1.2,2-3.25c-2.21-5.65-5.71-15.51-7.92-21.16s-6.33-15.33-8.53-21l2.55-1c3.95,10.11,11.92,13.16,28.14,6.82,16-6.24,18.69-13.18,14.65-23.52l2.55-1c2.72,7,7.2,19.31,9.92,26.26s7.79,19.08,10.51,26L73.65,466l18.51,3.39c1.84,4.69,4.7,12.89,6.53,17.58s5.28,12.67,7.12,17.36l-2.56,1c-3.69-9.45-11-13.85-26.83-7.68-16.76,6.55-19.74,14.7-16,24.39l-2.55,1C54.85,515.18,49.76,501.28,46.7,493.43Zm12.08-68.68-2.5,1C40.06,432.05,31.34,447.44,35,456.83Zm18.38,47.06-39.23-7.49c3.67,9.39,20.68,14.73,36.73,8.47Z"/></g><g class="cls-1"><path d="M57.91,523.52a.45.45,0,0,1-.2,0,.51.51,0,0,1-.27-.27c-1.53-3.92-3.59-9.44-5.59-14.77s-4.08-10.9-5.62-14.83h0c-1.53-3.92-3.76-9.4-5.91-14.7S36,468.38,34.51,464.48L31,463.34a.5.5,0,0,1-.32-.3.53.53,0,0,1,.05-.44l1.88-3c-1.09-2.81-2.51-6.65-3.87-10.36s-2.85-7.74-3.95-10.56-2.71-6.71-4.27-10.47-3.17-7.68-4.27-10.51a.51.51,0,0,1,.28-.65l2.56-1a.5.5,0,0,1,.38,0,.57.57,0,0,1,.27.28c2,5.11,5,8.14,9.13,9.27,4.49,1.23,10.5.34,18.36-2.74s12.42-6.22,14.58-10c2-3.42,1.88-7.51-.22-12.87a.53.53,0,0,1,0-.39.48.48,0,0,1,.28-.26l2.55-1a.46.46,0,0,1,.38,0,.47.47,0,0,1,.27.28c1.36,3.47,3.19,8.38,5,13.12s3.61,9.66,5,13.14,3.34,8.33,5.26,13,3.89,9.53,5.25,13a.51.51,0,0,1-.07.49L74.54,465.65l17.71,3.23a.53.53,0,0,1,.38.32c.92,2.35,2.11,5.63,3.27,8.81s2.34,6.43,3.25,8.77,2.26,5.56,3.56,8.67,2.64,6.34,3.56,8.69a.5.5,0,0,1,0,.38.57.57,0,0,1-.28.27l-2.56,1a.5.5,0,0,1-.64-.28c-4.13-10.57-12.2-12.85-26.19-7.39-15,5.85-19.8,13.16-15.67,23.73a.51.51,0,0,1-.28.65l-2.56,1ZM47.16,493.25c1.54,3.93,3.62,9.48,5.63,14.84,1.92,5.12,3.9,10.41,5.4,14.29l1.63-.64c-4-10.82,1.24-18.63,16.42-24.56,14.22-5.56,22.91-3.18,27.29,7.49l1.63-.63c-.91-2.3-2.16-5.3-3.37-8.21-1.3-3.11-2.65-6.33-3.57-8.69s-2.11-5.62-3.26-8.79-2.26-6.21-3.16-8.53l-18.24-3.34a.49.49,0,0,1-.31-.79L84.45,451c-1.35-3.45-3.28-8.16-5.15-12.73s-3.9-9.55-5.26-13-3.19-8.4-5-13.15c-1.69-4.53-3.44-9.21-4.77-12.65l-1.63.64c2,5.44,2,9.66,0,13.26-2.28,4-7.07,7.32-15.09,10.45s-14.28,4.06-19,2.77c-4.35-1.19-7.5-4.27-9.62-9.41l-1.63.63c1.1,2.78,2.62,6.46,4.09,10,1.56,3.77,3.16,7.66,4.27,10.49s2.55,6.76,4,10.57,2.85,7.76,3.95,10.58a.48.48,0,0,1,0,.45l-1.68,2.71,3.15,1a.45.45,0,0,1,.31.29c1.53,3.91,3.75,9.37,5.9,14.65s4.38,10.78,5.91,14.71ZM60.46,476c-11.1,0-20.41-4.87-23-11.49a.48.48,0,0,1,.08-.5.51.51,0,0,1,.48-.17l39.22,7.49a.5.5,0,0,1,.09,1l-2.5,1A39.64,39.64,0,0,1,60.46,476ZM38.77,465c4.18,8.43,20.15,13.41,35.71,7.33l.88-.34ZM35,457.33h-.07a.49.49,0,0,1-.4-.31c-1.88-4.82-.7-11.07,3.23-17.16A38.38,38.38,0,0,1,56.1,425.25l2.5-1a.48.48,0,0,1,.57.16.5.5,0,0,1,0,.6L35.41,457.13A.49.49,0,0,1,35,457.33Zm22.33-31.49-.88.35A37.34,37.34,0,0,0,38.61,440.4c-3.46,5.36-4.71,11-3.44,15.37Z"/></g><g class="cls-1"><path class="cls-2" d="M127.74,568.55l20.46,10.24c-2.31,1.91-6.5,5-8.81,6.86S133.3,591.1,131,593l-5.2-22.84-.82-1-17.8,14.7,1.62,2s10.67,4.51,17.67,7.17,17.93,6.29,17.93,6.29l-15.86,14.75c-7.31-8.85-19.9-24.6-27.21-33.45s-20.4-24.2-27.71-33.06l2.11-1.74c7.48,9,15.53,8.28,29.5-3.26,12.44-10.28,13.07-17.33,5.92-26l2.12-1.75c7.31,8.86,19.9,24.61,27.21,33.46s20.4,24.2,27.71,33.05l-15.52,11.16s-2.31-10.91-4-18-4.45-17.92-4.45-17.92l-1.63-2-15.64,12.92Z"/></g><g class="cls-1"><path d="M127.57,614.57h0a.47.47,0,0,1-.35-.18c-3.67-4.44-8.74-10.71-13.65-16.77s-9.92-12.27-13.57-16.69-8.82-10.55-13.82-16.48-10.22-12.13-13.89-16.57a.52.52,0,0,1-.11-.36.48.48,0,0,1,.18-.34l2.12-1.75a.5.5,0,0,1,.7.07c7.32,8.86,15.12,8,28.79-3.33,11.59-9.56,13.18-16.42,5.86-25.28a.51.51,0,0,1,.06-.71l2.12-1.74a.51.51,0,0,1,.7.06c3.65,4.42,8.7,10.66,13.58,16.7s10,12.33,13.64,16.76,8.86,10.6,13.88,16.56S164,576.59,167.6,581a.55.55,0,0,1,.12.39.54.54,0,0,1-.21.34L152,592.9a.5.5,0,0,1-.78-.3c0-.11-2.33-11-4-18-1.55-6.47-4.13-16.64-4.43-17.81l-1.23-1.49-14.88,12.28.43.52,20.36,10.19a.51.51,0,0,1,.28.39.51.51,0,0,1-.18.45c-1.16,1-2.82,2.22-4.42,3.44s-3.24,2.47-4.39,3.42-2.7,2.33-4.2,3.67-3.05,2.73-4.21,3.68a.49.49,0,0,1-.48.09.47.47,0,0,1-.32-.36l-5.19-22.72-.41-.51-17,14.07,1.23,1.49c1.16.49,11,4.63,17.54,7.11,6.86,2.58,17.8,6.25,17.91,6.28a.51.51,0,0,1,.33.37.49.49,0,0,1-.15.47l-15.86,14.76A.51.51,0,0,1,127.57,614.57ZM73.35,547.63C77,552,82,558,86.92,563.81s10.17,12.07,13.82,16.49S109.44,591,114.32,597s9.67,12,13.3,16.35l14.86-13.82c-2.66-.89-11.35-3.84-17.16-6-6.92-2.64-17.58-7.13-17.68-7.18a.45.45,0,0,1-.19-.14l-1.63-2a.49.49,0,0,1,.07-.7l17.8-14.71a.52.52,0,0,1,.71.07l.81,1a.41.41,0,0,1,.1.21l5,22c1-.89,2.32-2,3.55-3.13,1.51-1.35,3.06-2.74,4.23-3.7s2.82-2.22,4.42-3.44c1.34-1,2.71-2.07,3.79-2.94L126.57,569a.48.48,0,0,1-.16-.12l-.82-1a.5.5,0,0,1,.07-.7l15.65-12.92a.44.44,0,0,1,.36-.11.48.48,0,0,1,.34.18l1.62,2a.42.42,0,0,1,.1.2c0,.11,2.82,11.09,4.46,17.92,1.41,5.91,3.29,14.64,3.84,17.23l14.46-10.4c-3.62-4.38-8.63-10.32-13.47-16.07-5-6-10.23-12.13-13.89-16.57s-8.74-10.71-13.65-16.77c-4.74-5.86-9.63-11.91-13.25-16.3l-1.35,1.11c7.32,9.13,5.52,16.54-6.3,26.31-13.85,11.43-22.28,12.46-29.88,3.57Z"/></g><g class="cls-1"><path class="cls-2" d="M237.71,642.88c-3.43,3.09-9.14,7.36-9.14,7.36l-7.57-4c6.34-12,3-23.45-9.09-29.82-9-4.73-16.53-.64-24.86,15.16-7.47,14.17-6.79,22.46,1.16,26.65,9.77,5.15,30,10.89,36-3.91l3.06.75a18.38,18.38,0,0,1-2,6c-6,11.46-23.39,7.58-43.2-2.87-23.19-12.23-38.68-25.8-28.87-44.43,10.42-19.75,29.54-15.8,54.6-2.59,11.17,5.89,16.64,10.29,18.89,14.36,5.23,1,13.69,4.27,20.47,7.84C247.11,633.41,241.64,639.4,237.71,642.88Z"/></g><g class="cls-1"><path d="M211.85,668.84c-7.62,0-17.88-3.45-30.49-10.34-13.29-7.25-21.77-13.71-26.68-20.34-6-8.08-6.57-16.32-1.74-25.17,11.93-21.86,34.65-13.28,55.31-2,10.53,5.75,16.34,10.27,18.77,14.63,5.3,1.16,13.58,4.48,20.26,8.13a.5.5,0,0,1,.12.78c-.05.06-5.61,6-9.56,9.37-3.46,3-9.23,7.22-9.29,7.26a.49.49,0,0,1-.53,0l-7.51-4.09a.51.51,0,0,1-.2-.68c3.15-5.75,4-11.5,2.57-16.62s-5.28-9.51-11-12.65c-8.88-4.84-16.18-.48-24.41,14.6-3.79,6.94-5.55,12.41-5.39,16.73.16,4.12,2.11,7.15,6,9.26,5.89,3.21,18.22,7.83,27.05,4.75a13.58,13.58,0,0,0,8.26-7.89.5.5,0,0,1,.59-.29l3,.79a.51.51,0,0,1,.37.59,18.68,18.68,0,0,1-2.16,6.11C222.63,666.5,218.13,668.84,211.85,668.84Zm-37.64-68.5c-9.13,0-15.6,4.36-20.39,13.12-4.63,8.48-4.08,16.37,1.66,24.11,4.83,6.5,13.2,12.87,26.36,20.06,15.64,8.53,35.7,16.11,42.48,3.69a17.41,17.41,0,0,0,2-5.37l-2.18-.57a14.42,14.42,0,0,1-8.68,8c-8.57,3-20.36-.72-27.86-4.82-4.19-2.28-6.31-5.59-6.49-10.09s1.63-10.14,5.51-17.25c8.46-15.48,16.4-20.11,25.77-15,6,3.27,10,7.85,11.5,13.26,1.5,5.24.66,11.09-2.41,16.93l6.79,3.71c1.15-.85,5.95-4.39,9-7h0c3.27-2.81,7.65-7.35,9-8.82-6.6-3.54-14.59-6.7-19.64-7.77a.49.49,0,0,1-.34-.25c-2.26-4.24-8-8.69-18.48-14.44C193.7,604.19,182.78,600.34,174.21,600.34Z"/></g><g class="cls-1"><path class="cls-2" d="M351.74,718.47c-7.61-2-20.83-5.7-28.45-7.66s-21-5.08-28.6-7-20.84-5.71-28.45-7.67S245.18,691,237.57,689l.69-2.66c12.13,3.13,17.63-2.84,22-19.92,4.24-16.46-.83-22.13-10.55-24.63l.69-2.66c7.61,2,20.83,5.7,28.44,7.66s21,5.08,28.61,7,20.9,5.72,28.51,7.68,21,5.08,28.61,7l-.71,2.73c-12.05-3.18-17.55,2.8-21.95,19.88-4.24,16.46.83,22.12,10.49,24.61Zm-39-35.71L289,676.62l-1.6,6.18c-2.42,9.41,1.58,16.18,8.2,17.89s13-1.54,15.63-11.75Zm2-7.68c2.39-9.28-1.14-16.06-8.13-17.87s-13.29,2.39-15.69,11.73l-1.25,4.83,23.83,6.14Z"/></g><g class="cls-1"><path d="M352.44,717.19h-.11c-3.83-.91-9.14-2.26-14.28-3.57s-10.48-2.67-14.3-3.58-9.2-2.11-14.39-3.27-10.52-2.35-14.34-3.26-9.12-2.26-14.24-3.57-10.51-2.67-14.34-3.59-9.19-2.11-14.38-3.27-10.58-2.36-14.41-3.27a.5.5,0,0,1-.37-.61l.63-2.67a.56.56,0,0,1,.23-.31.5.5,0,0,1,.38-.06c11.39,2.72,16.9-2.5,21.06-19.95,1.86-7.74,1.76-13.37-.3-17.19-1.76-3.27-5-5.38-10.31-6.64a.5.5,0,0,1-.31-.22.51.51,0,0,1-.06-.38l.64-2.67a.5.5,0,0,1,.6-.38c3.83.92,9.15,2.27,14.29,3.58s10.47,2.66,14.29,3.58,9.16,2.1,14.33,3.25,10.57,2.36,14.4,3.28,9.16,2.27,14.32,3.58,10.5,2.67,14.32,3.59,9.18,2.1,14.36,3.26,10.54,2.35,14.37,3.27a.49.49,0,0,1,.37.6l-.65,2.74a.52.52,0,0,1-.23.31.5.5,0,0,1-.38.06c-4.81-1.18-8.4-.9-11.31.88-4.16,2.54-7.14,8.4-9.68,19-4.22,17.71,2.58,21.92,10.56,23.82a.48.48,0,0,1,.31.23.49.49,0,0,1,.06.37l-.64,2.68A.5.5,0,0,1,352.44,717.19ZM238.37,688.94c3.78.89,8.92,2,13.9,3.16,5.2,1.16,10.58,2.36,14.4,3.27s9.18,2.28,14.35,3.59,10.42,2.65,14.23,3.56,9.16,2.1,14.33,3.26,10.57,2.36,14.4,3.27,9.16,2.27,14.32,3.59c4.92,1.25,10,2.54,13.77,3.45l.41-1.7c-11.21-2.86-14.34-10.12-10.81-24.91,2.64-11,5.66-16.91,10.12-19.63,3.06-1.87,6.75-2.23,11.59-1.12l.42-1.77c-3.78-.89-8.91-2-13.87-3.14-5.18-1.16-10.55-2.36-14.37-3.27s-9.17-2.27-14.34-3.59-10.49-2.67-14.3-3.58-9.2-2.11-14.39-3.27-10.52-2.35-14.34-3.26-9.16-2.27-14.31-3.58c-4.92-1.25-10-2.55-13.78-3.45l-.41,1.7c5.29,1.34,8.62,3.58,10.47,7,2.18,4,2.31,9.9.4,17.9-4.28,17.91-10,23.43-21.79,20.8Zm60.7,11.86a13.76,13.76,0,0,1-3.25-.4,11.87,11.87,0,0,1-7.92-6.18c-1.73-3.34-2.06-7.54-1-12.16l1.48-6.21a.51.51,0,0,1,.61-.37L313,681.19a.48.48,0,0,1,.31.23.49.49,0,0,1,.06.37L311.84,688c-1.19,5-3.31,8.64-6.28,10.75A11,11,0,0,1,299.07,700.8Zm-9.79-24.23-1.37,5.73c-1,4.37-.74,8.34.88,11.47a10.91,10.91,0,0,0,7.26,5.66A10.68,10.68,0,0,0,305,698c2.77-2,4.75-5.4,5.89-10.17l1.37-5.73Zm24.24,2.75h-.11l-23.93-5.72a.49.49,0,0,1-.37-.6l1.15-4.85c1.12-4.66,3.22-8.27,6.09-10.44a12.29,12.29,0,0,1,18,4.32c1.63,3.28,1.9,7.45.8,12.07L314,678.94a.53.53,0,0,1-.22.31A.6.6,0,0,1,313.52,679.32Zm-23.32-6.58,22.95,5.48,1-4.36h0c1.05-4.39.8-8.33-.71-11.39a11.31,11.31,0,0,0-16.53-4c-2.68,2-4.65,5.45-5.71,9.88Z"/></g><g class="cls-1"><path class="cls-2" d="M426.22,715.51c-9,.34-24.66,1.25-33.65,1.59-4.85.18-13.34.18-18.18.36s-13.38.83-18.22,1l-.11-2.74c9.18-.35,16.5-7.71,21.47-19.9l12.21-29.89,33.86-1.28,14.11,28.9c5,10.15,11.56,18.65,22,18.26l.11,2.74C450.84,714.9,435.21,715.17,426.22,715.51Zm-35.51-42.46-8.6,22.22,18.61-.7ZM382,698.22c.25,6.69,2.73,16.43,10.51,16.14,6.75-.26,8.82-9.79,8.55-16.86Z"/></g><g class="cls-1"><path d="M356.85,718.43a.51.51,0,0,1-.5-.49l-.08-2.74a.5.5,0,0,1,.14-.36.49.49,0,0,1,.34-.15c8.67-.26,16-7,21.18-19.42l12.46-29.8a.48.48,0,0,1,.45-.3l33.86-1a.5.5,0,0,1,.46.29l13.88,29c3.83,7.95,10.2,18.52,21.4,18.15a.44.44,0,0,1,.36.13.48.48,0,0,1,.16.35l.08,2.74a.5.5,0,0,1-.49.52c-4.48.13-10.73.24-16.77.34s-12.34.2-16.84.34h0c-4.5.13-10.79.4-16.86.66s-12.31.52-16.8.66c-2.42.07-5.81.09-9.08.11s-6.68,0-9.1.11-5.82.25-9.11.43-6.7.36-9.12.43Zm.43-2.77.06,1.75c2.37-.08,5.53-.25,8.6-.41,3.29-.18,6.7-.36,9.13-.43s5.83-.09,9.12-.11,6.65,0,9.06-.11c4.48-.14,10.74-.4,16.78-.66s12.37-.53,16.88-.66h0c4.51-.14,10.78-.24,16.85-.34,5.82-.1,11.82-.2,16.27-.33l-.06-1.75h-.05c-11.44,0-17.9-10.65-21.78-18.72L424.4,665.17l-33.21,1-12.33,29.49C373.61,708.25,366.15,715.16,357.28,715.66Zm69.64-.13h0Zm-34-.92c-3.51,0-6.35-2-8.22-5.8a27.65,27.65,0,0,1-2.39-10.91.5.5,0,0,1,.48-.52l19.07-.56a.45.45,0,0,1,.36.13.51.51,0,0,1,.15.35c.19,6.32-1.53,17.08-9.17,17.3Zm-9.59-16.24a26.32,26.32,0,0,0,2.27,10c1.76,3.57,4.3,5.34,7.57,5.23,5.83-.17,8.33-8.2,8.22-15.77Zm-.35-2.93a.5.5,0,0,1-.47-.68l8.79-22.16a.49.49,0,0,1,.45-.31h0a.5.5,0,0,1,.46.29l9.83,21.6a.49.49,0,0,1,0,.47.52.52,0,0,1-.41.24l-18.62.55Zm8.82-21.38-8.08,20.36,17.11-.51Z"/></g><g class="cls-1"><path class="cls-2" d="M537.73,651.76l10.68,23.45c-3.95,1.8-11,4.68-15,6.48s-10.79,5.26-14.74,7.06L472.84,672l3.26,7.14c6.47,14.22,15.4,19.2,29.22,12.91l1.05,2.32c-5.1,2.33-14.24,6.14-19.35,8.46s-14,6.72-19.14,9.07l-1.06-2.32c10.45-4.76,12.19-13.26,5.26-28.47-6.82-15-13.61-18.2-24.29-13.34l-1.06-2.32c6.45-2.93,17.9-7.8,24.34-10.73s17.58-8.35,24-11.29l38.95,12.27-.9-2c-7.19-15.79-17.66-16.77-27.59-12.25l-1.06-2.32c5.34-2.43,14.88-6.43,20.22-8.86s14.56-7,19.9-9.41l1.06,2.32C535.11,628,530.49,635.85,537.73,651.76Z"/></g><g class="cls-1"><path d="M466.87,712.38a.5.5,0,0,1-.46-.3l-1-2.35a.48.48,0,0,1,0-.39.51.51,0,0,1,.27-.27c5.2-2.2,8.19-5.37,9.13-9.71s-.13-10.32-3.36-18c-6.16-14.57-12.47-18.3-23.27-13.73a.46.46,0,0,1-.38,0,.51.51,0,0,1-.27-.27l-1-2.35a.52.52,0,0,1,.27-.66c3.27-1.38,7.87-3.24,12.32-5s9.05-3.66,12.31-5,7.78-3.38,12.15-5.31,8.9-3.94,12.17-5.32a.5.5,0,0,1,.36,0l37.54,12.95-.41-1c-5.71-13.5-14.65-17.79-26.59-12.74a.46.46,0,0,1-.38,0,.53.53,0,0,1-.28-.27l-1-2.35a.5.5,0,0,1,.27-.66c2.7-1.14,6.52-2.67,10.22-4.15s7.53-3,10.23-4.15,6.45-2.81,10.08-4.43,7.37-3.29,10.07-4.43a.46.46,0,0,1,.38,0,.53.53,0,0,1,.28.27l1,2.35a.5.5,0,0,1-.27.66c-5.65,2.39-9.13,5.51-10.65,9.54-1.73,4.62-1,10.55,2.19,18.15h0l10,23.74a.5.5,0,0,1,0,.38.49.49,0,0,1-.26.27c-2,.85-4.85,2-7.6,3s-5.58,2.19-7.57,3-4.78,2.11-7.46,3.33-5.46,2.48-7.46,3.32a.46.46,0,0,1-.38,0L473.85,673l2.59,6.13c3.09,7.32,6.77,12,11.23,14.22,4.65,2.34,10.2,2.08,17-.78a.49.49,0,0,1,.65.27l1,2.35a.5.5,0,0,1,0,.38.51.51,0,0,1-.27.27c-2.59,1.1-6.26,2.56-9.81,4s-7.19,2.86-9.76,3.95-6.19,2.71-9.66,4.26-7.1,3.17-9.73,4.28A.41.41,0,0,1,466.87,712.38Zm-.34-2.59.61,1.44c2.56-1.1,5.95-2.62,9.24-4.08,3.47-1.56,7.06-3.17,9.68-4.27s6.24-2.55,9.77-4c3.34-1.33,6.79-2.71,9.34-3.78l-.6-1.43c-6.85,2.8-12.53,3-17.35.56s-8.51-7.17-11.71-14.72l-3.05-7.23a.49.49,0,0,1,.1-.54.5.5,0,0,1,.54-.12l45.18,17.94c2-.84,4.65-2.05,7.24-3.23S531,683.88,533,683s4.85-2,7.6-3c2.53-1,5.15-2,7.11-2.83l-9.85-23.28c-3.31-7.84-4-14-2.2-18.89,1.57-4.19,5.09-7.44,10.73-9.92l-.6-1.43c-2.65,1.13-6.18,2.71-9.59,4.23-3.63,1.62-7.39,3.3-10.1,4.44s-6.54,2.68-10.25,4.16c-3.48,1.4-7.08,2.83-9.74,3.95l.6,1.43c12.15-4.92,21.63-.28,27.44,13.46l.85,2a.49.49,0,0,1-.1.53.48.48,0,0,1-.53.13L496,644.71c-3.24,1.38-7.68,3.34-12,5.24s-8.9,3.94-12.16,5.32-7.87,3.24-12.32,5c-4.25,1.72-8.63,3.49-11.85,4.84l.61,1.43c11.05-4.48,17.84-.39,24.11,14.45,3.31,7.83,4.43,13.9,3.42,18.56S471.77,707.46,466.53,709.79Z"/></g><g class="cls-1"><path class="cls-2" d="M607.18,629.76c-6.74,5.68-18.26,15.8-25,21.48l-1.76-2.09c9.6-8.08,7.26-16.47-2.82-28.44-10.54-12.51-17.8-13.86-26.58-6.47l-1.75-2.08c6.74-5.68,18.68-15.31,25.41-21s18.27-15.8,25-21.47l1.76,2.08c-9.65,8.13-8.48,15.51,1.6,27.49s19.07,14.77,27.79,7.42l1.76,2.09C625.86,614.45,613.92,624.09,607.18,629.76Z"/></g><g class="cls-1"><path d="M580,651.73a.52.52,0,0,1-.38-.17l-1.76-2.09a.52.52,0,0,1-.11-.36.51.51,0,0,1,.17-.34c8.74-7.35,8-14.87-2.88-27.74-5.26-6.25-9.61-9.59-13.68-10.53-3.9-.9-7.78.41-12.19,4.12a.49.49,0,0,1-.37.12.44.44,0,0,1-.33-.18l-1.76-2.08a.49.49,0,0,1,.06-.7c3.37-2.84,8.12-6.73,12.71-10.5s9.34-7.65,12.71-10.49,8-6.85,12.49-10.73,9.14-7.9,12.51-10.74a.55.55,0,0,1,.37-.12.48.48,0,0,1,.33.18l1.76,2.08a.49.49,0,0,1-.06.7c-9,7.6-8.59,14.61,1.66,26.79s18.75,14.38,27.1,7.36a.49.49,0,0,1,.7.06l1.75,2.09a.49.49,0,0,1-.06.7c-3.38,2.84-8.13,6.74-12.73,10.51s-9.32,7.64-12.68,10.47-8,6.84-12.48,10.72-9.15,7.91-12.53,10.76A.48.48,0,0,1,580,651.73ZM579,649.21l1.12,1.33c3.34-2.82,7.81-6.69,12.14-10.43s9.12-7.89,12.49-10.73h0c3.36-2.83,8.1-6.72,12.69-10.48,4.42-3.63,9-7.38,12.34-10.19l-1.12-1.32c-8.73,7.07-17.68,4.58-28.11-7.8s-11-20-1.92-27.87l-1.12-1.32c-3.33,2.81-7.79,6.67-12.11,10.41-4.5,3.89-9.14,7.9-12.51,10.74s-8.12,6.73-12.72,10.5c-4.42,3.62-9,7.37-12.32,10.17l1.12,1.33c4.52-3.69,8.55-5,12.67-4,4.3,1,8.81,4.44,14.22,10.86C585,631.31,589.08,640.4,579,649.21Z"/></g><g class="cls-1"><path class="cls-2" d="M658,509.85c2.63,3.8,6.13,10,6.13,10l-4.93,7c-11.1-7.84-22.87-6-30.74,5.17-5.85,8.29-2.77,16.32,11.83,26.61,13.09,9.23,21.39,9.63,26.58,2.28,6.36-9,14.66-28.31.76-36.16l1.14-2.94a18.08,18.08,0,0,1,5.69,2.77c10.59,7.46,4.5,24.17-8.41,42.47-15.11,21.42-30.57,35-47.77,22.9-18.25-12.87-11.87-31.33,4.46-54.47C630,525.17,635,520.31,639.37,518.6c1.69-5.05,6-13,10.4-19.29C649.77,499.31,655,505.51,658,509.85Z"/></g><g class="cls-1"><path d="M631.26,595c-4.49,0-8.91-1.56-13.32-4.67-8.82-6.23-12.4-14-10.94-23.87,1.24-8.33,6.09-18.28,15.28-31.3,6.92-9.81,12.08-15.06,16.69-17,1.76-5.13,6-13,10.39-19.19a.51.51,0,0,1,.39-.22.52.52,0,0,1,.4.18c.05.06,5.29,6.26,8.22,10.58,2.6,3.78,6.11,10,6.14,10.05a.5.5,0,0,1,0,.54l-4.93,7a.5.5,0,0,1-.7.12c-10.9-7.69-22.42-5.75-30,5.06-5.83,8.26-2.33,16,11.71,25.91,6.46,4.56,11.7,6.94,16,7.27,4.11.31,7.35-1.28,9.88-4.87,3.87-5.48,9.87-17.2,7.82-26.33a13.58,13.58,0,0,0-6.9-9.11.5.5,0,0,1-.22-.61l1.14-3a.5.5,0,0,1,.62-.29,18.68,18.68,0,0,1,5.83,2.84c9.68,6.83,6.82,21.75-8.29,43.16-8.73,12.38-16.12,20.06-23.26,24.19A23.66,23.66,0,0,1,631.26,595Zm18.54-94.9c-4.26,6.15-8.32,13.72-10,18.62a.48.48,0,0,1-.29.3c-4.47,1.77-9.54,6.92-16.45,16.72-9.1,12.89-13.9,22.7-15.11,30.87-1.4,9.42,2,16.91,10.53,22.9,7.89,5.57,15.78,5.93,24.13,1.11,7-4,14.3-11.64,22.94-23.89,10.27-14.56,20.09-33.63,8.54-41.78a17.28,17.28,0,0,0-5.12-2.55l-.81,2.1a14.46,14.46,0,0,1,7,9.54c2,8.86-3.05,20.15-8,27.13-2.76,3.9-6.28,5.63-10.78,5.29s-9.88-2.78-16.5-7.45c-14.41-10.17-18.1-18.59-12-27.31,7.89-11.18,19.74-13.29,31-5.58l4.46-6.32c-.71-1.24-3.68-6.42-6-9.71h0C655.12,506.57,651.1,501.69,649.8,500.14Z"/></g><g class="cls-1"><path class="cls-2" d="M712.06,469.38c-4.9,14.55-10.2,21.67-15.64,26.18a45.48,45.48,0,0,1,1.92,14.75s-5.9-2.52-9.55-4.29c-3.38-1.61-8.4-4.52-8.4-4.52l.86-2.55c8.35-1.57,20.82-10.93,26.33-27.29,2.15-6.37,1.16-8.86-.72-9.49-3.09-1-6.13,3.4-12.18,16.95-7.34,16.35-17,23.22-27.49,19.69-12.66-4.27-14.7-20.88-6.49-45.24,3.76-11.15,8.07-18.34,12.55-23.24-.94-3.82-.79-10.45.6-16,0,0,5.17,2.08,8.42,3.65s8.44,4.39,8.44,4.39l-1,3c-8.34,1.51-19.1,9.42-24.65,25.91-1.86,5.51-.76,8.85,1.73,9.69,2.9,1,4.8-2.63,12.09-18.67,5.76-12.7,16.59-21.81,25.92-18.66C718.56,428.25,720.28,445,712.06,469.38Z"/></g><g class="cls-1"><path d="M698.34,510.81a.48.48,0,0,1-.2,0c-.06,0-5.95-2.55-9.57-4.3-3.35-1.6-8.38-4.51-8.43-4.54a.48.48,0,0,1-.22-.59l.85-2.55a.53.53,0,0,1,.38-.33c7.24-1.36,20.13-9.67,26-27,1-2.88,1.35-5.12,1.12-6.67a2.37,2.37,0,0,0-1.53-2.19c-2.64-.89-5.67,3.48-11.57,16.68-7.39,16.49-17.36,23.58-28.1,20-6.45-2.17-10.29-7.38-11.41-15.49-1.08-7.87.47-18.09,4.61-30.38,3.39-10.09,7.48-17.69,12.47-23.22-.92-4.09-.65-10.75.66-16a.54.54,0,0,1,.26-.33.55.55,0,0,1,.42,0c.05,0,5.22,2.11,8.45,3.66s8.41,4.38,8.46,4.41a.5.5,0,0,1,.23.6l-1,3a.48.48,0,0,1-.38.33c-7.69,1.4-18.66,8.93-24.27,25.58-1.6,4.75-1.06,8.22,1.42,9.06s4.35-2.75,11.47-18.4c5.45-12,16.32-22.38,26.54-18.94,6.92,2.33,11,7.67,12.21,15.87,1.12,7.8-.44,18.07-4.64,30.53h0c-4.24,12.6-9,20.69-15.52,26.19a47,47,0,0,1,1.83,14.6.51.51,0,0,1-.23.41A.52.52,0,0,1,698.34,510.81ZM681,501.27c1.2.69,5.2,3,8,4.29s7.21,3.29,8.86,4A45,45,0,0,0,696,495.73a.5.5,0,0,1,.15-.55c6.47-5.37,11.25-13.38,15.48-26h0c4.15-12.31,5.7-22.43,4.6-30.07s-5-12.86-11.54-15.06c-9.65-3.25-20,6.8-25.31,18.4-7.25,15.95-9.28,20.09-12.71,18.94-2.39-.81-4.19-3.95-2-10.33,5.67-16.85,16.45-24.55,24.75-26.19l.77-2.29c-1.22-.67-5.25-2.85-8.05-4.18-2.59-1.25-6.44-2.84-7.85-3.42-1.19,5.11-1.39,11.41-.46,15.19a.48.48,0,0,1-.12.46c-5,5.44-9,13-12.44,23.06-4.09,12.14-5.63,22.21-4.56,29.93s4.67,12.63,10.73,14.67c10.18,3.43,19.72-3.47,26.87-19.42,6.4-14.34,9.38-18.36,12.8-17.22a3.34,3.34,0,0,1,2.21,3,16.69,16.69,0,0,1-1.17,7.13c-5.28,15.68-17.23,25.68-26.43,27.57Zm31.06-31.89h0Z"/></g><g id="piggie"><path class="cls-2" d="M594.6,358.94c-.36-6.28-1.46-17.93-14.14-16.17L565.74,328h0c-1.21-2-2.26-4.09-3.64-5.94-7.37-9.9-14.81-19.73-22.23-29.59h0c16.48-.58,19.73-14.42,25.18-25.71,3-6.27,5.79-13,6.94-19.8,1.66-9.79,1.75-19.85,2.35-29.8a5,5,0,0,0-3.15-.62c-11.48,4.77-23,9.57-34.32,14.63-7.44,3.33-14.65,7.18-22.06,10.6-1.79.83-3.92.9-5.9,1.32a35.59,35.59,0,0,0,1.5-5.76q1.74-17.53,3.14-35.1a3.07,3.07,0,0,0-2.35-1.3c-5.62,1.86-11.16,4-16.75,6Q474.07,214,453.67,221c-9.67-3.34-19.1-8.23-29-9.7-18.88-2.79-38-3.63-57.09-5.28l-4.89,5.08h0l4.89-5.08H356.53c-9.37,1.72-18.95,2.71-28,5.43-6.24,1.87-11.77,6.12-17.62,9.31l3.09.61-3.09-.61c-7.48,1.84-15.16,3.12-22.39,5.69-6.78,2.41-13.21,6-19.58,9.41-6,3.27-12.51,6.28-17.53,10.82-11,9.92-21.14,20.71-31.59,31.2-3,3-5.51,6.44-8.74,9.06-.86.69-3.55-.9-5.4-1.45,1.39-3.37,3.37-6.63,4.06-10.14,1.82-9.19,7.47-21.37,3.69-27.17-9.34-14.3-24-7.93-35.67-.94-3.06,1.83-2.89,9.86-3.32,15.12-.49,6.12,0,12.32,0,18.48-.59.12-1.35.54-1.76.32-8.19-4.38-16.31-8.88-24.5-13.25-.94-.5-2.54-.91-3.2-.45s-1.14,2.75-.75,3.06a107.05,107.05,0,0,0,9.67,7c5.15,3.28,10.42,6.37,15.64,9.54,5.77,3.49,12,6.42,17.23,10.59,10.59,8.43,22.07,16.15,17.88,33.45-2,8.06-1.39,17.39.5,25.58,4.12,17.79,9.82,35.22,14.88,52.8.76,1.63,1.25,3.47,2.34,4.85,2.2,2.78,7.12,7.19,6.75,7.67-7.6,9.75-15.79,19-23.87,28.43q-.66,32.5-1.33,65c-1.58,1.59-4,2.92-4.58,4.81-3.68,13.1,8.6,13.65,15,15.56,8.24,2.48,17.79.73,26.77.48,1.54,0,4.13-1.47,4.37-2.65,1.91-9.24,3.37-18.57,5-27.87,1.78-7.39,3.55-14.78,6.26-26,2.57-.55,11-1.46,18.78-4.32,5.85-2.15,10.79-6.79,16.13-10.33,1.27.51,3.12.65,3.71,1.58,8.67,13.91,16.92,28.1,25.84,41.85,3.33,5.12,7.45,9.72,11.45,14.4l-.71.37,3.7,3.2c-.51,10.07,5.67,11.44,13.35,9.71,2.73-.62,5-3.18,7.51-4.86v63h6.15V531.69c2.43-1.73,4.78-4.81,7.3-5,12.25-.67,15-9.7,11.6-17.6-2.55-5.92-11.58-9-17.72-13.42q-.58-17.18-1.15-34.34c34.22-8.12,34.52,20.36,42.82,40.05,1.17,2.77,1,6.12,1.45,9.2l-4.63,2.68c3,4.38,5.72,12.2,9.14,12.54,14.33,1.41,28.88.62,43.35.49a5.41,5.41,0,0,0,3.43-1.71c.42-.44,0-2-.37-2.85-3.11-7-6.3-14-9.47-20.93,1.81-7.65,3.56-15.32,5.57-22.91.17-.64,2.74-1.48,3.19-1.09,3.73,3.31,6.81,7.48,10.86,10.27,10.08,7,20.57,13.32,30.9,19.93.12,1,.05,2.81.38,2.89,9.33,2.13,20.11,7.84,27.67,5s12.6-13.9,17.21-22.21c1.27-2.29-3-7.65-4.68-11.61-5.12-1.42-11.56-1.38-15.09-4.57-7.32-6.63-13.4-14.75-19.26-22.8-1.12-1.55.33-7.46,2-8.16,13.39-5.75,27.25-10.38,40.61-16.18,4.43-1.92,8-6.09,11.61-9.55s6.61-7.07,9.89-10.62l20.73-15.81C591.73,381.86,595.25,370.29,594.6,358.94ZM424.13,323.1l-55.78-1h0Zm48.33,5c4.83-.23,9.66-.54,14.5-.81-4.84.27-9.67.58-14.5.81l7.59,13.54-7.56-13.57c-1.67-.41-3.35-.89-5-1.37s-3.35-1-5-1.43c1.67.44,3.35.94,5,1.43s3.3,1,5,1.37Zm75.08,33.06c-1.27,5.19-.31,11.17,3.23,17.56-.23.76-.42,1.68-.6,2.62.18-.94.37-1.86.6-2.62-3.54-6.42-4.5-12.4-3.23-17.59Zm2.51,20.59c-.1.5-.19,1-.3,1.46A9.94,9.94,0,0,0,550.05,381.75Zm-.36,1.72c-.06.28-.13.55-.2.8a5,5,0,0,0,.23-.8ZM345.33,413.6q-.68-.87-1.44-1.68Q344.66,412.73,345.33,413.6ZM399.66,354l-5.13.34Zm16.72-1.15-10.93.73,10.93-.73L433.8,349Zm-74.7,56.5h0c.39.53.86,1.06,1.34,1.59a13.47,13.47,0,0,1-1.34-1.59l-.09,30.89h0ZM566.6,344.65c-1.35.37-2.65.8-3.87,1.27,1.22-.43,2.52-.86,3.87-1.23ZM367.67,215.47a5.35,5.35,0,0,1-1.06-.62A5.35,5.35,0,0,0,367.67,215.47ZM339.24,315.79v5.93l-30.75,1.36h0l30.75-1.36v-5.93c-2.32-.62-4.61-1.45-6.94-2C334.63,314.34,336.92,315.17,339.24,315.79ZM280.51,469.32c3.73-1.33,7.39-2.82,11.08-4.24h0C287.9,466.5,284.24,468,280.51,469.32Z"/><path d="M335,355.73H314.05c4-3.46,9.78-6.23,11.58-10.63,2-4.94.47-11.35.47-19.3l-16.9,13.85c-1-5.62-1.76-10.28-2.55-14.94v-1.09l13.24-1c11,.18,22.07.8,33.08.41,15.27-.54,15.4-.71,13.34,16.42l-16.53-13.81c-5.29,13.83-1.28,23.59,11.66,30.08H335Z"/><path d="M488.35,355.28H426.18c10.77-5.83,13.33-17,17.81-26.67,1.85-4,4.3-4.91,8.39-5.44,11.48-1.51,18.85,1.78,22.07,13.86C476.43,344.45,480.51,351.34,488.35,355.28Zm-46.74-11.49c-.13,4.78.57,9.34,5.77,8.87,2.25-.2,4.1-4.7,6.14-7.24l-1.72-1.63Zm10.52-3-5.22-12.69c-2.13,5.12-3.53,8.5-5.28,12.69Z"/><path d="M369.7,355c7.37-3.47,8.29-9.64,8.35-16.26.05-6.23-.55-12.11-8-15.31h43.64c9.12,0,9.66.71,7.42,10.91l-21.31-9.86v12.7l12.84-4.68v12.61l-12.14-5.25c-2.37,7.64-1,9.2,13.88,15.11Z"/><path d="M306.65,323.62v1.09c-9.56,3.3-11,5.4-11.06,16.24-.1,14.36-.11,14.15-14.56,14.61-5.15.17-8.88-1.24-12.31-5.08-4.53-5.08-9.6-9.69-15.1-15.17-.5,12.34,1.37,15.28,13,19.41H241.79c6.53-3,7.87-9,8-15.34s-.74-12.27-7.74-15.78c10.09,0,20.26-.74,30.22.37,3.78.42,7.14,5,10.58,7.85,2.64,2.17,5.1,4.57,7.92,7.12,1.24-7.82-.77-10.78-9.19-15.32Z"/></g></g></svg>