<svg xmlns="http://www.w3.org/2000/svg" viewBox="0 0 277.08 197.53"><title>4</title><g id="Layer_2" data-name="Layer 2"><g id="burnographic"><g id="_2" data-name="2"><path d="M191.28,0V44.65H161.86A10.44,10.44,0,0,0,151.42,55.1v87.33a10.44,10.44,0,0,0,10.44,10.45h29.42v44.65l85.8-98.76Z"/><rect x="113.81" y="44.65" width="29.75" height="108.22" rx="10.44"/><path d="M86.65,44.65h4.5A10.45,10.45,0,0,1,101.59,55.1v87.33a10.45,10.45,0,0,1-10.45,10.45h-4.5A10.44,10.44,0,0,1,76.2,142.43V55.1A10.44,10.44,0,0,1,86.65,44.65Z"/><path d="M47.8,152.88a10.47,10.47,0,0,1-10.57-10.45V55.1a10.51,10.51,0,0,1,21,0v87.33A10.45,10.45,0,0,1,47.8,152.88Z"/><path d="M8.33,152.88c-4.6,0-8.33-4.68-8.33-10.45V55.1c0-5.77,3.73-10.45,8.33-10.45s8.33,4.68,8.33,10.45v87.33C16.66,148.2,12.93,152.88,8.33,152.88Z"/></g></g></g></svg>