<svg xmlns="http://www.w3.org/2000/svg" viewBox="0 0 276.94 256.7"><title>2</title><g id="Layer_2" data-name="Layer 2"><g id="burnographic"><g id="_2" data-name="2"><path d="M276.65,112.36,256,35.37c-1.18-4.38-4.73-5.33-7.94-2.12L235.75,45.59C148.67-40.36,30,6.26,0,94,49.09,26.84,139,12.58,204.33,77l-12.6,12.6c-3.21,3.2-2.25,6.76,2.13,7.93l77,20.63C275.23,119.34,277.83,116.74,276.65,112.36Z"/><path d="M.28,144.33l20.63,77c1.18,4.39,4.73,5.34,7.93,2.13L41.19,211.1c87.08,86,205.75,39.33,235.75-48.4-49.09,67.15-139,81.41-204.33,17L85.2,167.09c3.21-3.21,2.26-6.76-2.12-7.93l-77-20.63C1.71,137.35-.89,140,.28,144.33Z"/></g></g></g></svg>