<svg xmlns="http://www.w3.org/2000/svg" viewBox="0 0 130.06 208.56"><defs><style>.cls-1{fill:#7f7f7f;}.cls-2{fill:#fff;}</style></defs><title>c</title><g id="Layer_2" data-name="Layer 2"><g id="burnographic"><g id="_3" data-name="3"><g id="burned"><rect class="cls-1" x="2.34" y="2.34" width="125.37" height="203.87" rx="20"/><path d="M119.9,208.56H10.15A10.17,10.17,0,0,1,0,198.4V10.15A10.17,10.17,0,0,1,10.15,0H119.9a10.17,10.17,0,0,1,10.16,10.15V198.4A10.17,10.17,0,0,1,119.9,208.56ZM10.15,4.69a5.47,5.47,0,0,0-5.46,5.46V198.4a5.47,5.47,0,0,0,5.46,5.47H119.9a5.47,5.47,0,0,0,5.47-5.47V10.15a5.47,5.47,0,0,0-5.47-5.46Z"/><g id="piggie"><path d="M107.39,97c-.07-1.18-.28-3.37-2.66-3L102,91.18h0c-.23-.37-.42-.77-.68-1.12q-2.09-2.79-4.19-5.56h0c3.1-.11,3.72-2.72,4.74-4.84a14.34,14.34,0,0,0,1.31-3.72,52.16,52.16,0,0,0,.44-5.61.94.94,0,0,0-.59-.11c-2.16.89-4.32,1.8-6.46,2.75-1.4.62-2.76,1.35-4.15,2a5,5,0,0,1-1.11.25,6.14,6.14,0,0,0,.28-1.08q.33-3.3.59-6.61c0-.07-.32-.28-.44-.24-1.06.35-2.1.75-3.15,1.12-2.55.9-5.11,1.78-7.67,2.67a31,31,0,0,0-5.46-1.82c-3.55-.53-7.16-.68-10.74-1l-.92.95h0l.92-.95H62.6a49,49,0,0,0-5.27,1A18.46,18.46,0,0,0,54,71l.58.12L54,71c-1.41.35-2.85.59-4.21,1.07a25.39,25.39,0,0,0-3.68,1.77,16.28,16.28,0,0,0-3.3,2c-2.06,1.86-4,3.89-5.94,5.87a22.12,22.12,0,0,1-1.65,1.7c-.16.13-.67-.17-1-.27A11,11,0,0,0,35,81.29c.34-1.73,1.41-4,.69-5.11-1.75-2.69-4.51-1.49-6.7-.18-.58.35-.55,1.86-.63,2.85-.09,1.15,0,2.31,0,3.47-.11,0-.25.1-.33.06-1.54-.82-3.07-1.67-4.61-2.49-.17-.09-.48-.17-.6-.08a.64.64,0,0,0-.14.57,19.5,19.5,0,0,0,1.82,1.31c1,.62,2,1.2,2.94,1.79a30.64,30.64,0,0,1,3.24,2c2,1.58,4.15,3,3.36,6.29a10.86,10.86,0,0,0,.1,4.81c.77,3.35,1.84,6.62,2.79,9.93a4.54,4.54,0,0,0,.45.91c.41.53,1.33,1.35,1.27,1.44-1.43,1.84-3,3.59-4.49,5.35l-.26,12.23c-.29.3-.76.55-.86.9-.69,2.47,1.62,2.57,2.82,2.93,1.55.47,3.35.14,5,.09.29,0,.77-.28.82-.5.36-1.73.63-3.49.93-5.24.34-1.39.67-2.78,1.18-4.89a21.94,21.94,0,0,0,3.53-.81,16.31,16.31,0,0,0,3-2c.24.1.58.12.69.3,1.64,2.62,3.19,5.29,4.87,7.87a26.35,26.35,0,0,0,2.15,2.71l-.13.07.69.6c-.09,1.89,1.07,2.15,2.51,1.83a4.93,4.93,0,0,0,1.42-.92v11.85h1.16V129.49c.46-.33.9-.91,1.38-.94,2.3-.12,2.82-1.82,2.18-3.3-.48-1.12-2.18-1.71-3.33-2.53q-.12-3.23-.22-6.46c6.44-1.53,6.49,3.83,8,7.53a7.53,7.53,0,0,1,.28,1.73l-.87.51c.56.82,1.07,2.29,1.72,2.36a79,79,0,0,0,8.15.09,1,1,0,0,0,.64-.32c.08-.08,0-.37-.07-.54-.58-1.31-1.18-2.62-1.78-3.93.34-1.44.67-2.89,1-4.31,0-.12.52-.28.6-.21a23.11,23.11,0,0,0,2,1.93c1.9,1.31,3.87,2.51,5.81,3.75,0,.19,0,.53.08.54,1.75.4,3.78,1.48,5.2,1s2.37-2.62,3.24-4.18c.24-.43-.56-1.44-.88-2.18-1-.27-2.18-.27-2.84-.87a27.06,27.06,0,0,1-3.62-4.28,1.63,1.63,0,0,1,.36-1.54c2.52-1.08,5.13-2,7.64-3a8.62,8.62,0,0,0,2.19-1.8c.65-.62,1.24-1.33,1.85-2l3.9-3C106.85,101.32,107.51,99.14,107.39,97ZM75.33,90.27l-10.49-.18h0Zm9.09.93,2.72-.15-2.72.15,1.42,2.56L84.42,91.2c-.32-.07-.63-.16-1-.26l-.94-.26.94.26C83.79,91,84.1,91.13,84.42,91.2Zm14.12,6.22a4.56,4.56,0,0,0,.6,3.3c0,.15-.07.32-.11.5,0-.18.07-.35.11-.5A4.56,4.56,0,0,1,98.54,97.42ZM99,101.3c0,.09,0,.19-.06.27C99,101.49,99,101.39,99,101.3Zm-.07.32a1.55,1.55,0,0,1,0,.15A1.55,1.55,0,0,0,99,101.62ZM60.5,107.29a3.82,3.82,0,0,0-.27-.32A3.82,3.82,0,0,1,60.5,107.29Zm-.67-.78ZM70.72,96.08l-1,.07Zm3.15-.21L71.81,96l2.06-.14,3.27-.72ZM59.82,106.5h0a3.31,3.31,0,0,0,.25.3,3.31,3.31,0,0,1-.25-.3c0,1.94,0,3.87,0,5.81h0C59.81,110.37,59.81,108.44,59.82,106.5Zm42.3-12.17c-.25.07-.5.15-.73.24C101.62,94.48,101.87,94.4,102.12,94.33ZM64.71,70a.78.78,0,0,1-.2-.11A.78.78,0,0,0,64.71,70ZM59.36,88.89V90l-5.78.25h0L59.36,90V88.89c-.44-.11-.87-.27-1.31-.37C58.49,88.62,58.92,88.78,59.36,88.89Zm-11,28.88c.7-.25,1.39-.53,2.09-.8h0C49.7,117.24,49,117.52,48.31,117.77Z"/><path class="cls-2" d="M58.56,96.4H54.62c.75-.65,1.84-1.17,2.18-2s.09-2.14.09-3.63l-3.18,2.6-.48-2.81v-.2l2.49-.19c2.07,0,4.15.15,6.22.07,2.87-.1,2.9-.13,2.51,3.09l-3.11-2.6c-1,2.6-.24,4.44,2.19,5.66h-5Z"/><path class="cls-2" d="M87.4,96.32H75.71c2-1.1,2.51-3.19,3.35-5a1.67,1.67,0,0,1,1.58-1c2.16-.28,3.54.34,4.15,2.61A5.11,5.11,0,0,0,87.4,96.32Zm-8.79-2.16c0,.9.11,1.76,1.09,1.67.42,0,.77-.89,1.15-1.36l-.32-.31Zm2-.57-1-2.39-1,2.39Z"/><path class="cls-2" d="M65.09,96.27c1.38-.65,1.56-1.82,1.57-3.06s-.1-2.28-1.5-2.88h8.21c1.71,0,1.81.14,1.39,2.06l-4-1.86v2.39L73.17,92V94.4l-2.29-1c-.44,1.43-.18,1.73,2.61,2.84Z"/><path class="cls-2" d="M53.23,90.37v.2c-1.8.62-2.07,1-2.08,3.06,0,2.7,0,2.66-2.74,2.74a2.67,2.67,0,0,1-2.31-1c-.86-1-1.81-1.82-2.84-2.85-.1,2.32.25,2.87,2.44,3.65H41a2.87,2.87,0,0,0,1.51-2.89,2.82,2.82,0,0,0-1.45-3,51.2,51.2,0,0,1,5.68.07c.71.08,1.34.95,2,1.48s1,.86,1.49,1.34c.23-1.47-.14-2-1.73-2.88Z"/></g></g></g></g></g></svg>